<svg width="27" height="23" viewBox="0 0 27 23" fill="none" xmlns="http://www.w3.org/2000/svg">
<path d="M2.76554 22.1018H24.2345C24.7281 22.1018 25.2022 21.9128 25.5523 21.5753C25.9025 21.2377 26.1 20.779 26.1 20.2998V6.85431C26.1 6.37519 25.9025 5.91647 25.5523 5.57884C25.2022 5.24134 24.7281 5.05234 24.2345 5.05234H2.76554C2.27192 5.05234 1.79782 5.24134 1.44771 5.57884C1.09747 5.91647 0.9 6.37519 0.9 6.85431V20.2998C0.9 20.779 1.09747 21.2377 1.44771 21.5753C1.79783 21.9128 2.27192 22.1018 2.76554 22.1018ZM24.1345 6.95431V20.1998H2.86554V6.95431H24.1345Z" fill="#5746EC" stroke="#5746EC" stroke-width="0.2"/>
<path d="M2.76554 12.741H24.2345C24.7281 12.741 25.2022 12.552 25.5523 12.2145C25.9025 11.8769 26.1 11.4181 26.1 10.939V6.85431C26.1 6.37519 25.9025 5.91647 25.5523 5.57884C25.2022 5.24134 24.7281 5.05234 24.2345 5.05234H2.76554C2.27192 5.05234 1.79782 5.24134 1.44771 5.57884C1.09747 5.91647 0.9 6.37519 0.9 6.85431V10.939C0.9 11.4181 1.09747 11.8769 1.44771 12.2145C1.79782 12.552 2.27192 12.741 2.76554 12.741ZM24.1345 6.95431V10.839H2.86554V6.95431H24.1345Z" fill="#5746EC" stroke="#5746EC" stroke-width="0.2"/>
<path d="M20.229 6.95476H20.329V6.85476V3.55295C20.329 2.84813 20.0385 2.17296 19.5228 1.67575C19.0071 1.17865 18.3085 0.9 17.5807 0.9H9.42394C8.6962 0.9 7.99757 1.17865 7.4819 1.67575C6.96611 2.17296 6.67563 2.84814 6.67563 3.55295V6.85476V6.95476H6.77563H20.229ZM18.3635 5.0528H8.64117V3.55295C8.64117 3.35498 8.72272 3.16435 8.86913 3.02321C9.01567 2.88194 9.21518 2.80197 9.42394 2.80197H17.5807C17.7895 2.80197 17.989 2.88194 18.1355 3.02321C18.2819 3.16435 18.3635 3.35498 18.3635 3.55295V5.0528Z" fill="#5746EC" stroke="#5746EC" stroke-width="0.2"/>
</svg>
