<svg width="59" height="29" viewBox="0 0 59 29" fill="none" xmlns="http://www.w3.org/2000/svg">
<path d="M56.5 0H14.5C13.1193 0 12 1.11929 12 2.5C12 3.88071 13.1193 5 14.5 5H56.5C57.8807 5 59 3.88071 59 2.5C59 1.11929 57.8807 0 56.5 0Z" fill="#FFA901"/>
<path d="M56.5 24H14.5C13.1193 24 12 25.1193 12 26.5C12 27.8807 13.1193 29 14.5 29H56.5C57.8807 29 59 27.8807 59 26.5C59 25.1193 57.8807 24 56.5 24Z" fill="#FFA901"/>
<path d="M56.5 12H2.5C1.11929 12 0 13.1193 0 14.5C0 15.8807 1.11929 17 2.5 17H56.5C57.8807 17 59 15.8807 59 14.5C59 13.1193 57.8807 12 56.5 12Z" fill="#FFA901"/>
</svg>
