<svg width="18" height="18" viewBox="0 0 18 18" fill="none" xmlns="http://www.w3.org/2000/svg">
<path d="M17.15 9V8.99983C17.1476 6.83909 16.2882 4.76752 14.7604 3.23964C13.2325 1.71176 11.1609 0.85236 9.00017 0.85L9 0.85L8.85 0.849836V0.85138C7.29048 0.880078 5.77076 1.35579 4.47211 2.22352C3.13184 3.11906 2.08724 4.39191 1.47039 5.88113C0.853531 7.37035 0.692134 9.00904 1.0066 10.59C1.32107 12.1709 2.09729 13.6231 3.23708 14.7629C4.37688 15.9027 5.82907 16.6789 7.41002 16.9934C8.99096 17.3079 10.6297 17.1465 12.1189 16.5296C13.6081 15.9128 14.8809 14.8682 15.7765 13.5279C16.672 12.1876 17.15 10.6119 17.15 9ZM8.99982 16.1C7.59564 16.1 6.22299 15.6836 5.05545 14.9034C3.88787 14.1233 2.97784 13.0144 2.44046 11.717C1.90308 10.4197 1.76247 8.99212 2.03643 7.61486C2.31038 6.23759 2.98659 4.97249 3.97954 3.97954C4.9725 2.98659 6.2376 2.31038 7.61486 2.03642C8.99213 1.76247 10.4197 1.90307 11.7171 2.44046C13.0144 2.97784 14.1233 3.88786 14.9034 5.05545C15.6836 6.22299 16.1 7.59563 16.1 8.99982C16.0977 10.8822 15.349 12.6868 14.0179 14.0179C12.6869 15.3489 10.8822 16.0977 8.99982 16.1Z" fill="#5C5F62" stroke="#5C5F62" stroke-width="0.3"/>
<path d="M11.7309 6.3355L11.7334 6.33674L7.30693 10.69L6.1308 9.45191L6.13083 9.45188L6.12833 9.44937C6.0316 9.35226 5.90074 9.29682 5.76368 9.2949C5.62663 9.29299 5.49427 9.34474 5.39487 9.43912C5.29547 9.53349 5.23692 9.66299 5.23172 9.79996C5.22653 9.93692 5.27511 10.0705 5.36708 10.1721L5.36704 10.1721L5.36955 10.1748L6.9133 11.7998L6.91345 11.7999C6.96143 11.8503 7.01893 11.8906 7.08262 11.9186C7.14631 11.9465 7.21492 11.9615 7.28445 11.9627L7.28445 11.9627H7.28705H7.2933H7.29342C7.4309 11.9626 7.56285 11.9086 7.66092 11.8122L7.66098 11.8122L12.6172 6.93716L12.512 6.83022L12.6172 6.93716C12.6664 6.88879 12.7056 6.83121 12.7325 6.76771C12.7594 6.70421 12.7736 6.63602 12.7741 6.56705C12.7747 6.49808 12.7617 6.42967 12.7358 6.36574C12.7099 6.3018 12.6717 6.24358 12.6234 6.19441C12.575 6.14524 12.5174 6.10607 12.4539 6.07915C12.3904 6.05223 12.3222 6.03809 12.2533 6.03752C12.1843 6.03695 12.1159 6.04997 12.0519 6.07584C11.988 6.10171 11.9298 6.13992 11.8806 6.18828L11.7309 6.3355Z" fill="#5C5F62" stroke="#5C5F62" stroke-width="0.3"/>
</svg>
