<svg width="20" height="20" viewBox="0 0 20 20" fill="none" xmlns="http://www.w3.org/2000/svg">
<path d="M9.99994 0.1C12.6247 0.103018 15.141 1.14702 16.997 3.00299C18.853 4.85897 19.897 7.37535 19.9 10.0001C19.9 11.9581 19.3193 13.8721 18.2315 15.5001C17.1437 17.1282 15.5975 18.3971 13.7886 19.1464C11.9796 19.8957 9.98901 20.0917 8.0686 19.7097C6.14819 19.3278 4.38418 18.3849 2.99964 17.0003C1.61511 15.6158 0.672223 13.8518 0.29023 11.9314C-0.0917632 10.011 0.10429 8.02041 0.853596 6.21143C1.6029 4.40244 2.87181 2.85627 4.49985 1.76845C6.12788 0.680634 8.04192 0.100011 9.99994 0.1ZM17.6 10.0001V9.99999C17.6 8.49685 17.1542 7.02747 16.3192 5.77766C15.4841 4.52785 14.2971 3.55374 12.9084 2.97851C11.5197 2.40329 9.99156 2.25278 8.51731 2.54603C7.04305 2.83928 5.68886 3.5631 4.62599 4.62598C3.56311 5.68886 2.83928 7.04305 2.54603 8.5173C2.25279 9.99156 2.40329 11.5197 2.97852 12.9084C3.55374 14.2971 4.52785 15.484 5.77766 16.3191C7.02747 17.1542 8.49685 17.6 9.99999 17.6V17.5L10.0001 17.6C12.015 17.5978 13.9468 16.7964 15.3716 15.3716C16.7964 13.9468 17.5978 12.015 17.6 10.0001Z" fill="#5746EC" stroke="white" stroke-width="0.2"/>
<path d="M11.15 8.74999V8.84999H11.25H13.75C14.055 8.84999 14.3475 8.97115 14.5632 9.18682C14.7788 9.40249 14.9 9.69499 14.9 9.99999C14.9 10.305 14.7788 10.5975 14.5632 10.8132C14.3475 11.0288 14.055 11.15 13.75 11.15H10H9.99994C9.84891 11.1501 9.69933 11.1204 9.55978 11.0626C9.42022 11.0049 9.29342 10.9202 9.18662 10.8134C9.07982 10.7066 8.99512 10.5798 8.93736 10.4402C8.8796 10.3007 8.84991 10.1511 8.85 10V9.99999V6.25C8.85 5.945 8.97116 5.65249 9.18683 5.43683C9.40249 5.22116 9.695 5.1 10 5.1C10.305 5.1 10.5975 5.22116 10.8132 5.43683C11.0288 5.65249 11.15 5.945 11.15 6.25V8.74999Z" fill="#5746EC" stroke="white" stroke-width="0.2"/>
</svg>
