<svg width="22" height="22" viewBox="0 0 22 22" fill="none" xmlns="http://www.w3.org/2000/svg">
<path d="M13.7791 0.987884C15.0916 -0.329297 17.2197 -0.329297 18.5324 0.987898C19.8449 2.30508 19.8449 4.44066 18.5324 5.75784L16.7841 7.51215L16.9021 7.63054C17.976 8.70819 17.976 10.4554 16.9021 11.5331L14.9231 13.519C14.6546 13.7885 14.2193 13.7885 13.9508 13.519C13.6824 13.2495 13.6824 12.8128 13.9508 12.5434L15.9299 10.5574C16.4668 10.0186 16.4668 9.145 15.9299 8.60617L15.8119 8.48779L6.6734 17.6583C6.58529 17.7466 6.4749 17.8093 6.35402 17.8397L0.854227 19.2195C0.610806 19.2804 0.353553 19.2036 0.183073 19.0188C0.012593 18.8341 -0.044055 18.5708 0.0352933 18.332L1.75398 13.1579C1.78774 13.0564 1.84459 12.9639 1.92006 12.8883L13.7791 0.987884Z" fill="#5746EC"/>
<path d="M1.74418 20.4882C1.72049 20.4708 1.69704 20.4536 1.67383 20.4363L3.5283 19.9711C4.268 20.3442 5.16175 20.6201 6.18746 20.6201C6.88457 20.6201 7.58153 20.3752 8.2964 19.9667C9.01433 19.5565 9.7045 19.0087 10.3944 18.4463L10.5733 18.3001C11.185 17.8 11.8136 17.2862 12.4124 16.9322C13.0611 16.5486 13.8469 16.2462 14.6545 16.5165C15.7839 16.8942 16.1407 17.9373 16.4707 19.0425C16.5461 19.2951 16.6754 19.5446 16.8286 19.7173C16.981 19.8891 17.1033 19.9304 17.1871 19.9304C17.444 19.9304 17.8139 19.7899 18.2835 19.512C18.58 19.3365 18.8377 19.1579 19.0919 18.9814C19.2473 18.8736 19.4018 18.7666 19.5628 18.6617C19.9999 18.3773 20.377 18.1875 20.6504 18.0672C20.7872 18.007 20.8985 17.9641 20.9785 17.9353C21.0185 17.9209 21.0508 17.91 21.0747 17.9023L21.1042 17.8929L21.1141 17.89L21.1176 17.8889L21.1193 17.8885L21.3119 18.5506C21.1205 17.8881 21.1194 17.8883 21.1193 17.8885C21.4839 17.7824 21.8666 17.9927 21.9722 18.3586C22.0776 18.7235 21.8692 19.105 21.5065 19.2124L21.497 19.2153C21.4867 19.2187 21.4681 19.2248 21.4423 19.2342C21.3903 19.2528 21.3088 19.2841 21.2026 19.3307C20.99 19.4243 20.6796 19.5795 20.3111 19.8193C20.2136 19.8828 20.0892 19.9686 19.9487 20.0656C19.6628 20.2629 19.31 20.5063 18.9819 20.7006C18.4839 20.9953 17.8391 21.3101 17.1871 21.3101C16.5833 21.3101 16.1158 20.9891 15.8017 20.6347C15.488 20.2813 15.2737 19.841 15.1535 19.4385C14.7926 18.2293 14.5843 17.9473 14.2198 17.8253C13.9961 17.7505 13.6649 17.793 13.1105 18.1208C12.6066 18.4189 12.06 18.8651 11.4223 19.3858L11.2614 19.5171C10.5764 20.0757 9.80568 20.692 8.97678 21.1657C8.14482 21.6411 7.20904 21.9999 6.18746 21.9999C4.27936 21.9999 2.76539 21.2334 1.74418 20.4882Z" fill="#5746EC"/>
</svg>
