<svg width="20" height="20" viewBox="0 0 20 20" fill="none" xmlns="http://www.w3.org/2000/svg">
<path d="M18.1818 17.2636H17.4636V1.81818C17.4636 1.57467 17.3669 1.34112 17.1947 1.16893C17.0225 0.996737 16.789 0.9 16.5455 0.9H3.45455C3.21103 0.9 2.97749 0.996737 2.80529 1.16893C2.6331 1.34112 2.53636 1.57466 2.53636 1.81818V17.2636H1.81818C1.57467 17.2636 1.34112 17.3604 1.16893 17.5326C0.996737 17.7048 0.9 17.9383 0.9 18.1818C0.9 18.4253 0.996737 18.6589 1.16893 18.8311C1.34112 19.0033 1.57467 19.1 1.81818 19.1H18.1818C18.4253 19.1 18.6589 19.0033 18.8311 18.8311C19.0033 18.6589 19.1 18.4253 19.1 18.1818C19.1 17.9383 19.0033 17.7048 18.8311 17.5326C18.6589 17.3604 18.4253 17.2636 18.1818 17.2636ZM8.46364 17.2636V15.8273H11.5364V17.2636H8.46364ZM13.3727 17.2636V14.9091C13.3727 14.6656 13.276 14.432 13.1038 14.2598C12.9316 14.0876 12.6981 13.9909 12.4545 13.9909H7.54545C7.30194 13.9909 7.06839 14.0876 6.8962 14.2598C6.72401 14.432 6.62727 14.6656 6.62727 14.9091V17.2636H4.37273V2.73636H15.6273V17.2636H13.3727Z" fill="#5746EC" stroke="#5746EC" stroke-width="0.2"/>
</svg>
