<svg width="24" height="24" viewBox="0 0 24 24" fill="none" xmlns="http://www.w3.org/2000/svg">
<path d="M12 23.95C8.83066 23.95 5.79113 22.691 3.55007 20.4499C1.30901 18.2089 0.05 15.1693 0.05 12C0.05 8.83066 1.30901 5.79113 3.55007 3.55007C5.79113 1.30901 8.83066 0.05 12 0.05C15.1693 0.05 18.2089 1.30901 20.4499 3.55007C22.691 5.79113 23.95 8.83066 23.95 12C23.95 15.1693 22.691 18.2089 20.4499 20.4499C18.2089 22.691 15.1693 23.95 12 23.95ZM12 21.65C14.5593 21.65 17.0139 20.6333 18.8236 18.8236C20.6333 17.0139 21.65 14.5593 21.65 12C21.65 9.44066 20.6333 6.98615 18.8236 5.17642C17.0139 3.36669 14.5593 2.35 12 2.35C9.44066 2.35 6.98615 3.36669 5.17642 5.17642C3.36669 6.98615 2.35 9.44066 2.35 12C2.35 14.5593 3.36669 17.0139 5.17642 18.8236C6.98615 20.6333 9.44066 21.65 12 21.65ZM12 10.85C12.305 10.85 12.5975 10.9712 12.8132 11.1868C13.0288 11.4025 13.15 11.695 13.15 12V16.8C13.15 17.105 13.0288 17.3975 12.8132 17.6132C12.5975 17.8288 12.305 17.95 12 17.95C11.695 17.95 11.4025 17.8288 11.1868 17.6132C10.9712 17.3975 10.85 17.105 10.85 16.8V12C10.85 11.695 10.9712 11.4025 11.1868 11.1868C11.4025 10.9712 11.695 10.85 12 10.85ZM12 6.05C12.305 6.05 12.5975 6.17116 12.8132 6.38683C13.0288 6.60249 13.15 6.895 13.15 7.2C13.15 7.505 13.0288 7.79751 12.8132 8.01317C12.5975 8.22884 12.305 8.35 12 8.35C11.695 8.35 11.4025 8.22884 11.1868 8.01317C10.9712 7.79751 10.85 7.505 10.85 7.2C10.85 6.895 10.9712 6.60249 11.1868 6.38683C11.4025 6.17116 11.695 6.05 12 6.05Z" fill="black" stroke="white" stroke-width="0.1"/>
</svg>
