<svg width="23" height="22" viewBox="0 0 23 22" fill="none" xmlns="http://www.w3.org/2000/svg">
<path d="M1.06461 9.83305H8.76844C9.35654 9.83305 9.83305 9.35619 9.83305 8.76844V1.06461C9.83305 0.476851 9.35654 0 8.76844 0H1.06461C0.476511 0 0 0.476858 0 1.06461V8.76844C0 9.3562 0.476511 9.83305 1.06461 9.83305ZM2.12921 2.12921H7.70384V7.70384H2.12921V2.12921Z" fill="url(#paint0_linear_4_8)"/>
<path d="M20.9393 0H13.2355C12.6474 0 12.1709 0.476858 12.1709 1.06461V8.76844C12.1709 9.3562 12.6474 9.83305 13.2355 9.83305H20.9393C21.5274 9.83305 22.0039 9.35619 22.0039 8.76844V1.06461C22.0039 0.476858 21.5274 0 20.9393 0ZM19.8747 7.70384H14.3001V2.12921H19.8747V7.70384Z" fill="url(#paint1_linear_4_8)"/>
<path d="M1.06461 21.9998H8.76844C9.35654 21.9998 9.83305 21.5229 9.83305 20.9352V13.2314C9.83305 12.6436 9.35654 12.1667 8.76844 12.1667H1.06461C0.476511 12.1667 0 12.6436 0 13.2314V20.9352C0 21.5229 0.476511 21.9998 1.06461 21.9998ZM2.12921 14.296H7.70384V19.8706H2.12921V14.296Z" fill="url(#paint2_linear_4_8)"/>
<path d="M20.9393 12.1667H13.2355C12.6474 12.1667 12.1709 12.6436 12.1709 13.2314V20.9352C12.1709 21.5229 12.6474 21.9998 13.2355 21.9998H20.9393C21.5274 21.9998 22.0039 21.5229 22.0039 20.9352V13.2314C22.0039 12.6436 21.5274 12.1667 20.9393 12.1667ZM19.8747 19.8706H14.3001V14.296H19.8747V19.8706Z" fill="url(#paint3_linear_4_8)"/>
<defs>
<linearGradient id="paint0_linear_4_8" x1="0" y1="5.04259" x2="9.83305" y2="5.04259" gradientUnits="userSpaceOnUse">
<stop/>
<stop offset="1"/>
</linearGradient>
<linearGradient id="paint1_linear_4_8" x1="12.1709" y1="5.04259" x2="22.0039" y2="5.04259" gradientUnits="userSpaceOnUse">
<stop/>
<stop offset="1"/>
</linearGradient>
<linearGradient id="paint2_linear_4_8" x1="0" y1="17.2093" x2="9.83305" y2="17.2093" gradientUnits="userSpaceOnUse">
<stop/>
<stop offset="1"/>
</linearGradient>
<linearGradient id="paint3_linear_4_8" x1="12.1709" y1="17.2093" x2="22.0039" y2="17.2093" gradientUnits="userSpaceOnUse">
<stop/>
<stop offset="1"/>
</linearGradient>
</defs>
</svg>
