<svg width="22" height="20" viewBox="0 0 22 20" fill="none" xmlns="http://www.w3.org/2000/svg">
<path d="M16.35 2.85714V3.00714H16.5H20.625V2.85714L20.6251 3.00714C20.7852 3.00705 20.9438 3.03973 21.0921 3.10347C21.2403 3.16722 21.3754 3.26086 21.4894 3.37934C21.6035 3.49784 21.6942 3.63883 21.7562 3.79441C21.8182 3.94999 21.8501 4.11693 21.85 4.28563V4.28571V18.5714V18.5715C21.8501 18.7402 21.8182 18.9072 21.7562 19.0627C21.6942 19.2183 21.6035 19.3593 21.4894 19.4778C21.3754 19.5963 21.2403 19.6899 21.0921 19.7537C20.9438 19.8174 20.7852 19.8501 20.6251 19.85H20.625H1.375H1.37491C1.21484 19.8501 1.05618 19.8174 0.907944 19.7537C0.759695 19.6899 0.624611 19.5963 0.510573 19.4778C0.396524 19.3593 0.305783 19.2183 0.243807 19.0627C0.181829 18.9071 0.149908 18.7402 0.15 18.5715V18.5714L0.15 4.28571L0.15 4.28563C0.149908 4.11693 0.181829 3.94999 0.243807 3.79441C0.305783 3.63883 0.396524 3.49784 0.510573 3.37934C0.624611 3.26086 0.759694 3.16722 0.907944 3.10347C1.05618 3.03973 1.21484 3.00705 1.37491 3.00714H1.375H5.5H5.65V2.85714V1.42857C5.65 1.08766 5.7804 0.761816 6.0108 0.522439C6.24101 0.283257 6.552 0.15 6.875 0.15C7.198 0.15 7.50899 0.283257 7.7392 0.522439C7.9696 0.761816 8.1 1.08766 8.1 1.42857V2.85714V3.00714H8.25H13.75H13.9V2.85714V1.42857C13.9 1.08766 14.0304 0.761816 14.2608 0.522439C14.491 0.283257 14.802 0.15 15.125 0.15C15.448 0.15 15.759 0.283257 15.9892 0.522439C16.2196 0.761816 16.35 1.08766 16.35 1.42857V2.85714ZM19.25 17.2929H19.4V17.1429V5.71429V5.56429H19.25H16.5H16.35V5.71429V7.14286C16.35 7.48377 16.2196 7.80961 15.9892 8.04899C15.759 8.28817 15.448 8.42143 15.125 8.42143C14.802 8.42143 14.491 8.28817 14.2608 8.04899C14.0304 7.80961 13.9 7.48377 13.9 7.14286V5.71429V5.56429H13.75H8.25H8.1V5.71429V7.14286C8.1 7.48377 7.9696 7.80961 7.7392 8.04899C7.50899 8.28817 7.198 8.42143 6.875 8.42143C6.552 8.42143 6.24101 8.28817 6.0108 8.04899C5.7804 7.80961 5.65 7.48377 5.65 7.14286V5.71429V5.56429H5.5H2.75H2.6V5.71429V17.1429V17.2929H2.75H19.25Z" fill="#5746EC" stroke="white" stroke-width="0.3"/>
</svg>
