<svg width="60" height="60" viewBox="0 0 60 60" fill="none" xmlns="http://www.w3.org/2000/svg">
<circle cx="30" cy="30" r="30" fill="#D0FAFF"/>
<circle cx="30" cy="30" r="29.5" stroke="#03C4DC" stroke-opacity="0.2"/>
<path d="M29.628 17.88C31.764 17.88 33.612 18.288 35.172 19.104C36.732 19.896 38.052 21.072 39.132 22.632L36.54 25.116C35.628 23.724 34.596 22.728 33.444 22.128C32.316 21.504 30.972 21.192 29.412 21.192C28.26 21.192 27.312 21.348 26.568 21.66C25.824 21.972 25.272 22.392 24.912 22.92C24.576 23.424 24.408 24 24.408 24.648C24.408 25.392 24.66 26.04 25.164 26.592C25.692 27.144 26.664 27.576 28.08 27.888L32.904 28.968C35.208 29.472 36.84 30.24 37.8 31.272C38.76 32.304 39.24 33.612 39.24 35.196C39.24 36.66 38.844 37.932 38.052 39.012C37.26 40.092 36.156 40.92 34.74 41.496C33.348 42.072 31.704 42.36 29.808 42.36C28.128 42.36 26.616 42.144 25.272 41.712C23.928 41.28 22.752 40.692 21.744 39.948C20.736 39.204 19.908 38.352 19.26 37.392L21.924 34.728C22.428 35.568 23.064 36.324 23.832 36.996C24.6 37.644 25.488 38.148 26.496 38.508C27.528 38.868 28.668 39.048 29.916 39.048C31.02 39.048 31.968 38.916 32.76 38.652C33.576 38.388 34.188 38.004 34.596 37.5C35.028 36.972 35.244 36.348 35.244 35.628C35.244 34.932 35.004 34.32 34.524 33.792C34.068 33.264 33.204 32.856 31.932 32.568L26.712 31.38C25.272 31.068 24.084 30.624 23.148 30.048C22.212 29.472 21.516 28.776 21.06 27.96C20.604 27.12 20.376 26.184 20.376 25.152C20.376 23.808 20.736 22.596 21.456 21.516C22.2 20.412 23.268 19.536 24.66 18.888C26.052 18.216 27.708 17.88 29.628 17.88Z" fill="#03C4DC"/>
</svg>
