<svg width="20" height="20" viewBox="0 0 20 20" fill="none" xmlns="http://www.w3.org/2000/svg">
<path d="M1.75973 12.8314L1.86579 12.9374C1.75733 13.0459 1.68742 13.1869 1.66681 13.3389L1.51818 13.3188L1.51817 13.3188L0.857736 18.1844L1.00637 18.2045L0.857735 18.1844C0.822001 18.4478 0.911334 18.7127 1.09932 18.9007C1.26001 19.0614 1.47695 19.15 1.70112 19.15C1.7391 19.15 1.77737 19.1475 1.81565 19.1423C1.81567 19.1423 1.81569 19.1423 1.81571 19.1423L6.68122 18.4818L6.66104 18.3332L6.68122 18.4818C6.86571 18.4568 7.03694 18.372 7.16862 18.2403C7.16862 18.2403 7.16863 18.2403 7.16863 18.2403L18.5951 6.81384C18.9528 6.45621 19.15 5.97996 19.15 5.47423C19.15 4.96845 18.9528 4.49221 18.5951 4.13458L15.8655 1.40491C15.8655 1.40491 15.8655 1.40491 15.8655 1.40491C15.5078 1.04725 15.0316 0.85 14.5258 0.85C14.0201 0.85 13.5439 1.04725 13.1862 1.4049L1.75973 12.8314ZM17.3914 5.61008L17.3914 5.61009L15.3269 7.67459L12.3254 4.67312L14.3899 2.60864C14.4387 2.5599 14.4951 2.55232 14.5258 2.55232C14.5565 2.55232 14.613 2.5599 14.6617 2.60863C14.6618 2.60864 14.6618 2.60864 14.6618 2.60865L17.3914 5.33831C17.4401 5.38701 17.4477 5.44348 17.4477 5.47419C17.4477 5.50488 17.4401 5.56136 17.3914 5.61008ZM14.1231 8.87832L6.16785 16.8336L2.69499 17.305L3.16639 13.8321L11.1217 5.87685L14.1231 8.87832Z" fill="#5C5F62" stroke="#5C5F62" stroke-width="0.3"/>
</svg>
