<svg width="11" height="18" viewBox="0 0 11 18" fill="none" xmlns="http://www.w3.org/2000/svg">
<path d="M6.775 2.57143V2.67143H6.875H9.625C9.96524 2.67143 10.2903 2.79787 10.529 3.02105C10.7674 3.24401 10.9 3.54492 10.9 3.85714C10.9 4.16936 10.7674 4.47028 10.529 4.69324C10.2903 4.91641 9.96524 5.04286 9.625 5.04286H4.125C3.73589 5.04286 3.36148 5.18733 3.08443 5.44639C2.80715 5.70567 2.65 6.05881 2.65 6.42857C2.65 6.79833 2.80715 7.15148 3.08443 7.41075C3.36148 7.66981 3.73589 7.81429 4.125 7.81429H6.875C7.94458 7.81429 8.96912 8.21165 9.72352 8.91706C10.4777 9.62226 10.9 10.5772 10.9 11.5714C10.9 12.5656 10.4777 13.5206 9.72352 14.2258C8.96912 14.9312 7.94458 15.3286 6.875 15.3286H6.775V15.4286V16.7143C6.775 17.0265 6.64242 17.3274 6.40397 17.5504C6.1653 17.7736 5.84024 17.9 5.5 17.9C5.15976 17.9 4.8347 17.7736 4.59603 17.5504C4.35758 17.3274 4.225 17.0265 4.225 16.7143V15.4286V15.3286H4.125H1.375C1.03476 15.3286 0.709701 15.2021 0.471027 14.979C0.232581 14.756 0.1 14.4551 0.1 14.1429C0.1 13.8306 0.232581 13.5297 0.471027 13.3068C0.709701 13.0836 1.03476 12.9571 1.375 12.9571H6.875C7.26411 12.9571 7.63852 12.8127 7.91557 12.5536C8.19285 12.2943 8.35 11.9412 8.35 11.5714C8.35 11.2017 8.19285 10.8485 7.91557 10.5892C7.63852 10.3302 7.26411 10.1857 6.875 10.1857H4.125C3.05542 10.1857 2.03088 9.78835 1.27648 9.08294C0.522313 8.37774 0.1 7.42278 0.1 6.42857C0.1 5.43436 0.522313 4.4794 1.27648 3.7742C2.03088 3.06879 3.05542 2.67143 4.125 2.67143H4.225V2.57143V1.28571C4.225 0.973492 4.35758 0.672582 4.59603 0.449619C4.8347 0.226444 5.15976 0.1 5.5 0.1C5.84024 0.1 6.1653 0.226444 6.40397 0.449619C6.64242 0.672582 6.775 0.973492 6.775 1.28571V2.57143Z" fill="#5746EC" stroke="white" stroke-width="0.2"/>
</svg>
