<svg width="15" height="24" viewBox="0 0 15 24" fill="none" xmlns="http://www.w3.org/2000/svg">
<path d="M8.7 3.42857V3.72857H9H12.6C13.0024 3.72857 13.3856 3.88096 13.6659 4.14792C13.9457 4.4144 14.1 4.77262 14.1 5.14286C14.1 5.5131 13.9457 5.87131 13.6659 6.1378C13.3856 6.40476 13.0024 6.55714 12.6 6.55714H5.4C4.84764 6.55714 4.31514 6.76598 3.92031 7.142C3.52499 7.5185 3.3 8.03235 3.3 8.57143C3.3 9.1105 3.52499 9.62436 3.92031 10.0009C4.31514 10.3769 4.84764 10.5857 5.4 10.5857H9C10.3572 10.5857 11.656 11.0993 12.6115 12.0093C13.5664 12.9187 14.1 14.149 14.1 15.4286C14.1 16.7081 13.5664 17.9384 12.6115 18.8479C11.656 19.7578 10.3572 20.2714 9 20.2714H8.7V20.5714V22.2857C8.7 22.656 8.54571 23.0142 8.2659 23.2807C7.98559 23.5476 7.60242 23.7 7.2 23.7C6.79758 23.7 6.41441 23.5476 6.13411 23.2807C5.8543 23.0142 5.7 22.656 5.7 22.2857V20.5714V20.2714H5.4H1.8C1.39758 20.2714 1.01441 20.119 0.734104 19.8521C0.454295 19.5856 0.3 19.2274 0.3 18.8571C0.3 18.4869 0.454295 18.1287 0.734104 17.8622C1.01441 17.5952 1.39758 17.4429 1.8 17.4429H9C9.55236 17.4429 10.0849 17.234 10.4797 16.858C10.875 16.4815 11.1 15.9676 11.1 15.4286C11.1 14.8895 10.875 14.3756 10.4797 13.9991C10.0849 13.6231 9.55236 13.4143 9 13.4143H5.4C4.0428 13.4143 2.74396 12.9007 1.78852 11.9907C0.833579 11.0813 0.3 9.85098 0.3 8.57143C0.3 7.29188 0.833579 6.06159 1.78852 5.15212C2.74396 4.24218 4.0428 3.72857 5.4 3.72857H5.7V3.42857V1.71429C5.7 1.34405 5.8543 0.985829 6.13411 0.719344C6.41441 0.452385 6.79758 0.3 7.2 0.3C7.60242 0.3 7.98559 0.452385 8.2659 0.719344C8.54571 0.985829 8.7 1.34405 8.7 1.71429V3.42857Z" fill="#212121" stroke="white" stroke-width="0.6"/>
</svg>
