<svg width="18" height="18" viewBox="0 0 18 18" fill="none" xmlns="http://www.w3.org/2000/svg">
<path d="M16.5458 3.88033L16.6165 3.80962C16.9282 4.12126 17.1 4.53611 17.1 4.97685C17.1 5.41754 16.9282 5.8324 16.6165 6.14404L6.45966 16.3009C6.45965 16.3009 6.45965 16.3009 6.45965 16.3009C6.34776 16.4128 6.20226 16.4849 6.04549 16.5061L6.03204 16.4071L6.04549 16.5061L1.72058 17.0932C1.72057 17.0932 1.72055 17.0932 1.72054 17.0932C1.68802 17.0976 1.6555 17.0998 1.62322 17.0998L16.5458 3.88033ZM16.5458 3.88033L16.6165 3.80962L14.1902 1.38324C13.8785 1.07158 13.4637 0.899756 13.023 0.899756C12.5823 0.899756 12.1674 1.07158 11.8558 1.38324L1.69888 11.5401C1.58701 11.652 1.51489 11.7975 1.49363 11.9542C1.49363 11.9542 1.49363 11.9542 1.49363 11.9543L0.906574 16.2792L0.906573 16.2792C0.876209 16.5031 0.952118 16.7282 1.11185 16.8879L16.5458 3.88033ZM15.5937 5.12117L15.5937 5.12118L13.735 6.97987L11.0199 4.26475L12.8786 2.40609C12.9305 2.35421 12.9907 2.34626 13.023 2.34626C13.0552 2.34626 13.1155 2.35421 13.1674 2.40609L15.5937 4.83246C15.6456 4.8843 15.6535 4.94458 15.6535 4.97682C15.6535 5.00904 15.6456 5.06932 15.5937 5.12117ZM12.7121 8.00271L5.60927 15.1056L2.46774 15.532L2.89416 12.3905L9.99706 5.28759L12.7121 8.00271Z" fill="white" stroke="white" stroke-width="0.2"/>
</svg>
