<svg width="20" height="24" viewBox="0 0 20 24" fill="none" xmlns="http://www.w3.org/2000/svg">
<path d="M2.95334 16.961L2.95508 16.9593L2.92003 16.9239C1.14653 15.1339 0.05 12.6729 0.05 9.95477C0.05 4.48498 4.48498 0.05 9.95477 0.05C15.425 0.05 19.8595 4.48498 19.8595 9.95477C19.8595 13.0342 18.4541 15.7853 16.249 17.6022L16.2488 17.602L16.2454 17.6054L9.92159 23.9293L2.95334 16.961ZM14.8051 15.8501L14.8051 15.8501C16.5749 14.3924 17.5894 12.2437 17.5894 9.95477C17.5894 5.7452 14.1643 2.32018 9.95477 2.32018C5.7452 2.32018 2.32018 5.7452 2.32018 9.95477C2.32018 11.9784 3.10614 13.8862 4.53277 15.3262L4.53278 15.3262L4.95372 15.7509L4.95388 15.7511L9.88623 20.6834L9.92159 20.7188L9.95694 20.6834L14.6399 16L14.7188 15.9211L14.8051 15.8501Z" fill="#5746EC" stroke="white" stroke-width="0.1"/>
<path d="M6.20894 9.95538C6.20894 7.8887 7.88455 6.21309 9.95123 6.21309C12.0179 6.21309 13.6935 7.8887 13.6935 9.95538C13.6935 12.0221 12.0179 13.6977 9.95123 13.6977C7.88455 13.6977 6.20894 12.0221 6.20894 9.95538ZM8.47912 9.95538C8.47912 10.767 9.13956 11.4275 9.95123 11.4275C10.7634 11.4275 11.4233 10.767 11.4233 9.95538C11.4233 9.14371 10.7629 8.48327 9.95123 8.48327C9.13956 8.48327 8.47912 9.14371 8.47912 9.95538Z" fill="#5746EC" stroke="white" stroke-width="0.1"/>
</svg>
