<svg width="22" height="22" viewBox="0 0 22 22" fill="none" xmlns="http://www.w3.org/2000/svg">
<path d="M20.0909 19.0818H19.2818V1.90909C19.2818 1.64146 19.1755 1.3848 18.9863 1.19556C18.797 1.00631 18.5404 0.9 18.2727 0.9H3.72727C3.45965 0.9 3.20298 1.00631 3.01374 1.19556C2.8245 1.3848 2.71818 1.64146 2.71818 1.90909V19.0818H1.90909C1.64146 19.0818 1.3848 19.1881 1.19556 19.3774C1.00631 19.5666 0.9 19.8233 0.9 20.0909C0.9 20.3585 1.00631 20.6152 1.19556 20.8044C1.3848 20.9937 1.64146 21.1 1.90909 21.1H20.0909C20.3585 21.1 20.6152 20.9937 20.8044 20.8044C20.9937 20.6152 21.1 20.3585 21.1 20.0909C21.1 19.8233 20.9937 19.5666 20.8044 19.3774C20.6152 19.1881 20.3585 19.0818 20.0909 19.0818ZM9.28182 19.0818V17.4636H12.7182V19.0818H9.28182ZM14.7364 19.0818V16.4545C14.7364 16.1869 14.63 15.9303 14.4408 15.741C14.2516 15.5518 13.9949 15.4455 13.7273 15.4455H8.27273C8.0051 15.4455 7.74843 15.5518 7.55919 15.741C7.36995 15.9303 7.26364 16.1869 7.26364 16.4545V19.0818H4.73636V2.91818H17.2636V19.0818H14.7364Z" fill="#5746EC" stroke="#5746EC" stroke-width="0.2"/>
</svg>
