<svg width="21" height="20" viewBox="0 0 21 20" fill="none" xmlns="http://www.w3.org/2000/svg">
<path d="M4.8045 19.8677L0.391262 19.8457C0.387211 19.5156 0.488831 18.2622 0.459122 17.8528C0.425361 17.3961 0.412193 15.602 0.406116 15.1558C0.400377 14.7101 0.436839 12.7223 0.44798 12.1674C0.462835 11.4256 0.433463 10.6837 0.433463 9.94189C0.433463 8.86567 0.433463 7.62325 0.433463 6.64631C0.433463 6.64631 3.55096 6.26311 4.71301 6.64631L4.72618 7.3225C4.72449 7.6973 4.7201 9.19003 4.73529 9.5548C4.77074 10.3946 4.84333 11.3738 4.80855 12.2211C4.77412 13.067 4.79471 14.2351 4.81767 15.0639C4.86797 16.8881 4.83354 18.148 4.8045 19.8677ZM3.69984 0.20133C2.33623 -0.385929 0.482079 0.361081 0.0759342 1.79851C-0.148914 2.59306 0.136029 3.59392 0.792343 4.04827C4.06817 6.31485 7.01855 1.63035 3.69984 0.20133ZM21 13.5146C20.9986 12.8433 20.8541 10.6718 20.816 10.2585C20.786 9.93315 20.786 9.93316 20.6783 9.25373C20.6111 8.83043 20.2978 8.45563 19.998 8.14389C19.1431 7.25459 18.2134 6.85683 17.056 6.47039C16.1104 6.1551 15.3555 6.39698 14.421 6.51567C13.3508 6.65084 11.7059 8.45336 11.7059 8.45336C11.6411 8.03556 11.7059 7.15337 11.6425 6.6434C10.9615 6.59586 10.3865 6.63208 9.65798 6.60266C9.02834 6.57678 8.30282 6.61462 7.47263 6.60266C7.47263 6.60266 7.44157 8.6115 7.42672 9.20781C7.41153 9.80736 7.43313 10.4082 7.42672 11.0081C7.41524 12.1296 7.49424 13.3393 7.54184 14.4689C7.61916 16.3135 7.51416 18.2544 7.51889 20H7.93313C9.25184 20 10.4325 20 11.7518 20C11.7518 20 11.7637 18.3178 11.7289 17.8405C11.6782 17.1371 11.6826 12.6622 11.7518 11.8246C11.8211 10.9874 12.7475 9.90405 14.2363 9.90761C14.7886 9.9089 15.5331 9.99427 15.951 10.3814C16.2012 10.6129 16.5385 11.4178 16.6296 12.2602C16.7211 13.1026 16.6749 17.4417 16.6749 19.956L20.9541 20C20.6938 19.4616 21.001 14.2807 21 13.5146Z" fill="#5746EC"/>
</svg>
