<svg width="20" height="20" viewBox="0 0 20 20" fill="none" xmlns="http://www.w3.org/2000/svg">
<path d="M19.2918 12.4666C19.1438 12.2297 18.9006 12.0691 18.6246 12.0243L12.5227 11.0452C12.236 10.998 11.9449 11.0843 11.7282 11.2765C11.2437 11.7049 10.855 12.2077 10.5746 12.7627C9.88721 12.3715 9.25402 11.887 8.68321 11.3168C8.11302 10.746 7.62852 10.1128 7.23726 9.4254C7.79233 9.14503 8.2951 8.7563 8.72353 8.27179C8.91569 8.05506 9.00012 7.76335 8.95475 7.47731L7.97568 1.37538C7.93094 1.09943 7.77028 0.856226 7.53339 0.708168C7.09677 0.434729 6.61038 0.241303 6.14289 0.1468C5.78062 0.0491419 5.39063 0 4.98362 0C2.23538 0 0 2.23538 0 4.98362C0 13.2636 6.73639 20 15.0164 20C17.7646 20 20 17.7646 20 15.0164C20 14.6094 19.9509 14.2194 19.8664 13.9119C19.7587 13.3896 19.5653 12.9032 19.2918 12.4666ZM15.0164 18.0645C7.80368 18.0645 1.93548 12.1963 1.93548 4.98362C1.93548 3.30267 3.30267 1.93548 4.98362 1.93548C5.22114 1.93548 5.44292 1.96257 5.69619 2.02873C5.8537 2.06149 6.00114 2.10559 6.14163 2.1623L6.9651 7.29461C6.59085 7.61593 6.15486 7.83707 5.68359 7.94103C5.40259 8.00277 5.16381 8.18674 5.03213 8.44254C4.90044 8.69833 4.88911 8.99949 5.00126 9.26411C5.54372 10.5412 6.32183 11.6923 7.31477 12.6852C8.30771 13.6782 9.45879 14.4563 10.7359 14.9987C10.9999 15.1103 11.3023 15.0995 11.5575 14.9679C11.8133 14.8362 11.9972 14.5974 12.059 14.3164C12.1629 13.8451 12.3841 13.4091 12.7054 13.0349L17.8364 13.8584C17.8963 14.0064 17.9442 14.1696 17.9845 14.3586C18.0374 14.5571 18.0645 14.7789 18.0645 15.0164C18.0645 16.6973 16.6973 18.0645 15.0164 18.0645Z" fill="#5746EC"/>
</svg>
