<svg width="26" height="24" viewBox="0 0 26 24" fill="none" xmlns="http://www.w3.org/2000/svg">
<path d="M18.75 3.42857V3.57857H18.9H23.625V3.42857L23.6251 3.57857C23.8104 3.57846 23.9942 3.61808 24.1663 3.69557C24.3383 3.77308 24.4955 3.88713 24.6285 4.03187C24.7615 4.17665 24.8676 4.34921 24.9401 4.53999C25.0127 4.73078 25.0501 4.93565 25.05 5.14278V5.14286V22.2857V22.2858C25.0501 22.4929 25.0127 22.6978 24.9401 22.8886C24.8676 23.0794 24.7615 23.2519 24.6285 23.3967C24.4955 23.5414 24.3383 23.6555 24.1663 23.733C23.9942 23.8105 23.8104 23.8501 23.6251 23.85H23.625H1.575H1.57491C1.38961 23.8501 1.20576 23.8105 1.03374 23.733C0.86169 23.6555 0.704491 23.5414 0.571504 23.3967C0.438493 23.2519 0.332402 23.0794 0.259857 22.8886C0.187308 22.6978 0.149892 22.4929 0.15 22.2858V22.2857L0.15 5.14286L0.15 5.14278C0.149892 4.93565 0.187308 4.73078 0.259857 4.53999C0.332402 4.34921 0.438493 4.17665 0.571504 4.03187C0.70449 3.88713 0.861689 3.77308 1.03374 3.69557C1.20576 3.61808 1.38961 3.57846 1.57491 3.57857H1.575H6.3H6.45V3.42857V1.71429C6.45 1.2955 6.60296 0.896162 6.87176 0.603586C7.14018 0.311437 7.50137 0.15 7.875 0.15C8.24863 0.15 8.60982 0.311437 8.87823 0.603586C9.14704 0.896162 9.3 1.2955 9.3 1.71429V3.42857V3.57857H9.45H15.75H15.9V3.42857V1.71429C15.9 1.2955 16.053 0.896162 16.3218 0.603586C16.5902 0.311437 16.9514 0.15 17.325 0.15C17.6986 0.15 18.0598 0.311437 18.3282 0.603586C18.597 0.896162 18.75 1.2955 18.75 1.71429V3.42857ZM22.05 20.7214H22.2V20.5714V6.85714V6.70714H22.05H18.9H18.75V6.85714V8.57143C18.75 8.99021 18.597 9.38955 18.3282 9.68213C18.0598 9.97428 17.6986 10.1357 17.325 10.1357C16.9514 10.1357 16.5902 9.97428 16.3218 9.68213C16.053 9.38955 15.9 8.99021 15.9 8.57143V6.85714V6.70714H15.75H9.45H9.3V6.85714V8.57143C9.3 8.99021 9.14704 9.38955 8.87823 9.68213C8.60982 9.97428 8.24863 10.1357 7.875 10.1357C7.50137 10.1357 7.14018 9.97428 6.87176 9.68213C6.60296 9.38955 6.45 8.99021 6.45 8.57143V6.85714V6.70714H6.3H3.15H3V6.85714V20.5714V20.7214H3.15H22.05Z" fill="#5746EC" stroke="white" stroke-width="0.3"/>
</svg>
