<svg width="18" height="18" viewBox="0 0 18 18" fill="none" xmlns="http://www.w3.org/2000/svg">
<path d="M0.757937 16.2593L0.757934 16.2593C0.721274 16.5295 0.812926 16.8014 1.0058 16.9942H1.0058C1.17066 17.1591 1.39323 17.25 1.62322 17.25C1.66215 17.25 1.70141 17.2474 1.74071 17.2421C1.74075 17.2421 1.74078 17.242 1.74082 17.242L6.06566 16.655L6.06567 16.655C6.25494 16.6293 6.43062 16.5423 6.56574 16.4072L16.7226 6.25035C17.0624 5.91058 17.25 5.45757 17.25 4.97709C17.25 4.49657 17.0624 4.04357 16.7226 3.7038L14.2962 1.27743C14.2962 1.27743 14.2962 1.27742 14.2962 1.27742C13.9565 0.937621 13.5035 0.75 13.023 0.75C12.5425 0.75 12.0895 0.937627 11.7497 1.27742L1.59282 11.4343C1.45775 11.5693 1.37067 11.745 1.34499 11.9343C1.34499 11.9343 1.34499 11.9343 1.34499 11.9343L0.757937 16.2593ZM15.4876 5.01534L15.4876 5.01536L13.735 6.76798L11.232 4.265L12.9846 2.51241C12.9846 2.5124 12.9846 2.5124 12.9846 2.51239C12.9923 2.5047 12.9991 2.50139 13.0051 2.49943C13.0122 2.49708 13.0191 2.49651 13.023 2.49651C13.0268 2.49651 13.0337 2.49708 13.0408 2.49943C13.0468 2.50139 13.0536 2.5047 13.0613 2.51239C13.0613 2.5124 13.0613 2.51241 13.0613 2.51242L15.4877 4.93877C15.4953 4.94644 15.4986 4.95322 15.5006 4.95916C15.5029 4.96631 15.5035 4.97321 15.5035 4.97706C15.5035 4.9809 15.5029 4.98779 15.5006 4.99493C15.4986 5.00087 15.4953 5.00765 15.4876 5.01534ZM12.5 8.00295L5.53897 14.964L2.64289 15.3571L3.036 12.461L9.99706 5.49997L12.5 8.00295Z" fill="white" stroke="white" stroke-width="0.5"/>
</svg>
