<svg width="28" height="26" viewBox="0 0 28 26" fill="none" xmlns="http://www.w3.org/2000/svg">
<path d="M27 25.1493H27.15V24.9993V23.4094V23.2594H27H25.5186V11.9181C25.5186 11.5528 25.3088 11.2193 24.9796 11.0629L24.9794 11.0628C24.651 10.9073 24.2605 10.9564 23.9799 11.1902L23.9798 11.1903L17.8127 16.3375L17.7889 11.9126L17.7889 11.9124C17.7867 11.557 17.5869 11.2316 17.2696 11.0723C16.9524 10.913 16.573 10.9469 16.2894 11.1603L10.0624 15.8369V7.54889C10.0624 7.02793 9.6427 6.60391 9.12317 6.60391H5.24974C4.77324 6.60391 4.37258 6.96391 4.31751 7.43903L2.47789 23.2594H1H0.85V23.4094V24.9993V25.1493H1H3.31348H9.12225H9.12317H24.5793H27ZM15.9222 13.7945L15.9461 18.3442L15.9461 18.3443C15.9483 18.7084 16.1591 19.0402 16.4867 19.195L16.4874 19.1953C16.8172 19.3493 17.2047 19.2999 17.4843 19.0671L17.4844 19.067L23.641 13.9291V23.2594H10.0629V18.1953L15.9222 13.7945ZM4.36909 23.2598L6.0858 8.49388H8.18485V17.705C8.18434 17.7097 8.18392 17.7156 8.18392 17.7224V23.2598H4.36909Z" fill="#5746EC" stroke="#5746EC" stroke-width="0.3"/>
<path d="M15.2113 1.06062L15.2808 0.927699C14.9472 0.753277 14.5333 0.882208 14.3578 1.21631L14.3577 1.21647C13.9738 1.94945 13.6456 2.30042 13.2276 2.43943C12.7979 2.58233 12.2388 2.51507 11.3515 2.30343L11.3515 2.30341C9.74922 1.92213 7.79048 2.41347 7.10177 4.41925L7.1017 4.41946C6.97966 4.77666 7.17023 5.16501 7.52756 5.28744L7.52769 5.28749C7.60152 5.3127 7.67607 5.32439 7.74936 5.32439C8.03345 5.32439 8.29933 5.14654 8.39692 4.86292L8.39695 4.86282C8.61532 4.22672 9.03275 3.86754 9.51227 3.69083C9.99741 3.51206 10.5528 3.51837 11.0344 3.63248C11.9084 3.84083 12.7385 3.99027 13.5044 3.78335C14.2821 3.57328 14.9652 3.00546 15.5708 1.84952L15.5708 1.84941C15.7458 1.51478 15.6154 1.10221 15.2807 0.927627L15.2113 1.06062ZM15.2113 1.06062C15.4728 1.19702 15.5743 1.51903 15.4379 1.77991L7.24364 4.46796C7.89866 2.56033 9.76061 2.07903 11.3167 2.44933C13.0835 2.87074 13.714 2.76884 14.4906 1.28607C14.6276 1.02519 14.9511 0.924544 15.2113 1.06062ZM7.74936 5.17439C7.97157 5.17439 8.17902 5.03517 8.25508 4.81412L7.57618 5.14554C7.63401 5.16529 7.69216 5.17439 7.74936 5.17439Z" fill="#5746EC" stroke="#5746EC" stroke-width="0.3"/>
</svg>
