<svg width="23" height="28" viewBox="0 0 23 28" fill="none" xmlns="http://www.w3.org/2000/svg">
<path d="M21 10.8C21 8.4661 19.9991 6.22778 18.2175 4.57746C16.4359 2.92714 14.0196 2 11.5 2C8.98044 2 6.56408 2.92714 4.78249 4.57746C3.00089 6.22778 2 8.4661 2 10.8C2 18.8 11.5 26 11.5 26C11.5 26 21 18.8 21 10.8Z" stroke="#5746EC" stroke-width="2.4" stroke-linecap="round" stroke-linejoin="round"/>
<path d="M11.4988 14.7969C13.8837 14.7969 15.817 13.006 15.817 10.7969C15.817 8.58774 13.8837 6.79688 11.4988 6.79688C9.11398 6.79688 7.18066 8.58774 7.18066 10.7969C7.18066 13.006 9.11398 14.7969 11.4988 14.7969Z" stroke="#5746EC" stroke-width="2.4" stroke-linecap="round" stroke-linejoin="round"/>
</svg>
