<svg width="27" height="23" viewBox="0 0 27 23" fill="none" xmlns="http://www.w3.org/2000/svg">
<path d="M5.00259 16.6147C5.00259 15.9604 5.51105 15.4369 6.12986 15.4369H15.948C16.5669 15.4369 17.0753 15.9604 17.0753 16.6147C17.0753 17.269 16.5669 17.7925 15.948 17.7925H6.12986C5.51105 17.7925 5.00259 17.269 5.00259 16.6147Z" fill="#5746EC" stroke="white" stroke-width="0.2"/>
<path d="M20.8647 10.3236C21.4835 10.3236 21.9919 10.8471 21.9919 11.5014C21.9919 12.1557 21.4835 12.6792 20.8647 12.6792H11.0465C10.4277 12.6792 9.91921 12.1557 9.91921 11.5014C9.91921 10.8471 10.4277 10.3236 11.0465 10.3236H20.8647Z" fill="#5746EC" stroke="white" stroke-width="0.2"/>
<path d="M18.5161 16.6147C18.5161 15.9604 19.0246 15.4369 19.6434 15.4369H20.8707C21.4895 15.4369 21.998 15.9604 21.998 16.6147C21.998 17.269 21.4895 17.7925 20.8707 17.7925H19.6434C19.0246 17.7925 18.5161 17.269 18.5161 16.6147Z" fill="#5746EC" stroke="white" stroke-width="0.2"/>
<path d="M7.35713 10.3236C7.97594 10.3236 8.48441 10.8471 8.48441 11.5014C8.48441 12.1557 7.97594 12.6792 7.35713 12.6792H6.12986C5.51105 12.6792 5.00259 12.1557 5.00259 11.5014C5.00259 10.8471 5.51105 10.3236 6.12986 10.3236H7.35713Z" fill="#5746EC" stroke="white" stroke-width="0.2"/>
<path d="M0.1 3.83333C0.1 1.76764 1.7074 0.1 3.68182 0.1H23.3182C25.2927 0.1 26.9 1.76764 26.9 3.83333V19.1667C26.9 21.2324 25.2927 22.9 23.3182 22.9H3.68182C1.7074 22.9 0.1 21.2324 0.1 19.1667V3.83333ZM23.3182 2.45556H3.68182C2.94503 2.45556 2.35455 3.07625 2.35455 3.83333V19.1667C2.35455 19.9238 2.94503 20.5444 3.68182 20.5444H23.3182C24.055 20.5444 24.6455 19.9238 24.6455 19.1667V3.83333C24.6455 3.07624 24.055 2.45556 23.3182 2.45556Z" fill="#5746EC" stroke="white" stroke-width="0.2"/>
</svg>
