<svg width="29" height="22" viewBox="0 0 29 22" fill="none" xmlns="http://www.w3.org/2000/svg">
<path d="M28.05 3.34793C28.05 2.01828 26.8412 0.95 25.3626 0.95H3.63736C2.15879 0.95 0.95 2.01828 0.95 3.34793V18.6521C0.95 19.9817 2.15879 21.05 3.63736 21.05H25.3626C26.8412 21.05 28.05 19.9817 28.05 18.6521V3.34793ZM16.415 14.538L16.3817 14.5007L16.415 14.538L25.8583 6.13V18.6503C25.8583 18.8771 25.6513 19.0737 25.3833 19.0737H3.65149C3.38312 19.0737 3.1736 18.8768 3.1736 18.6503V6.12867L12.6198 14.5381C13.1276 14.9902 13.8021 15.2384 14.518 15.2384C15.2341 15.2383 15.9072 14.9901 16.415 14.538ZM3.65149 2.92633H25.3833C25.6517 2.92633 25.8571 3.11487 25.8583 3.33975L14.8566 13.1352C14.7351 13.2434 14.593 13.2601 14.5175 13.2601C14.442 13.2601 14.2994 13.2433 14.1779 13.1352L3.17361 3.33842C3.17568 3.11445 3.38332 2.92633 3.65149 2.92633Z" fill="#5746EC" stroke="#5746EC" stroke-width="0.1"/>
</svg>
