<svg width="16" height="18" viewBox="0 0 16 18" fill="none" xmlns="http://www.w3.org/2000/svg">
<path d="M8.98889 1.8V1.7H8.88889H3.51736C2.48254 1.7 1.67778 2.51663 1.67778 3.56133V14.4404C1.67778 15.4852 2.48194 16.3 3.51736 16.3H12.4826C13.5181 16.3 14.3222 15.4852 14.3222 14.4404V7.25977V7.15977H14.2222H11.3837C10.0738 7.15977 8.98889 6.06309 8.98889 4.73379V1.8ZM15.6684 4.83394L15.7362 4.767L15.6684 4.83395C15.8165 4.98386 15.9 5.18746 15.9 5.4V14.4404C15.9 16.3436 14.3588 17.9 12.4826 17.9H3.51736C1.64124 17.9 0.1 16.3436 0.1 14.4404V3.56133C0.1 1.65808 1.64062 0.1 3.51736 0.1H10.6666C10.6667 0.1 10.6667 0.1 10.6667 0.1C10.8755 0.100047 11.076 0.184046 11.224 0.333937L11.2918 0.266998L11.224 0.333942L15.6684 4.83394ZM10.7378 2.10239L10.5667 1.9291V2.17266V4.73379C10.5667 5.20513 10.9151 5.55977 11.3837 5.55977H13.9132H14.1525L13.9843 5.3895L10.7378 2.10239Z" fill="#5C5F62" stroke="white" stroke-width="0.2"/>
</svg>
