<svg width="82" height="82" viewBox="0 0 82 82" fill="none" xmlns="http://www.w3.org/2000/svg">
<path d="M81.2 41V40.9998C81.1883 30.3417 76.9493 20.1235 69.4129 12.5871C61.8765 5.0507 51.6583 0.811638 41.0002 0.8L41 0.8L40.8 0.799781V0.800497C32.9189 0.83969 25.2215 3.19473 18.6661 7.57492C12.0552 11.9921 6.9027 18.2705 3.86006 25.6161C0.817418 32.9617 0.0213242 41.0446 1.57245 48.8426C3.12357 56.6406 6.95225 63.8036 12.5743 69.4257C18.1964 75.0477 25.3593 78.8764 33.1574 80.4275C40.9554 81.9787 49.0383 81.1826 56.3839 78.1399C63.7295 75.0973 70.0078 69.9447 74.4251 63.3339C78.8423 56.723 81.2 48.9508 81.2 41ZM40.9998 77.05C33.8698 77.0499 26.9 74.9356 20.9717 70.9744C15.0433 67.0132 10.4227 61.383 7.69416 54.7957C4.96562 48.2084 4.25171 40.96 5.64271 33.967C7.0337 26.974 10.4671 20.5505 15.5088 15.5088C20.5505 10.4671 26.974 7.03369 33.967 5.64269C40.96 4.25169 48.2085 4.9656 54.7957 7.69414C61.383 10.4227 67.0132 15.0433 70.9745 20.9717C74.9356 26.9 77.0499 33.8698 77.05 40.9997C77.0385 50.5573 73.2366 59.7201 66.4784 66.4784C59.7202 73.2366 50.5573 77.0385 40.9998 77.05Z" fill="#5746EC" stroke="#5746EC" stroke-width="0.4"/>
<path d="M55.5865 27.521L55.5989 27.5273L32.5186 50.2258L26.2525 43.6296L26.2526 43.6295L26.2492 43.6262C25.867 43.2423 25.3497 43.0232 24.8081 43.0157C24.2664 43.0081 23.7432 43.2127 23.3504 43.5857C22.9575 43.9587 22.7261 44.4705 22.7055 45.0118C22.685 45.5532 22.877 46.0811 23.2405 46.4828L23.2405 46.4828L23.2438 46.4863L30.9625 54.6113L30.9628 54.6115C31.1524 54.8105 31.3796 54.9699 31.6314 55.0803C31.8831 55.1907 32.1543 55.25 32.4291 55.2548L32.4291 55.2548H32.4325H32.4638H32.464C33.0073 55.2544 33.5288 55.0408 33.9165 54.66L33.9165 54.6599L58.6978 30.2849C58.8921 30.0937 59.047 29.8661 59.1534 29.6151C59.2598 29.3641 59.3157 29.0946 59.3179 28.8219C59.3202 28.5493 59.2687 28.2789 59.1665 28.0262C59.0642 27.7734 58.9132 27.5433 58.722 27.3489C58.5308 27.1546 58.3032 26.9998 58.0522 26.8934C57.8012 26.787 57.5316 26.731 57.259 26.7288C56.9864 26.7265 56.716 26.778 56.4633 26.8803C56.2105 26.9825 55.9804 27.1335 55.786 27.3247L55.5865 27.521Z" fill="#5746EC" stroke="#5746EC" stroke-width="0.4"/>
</svg>
