<svg width="220" height="97" viewBox="0 0 220 97" fill="none" xmlns="http://www.w3.org/2000/svg">
<rect width="220" height="97" fill="#F8F8F8"/>
<path d="M99.002 50.3123C99.002 57.506 93.3744 62.8068 86.4681 62.8068C79.5618 62.8068 73.9342 57.506 73.9342 50.3123C73.9342 43.068 79.5618 37.8179 86.4681 37.8179C93.3744 37.8179 99.002 43.068 99.002 50.3123ZM93.5153 50.3123C93.5153 45.817 90.2536 42.7413 86.4681 42.7413C82.6826 42.7413 79.421 45.817 79.421 50.3123C79.421 54.7626 82.6826 57.8834 86.4681 57.8834C90.2536 57.8834 93.5153 54.7569 93.5153 50.3123Z" fill="#EA4335"/>
<path d="M126.041 50.3123C126.041 57.506 120.414 62.8068 113.508 62.8068C106.601 62.8068 100.974 57.506 100.974 50.3123C100.974 43.0737 106.601 37.8179 113.508 37.8179C120.414 37.8179 126.041 43.068 126.041 50.3123ZM120.555 50.3123C120.555 45.817 117.293 42.7413 113.508 42.7413C109.722 42.7413 106.46 45.817 106.46 50.3123C106.46 54.7626 109.722 57.8834 113.508 57.8834C117.293 57.8834 120.555 54.7569 120.555 50.3123Z" fill="#FBBC05"/>
<path d="M151.954 38.5727V61.0042C151.954 70.2314 146.513 74 140.08 74C134.024 74 130.379 69.9497 129.005 66.6374L133.782 64.6489C134.632 66.6824 136.717 69.0822 140.074 69.0822C144.192 69.0822 146.744 66.5416 146.744 61.759V59.962H146.552C145.324 61.4774 142.958 62.8012 139.973 62.8012C133.725 62.8012 128.002 57.3595 128.002 50.3574C128.002 43.3046 133.725 37.8179 139.973 37.8179C142.953 37.8179 145.319 39.1417 146.552 40.6119H146.744V38.5784H151.954V38.5727ZM147.132 50.3574C147.132 45.9579 144.198 42.7413 140.463 42.7413C136.677 42.7413 133.506 45.9579 133.506 50.3574C133.506 54.7119 136.677 57.8834 140.463 57.8834C144.198 57.8834 147.132 54.7119 147.132 50.3574Z" fill="#4285F4"/>
<path d="M160.545 25.4248V62.0407H155.193V25.4248H160.545Z" fill="#34A853"/>
<path d="M181.399 54.4247L185.658 57.2639C184.283 59.2975 180.971 62.8013 175.247 62.8013C168.15 62.8013 162.849 57.3146 162.849 50.3068C162.849 42.8766 168.195 37.8124 174.633 37.8124C181.117 37.8124 184.289 42.9724 185.325 45.7608L185.894 47.1804L169.192 54.098C170.47 56.6048 172.459 57.8835 175.247 57.8835C178.042 57.8835 179.979 56.509 181.399 54.4247ZM168.29 49.9294L179.455 45.2933C178.841 43.7329 176.994 42.6457 174.819 42.6457C172.031 42.6457 168.15 45.1074 168.29 49.9294V49.9294Z" fill="#EA4335"/>
<path d="M53.6768 47.0624V41.7615H71.5397C71.7144 42.6854 71.8045 43.7782 71.8045 44.9612C71.8045 48.9382 70.7173 53.856 67.2134 57.3599C63.8053 60.9088 59.4509 62.8016 53.6824 62.8016C42.9906 62.8016 34 54.0926 34 43.4008C34 32.7089 42.9906 24 53.6824 24C59.5973 24 63.811 26.3209 66.9768 29.3459L63.2364 33.0864C60.9662 30.957 57.8905 29.3009 53.6768 29.3009C45.8692 29.3009 39.7628 35.5932 39.7628 43.4008C39.7628 51.2084 45.8692 57.5007 53.6768 57.5007C58.7411 57.5007 61.6253 55.4671 63.473 53.6194C64.9714 52.121 65.9572 49.9804 66.3459 47.0567L53.6768 47.0624V47.0624Z" fill="#4285F4"/>
</svg>
