<svg width="220" height="97" viewBox="0 0 220 97" fill="none" xmlns="http://www.w3.org/2000/svg">
<rect width="220" height="97" fill="#F8F8F8"/>
<path d="M31.4957 65.6318C28.0636 64.7136 24.9141 62.1246 23.3028 58.8969C22.0679 56.4233 22.0694 56.4406 22.0665 45.0719C21.9202 35.2376 21.9761 34.9203 22.6364 33.9718C24.0386 31.6498 27.1309 31.154 29.1583 32.926C30.5818 34.1701 30.6949 34.5926 30.6949 38.6634V42.1937H36.6751C40.3331 42.1937 43.0036 42.2679 43.5522 42.3847C46.6731 43.0493 47.8578 46.7551 45.691 49.0746C45.4356 49.348 44.9097 49.7415 44.5221 49.9492C43.842 50.3136 43.5897 50.3285 37.2562 50.3802L30.6949 50.4336V52.008C30.6949 54.2978 30.9341 55.047 32.0045 56.1099C33.2544 57.351 33.5881 57.4095 39.448 57.4141C43.9941 57.4175 44.4029 57.4436 45.1386 57.7742C47.9296 59.0287 48.6249 62.3688 46.5669 64.6355C45.364 65.9604 45.2846 65.9736 38.6213 65.9661C33.4205 65.9602 32.5753 65.9205 31.4957 65.6318H31.4957ZM58.1261 65.7069C55.4163 65.0549 52.6197 63.0106 50.9103 60.4323C49.3351 58.0562 49.028 56.3843 49.0199 50.1398C49.0129 44.7546 49.1219 44.0763 50.1652 43.0096C51.1309 42.0223 51.7462 41.7663 53.167 41.7611C54.2519 41.7568 54.5257 41.8252 55.276 42.2858C55.8099 42.6135 56.3413 43.1409 56.6713 43.6707C57.3322 44.8079 57.211 45.2849 57.2925 49.9626C57.3788 55.2865 57.3891 55.4125 57.7936 56.0585C59.1599 58.2406 61.9851 58.5622 63.8592 56.7489C64.9411 55.702 65.0428 55.0869 65.0428 49.5884C65.0428 45.0671 65.0633 44.7627 65.415 44.0669C66.1194 42.673 67.1409 41.9352 68.6506 41.7297C70.2662 41.5099 72.0085 42.4555 72.8432 44.0053C73.2152 44.696 73.2376 44.9795 73.3215 50.0777C73.2915 54.319 73.4924 55.5601 73.8955 56.1541C75.1845 58.0865 77.8939 58.5022 79.5859 57.0271C80.7986 55.9699 80.7979 55.9735 80.8976 50.0643C80.9833 44.9921 81.0068 44.6942 81.376 44.0053C82.9255 41.1137 86.8479 40.9314 88.5532 43.6718C89.6563 45.1903 89.1735 48.4037 89.1735 50.4759C89.2536 53.2028 89.0924 56.6993 88.6122 57.7769C87.3059 61.4382 84.3962 64.3462 80.8957 65.489C79.3078 66.0074 75.8087 66.1318 74.2321 65.7259C72.7121 65.3346 71.3967 64.7352 70.1449 63.8633L69.0941 63.1314L68.0434 63.8632C66.7728 64.7482 65.4867 65.3476 64.081 65.7099C62.7708 66.0476 59.5354 66.046 58.1261 65.7069V65.7069ZM94.7092 65.7324C93.9068 65.3854 92.9047 64.4486 92.4667 63.6359C92.0839 62.9255 92.0807 62.847 92.0807 53.9122C92.0807 45.3143 92.0965 44.8733 92.4264 44.2126C93.7981 41.4659 97.3398 40.8477 99.4874 42.9802C100.823 44.3064 100.819 44.2736 100.762 54.1948C100.713 62.7578 100.705 62.9327 100.331 63.6193C99.839 64.5228 98.9456 65.367 98.1193 65.7093C97.3202 66.0402 95.4504 66.0529 94.7092 65.7324V65.7324ZM113.194 65.6339C109.278 64.6146 105.869 61.5431 104.43 57.7372C103.653 55.6834 103.592 54.6371 103.651 44.4675C103.705 35.0874 103.712 34.9241 104.086 34.2357C105.952 30.8025 111.059 31.2371 112.166 34.9233C112.353 35.5452 112.425 36.6751 112.425 38.9736V42.1615L116.609 42.2248C120.477 42.2833 120.845 42.3163 121.497 42.6621C124.558 44.2876 124.572 48.3204 121.522 49.9389C120.838 50.3018 120.529 50.3297 116.594 50.3841L112.396 50.4422L112.455 52.4833C112.523 54.8652 112.796 55.5791 113.986 56.485C115.029 57.2784 115.685 57.4079 118.678 57.411C121.08 57.4132 121.401 57.4511 122.211 57.8254C125.594 59.3897 125.591 64.1262 122.205 65.6532C121.159 66.1252 115.031 66.1121 113.194 65.6339H113.194ZM135.619 65.6423C131.183 64.4376 127.541 60.7376 126.393 56.2686C126.11 55.17 126.079 54.0611 126.078 45.0797C126.145 35.757 125.679 36.1215 126.558 34.2028C127.57 32.2963 129.66 31.4562 131.872 32.0661C132.795 32.3204 134.346 33.8612 134.602 34.777C134.709 35.1582 134.794 36.9478 134.794 38.8269L134.795 42.1938H138.382C142.491 42.1938 143.582 42.3449 144.571 43.0511C146.715 44.5801 146.763 48.0062 144.663 49.5167C143.616 50.2703 142.625 50.4142 138.486 50.4142H134.795V51.9984C134.795 54.0848 135.037 54.962 135.868 55.9001C137.002 57.1791 137.423 57.301 141.063 57.406C144.232 57.4973 144.253 57.5005 145.114 58.0288C146.101 58.6337 147.014 59.9708 147.191 61.0709C147.447 62.663 146.607 64.4559 145.159 65.4087L144.422 65.8931L140.622 65.931C137.377 65.9634 136.645 65.9211 135.619 65.6423L135.619 65.6423ZM157.606 65.7214C155.031 65.0311 153.133 63.8962 151.276 61.9358C149.02 59.5545 148.003 56.9299 148.009 53.5073C148.013 51.4166 148.374 49.7823 149.213 48.053C150.098 46.2264 151.07 45.0353 152.501 44.0212C156.669 41.0681 164.077 40.8836 168.743 43.6166C170.413 44.5949 172.15 46.4463 172.997 48.1506C174.708 51.5969 174.536 54.7185 172.578 55.7333C171.901 56.0844 171.585 56.1005 164.431 56.1477L156.989 56.1969V56.6558C156.989 57.3711 158.136 58.3406 159.399 58.6923C160.259 58.9321 161.298 58.9846 165.192 58.9854C167.826 58.9854 170.219 59.0646 170.573 59.1622C173.605 59.9985 174.213 63.9861 171.545 65.5387C170.681 66.1187 170.159 65.9729 164.636 65.9691C160.057 65.9605 158.262 65.8973 157.606 65.7214V65.7214ZM165.35 50.1956C165.018 49.092 164.067 48.4387 162.329 48.1196C160.48 47.7802 157.894 48.5397 157.395 49.5689C157.176 50.0221 156.966 50.538 156.966 50.538C156.966 50.538 158.505 50.5891 161.234 50.5891H165.468L165.35 50.1956ZM178.642 65.6439C177.734 65.1541 176.768 64.0167 176.537 63.1676C176.403 62.6712 176.36 60.7293 176.404 57.1673C176.468 51.9789 176.477 51.8796 176.951 50.4641C178.202 46.7358 181.547 43.6434 185.437 42.6184C186.867 42.2416 193.468 42.061 194.908 42.3593C196.908 42.7736 198.207 44.3058 198.207 46.2497C198.207 47.9075 197.448 49.1904 196.027 49.9362C195.358 50.2873 194.974 50.3247 191.161 50.4095C187.208 50.4975 186.992 50.5201 186.358 50.9117C185.52 51.4287 184.91 52.2258 184.662 53.1252C184.546 53.5472 184.469 55.6329 184.469 58.3817C184.468 62.9374 184.468 62.9387 184.01 63.851C183.701 64.467 183.286 64.9463 182.733 65.3265C182.014 65.821 181.753 65.8954 180.593 65.9366C179.554 65.9734 179.137 65.9107 178.642 65.6439V65.6439ZM94.493 39.1172C91.6967 37.7336 91.1885 34.0793 93.5107 32.0547C94.4154 31.266 95.1432 31 96.3962 31C98.1485 31 99.5096 31.8129 100.297 33.3294C102.178 36.9556 98.181 40.942 94.493 39.1172V39.1172Z" fill="#33CCFF"/>
</svg>
