<svg width="220" height="97" viewBox="0 0 220 97" fill="none" xmlns="http://www.w3.org/2000/svg">
<rect width="220" height="97" fill="#F8F8F8"/>
<path d="M59.895 42.3754C53.7941 42.3754 49.0271 47.0068 49.0271 53.2068C49.0271 59.4068 53.6737 63.9985 59.895 63.9985C66.1164 63.9985 70.8437 59.3275 70.8437 53.1671C70.8437 47.0464 66.1972 42.3754 59.895 42.3754ZM59.9362 59.5303C56.4619 59.5303 53.9161 56.832 53.9161 53.2083C53.9161 49.5435 56.4208 46.8467 59.895 46.8467C63.4104 46.8467 65.9548 49.5846 65.9548 53.2083C65.9548 56.832 63.4104 59.5303 59.9362 59.5303ZM72.1761 47.0876H75.2068V63.5975H80.0546V42.7779H72.1761V47.0876ZM36.8268 46.8452C39.3726 46.8452 41.3925 48.4154 42.1594 50.7509H47.2907C46.3608 45.7582 42.2402 42.3754 36.8679 42.3754C30.767 42.3754 26 47.0068 26 53.2083C26 59.4098 30.6466 64 36.8679 64C42.1197 64 46.3212 60.6172 47.2511 55.5834H42.1594C41.4322 57.9189 39.4123 59.5303 36.8664 59.5303C33.351 59.5303 30.8874 56.832 30.8874 53.2083C30.889 49.5435 33.3129 46.8452 36.8268 46.8452ZM164.288 51.1945L160.732 50.6716C159.036 50.4307 157.824 49.8667 157.824 48.5373C157.824 47.0876 159.4 46.3634 161.54 46.3634C163.884 46.3634 165.379 47.3696 165.702 49.0206H170.388C169.862 44.8329 166.631 42.377 161.662 42.377C156.531 42.377 153.138 44.9945 153.138 48.6989C153.138 52.2418 155.36 54.2968 159.844 54.9401L163.399 55.463C165.137 55.7038 166.106 56.3899 166.106 57.678C166.106 59.329 164.409 60.0135 162.066 60.0135C159.197 60.0135 157.581 58.8458 157.339 57.0743H152.572C153.017 61.1416 156.208 64 162.025 64C167.318 64 170.832 61.5837 170.832 57.4356C170.832 53.7312 168.288 51.7982 164.288 51.1945ZM77.6307 34.2012C75.8531 34.2012 74.5192 35.4894 74.5192 37.2608C74.5192 39.0323 75.8516 40.3204 77.6307 40.3204C79.4082 40.3204 80.7421 39.0323 80.7421 37.2608C80.7421 35.4894 79.4082 34.2012 77.6307 34.2012ZM148.775 49.9063C148.775 45.3969 146.027 42.377 140.21 42.377C134.716 42.377 131.646 45.1561 131.039 49.4246H135.847C136.089 47.7736 137.382 46.4046 140.129 46.4046C142.594 46.4046 143.806 47.4915 143.806 48.8209C143.806 50.5527 141.584 50.9948 138.837 51.2768C135.12 51.6793 130.514 52.9674 130.514 57.8C130.514 61.5456 133.303 63.9604 137.747 63.9604C141.221 63.9604 143.402 62.5106 144.494 60.2147C144.655 62.2682 146.191 63.5975 148.332 63.5975H151.16V59.2894H148.776V49.9063H148.775ZM144.008 55.1413C144.008 57.9204 141.584 59.9739 138.634 59.9739C136.815 59.9739 135.28 59.2086 135.28 57.5988C135.28 55.5453 137.745 54.9813 140.007 54.7404C142.189 54.5392 143.401 54.0559 144.008 53.129V55.1413ZM118.273 42.3754C115.566 42.3754 113.303 43.5035 111.687 45.3954V34H106.839V63.5975H111.606V60.8596C113.222 62.8323 115.526 64 118.273 64C124.09 64 128.495 59.4098 128.495 53.2083C128.495 47.0068 124.01 42.3754 118.273 42.3754ZM117.546 59.5303C114.072 59.5303 111.526 56.832 111.526 53.2083C111.526 49.5846 114.111 46.8467 117.585 46.8467C121.101 46.8467 123.564 49.545 123.564 53.2083C123.564 56.832 121.02 59.5303 117.546 59.5303ZM95.2444 42.3754C92.0933 42.3754 90.0322 43.6636 88.8203 45.4762V42.7779H84.0121V63.596H88.8599V52.2814C88.8599 49.0999 90.8798 46.8452 93.8693 46.8452C96.6576 46.8452 98.3939 48.8178 98.3939 51.6777V63.5975H103.242V51.3164C103.243 46.0799 100.537 42.3754 95.2444 42.3754ZM193.941 52.5238C193.941 46.5647 189.578 42.377 183.72 42.377C177.499 42.377 172.933 47.0479 172.933 53.2083C172.933 59.6919 177.822 64 183.801 64C188.851 64 192.81 61.0197 193.819 56.7923H188.769C188.042 58.6445 186.264 59.6919 183.88 59.6919C180.769 59.6919 178.425 57.7588 177.901 54.376H193.94V52.5238H193.941ZM178.185 50.9124C178.953 48.0129 181.134 46.6043 183.639 46.6043C186.386 46.6043 188.487 48.1745 188.972 50.9124H178.185Z" fill="#0052FF"/>
</svg>
