<svg width="220" height="97" viewBox="0 0 220 97" fill="none" xmlns="http://www.w3.org/2000/svg">
<rect width="220" height="97" fill="#F8F8F8"/>
<path d="M40.8785 53.7843C40.8785 55.5089 41.2571 56.833 41.7518 57.634C42.4005 58.6832 43.3681 59.1277 44.3545 59.1277C45.6267 59.1277 46.7906 58.812 49.0335 55.7099C50.8304 53.2236 52.9476 49.7335 54.3723 47.5455L56.7848 43.8387C58.4607 41.2644 60.4005 38.4026 62.6246 36.4628C64.4403 34.8796 66.399 34 68.3702 34C71.6796 34 74.8319 35.9178 77.2445 39.5147C79.8848 43.4539 81.1665 48.4157 81.1665 53.5361C81.1665 56.5801 80.5665 58.8168 79.5456 60.5838C78.5592 62.2927 76.6367 64 73.4026 64V59.1277C76.1717 59.1277 76.8628 56.5832 76.8628 53.6712C76.8628 49.5215 75.8953 44.9162 73.7639 41.6257C72.2513 39.2916 70.2911 37.8654 68.1346 37.8654C65.8021 37.8654 63.9251 39.6246 61.8157 42.7613C60.6942 44.4277 59.5429 46.4586 58.2503 48.7503L56.8272 51.2712C53.9686 56.3398 53.2445 57.4942 51.8152 59.3995C49.3099 62.7356 47.1707 64 44.3545 64C41.0136 64 38.901 62.5534 37.5927 60.3733C36.5246 58.5969 36 56.266 36 53.6099L40.8785 53.7843Z" fill="#0081FB"/>
<path d="M39.8467 39.8586C42.0833 36.411 45.3111 34 49.0132 34C51.1571 34 53.2886 34.6346 55.5142 36.4518C57.9488 38.4387 60.5435 41.7105 63.7807 47.1026L64.9414 49.0377C67.7435 53.7058 69.3378 56.1073 70.2708 57.2398C71.4708 58.6942 72.3111 59.1277 73.4027 59.1277C76.1718 59.1277 76.8629 56.5832 76.8629 53.6712L81.1666 53.5361C81.1666 56.5801 80.5666 58.8168 79.5456 60.5838C78.5592 62.2927 76.6367 64 73.4027 64C71.3922 64 69.6111 63.5633 67.6414 61.7052C66.1273 60.2791 64.3571 57.7455 62.9954 55.4681L58.9446 48.7016C56.9121 45.3058 55.0477 42.7738 53.9687 41.6272C52.8079 40.3942 51.3158 38.9052 48.9346 38.9052C47.0074 38.9052 45.3708 40.2576 44.0011 42.3262L39.8467 39.8586Z" fill="url(#paint0_linear_9_244)"/>
<path d="M48.9346 38.9052C47.0073 38.9052 45.3707 40.2576 44.001 42.3262C42.0644 45.2492 40.8785 49.6031 40.8785 53.7843C40.8785 55.5089 41.2571 56.833 41.7518 57.634L37.5927 60.3733C36.5246 58.5969 36 56.266 36 53.6099C36 48.7801 37.3257 43.7461 39.8466 39.8586C42.0832 36.411 45.311 34 49.0131 34L48.9346 38.9052Z" fill="url(#paint1_linear_9_244)"/>
<path d="M90.6504 34.9478H96.2938L105.889 52.3069L115.486 34.9478H121.007V63.4713H116.403V41.6106L107.988 56.7488H103.668L95.2541 41.6106V63.4713H90.6504V34.9478ZM135.432 45.5828C132.13 45.5828 130.142 48.0676 129.666 51.1446H140.871C140.64 47.975 138.812 45.5828 135.432 45.5828ZM125.102 52.8975C125.102 46.4231 129.286 41.7111 135.512 41.7111C141.636 41.7111 145.293 46.3635 145.293 53.243V54.5074H129.666C130.221 57.8546 132.441 60.1101 136.023 60.1101C138.88 60.1101 140.666 59.2383 142.359 57.6441L144.804 60.6394C142.5 62.7582 139.569 63.9802 135.859 63.9802C129.12 63.9802 125.102 59.0656 125.102 52.8975V52.8975ZM150.875 45.9912H146.637V42.2216H150.875V35.9875H155.317V42.2216H161.755V45.9912H155.317V55.5457C155.317 58.808 156.36 59.9671 158.923 59.9671C160.093 59.9671 160.764 59.8666 161.755 59.7017V63.4305C160.521 63.7792 159.343 63.9394 158.067 63.9394C153.272 63.9394 150.875 61.3195 150.875 56.075V45.9912ZM180.459 49.6572C179.567 47.4048 177.577 45.7462 174.652 45.7462C170.851 45.7462 168.418 48.443 168.418 52.8362C168.418 57.1195 170.658 59.9467 174.47 59.9467C177.467 59.9467 179.606 58.2033 180.459 56.0341V49.6572ZM184.901 63.4713H180.54V60.4964C179.322 62.2478 177.104 63.9802 173.512 63.9802C167.735 63.9802 163.874 59.1441 163.874 52.8362C163.874 46.4687 167.827 41.7111 173.757 41.7111C176.688 41.7111 178.987 42.8828 180.54 44.9514V42.2216H184.901V63.4713Z" fill="#192830"/>
<defs>
<linearGradient id="paint0_linear_9_244" x1="45.5812" y1="52.377" x2="76.6807" y2="53.9476" gradientUnits="userSpaceOnUse">
<stop stop-color="#0064E1"/>
<stop offset="0.4" stop-color="#0064E1"/>
<stop offset="0.83" stop-color="#0073EE"/>
<stop offset="1" stop-color="#0082FB"/>
</linearGradient>
<linearGradient id="paint1_linear_9_244" x1="43.0681" y1="55.8325" x2="43.0681" y2="44.3665" gradientUnits="userSpaceOnUse">
<stop stop-color="#0082FB"/>
<stop offset="1" stop-color="#0064E0"/>
</linearGradient>
</defs>
</svg>
