<svg width="220" height="97" viewBox="0 0 220 97" fill="none" xmlns="http://www.w3.org/2000/svg">
<rect width="220" height="97" fill="#F8F8F8"/>
<path d="M152.105 45.6016C148.646 45.6003 147.721 45.6748 146.573 46.05C145.37 46.4425 144.625 47.1543 144.295 48.228C143.763 50.0108 143.852 53.6563 144.484 54.9202C144.943 55.8515 145.905 56.421 147.35 56.6525C148.481 56.8334 157.754 56.8308 158.526 56.6498C160.153 56.2666 161.112 55.2821 161.341 53.7574C161.453 53.0163 161.514 53.0323 158.341 53.0602L155.587 53.0828L155.49 53.4288C155.418 53.6646 155.301 53.8839 155.145 54.0742C154.988 54.2644 154.796 54.4217 154.578 54.537C154.296 54.6701 154.009 54.69 152.612 54.6661C150.824 54.6355 150.73 54.6089 150.283 54.0088C150.028 53.6669 149.955 52.4123 150.177 52.1914C150.31 52.0584 150.853 52.0491 155.786 52.0983L161.378 51.9985C161.558 51.7816 161.465 48.6723 161.261 48.1242C160.909 47.149 160.113 46.4278 159.01 46.0833C157.991 45.7639 155.668 45.6043 152.092 45.6043L152.105 45.6016ZM152.924 47.8634C153.571 47.8661 154.202 47.926 154.436 48.0457C155.287 48.4794 155.77 49.3123 155.39 49.6915C155.266 49.8152 154.911 49.8338 152.892 49.8338C151.184 49.8338 150.508 49.8046 150.431 49.7247C150.371 49.6649 150.322 49.4387 150.322 49.2245C150.322 48.7256 150.7 48.2666 151.307 48.0324C151.613 47.9153 152.278 47.8594 152.924 47.8594V47.8634ZM106.886 56.5913C105.287 56.4982 104.727 56.4103 104.007 56.1389C103.209 55.8099 102.573 55.1786 102.238 54.3827C102.002 53.7521 101.835 52.7462 101.873 52.2007L101.9 51.8016H108.666L108.72 52.3498C108.806 53.2412 109.172 53.7428 109.89 53.957C110.098 54.0182 110.973 54.0448 112.24 54.0261C114.254 53.9969 114.26 53.9955 114.63 53.7507C115.152 53.4048 115.388 52.8766 115.388 52.0531C115.388 51.304 115.291 50.9887 114.949 50.6321C114.514 50.1758 114.116 50.1265 109.853 50.0201L105.237 49.7846C104.283 49.5983 103.267 49.0741 102.886 48.5872C102.376 47.9166 102.283 47.4071 102.335 45.5644C102.384 43.7988 102.445 43.4928 102.884 42.8462C103.434 42.0479 104.417 41.5557 105.938 41.3561C106.345 41.3029 109.184 41.2497 112.506 41.2231L119.075 41.3654C120.299 41.6528 121.061 42.0746 121.466 42.6892C121.835 43.2534 122.03 45.4673 121.736 45.7493C121.611 45.8744 121.193 45.893 118.546 45.893C116.218 45.893 115.48 45.8664 115.409 45.7786C115.359 45.716 115.3 45.3954 115.28 45.0654C115.22 44.0729 114.801 43.6897 113.577 43.4955C112.736 43.3625 110.275 43.4622 109.635 43.6552C108.65 43.9518 108.495 44.1873 108.544 45.3781C108.58 46.2296 108.706 46.4957 109.249 46.8656C109.592 47.0997 109.884 47.121 114.659 47.2541L118.727 47.5202C120.359 47.8927 121.495 48.695 121.834 49.7128C122.023 50.2849 122.173 52.0477 122.1 52.8753C121.91 55.0812 120.919 56.1988 118.974 56.397C116.446 56.6551 109.972 56.7456 106.882 56.566L106.886 56.5913ZM124.852 56.582C124.828 56.5194 124.818 53.0935 124.832 48.969L124.856 41.4705L127.634 41.4466L130.537 41.5264C130.636 41.6089 130.662 42.0985 130.662 43.9479V46.2669L130.883 46.3227C131.016 46.356 131.388 46.2802 131.819 46.1325C133.187 45.6642 137.025 45.6336 138.727 46.0793C140.128 46.4438 141.091 47.1476 141.343 47.9885C141.498 48.5207 141.497 56.4316 141.341 56.5873C141.262 56.6671 140.543 56.6964 138.617 56.6964C136.69 56.6964 135.972 56.6671 135.892 56.5873C135.812 56.5075 135.783 55.5894 135.783 53.0283V49.5784L135.511 49.307C134.633 48.4289 131.843 48.4874 130.855 49.4028L130.648 49.597V53.0376L130.539 56.5873C130.38 56.7469 124.901 56.7443 124.838 56.5833L124.852 56.582ZM164.225 56.5194C164.076 56.2533 164.095 41.7819 164.244 41.5783C164.348 41.4359 164.606 41.424 167.147 41.4452L169.936 41.4692V56.6365L167.142 56.6605C164.441 56.6831 164.331 56.6778 164.239 56.5061L164.225 56.5194ZM173.225 56.582C173.201 56.5194 173.191 53.0935 173.205 48.969L173.229 41.4705L176.007 41.4466L178.91 41.5264C179.083 41.6701 179.099 56.4276 178.926 56.5873C178.766 56.7469 173.287 56.7443 173.225 56.5833V56.582Z" fill="black"/>
<path d="M66.4241 73.9643C65.7536 73.8605 65.091 73.5319 64.4364 72.9797L64.0452 72.6471H57.1667C51.7211 72.6471 50.2816 72.6312 50.2589 72.5673C50.243 72.5247 50.1605 71.8395 50.0727 71.0452L49.8545 69.0988L49.6948 67.6858L49.5046 65.9908L49.2864 64.0137L49.1241 62.6487C49.0948 62.505 48.3896 61.9781 44.9038 59.4955L40.5452 56.3702C40.3816 56.2372 40.3656 56.1746 40.2485 55.226C39.2959 47.5146 41.0734 40.7851 45.73 34.476C46.8782 32.9194 47.8495 31.8151 48.9192 30.8505C52.0058 28.0658 55.4451 26.1633 59.4591 25.0191C62.905 24.0345 66.6436 23.7551 70.2266 24.2168C75.3795 24.8767 80.1705 26.9882 84.2271 30.3875C85.3048 31.2922 86.8721 32.8928 87.5572 33.7935C92.2644 39.9828 94.2495 47.0902 93.4858 55.0078C93.4512 55.371 93.406 55.7529 93.386 55.8553C93.3554 56.015 93.0321 56.2811 91.1535 57.678L84.7327 62.4637L84.6595 63.129L84.1646 67.6259L83.6111 72.4994C83.5978 72.5127 80.531 72.5394 76.7924 72.5633L69.9964 72.6059L69.588 72.9385C68.5835 73.7634 67.4659 74.1226 66.4214 73.963L66.4241 73.9643Z" fill="#EC1B23"/>
<path d="M67.9708 69.3211C68.2501 69.184 68.5695 68.9446 68.9047 68.6226L69.4143 68.133L74.51 68.0877L79.6349 67.9414C79.6509 67.8882 79.6815 67.6434 79.7015 67.4025L79.8292 66.116L80.3667 60.9032L80.4439 60.1156L88.746 54.022C88.9017 53.905 89.0919 52.6889 89.1451 51.55C89.1877 50.3566 89.1119 49.5051 88.879 48.5565C88.6954 47.8088 88.2883 46.747 88.1872 46.747C88.1473 46.747 85.7192 49.1738 82.7882 52.1394L75.9921 59.0139L74.4954 60.3817C74.4554 60.2273 74.5885 60.0411 75.9456 58.3301L81.0732 51.8707L87.7069 43.4408C87.7402 43.3131 87.4568 42.3059 87.2412 41.7884C86.9991 41.207 86.4962 40.3581 85.9906 39.6823C85.5382 39.0729 84.3674 37.8036 84.3142 37.8635C84.3009 37.8808 83.8539 38.6578 83.3257 39.5905L73.5787 56.7615L72.3719 58.8237C72.3214 58.8742 72.2362 58.8902 72.1564 58.8663C71.893 58.7824 71.9914 58.4937 73.0651 56.196L80.4439 40.3608L82.5726 35.6816C82.5726 35.4953 82.1163 34.8593 81.624 34.3604C81.0586 33.7883 80.1405 33.0885 79.3356 32.6148C78.6265 32.1984 77.2388 31.4972 77.2002 31.5372C77.1736 31.5638 77.0672 31.9829 76.1358 35.2265L70.1035 56.5739C69.8294 57.5584 69.7935 57.6409 69.6458 57.6409C69.4542 57.6409 69.4409 57.4839 69.574 56.8027L69.9864 54.658L70.2312 53.3714L74.5619 30.3278L74.4155 30.2187C73.4363 29.4949 72.2415 29.1051 70.5066 28.9441C69.7815 28.8775 68.1756 28.8815 68.1118 28.9507C68.0985 28.9667 68.0532 29.9539 68.0133 31.146L67.3148 51.4569L67.1645 55.584C67.082 57.9123 67.0607 58.0813 66.8412 58.0813C66.7241 58.0813 66.7041 57.8924 66.6283 55.9792L66.2824 47.8793L66.156 44.8964L65.9365 39.9045L65.8407 37.6427L65.7475 35.5711L65.4788 29.2913L65.4655 28.8523L64.9626 28.8017C63.6604 28.7012 62.351 28.8493 61.1042 29.2381C60.5507 29.431 59.6833 29.8701 59.2788 30.1654L58.9941 30.373L62.7912 49.3388L64.4304 57.7207C64.4304 57.9602 64.2734 58.0267 64.1084 57.8604C63.9966 57.7487 62.9868 54.3001 60.6665 46.0991L60.0358 43.9012L58.2104 37.5176L56.5208 31.6635C56.4276 31.5145 54.6954 32.2862 53.8066 32.8703C52.8141 33.5222 51.8721 34.4402 51.2042 35.3982L50.9461 35.7707L61.4076 57.6143C61.6537 58.1292 61.8626 58.6361 61.8706 58.7425C61.8905 59.006 61.7109 59.0352 61.498 58.8024C61.4102 58.7053 60.6465 57.4387 59.7977 55.9871L49.2963 38.0418C49.1992 37.9354 47.9818 39.363 47.3711 40.2996C46.7019 41.3241 46.2269 42.5348 46.1271 43.4635L46.0832 43.8732L50.5895 49.3973L57.3164 57.6436L59.517 60.4695C59.517 60.4695 59.4278 60.5799 59.3413 60.5892C59.1657 60.6105 58.6535 60.1036 52.3085 53.6335L45.3768 46.6725C45.2464 46.8029 44.7993 48.3822 44.6144 49.3641C44.4414 50.2768 44.4587 52.3044 44.6437 53.1958C44.7421 53.6695 44.8206 53.8943 44.9204 53.9941C45.0481 54.1192 46.1258 54.9441 51.5328 59.0592L53.3609 60.4495L53.4341 61.0775L53.603 62.5543L53.7866 64.1243L54.0394 66.3528L54.2323 68.0026L54.259 68.1436H64.5701L64.9373 68.5427C65.6185 69.2878 66.2811 69.6045 67.0767 69.5672C67.4678 69.5486 67.6395 69.5047 67.9814 69.3357L67.9708 69.3211Z" fill="#FDEF00"/>
</svg>
