<svg width="220" height="97" viewBox="0 0 220 97" fill="none" xmlns="http://www.w3.org/2000/svg">
<rect width="220" height="97" fill="#F8F8F8"/>
<path d="M58.6292 57.5675C59.1161 58.8597 59.7902 59.9645 60.6517 60.8821C61.5132 61.7997 62.5338 62.502 63.7135 62.9889C64.8933 63.4758 66.176 63.7192 67.5618 63.7192C68.9102 63.7192 70.1742 63.4664 71.354 62.9607C72.5338 62.455 73.5638 61.7434 74.4439 60.8259C75.324 59.9082 76.0076 58.8128 76.4945 57.5394C76.9814 56.266 77.2248 54.8429 77.2248 53.2697V29H83.1237V68.3259H77.281V64.6741C75.9701 66.0598 74.4251 67.1273 72.6461 67.8765C70.867 68.6255 68.9476 69 66.8877 69C64.7902 69 62.8333 68.6348 61.0168 67.9045C59.2004 67.1741 57.6273 66.1349 56.2978 64.7865C54.9683 63.4381 53.9195 61.8185 53.1517 59.927C52.3839 58.0356 52 55.929 52 53.6067V29H57.8989V53.2697C57.8989 54.8429 58.1423 56.2753 58.6292 57.5675Z" fill="#010202"/>
<path d="M93.2897 29V43.3258C94.6006 42.015 96.1175 40.9757 97.8403 40.2079C99.5631 39.44 101.436 39.0562 103.458 39.0562C105.556 39.0562 107.522 39.4493 109.357 40.2359C111.192 41.0224 112.784 42.0898 114.132 43.4382C115.481 44.7866 116.548 46.3782 117.335 48.2134C118.121 50.0487 118.514 51.9963 118.514 54.0562C118.514 56.116 118.121 58.0543 117.335 59.8707C116.548 61.6872 115.481 63.2697 114.132 64.6178C112.784 65.9662 111.192 67.0337 109.357 67.8202C107.522 68.6067 105.556 68.9999 103.458 68.9999C101.436 68.9999 99.5538 68.616 97.8122 67.8481C96.0706 67.0804 94.5444 66.0411 93.2335 64.7302V68.3257H87.6156V29H93.2897ZM93.9358 57.9326C94.4413 59.1312 95.1437 60.1799 96.0426 61.0787C96.9414 61.9776 97.9901 62.6893 99.1886 63.2136C100.387 63.738 101.679 64.0001 103.065 64.0001C104.413 64.0001 105.687 63.738 106.885 63.2136C108.084 62.6893 109.123 61.9777 110.003 61.0787C110.883 60.18 111.586 59.1312 112.11 57.9326C112.634 56.7341 112.896 55.442 112.896 54.0562C112.896 52.6704 112.634 51.3689 112.11 50.1517C111.586 48.9344 110.883 47.8764 110.003 46.9775C109.123 46.0788 108.084 45.3764 106.885 44.8709C105.687 44.3653 104.413 44.1123 103.065 44.1123C101.717 44.1123 100.443 44.3652 99.2449 44.8709C98.0464 45.3766 96.9978 46.0788 96.0987 46.9775C95.2 47.8764 94.4883 48.9344 93.964 50.1517C93.4396 51.3689 93.1775 52.6704 93.1775 54.0562C93.1773 55.442 93.4302 56.7341 93.9358 57.9326Z" fill="#010202"/>
<path d="M121.717 48.2696C122.466 46.4719 123.496 44.8895 124.807 43.5225C126.118 42.1555 127.672 41.0787 129.47 40.2922C131.268 39.5057 133.215 39.1125 135.313 39.1125C137.373 39.1125 139.283 39.487 141.043 40.236C142.803 40.9851 144.32 42.0245 145.594 43.3541C146.867 44.6836 147.86 46.2567 148.571 48.0731C149.283 49.8897 149.638 51.8653 149.638 54.0002V55.8542H126.324C126.511 57.0152 126.886 58.092 127.448 59.0843C128.009 60.0768 128.712 60.9383 129.554 61.6686C130.397 62.3991 131.352 62.9703 132.419 63.3821C133.487 63.7941 134.62 64.0002 135.818 64.0002C139.227 64.0002 141.979 62.5956 144.077 59.7866L148.178 62.8202C146.755 64.7304 144.995 66.2285 142.897 67.3146C140.8 68.4007 138.44 68.9438 135.818 68.9438C133.684 68.9438 131.689 68.5692 129.835 67.8202C127.981 67.0712 126.371 66.0224 125.004 64.6741C123.637 63.3257 122.56 61.7433 121.774 59.9269C120.987 58.1105 120.594 56.1347 120.594 54C120.594 51.9776 120.968 50.0674 121.717 48.2696ZM129.61 46.0505C128.019 47.3801 126.961 49.1498 126.436 51.3595H143.908C143.421 49.1498 142.382 47.3801 140.79 46.0505C139.198 44.721 137.335 44.0562 135.2 44.0562C133.065 44.0562 131.202 44.721 129.61 46.0505Z" fill="#010202"/>
<path d="M160.256 46.6973C159.058 48.0081 158.459 49.7871 158.459 52.0344V68.3266H152.784V39.6749H158.402V43.2142C159.114 42.0532 160.041 41.1355 161.183 40.4614C162.326 39.7871 163.683 39.45 165.256 39.45H167.223V44.7309H164.863C162.99 44.731 161.455 45.3864 160.256 46.6973Z" fill="#010202"/>
</svg>
