<svg width="220" height="97" viewBox="0 0 220 97" fill="none" xmlns="http://www.w3.org/2000/svg">
<rect width="220" height="97" fill="#F8F8F8"/>
<path d="M59.5914 31H51.8718C51.8718 37.3349 48.964 43.1159 43.91 46.9237L40.8637 49.2084L52.7026 65.3398H62.4299L51.5257 50.4892C56.6836 45.3659 59.5914 38.4426 59.5914 31Z" fill="black"/>
<path d="M39.8926 31H32V65.3398H39.8926V31Z" fill="black"/>
<path d="M72.1594 31H64.7168V65.3398H72.1594V31Z" fill="black"/>
<path d="M137.442 40.9366C134.603 40.9366 131.903 41.802 130.103 44.2598V41.5943H123.041V65.3413H130.207V52.8793C130.207 49.2792 132.63 47.5137 135.538 47.5137C138.653 47.5137 140.453 49.383 140.453 52.8447V65.376H147.55V50.2485C147.55 44.7098 143.153 40.9366 137.442 40.9366Z" fill="black"/>
<path d="M94.6584 41.5943V43.1174C92.6507 41.7327 90.2275 40.9366 87.5966 40.9366C80.6733 40.9366 75.0654 46.5445 75.0654 53.4678C75.0654 60.3912 80.6733 65.9991 87.5966 65.9991C90.2275 65.9991 92.6507 65.2029 94.6584 63.8182V65.3413H101.755V41.5943H94.6584ZM88.1851 59.5604C84.6196 59.5604 81.7464 56.8256 81.7464 53.4678C81.7464 50.11 84.6196 47.3753 88.1851 47.3753C91.7506 47.3753 94.6238 50.11 94.6238 53.4678C94.6238 56.8256 91.7506 59.5604 88.1851 59.5604Z" fill="black"/>
<path d="M112.758 44.6744V41.5935H105.488V65.3406H112.792V54.2633C112.792 50.5247 116.843 48.5169 119.647 48.5169C119.681 48.5169 119.716 48.5169 119.716 48.5169V41.5935C116.843 41.5935 114.177 42.8397 112.758 44.6744Z" fill="black"/>
<path d="M169.635 41.5943V43.1174C167.628 41.7327 165.205 40.9366 162.574 40.9366C155.65 40.9366 150.042 46.5445 150.042 53.4678C150.042 60.3912 155.65 65.9991 162.574 65.9991C165.205 65.9991 167.628 65.2029 169.635 63.8182V65.3413H176.732V41.5943H169.635ZM163.162 59.5604C159.597 59.5604 156.723 56.8256 156.723 53.4678C156.723 50.11 159.597 47.3753 163.162 47.3753C166.728 47.3753 169.601 50.11 169.601 53.4678C169.635 56.8256 166.728 59.5604 163.162 59.5604Z" fill="black"/>
<path d="M182.24 42.286C182.24 41.9399 181.998 41.7322 181.617 41.7322H180.959V43.5322H181.271V42.8745H181.617L181.894 43.5322H182.24L181.928 42.8053C182.136 42.7014 182.24 42.5283 182.24 42.286ZM181.617 42.563H181.271V42.0091H181.617C181.825 42.0091 181.928 42.1129 181.928 42.286C181.928 42.4591 181.859 42.563 181.617 42.563Z" fill="black"/>
<path d="M181.512 40.9688C180.578 40.9688 179.816 41.7304 179.816 42.6651C179.851 43.5997 180.578 44.3613 181.512 44.3613C182.447 44.3613 183.208 43.5997 183.208 42.6651C183.208 41.7304 182.447 40.9688 181.512 40.9688ZM181.512 44.0497C180.751 44.0497 180.162 43.4266 180.162 42.6651C180.162 41.9035 180.785 41.2804 181.512 41.2804C182.274 41.2804 182.862 41.9035 182.862 42.6651C182.862 43.4266 182.239 44.0497 181.512 44.0497Z" fill="black"/>
<path d="M184.319 56.9266C181.862 56.9266 179.854 58.9343 179.854 61.3921C179.854 63.8499 181.862 65.8577 184.319 65.8577C186.777 65.8577 188.785 63.8499 188.785 61.3921C188.785 58.8997 186.777 56.9266 184.319 56.9266Z" fill="black"/>
</svg>
