<svg width="220" height="160" viewBox="0 0 220 160" fill="none" xmlns="http://www.w3.org/2000/svg">
<rect width="220" height="160" fill="#F8F8F8"/>
<path d="M116.207 23.0951C115.99 23.1571 115.479 23.2191 115.076 23.2346C113.464 23.2656 108.256 24.583 106.365 25.42C106.195 25.4975 105.714 25.699 105.28 25.8695C104.149 26.3035 101.157 27.7295 100.692 28.0705C100.475 28.21 100.119 28.396 99.8861 28.4425C99.6537 28.5045 99.4677 28.613 99.4677 28.675C99.4677 28.737 99.3437 28.83 99.2042 28.892C99.0492 28.9385 98.7237 29.1245 98.4602 29.295C98.2122 29.4655 97.8402 29.667 97.6387 29.76C97.4372 29.8375 97.0497 30.0855 96.7707 30.3025C96.4917 30.5195 96.2127 30.69 96.1662 30.69C95.8097 30.69 90.8187 34.3169 89.4082 35.5879C88.2613 36.6264 86.1378 38.8894 86.1378 39.0754C86.1378 39.1219 85.9983 39.3389 85.8123 39.5404C85.3473 40.0674 83.9523 42.2684 83.5493 43.0899C83.3788 43.4774 83.0378 44.1594 82.8208 44.6243C82.0613 46.1743 81.7513 47.8638 81.8288 49.8323C81.9218 51.7698 82.3558 52.7773 83.6733 54.1103C85.0528 55.4897 86.5253 56.0942 88.8503 56.2182C90.4467 56.2957 91.5937 56.1717 93.1902 55.7222C93.7017 55.5827 94.3837 55.4122 94.7092 55.3192C95.0347 55.2417 95.4067 55.1177 95.5617 55.0247C95.9182 54.8387 97.9177 53.9398 98.0107 53.9398C98.2897 53.9398 101.56 51.9403 104.583 49.9253C106.582 48.5923 108.334 47.4298 108.489 47.3523C108.628 47.2593 109.574 46.7013 110.581 46.0968C111.589 45.5078 112.829 44.7948 113.34 44.5313C113.852 44.2678 114.58 43.8804 114.967 43.6789C115.355 43.4929 116.083 43.1519 116.595 42.9659C117.106 42.7644 117.742 42.5009 117.99 42.3924C118.253 42.2839 118.625 42.1134 118.842 42.0204C119.447 41.7724 120.811 41.5244 122.144 41.4314C125.027 41.2454 127.042 42.5164 128.08 45.1823C128.328 45.8178 128.375 46.3448 128.375 48.2048C128.375 50.4678 128.173 51.7078 127.569 53.1648C127.445 53.4593 127.274 53.8778 127.181 54.0948C126.406 55.9547 124.81 58.6207 122.981 61.0387C121.245 63.3637 117.509 67.2231 115.045 69.2536C114.193 69.9666 113.247 70.7416 112.953 70.9896C112.302 71.5321 111.542 72.0746 110.705 72.6326C110.364 72.8496 109.806 73.2216 109.465 73.4696C108.504 74.1206 105.947 75.4845 104.505 76.1045C104.087 76.2905 103.513 76.5385 103.234 76.6625C102.971 76.7865 102.614 76.8795 102.444 76.8795C102.289 76.8795 101.932 76.957 101.653 77.05C100.646 77.4065 99.6227 76.7245 99.6227 75.686C99.6227 74.4151 100.227 73.6091 104.04 69.8271C108.163 65.7351 108.613 65.1306 108.613 63.5807C108.613 61.9842 107.853 60.8992 106.148 60.0312C105.404 59.6437 105.125 59.5972 103.823 59.5972C102.304 59.5972 101.421 59.8142 100.32 60.4807C100.072 60.6357 99.6846 60.8372 99.4677 60.9457C99.2507 61.0542 99.0492 61.1782 99.0027 61.2247C98.9562 61.2712 98.6462 61.5037 98.3052 61.7672C97.4837 62.3872 96.0422 63.8597 95.2207 64.9291C94.6472 65.6731 94.2287 66.3706 93.2522 68.1996C92.4462 69.7186 91.7177 72.5396 91.7177 74.1826C91.7177 77.515 93.4537 80.181 96.1352 80.9405C96.9412 81.173 100.227 81.173 101.359 80.956C102.475 80.7235 105.389 79.8245 105.575 79.654C105.668 79.5765 105.823 79.5145 105.947 79.5145C106.35 79.5145 110.953 77.174 112.534 76.151C112.891 75.9185 113.294 75.655 113.449 75.562C113.588 75.4845 114.317 75.035 115.076 74.5701C115.82 74.1051 116.471 73.6711 116.517 73.6246C116.564 73.5626 117.091 73.1751 117.68 72.7721C118.284 72.3536 118.982 71.8731 119.23 71.7026C119.493 71.5166 120.222 70.9586 120.857 70.4471C124.887 67.2386 128.452 63.8132 130.529 61.1472C130.87 60.7287 131.18 60.3412 131.227 60.2947C131.351 60.2017 132.405 58.6827 133.133 57.5357C133.459 57.0552 133.955 56.2027 134.234 55.6447C134.528 55.0867 134.931 54.3273 135.133 53.9398C135.334 53.5523 135.768 52.5448 136.109 51.6923C136.435 50.8398 136.76 50.0028 136.822 49.8323C137.256 48.7318 137.923 45.8953 138.217 43.8649C138.543 41.5709 138.295 37.8044 137.659 35.7274C137.396 34.8749 137.334 34.7199 136.76 33.48C135.52 30.814 133.536 28.396 131.258 26.815C130.948 26.598 130.56 26.3035 130.39 26.133C129.832 25.637 126.995 24.366 125.337 23.8855C124.453 23.6221 123.136 23.3431 122.407 23.2346C120.733 23.0176 116.719 22.9091 116.207 23.0951Z" fill="#FF0000"/>
<path d="M161.143 99.7402C161.096 99.7712 160.383 99.9107 159.531 100.05C158.678 100.174 157.283 100.407 156.431 100.562L154.881 100.825V115.085C154.881 130.569 154.85 129.918 155.764 131.856C156.074 132.522 156.508 133.096 157.175 133.7C158.818 135.204 160.352 135.669 163.623 135.684C166.413 135.684 166.304 135.793 166.242 133.22L166.196 131.36L165.002 131.251C162.879 131.065 161.856 130.213 161.623 128.446C161.561 127.919 161.515 121.285 161.53 113.721C161.546 100.624 161.515 99.3682 161.143 99.7402Z" fill="#FF0000"/>
<path d="M118.223 100.05C114.782 100.562 113.635 100.779 113.496 100.949C113.387 101.073 113.372 106.018 113.418 115.473C113.496 128.678 113.527 129.872 113.775 130.507C114.364 132.011 114.674 132.538 115.464 133.328C117.092 134.956 119.169 135.622 122.578 135.622C124.469 135.622 124.733 135.591 124.857 135.343C125.012 135.049 125.089 132.352 124.965 131.732C124.872 131.344 124.81 131.329 123.648 131.236C122.176 131.143 121.308 130.647 120.703 129.577L120.316 128.88L120.269 120.851C120.238 114.868 120.269 112.76 120.409 112.59C120.548 112.419 121.075 112.373 122.733 112.373C125.291 112.373 125.074 112.621 125.012 109.66L124.965 107.645L122.795 107.568C121.602 107.521 120.533 107.428 120.44 107.366C120.285 107.273 120.238 106.328 120.238 103.522V99.8177L119.897 99.8332C119.696 99.8487 118.952 99.9417 118.223 100.05Z" fill="#FF0000"/>
<path d="M64.5131 107.041C63.3506 107.149 60.5607 107.816 59.7082 108.188C59.5377 108.265 59.2277 108.374 59.0107 108.436C58.3287 108.622 56.0657 109.753 56.0657 109.908C56.0657 109.986 56.2052 110.342 56.3602 110.714C57.3832 112.962 57.7707 113.768 57.8482 113.768C57.8947 113.768 58.0497 113.706 58.2047 113.628C58.9952 113.225 59.9562 112.838 60.7157 112.605C61.1807 112.466 61.7387 112.28 61.9557 112.202C62.8237 111.892 65.1331 111.737 66.2026 111.908C68.3106 112.249 69.0856 113.225 69.2096 115.721C69.2716 117.1 69.2716 117.131 68.9151 117.224C68.7136 117.286 67.2876 117.333 65.7531 117.333C62.0642 117.333 60.9327 117.55 58.5457 118.712C56.4997 119.704 54.9807 121.58 54.2522 123.998C53.8802 125.284 53.9267 127.687 54.3452 128.958C55.7402 133.174 59.0572 135.638 63.6761 135.886C67.8766 136.119 72.2011 134.863 74.9755 132.631L75.983 131.81L76.0295 123.61C76.076 114.109 76.0605 113.783 74.9135 111.458C74.402 110.404 72.6816 108.73 71.6121 108.265C71.1161 108.033 70.5736 107.8 70.4031 107.723C69.2406 107.211 66.2956 106.87 64.5131 107.041ZM69.0856 121.983C69.1786 122.107 69.2406 123.951 69.2406 126.183C69.2406 130.585 69.3026 130.306 68.1556 130.911C67.7216 131.143 67.2411 131.19 65.7376 131.205H63.8621L63.0872 130.678C62.6687 130.399 62.1727 129.934 62.0022 129.671C60.8552 127.997 60.9327 125.005 62.1417 123.533C62.4982 123.083 63.8621 122.138 64.1101 122.138C64.2651 122.138 64.4356 122.076 64.5286 121.998C64.7456 121.766 65.4586 121.704 67.2721 121.735C68.5741 121.75 68.9771 121.797 69.0856 121.983Z" fill="#FF0000"/>
<path d="M103.189 107.414C100.104 108.143 97.6399 109.46 95.1599 111.723L94.5089 112.312V123.627C94.5089 129.843 94.5089 135.051 94.5089 135.206C94.5089 135.454 94.7414 135.469 97.8879 135.438L101.251 135.392L101.298 124.588L101.329 113.8L101.918 113.335C102.615 112.777 102.956 112.607 103.855 112.297C104.925 111.94 106.599 111.77 107.854 111.909C108.474 111.971 109.063 112.002 109.156 111.956C109.265 111.925 109.544 111.398 109.792 110.778C110.024 110.158 110.396 109.352 110.582 108.98C111.094 108.003 111.047 107.755 110.365 107.6C110.04 107.523 109.451 107.383 109.032 107.29C107.932 107.011 104.568 107.089 103.189 107.414Z" fill="#FF0000"/>
<path d="M136.899 107.444C136.388 107.522 135.907 107.661 135.83 107.739C135.737 107.816 135.582 107.878 135.458 107.878C135.334 107.878 134.776 108.095 134.233 108.374C133.04 108.963 131.211 110.653 130.436 111.908C129.754 113.009 128.964 114.652 128.84 115.241C128.778 115.489 128.685 115.845 128.607 116.016C128.545 116.186 128.359 116.853 128.204 117.488C127.786 119.162 127.786 124.525 128.189 126.091C128.561 127.532 129.398 129.733 129.553 129.733C129.63 129.733 129.692 129.811 129.692 129.904C129.692 130.493 131.536 132.833 132.838 133.887C133.412 134.352 134.698 135.019 135.659 135.344C136.698 135.701 138.992 136.088 140.015 136.088C142.216 136.088 146.184 135.143 147.501 134.306C147.811 134.12 148.23 133.903 148.447 133.841C148.912 133.701 149.935 133.066 150.059 132.849C150.198 132.632 148.462 129.113 148.23 129.113C148.121 129.113 147.842 129.253 147.625 129.423C147.408 129.594 147.145 129.733 147.021 129.733C146.912 129.733 146.68 129.826 146.509 129.95C146.339 130.059 145.533 130.384 144.727 130.663C143.347 131.144 143.115 131.175 141.084 131.19C139.162 131.19 138.837 131.159 138.217 130.865C136.047 129.826 134.807 127.207 134.807 123.673C134.807 122.913 134.822 122.278 134.853 122.262C134.869 122.231 138.31 122.185 142.479 122.138L150.074 122.061L150.028 120.511C149.935 117.473 149.129 113.381 148.431 112.451C148.369 112.358 148.152 111.97 147.951 111.583C147.114 109.924 145.347 108.498 143.254 107.801C141.72 107.274 138.914 107.119 136.899 107.444ZM140.232 112.373C140.883 112.544 142.247 113.644 142.247 113.985C142.247 114.078 142.355 114.357 142.479 114.59C142.836 115.287 143.115 117.581 142.867 117.876C142.712 118.077 142.107 118.108 138.976 118.108H135.272L135.179 117.721C134.977 116.93 135.52 114.807 136.14 113.985C136.822 113.071 137.426 112.606 138.325 112.342C138.821 112.203 139.302 112.11 139.41 112.141C139.503 112.172 139.875 112.28 140.232 112.373Z" fill="#FF0000"/>
<path d="M83.5025 96.5325C82.3245 97.137 81.968 97.4315 81.4565 98.191C80.9605 98.9505 80.945 99.0125 80.945 100.593V102.236L81.534 103.042C82.2315 103.988 82.6965 104.329 83.7195 104.685C85.099 105.135 86.2925 104.964 87.6719 104.096C89.3304 103.042 89.9039 100.345 88.8964 98.3615C88.5399 97.664 88.2299 97.3385 87.2999 96.7495C86.463 96.207 84.3395 96.083 83.5025 96.5325Z" fill="#FF0000"/>
<path d="M87.2994 107.724C87.0514 107.801 86.3539 107.941 85.7494 108.018C85.1604 108.096 84.0754 108.251 83.3469 108.359C82.6184 108.452 81.9829 108.592 81.9054 108.638C81.7659 108.762 81.7504 135.096 81.8744 135.329C81.9364 135.406 83.3159 135.468 85.1294 135.468C88.2914 135.468 88.3069 135.468 88.3844 135.112C88.4309 134.926 88.4464 128.664 88.4309 121.209C88.3844 107.77 88.3844 107.646 88.0744 107.615C87.9039 107.6 87.5629 107.646 87.2994 107.724Z" fill="#FF0000"/>
</svg>
