<svg width="220" height="160" viewBox="0 0 220 160" fill="none" xmlns="http://www.w3.org/2000/svg">
<rect width="220" height="160" fill="#F8F8F8"/>
<path d="M31.327 92.5687L34.0881 85.0942L36.7098 92.5687H31.327ZM39.3872 100.099H41.9252L35.371 82.0821H32.8609L26 100.099H28.538L30.5461 94.5768H37.407L39.3872 100.099ZM51.3799 96.2781C51.3799 97.7562 50.1806 98.5372 48.1447 98.5372C46.4991 98.5372 45.4114 98.063 44.7979 97.0032L42.3714 97.4216C43.3197 99.346 45.272 100.294 48.061 100.294C51.8261 100.294 53.7784 98.2025 53.7784 95.9992C53.7784 93.1544 51.1568 92.3735 48.1168 91.7599C46.6665 91.4531 44.9373 90.9232 44.9373 89.6402C44.9373 88.7199 45.8298 87.6601 47.6426 87.6601C49.4834 87.6601 50.5711 88.9151 50.7384 89.4171L52.8581 88.5246C51.8819 86.656 49.9296 85.903 47.8658 85.903C44.7142 85.903 42.5945 87.4648 42.5945 89.947C42.5945 92.7639 45.021 93.3217 47.3637 93.8237C49.4276 94.2421 51.3799 94.7441 51.3799 96.2781ZM58.8265 82.0821L56.4559 83.0582V86.3771H54.2805V88.3015H56.4559V97.0869C56.428 98.8718 56.428 100.155 59.0775 100.155C59.9421 100.155 60.8904 99.9874 61.3087 99.9317V98.0351C60.8625 98.1746 60.2489 98.3419 59.8027 98.3419C58.8265 98.3419 58.8265 97.6447 58.8265 96.0271V88.2736H61.3087V86.3492H58.8265V82.0821ZM63.3726 86.405V100.099H65.6596V93.7959C65.6596 92.6245 65.6317 91.23 66.2453 90.2538C66.9983 89.0267 68.086 88.5804 70.3451 88.5525V86.1819C69.4247 86.2098 66.9704 86.2656 65.6596 88.8593V86.405H63.3726ZM83.9554 82.11V84.3412H94.191L83.9554 97.7841V100.127H97.1753V97.9794H86.7165L96.8964 84.3969V82.1378H83.9554V82.11ZM111.566 86.405V100.099H113.853V92.3456C113.853 91.3415 113.853 90.2817 114.858 89.2777C115.583 88.5525 116.447 88.2458 117.479 88.2458C118.734 88.2458 120.017 88.8314 120.408 90.1144C120.547 90.5885 120.547 90.979 120.547 92.3735V100.099H122.834V91.983C122.834 90.8116 122.834 90.0028 122.611 89.194C121.942 86.9349 119.85 86.0703 118.121 86.0703C117.312 86.0703 115.136 86.2656 113.853 88.4968V86.405H111.566ZM147.238 96.7801C146.764 97.7283 145.843 98.565 144.086 98.565C142.552 98.565 139.959 97.5889 139.959 93.0707C139.959 91.8436 140.182 87.5485 143.947 87.5485C145.843 87.5485 146.736 88.5804 147.126 89.4729L149.274 88.5804C147.935 86.3771 145.564 85.8472 143.835 85.8472C139.484 85.8472 137.365 89.3614 137.365 93.2102C137.365 96.557 139.178 100.294 144.03 100.294C146.819 100.294 148.381 98.9276 149.246 97.5889L147.238 96.7801ZM100.466 91.8436H107.718C107.522 88.2736 105.459 87.6601 104.064 87.6601C102.112 87.6322 100.717 89.0824 100.466 91.8436ZM109.614 97.4773C108.833 98.8161 107.327 100.35 104.343 100.35C100.299 100.35 97.9841 97.6168 97.9841 92.987C97.9841 87.8553 101.387 85.8751 104.259 85.8751C106.769 85.8751 109.168 87.2696 109.977 90.7001C110.228 91.8436 110.228 92.9034 110.228 93.4612H100.411C100.355 95.7482 101.303 98.6487 104.538 98.5929C105.849 98.565 106.797 97.9794 107.383 97.0311L109.614 97.4773ZM126.571 91.8436H133.823C133.627 88.2736 131.564 87.6601 130.169 87.6601C128.217 87.6322 126.822 89.0824 126.571 91.8436ZM135.719 97.4773C134.938 98.8161 133.432 100.35 130.448 100.35C126.404 100.35 124.089 97.6168 124.089 92.987C124.089 87.8553 127.464 85.8751 130.364 85.8751C132.874 85.8751 135.273 87.2696 136.082 90.7001C136.333 91.8436 136.333 92.9034 136.333 93.4612H126.516C126.46 95.7482 127.408 98.6487 130.643 98.5929C131.954 98.565 132.902 97.9794 133.488 97.0311L135.719 97.4773ZM161.824 100.099H159.426C159.426 100.099 159.23 99.1228 159.147 98.0909C158.45 98.8161 157.167 100.294 154.573 100.294C151.923 100.294 149.943 98.7045 149.943 96.4175C149.943 95.6924 150.138 94.9672 150.557 94.3537C151.338 93.1823 152.788 92.2619 156.86 91.9551L159.035 91.7878V91.4531C159.035 90.0307 159.035 87.6601 155.967 87.6601C154.043 87.6601 153.401 88.5804 153.178 89.445L151.059 88.5525C151.087 88.4689 151.115 88.4131 151.17 88.3294C151.979 86.8234 153.569 85.903 155.884 85.903C157.139 85.903 158.784 86.2098 159.872 87.0744C161.406 88.2179 161.35 90.5048 161.35 90.5048L161.434 97.5331C161.462 97.4773 161.517 99.5133 161.824 100.099ZM158.673 96.3338C159.007 95.5808 159.035 95.274 159.035 93.2659C158.143 93.4054 156.944 93.5727 155.465 93.9074C152.927 94.4652 152.481 95.4135 152.481 96.3617C152.481 97.4494 153.346 98.3977 155.047 98.3977C156.665 98.3698 158.031 97.7283 158.673 96.3338ZM82.3099 100.099H79.9114C79.9114 100.099 79.7161 99.1228 79.6325 98.0909C78.9352 98.8161 77.6523 100.294 75.0585 100.294C72.4089 100.294 70.4288 98.7045 70.4288 96.4175C70.4288 95.6924 70.624 94.9672 71.0423 94.3537C71.8233 93.1823 73.2735 92.2619 77.3455 91.9551L79.5209 91.7878V91.4531C79.5209 90.0307 79.5209 87.6601 76.4809 87.6601C74.5565 87.6601 73.915 88.5804 73.6919 89.445L71.5722 88.5525C71.6001 88.4689 71.6559 88.4131 71.6838 88.3294C72.4926 86.8234 74.0823 85.903 76.3972 85.903C77.6523 85.903 79.2978 86.2098 80.3855 87.0744C81.9194 88.2179 81.8637 90.5048 81.8637 90.5048L81.9473 97.5331C81.9473 97.4773 82.031 99.5133 82.3099 100.099ZM79.1862 96.3338C79.5209 95.5808 79.5767 95.274 79.5767 93.2659C78.6842 93.4054 77.4849 93.5727 76.0068 93.9074C73.4688 94.4652 73.0225 95.4135 73.0225 96.3617C73.0225 97.4494 73.8871 98.3977 75.5884 98.3977C77.1502 98.3698 78.5169 97.7283 79.1862 96.3338Z" fill="#8B034F"/>
<path d="M176.772 88.581C176.41 88.8041 176.047 89.0273 175.713 89.2783C171.585 86.9913 162.716 82.5847 161.963 82.1663C161.154 81.748 159.704 81.1623 159.899 79.7957C160.15 77.8713 163.469 73.6878 164.891 71.9586C172.533 62.6154 175.964 59.7149 178.223 60.0217C180.649 60.3285 181.988 62.8386 182.155 74.5523C180.816 74.134 179.31 73.7156 177.721 73.2973C177.581 71.596 177.274 69.0301 177.163 68.1377C177.023 67.1336 176.828 66.7432 176.438 66.7153C175.991 66.6595 174.876 67.7193 173.844 68.7512C173.37 69.2254 172.087 70.5362 170.637 71.9865C169.437 71.9028 168.628 72.1538 168.182 72.7395C167.82 73.2136 167.764 73.8551 167.959 74.6639C167.178 75.4448 166.509 76.1142 166.091 76.5325C164.501 78.1223 162.799 79.4331 162.716 80.0746C162.66 80.6045 163.441 81.1344 164.612 81.8316C167.429 83.5329 174.318 87.2702 176.772 88.581ZM187.51 76.8672C184.805 75.919 178.139 73.4368 171.111 72.5164C168.684 72.2096 167.708 73.0463 168.712 75.3612C169.688 77.6481 172.226 81.4412 174.904 84.3138C177.581 87.1865 180.454 87.9395 181.374 83.5329C181.402 83.3656 181.43 83.2261 181.458 83.0588C181.681 81.9153 181.848 80.8276 181.932 79.8793C180.761 79.3494 179.422 78.7637 178.083 78.2059C178.167 79.21 178.278 80.9671 178.334 82.3058C178.334 82.4731 178.362 82.6404 178.362 82.8078C178.446 84.9832 177.693 84.9832 176.466 84.0907C175.015 83.0588 170.609 77.2298 170.107 74.6639C170.079 74.4966 170.162 74.4966 170.246 74.5245C170.274 74.5245 170.302 74.5523 170.358 74.5802C171.362 74.9707 174.681 76.2815 178.027 77.7039C179.366 78.2617 180.733 78.8474 181.932 79.4052C183.131 79.9351 184.191 80.4371 185 80.8834C186.45 81.6643 187.008 82.1942 186.422 82.8078C183.382 85.8757 172.812 90.2544 169.158 95.6651C169.158 95.6651 169.131 95.693 169.131 95.7209C169.075 95.7766 169.047 95.8324 169.019 95.9161C169.019 95.944 168.991 95.9719 168.991 95.9719C168.824 96.3065 168.545 96.8922 168.461 97.5895C168.294 98.7609 168.907 99.8486 170.609 100.323C171.027 100.462 171.529 100.546 172.059 100.602C172.143 100.602 172.254 100.629 172.366 100.629C175.629 100.797 184.107 98.9282 186.673 97.7847C189.351 96.6133 188.542 95.4141 187.761 94.8284C187.175 94.3542 184.219 92.7087 182.769 91.9278C182.378 92.1788 182.071 92.3741 181.709 92.6251C184.163 94.1311 185.111 94.8563 185.697 95.3025C185.92 95.4698 185.809 95.6651 185.474 95.693C185.39 95.693 185.307 95.693 185.223 95.7209C182.908 95.8882 178.502 96.195 176.438 96.3065C176.131 96.3344 175.796 96.3344 175.601 96.3344C176.103 95.8603 176.689 95.4141 176.968 95.2188C181.402 92.123 188.765 87.7443 190.94 85.8478C192.53 84.3975 196.881 80.1582 187.51 76.8672Z" fill="#F9B000"/>
</svg>
