<svg width="220" height="97" viewBox="0 0 220 97" fill="none" xmlns="http://www.w3.org/2000/svg">
<rect width="220" height="97" fill="#F8F8F8"/>
<path d="M127.637 61.1911C118.959 67.5872 106.381 70.9998 95.5523 70.9998C80.3679 70.9998 66.6982 65.3837 56.3564 56.043C55.5439 55.3084 56.2719 54.3074 57.247 54.8794C68.4077 61.3731 82.2075 65.2796 96.4623 65.2796C106.076 65.2796 116.652 63.2906 126.376 59.163C127.845 58.539 129.073 60.125 127.637 61.1911Z" fill="#FF9900"/>
<path d="M131.252 57.0632C130.147 55.6462 123.92 56.3937 121.125 56.7252C120.274 56.8292 120.144 56.0882 120.911 55.5552C125.87 52.0646 134.009 53.0721 134.958 54.2422C135.907 55.4187 134.711 63.5764 130.05 67.4699C129.335 68.068 128.652 67.7495 128.971 66.9564C130.017 64.3434 132.364 58.4868 131.252 57.0632" fill="#FF9900"/>
<path d="M121.315 30.9103V27.5172C121.315 27.0037 121.705 26.6592 122.173 26.6592H137.363C137.851 26.6592 138.241 27.0102 138.241 27.5172V30.4228C138.234 30.9103 137.825 31.5473 137.097 32.5548L129.225 43.7936C132.15 43.7221 135.238 44.1576 137.89 45.6526C138.488 45.9906 138.65 46.4846 138.696 46.9721V50.5927C138.696 51.0867 138.15 51.6652 137.578 51.3662C132.904 48.9157 126.697 48.6492 121.529 51.3922C121.003 51.6782 120.45 51.1062 120.45 50.6122V47.1736C120.45 46.6211 120.457 45.6786 121.009 44.8401L130.129 31.7618H122.192C121.705 31.7618 121.315 31.4173 121.315 30.9103" fill="#221F1F"/>
<path d="M65.8976 52.0811H61.276C60.834 52.0486 60.483 51.7171 60.4505 51.2946V27.5756C60.4505 27.1011 60.847 26.7241 61.341 26.7241H65.6506C66.0991 26.7436 66.4566 27.0881 66.4891 27.5171V30.6177H66.5736C67.6981 27.6211 69.8106 26.2236 72.6577 26.2236C75.5503 26.2236 77.3573 27.6211 78.6573 30.6177C79.7754 27.6211 82.3169 26.2236 85.0405 26.2236C86.9775 26.2236 89.0966 27.0231 90.3901 28.8171C91.8526 30.8127 91.5536 33.7117 91.5536 36.2533L91.5471 51.2231C91.5471 51.6976 91.1506 52.0811 90.6566 52.0811H86.0415C85.58 52.0486 85.2095 51.6781 85.2095 51.2231V38.6518C85.2095 37.6508 85.3005 35.1547 85.0795 34.2057C84.735 32.6132 83.7014 32.1647 82.3624 32.1647C81.2444 32.1647 80.0744 32.9122 79.5999 34.1082C79.1253 35.3043 79.1709 37.3063 79.1709 38.6518V51.2231C79.1709 51.6976 78.7743 52.0811 78.2803 52.0811H73.6652C73.1972 52.0486 72.8332 51.6781 72.8332 51.2231L72.8267 38.6518C72.8267 36.0063 73.2622 32.1127 69.9797 32.1127C66.6581 32.1127 66.7881 35.9088 66.7881 38.6518V51.2231C66.7881 51.6976 66.3916 52.0811 65.8976 52.0811Z" fill="#221F1F"/>
<path d="M151.321 26.2236C158.179 26.2236 161.891 32.1127 161.891 39.6008C161.891 46.8355 157.789 52.5751 151.321 52.5751C144.587 52.5751 140.921 46.686 140.921 39.3473C140.921 31.9632 144.633 26.2236 151.321 26.2236V26.2236ZM151.36 31.0662C147.954 31.0662 147.74 35.7073 147.74 38.5998C147.74 41.4989 147.694 47.687 151.321 47.687C154.903 47.687 155.072 42.6949 155.072 39.6528C155.072 37.6508 154.988 35.2587 154.383 33.3607C153.863 31.7097 152.83 31.0662 151.36 31.0662" fill="#221F1F"/>
<path d="M170.784 52.0811H166.182C165.721 52.0486 165.35 51.6781 165.35 51.2231L165.344 27.4976C165.383 27.0621 165.766 26.7241 166.234 26.7241H170.518C170.921 26.7436 171.252 27.0166 171.343 27.3871V31.0142H171.428C172.721 27.7706 174.535 26.2236 177.727 26.2236C179.8 26.2236 181.822 26.9711 183.122 29.0186C184.331 30.9167 184.331 34.1082 184.331 36.4028V51.3336C184.279 51.7496 183.895 52.0811 183.44 52.0811H178.806C178.383 52.0486 178.032 51.7366 177.987 51.3336V38.4503C177.987 35.8568 178.286 32.0607 175.094 32.0607C173.969 32.0607 172.936 32.8147 172.422 33.9587C171.772 35.4083 171.688 36.8513 171.688 38.4503V51.2231C171.681 51.6976 171.278 52.0811 170.784 52.0811" fill="#221F1F"/>
<path d="M48.6178 40.7553V39.7543C45.2767 39.7543 41.7471 40.4693 41.7471 44.4084C41.7471 46.4039 42.7807 47.756 44.5552 47.756C45.8552 47.756 47.0187 46.9564 47.7533 45.6564C48.6633 44.0574 48.6178 42.5558 48.6178 40.7553V40.7553ZM53.2784 52.02C52.9729 52.2931 52.5309 52.3126 52.1864 52.1306C50.6523 50.8565 50.3793 50.265 49.5343 49.0495C46.9992 51.6365 45.2052 52.4101 41.9161 52.4101C38.0291 52.4101 35 50.0115 35 45.2079C35 41.4573 37.0345 38.9028 39.9271 37.6547C42.4362 36.5497 45.9397 36.3547 48.6178 36.0492V35.4512C48.6178 34.3527 48.7023 33.0526 48.0588 32.1036C47.4933 31.2521 46.4142 30.9011 45.4652 30.9011C43.7037 30.9011 42.1306 31.8046 41.7471 33.6767C41.6691 34.0927 41.3636 34.5022 40.9476 34.5217L36.4625 34.0407C36.0855 33.9562 35.6695 33.6507 35.7735 33.0722C36.807 27.638 41.7146 26 46.1087 26C48.3578 26 51.2958 26.598 53.0704 28.301C55.3194 30.4006 55.1049 33.2021 55.1049 36.2507V43.4529C55.1049 45.6174 56.0019 46.5664 56.847 47.7365C57.146 48.1525 57.211 48.653 56.834 48.965C55.8914 49.7515 54.2144 51.214 53.2914 52.033L53.2784 52.02" fill="#221F1F"/>
<path d="M108.774 40.7553V39.7543C105.433 39.7543 101.903 40.4693 101.903 44.4084C101.903 46.4039 102.937 47.756 104.712 47.756C106.012 47.756 107.175 46.9564 107.91 45.6564C108.82 44.0574 108.774 42.5558 108.774 40.7553V40.7553ZM113.435 52.02C113.129 52.2931 112.687 52.3126 112.343 52.1306C110.809 50.8565 110.536 50.265 109.691 49.0495C107.156 51.6365 105.362 52.4101 102.072 52.4101C98.1854 52.4101 95.1563 50.0115 95.1563 45.2079C95.1563 41.4573 97.1909 38.9028 100.083 37.6547C102.592 36.5497 106.096 36.3547 108.774 36.0492V35.4512C108.774 34.3527 108.859 33.0526 108.215 32.1036C107.65 31.2521 106.571 30.9011 105.622 30.9011C103.86 30.9011 102.287 31.8046 101.903 33.6767C101.825 34.0927 101.52 34.5022 101.104 34.5217L96.6188 34.0407C96.2418 33.9562 95.8258 33.6507 95.9298 33.0722C96.9633 27.638 101.871 26 106.265 26C108.514 26 111.452 26.598 113.227 28.301C115.476 30.4006 115.261 33.2021 115.261 36.2507V43.4529C115.261 45.6174 116.158 46.5664 117.003 47.7365C117.302 48.1525 117.367 48.653 116.99 48.965C116.048 49.7515 114.371 51.214 113.448 52.033L113.435 52.02" fill="#221F1F"/>
</svg>
