<svg width="220" height="97" viewBox="0 0 220 97" fill="none" xmlns="http://www.w3.org/2000/svg">
<rect width="220" height="97" fill="#F8F8F8"/>
<path d="M202.831 42.9957C201.991 42.9957 201.302 42.3142 201.302 41.4743C201.302 40.6343 201.991 39.9449 202.831 39.9449C203.671 39.9449 204.361 40.6343 204.361 41.4743C204.361 42.3142 203.671 42.9957 202.831 42.9957ZM202.831 39.5725C201.785 39.5725 200.93 40.4283 200.93 41.4743C200.93 42.5202 201.785 43.376 202.831 43.376C203.877 43.376 204.733 42.5202 204.733 41.4743C204.733 40.4283 203.877 39.5725 202.831 39.5725Z" fill="black"/>
<path d="M202.956 41.3966L202.552 41.4045L202.544 40.9132H202.948C203.099 40.9053 203.218 41.0004 203.218 41.151C203.226 41.3015 203.107 41.3966 202.956 41.3966V41.3966ZM203.614 41.143C203.606 40.8102 203.376 40.5725 203.004 40.5725L202.156 40.5884L202.18 42.3792H202.568L202.56 41.7373H202.838L203.202 42.3713L203.638 42.3633L203.226 41.6819C203.416 41.6343 203.614 41.46 203.614 41.143" fill="black"/>
<path d="M55.8506 54.1606H51.097V43.1984H55.7207C56.9679 43.1984 57.7469 44.0035 57.7469 45.0947C57.7469 46.1858 56.9679 46.9647 55.7207 46.9647H50.4352V50.1344H55.8506C57.3055 50.1344 58.0844 51.0694 58.0844 52.1598C58.0844 53.407 57.2532 54.1606 55.8506 54.1606ZM58.5258 48.4196C60.1629 48.082 61.514 46.6272 61.514 44.4457C61.514 42.1334 59.8253 40.0296 56.5258 40.0296H47.4083V57.3556H56.8118C60.1106 57.3556 61.8507 55.2771 61.8507 52.6796C61.8507 50.4973 60.3705 48.7057 58.5258 48.4196" fill="black"/>
<path d="M72.6475 47.9521H68.6596V51.1994H71.4787L74.8813 57.3556H79.1151L75.2189 50.7572C77.0897 50.3158 79.0113 48.6795 79.0113 45.6145L72.6475 47.9521ZM79.0113 45.6145C79.0113 42.3933 76.8037 40.0296 73.1927 40.0296H65.088V57.3556H68.7766V43.2769H72.6475C74.1285 43.2769 75.245 44.1596 75.245 45.6145C75.245 47.0693 74.1285 47.9521 72.6475 47.9521" fill="black"/>
<path d="M107.058 51.1732L109.759 43.7182L112.461 51.1732H107.058ZM107.447 40.0296L100.745 57.3556H104.953L106.044 54.4205H113.474L114.539 57.3556H118.747L112.071 40.0296H107.447Z" fill="black"/>
<path d="M128.765 54.1083H125.621V43.2761H128.765C132.324 43.2761 134.194 45.6398 134.194 48.7057C134.194 51.6407 132.194 54.1083 128.765 54.1083V54.1083ZM128.765 40.0296H121.933V57.3556H128.765C134.194 57.3556 137.96 53.9268 137.96 48.7057C137.96 43.4845 134.194 40.0296 128.765 40.0296" fill="black"/>
<path d="M193.844 40.0268L189.3 47.3724L184.757 40.0268H180.679V57.3559H184.368V46.0301L188.34 52.0698C188.795 52.76 189.807 52.76 190.261 52.0698L194.233 46.0301V57.3559H197.923V40.0268H193.844Z" fill="black"/>
<path d="M90.7097 54.2901C87.6423 54.2901 85.1565 51.8035 85.1565 48.7369C85.1565 45.6695 87.6423 43.1829 90.7097 43.1829C93.7763 43.1829 96.2629 45.6695 96.2629 48.7369C96.2629 51.8035 93.7763 54.2901 90.7097 54.2901ZM90.7097 39.602C85.6644 39.602 81.5748 43.6916 81.5748 48.7369C81.5748 53.7813 85.6644 57.871 90.7097 57.871C95.7542 57.871 99.8446 53.7813 99.8446 48.7369C99.8446 43.6916 95.7542 39.602 90.7097 39.602" fill="black"/>
<path d="M168.756 54.2901C165.688 54.2901 163.203 51.8035 163.203 48.7369C163.203 45.6695 165.688 43.1829 168.756 43.1829C171.822 43.1829 174.309 45.6695 174.309 48.7369C174.309 51.8035 171.822 54.2901 168.756 54.2901ZM168.756 39.602C163.711 39.602 159.621 43.6916 159.621 48.7369C159.621 53.7813 163.711 57.871 168.756 57.871C173.8 57.871 177.891 53.7813 177.891 48.7369C177.891 43.6916 173.8 39.602 168.756 39.602" fill="black"/>
<path d="M154.562 51.4239C153.615 53.1324 151.795 54.2901 149.703 54.2901C146.636 54.2901 144.15 51.8035 144.15 48.7369C144.15 45.6695 146.636 43.1837 149.703 43.1837C151.777 43.1837 153.583 44.3232 154.536 46.0086L157.128 43.4183C155.47 41.1084 152.763 39.602 149.703 39.602C144.657 39.602 140.569 43.6916 140.569 48.7369C140.569 53.7813 144.657 57.8717 149.703 57.8717C152.78 57.8717 155.5 56.3487 157.155 54.0167L154.562 51.4239Z" fill="black"/>
<path d="M27.8658 61.73C34.9713 61.73 40.7316 55.9701 40.7316 48.865C40.7316 41.7599 34.9713 36 27.8658 36C20.7602 36 15 41.7599 15 48.865C15 55.9701 20.7602 61.73 27.8658 61.73Z" fill="#CC092F"/>
<path d="M39.205 52.3395C37.7335 51.7531 36.3864 51.9496 35.0362 52.7682C35.0362 52.7682 34.5441 53.0685 34.3967 53.1612C33.7675 53.5558 33.174 53.9298 32.6035 53.9298C32.0591 53.9298 31.5234 53.784 31.2968 52.7309C30.9434 51.0883 30.0812 47.0518 29.7049 45.0525C29.4838 43.8774 29.3625 43.2442 29.2365 42.814C29.0147 42.058 28.609 41.6467 28.0329 41.581C28.0329 41.581 27.9425 41.5683 27.8688 41.5683C27.7959 41.5683 27.6961 41.5826 27.6961 41.5826C27.1256 41.6507 26.7222 42.062 26.5019 42.814C26.376 43.2442 26.2547 43.8774 26.0336 45.0525C25.6572 47.0518 24.7951 51.0883 24.4417 52.7309C24.2151 53.784 23.6794 53.9298 23.135 53.9298C22.5645 53.9298 21.971 53.5558 21.3418 53.1612C21.1944 53.0685 20.7015 52.7682 20.7015 52.7682C19.3521 51.9496 18.0042 51.7531 16.5335 52.3395C16.2157 52.4663 15.9027 52.6083 15.6048 52.7517C15.8084 53.3904 16.062 54.0189 16.3575 54.6093C16.6832 54.4492 17.0248 54.2904 17.3734 54.1874C17.8758 54.0392 18.3909 54.0313 18.8901 54.1985C19.375 54.3609 19.8069 54.6486 20.2372 54.9188C21.0478 55.4283 21.9662 56.0059 23.135 56.0059C24.8672 56.0059 26.0828 54.9719 26.471 53.1683C26.7722 51.7705 27.4394 48.65 27.8681 46.4979C27.8681 46.4979 28.9663 51.7705 29.2667 53.1683C29.6549 54.9719 30.8713 56.0059 32.6035 56.0059C33.7723 56.0059 34.6907 55.4283 35.5013 54.9188C35.9316 54.6486 36.3634 54.3609 36.8484 54.1985C37.3468 54.0313 37.8627 54.0392 38.3651 54.1874C38.7137 54.2904 39.0548 54.4494 39.3804 54.6094C39.6768 54.0191 39.9297 53.3902 40.1333 52.7516C39.8354 52.6081 39.5228 52.4663 39.205 52.3395" fill="#F8F8F8"/>
</svg>
