<svg width="220" height="97" viewBox="0 0 220 97" fill="none" xmlns="http://www.w3.org/2000/svg">
<rect width="220" height="97" fill="#F8F8F8"/>
<path d="M80.9236 27.9219L72.8036 29.665L72.7661 56.6449C72.7661 61.6279 76.4791 64.8488 81.4112 64.8488C84.1491 64.8488 86.1556 64.3373 87.2621 63.731V57.327C86.1932 57.7628 80.9423 59.3164 80.9423 54.3524V42.3782H87.2621V35.2164H80.9423L80.9236 27.9219ZM97.6324 37.6984L97.1261 35.2164H89.925V64.2425H98.2325V44.7086C100.202 42.094 103.521 42.6055 104.59 42.9466V35.2164C103.465 34.8185 99.5827 34.0796 97.6324 37.6984ZM114.941 24L106.578 25.7999V32.6586L114.941 30.8587V24ZM58.4013 43.7613C58.4013 42.454 59.489 41.9424 61.233 41.9235C63.7647 41.9235 66.9902 42.7003 69.5218 44.0834V36.1637C66.7651 35.0648 64.0084 34.629 61.2518 34.629C54.5007 34.629 50 38.191 50 44.1402C50 53.4619 62.6582 51.9462 62.6582 55.9629C62.6582 57.5165 61.3268 58.028 59.4702 58.028C56.7135 58.028 53.1505 56.8723 50.3563 55.3376V62.9163C53.4505 64.2615 56.5823 64.8299 59.4515 64.8299C66.3713 64.8299 71.1346 61.8363 71.1346 55.7734C71.1346 45.7507 58.4013 47.5506 58.4013 43.7613V43.7613ZM170 50.0705C170 41.4498 165.874 34.648 157.961 34.648C150.047 34.648 145.227 41.4498 145.227 50.0136C145.227 60.1501 150.91 64.8299 159.011 64.8299C162.986 64.8299 165.968 63.9204 168.237 62.651V56.3229C165.968 57.4786 163.361 58.1796 160.061 58.1796C156.817 58.1796 153.966 57.0239 153.591 53.083H169.887C169.925 52.6472 170 50.8852 170 50.0705V50.0705ZM153.516 46.8875C153.516 43.0981 155.823 41.5066 157.904 41.5066C159.948 41.5066 162.124 43.0981 162.124 46.8875H153.516ZM132.344 34.648C129.081 34.648 126.981 36.2016 125.818 37.2815L125.387 35.1974H118.054V74L126.381 72.219L126.399 62.7078C127.6 63.5983 129.381 64.8299 132.288 64.8299C138.251 64.8299 143.69 60.4343 143.69 49.7484C143.708 39.972 138.195 34.648 132.344 34.648V34.648ZM130.356 57.8575C128.406 57.8575 127.243 57.1376 126.437 56.266L126.381 43.7613C127.243 42.795 128.444 42.094 130.356 42.094C133.394 42.094 135.495 45.5423 135.495 49.9379C135.513 54.4661 133.451 57.8575 130.356 57.8575ZM106.596 64.2425H114.96V35.2164H106.596V64.2425Z" fill="black"/>
</svg>
