<svg width="220" height="160" viewBox="0 0 220 160" fill="none" xmlns="http://www.w3.org/2000/svg">
<rect width="220" height="160" fill="#F8F8F8"/>
<path d="M76.7103 118.445C76.5615 117.971 76.127 116.905 76.0087 116.118C75.7475 114.375 76.6588 113.227 77.4957 112.964C78.4349 112.702 78.8017 113.174 79.1653 114.27C79.6353 115.94 79.6877 118.128 79.5296 121.26C79.3242 125.538 77.1837 130.705 71.863 130.598C67.2702 130.497 65.2379 127.522 65.0266 122.983C64.9268 120.844 65.0799 118.705 65.9658 115.68C66.4358 114.061 66.8551 113.484 68.3134 113.174C69.4597 112.964 69.3565 114.163 69.097 115.576C68.5255 118.705 68.2601 120.216 68.4714 123.765C68.676 127.522 70.4014 128.984 72.2798 128.984C75.0974 129.038 76.3485 126.69 76.8726 123.295C77.286 120.583 76.9741 119.279 76.7103 118.445ZM136.785 122.151C137.882 122.151 138.197 123.448 137.935 124.235C137.673 125.016 136.735 125.907 135.275 126.166C134.961 125.382 134.803 122.151 136.785 122.151ZM116.39 123.919C116.39 123.036 115.917 122.305 115.348 122.305C114.873 122.305 113.782 122.824 113.782 124.495C113.782 125.804 114.247 126.424 114.46 126.69C115.969 126.219 116.39 124.963 116.39 123.919ZM100.161 113.278C100.087 112.441 99.4311 111.871 98.5434 111.871C97.5535 111.871 96.6211 112.91 96.72 114.215C96.7834 115.076 97.2906 115.783 98.2873 115.783C99.4311 115.784 100.265 114.48 100.161 113.278ZM108.646 116.342C108.555 114.883 108.202 114.225 107.418 114.279C106.379 114.341 105.899 117.61 106.111 121.047C106.246 123.289 106.58 123.634 106.891 123.612C107.466 123.578 108.845 119.572 108.646 116.342ZM143.255 121.835C142.609 124.517 140.648 128.463 137.723 128.463C137.046 128.463 135.846 128.2 135.846 127.522C135.846 126.791 140.44 126.69 140.44 123.192C140.44 121.889 139.241 120.061 137.466 120.061C135.118 120.061 132.828 122.62 132.828 126.167C132.828 129.347 134.803 130.391 136.786 130.391C140.231 130.391 142.318 127.572 143.413 125.226C143.937 126.792 144.244 130.391 145.554 130.391C146.074 130.391 146.442 130.13 147.068 128.723C148.629 125.225 150.144 121.208 152.232 121.208C153.013 121.208 152.545 122.62 154.423 122.62C155.308 122.62 155.932 121.889 155.932 121.051C155.932 119.85 154.838 118.914 153.17 118.914C148.264 118.914 147.224 126.271 146.441 126.271C145.135 126.271 145.553 120.375 144.612 120.375C143.777 120.374 143.367 121.369 143.255 121.835ZM101.518 128.094C102.3 128.094 103.645 127.841 104.704 126.146C104.098 124.802 103.666 122.086 103.606 121.097C103.295 116.039 105.244 111.281 107.377 111.149C108.941 111.055 110.192 112.535 110.335 114.933C110.72 121.235 108.621 123.866 107.57 126.136C107.748 127.016 109.241 128.514 110.649 128.514C111.169 128.514 111.798 128.253 111.956 128.041C111.851 127.679 111.745 127.209 111.745 126.529C111.745 122.877 114.093 119.797 116.129 119.797C117.746 119.797 118.685 121.936 118.685 123.348C118.685 125.015 117.275 126.374 115.189 127.679C115.556 128.041 116.231 128.305 116.807 128.305C119.784 128.305 121.341 124.704 122.494 121.415C122.702 120.788 123.07 119.903 123.799 119.903C125.051 119.903 125.575 128.147 127.656 128.147C128.546 128.147 129.275 126.319 129.275 124.914C129.275 123.869 128.91 123.764 128.91 122.251C128.91 120.583 129.797 119.176 131 119.176C131.73 119.176 131.994 119.903 131.994 120.788C131.994 124.128 129.59 130.338 126.047 130.338C123.382 130.338 123.59 125.746 122.651 125.746C121.603 125.746 120.142 130.39 114.982 130.39C114.144 130.39 113.259 129.973 112.53 129.136C111.28 129.973 110.233 130.338 109.033 130.338C107.104 130.338 106.268 128.355 105.487 128.355C104.546 128.355 103.506 130.39 100.372 130.39C97.868 130.39 97.4504 127.054 96.5653 127.054C95.7808 127.054 94.5812 130.39 93.2777 130.39C91.0831 130.39 90.6182 124.6 88.684 124.6C87.1717 124.6 82.3911 130.48 81.0935 130.346C80.5719 130.292 80.3521 129.902 80.4071 129.379C80.4806 128.657 81.102 126.725 81.3539 125.811C81.7757 124.224 82.1629 122.485 82.3793 121.931C82.594 121.371 83.1731 120.972 83.6381 121.015C83.8722 121.037 83.9424 121.474 84.0151 121.835C84.2788 123.125 84.6466 124.441 85.0616 124.441C85.7946 124.441 88.2148 119.796 89.6232 119.796C91.3477 119.796 91.554 127.103 93.9007 127.103C94.6852 127.103 95.2609 126.165 95.7808 125.014C95.8341 123.081 96.3557 120.321 97.9204 120.321C99.0168 120.321 99.5393 122.771 98.7539 124.913C98.7522 127.468 100.42 128.094 101.518 128.094Z" fill="#1766A6"/>
<path d="M137.857 46.2766C137.47 46.2766 136.916 46.2766 136.61 45.6688C136.36 45.1701 136.445 44.3661 135.974 44.0069C136.445 44.1446 136.943 44.1446 137.33 44.1446C138.578 44.1446 139.77 43.2866 140.684 43.2866C141.287 43.2866 141.481 43.6746 141.481 44.061C141.482 45.2808 139.022 46.2766 137.857 46.2766ZM138.466 49.4053C141.343 49.4053 143.977 47.1076 143.977 45.0872C143.977 44.1446 143.532 43.3703 142.397 43.2317C142.591 43.481 142.673 43.6746 142.673 44.1176C142.673 45.6409 140.353 47.33 137.83 47.33C136.916 47.33 136.638 47.9657 136.638 48.2979C136.638 49.0739 137.387 49.4053 138.466 49.4053ZM138.245 50.5685C138.606 53.1976 142.591 56.7422 143.67 56.6585C144.392 56.5976 144.668 53.2255 144.668 50.5685C144.668 49.046 144.752 47.8549 143.948 47.5777C142.673 50.1535 139.327 50.6793 138.245 50.5685Z" fill="#1766A6"/>
<path d="M75.9298 67.9824C76.8699 67.9824 76.6763 62.223 78.1988 62.223C78.5598 62.223 78.6705 62.5831 78.6705 63.0261C78.6705 64.3271 78.0331 66.2385 78.0331 67.2892C78.0331 67.8159 78.1717 67.9824 78.4211 67.9824C79.0864 67.9824 80.2488 61.6414 81.3833 61.6414C81.7434 61.6414 81.9091 62.0015 81.9091 62.3616C81.9091 63.6905 80.2217 67.5107 80.2217 68.5902C80.2217 68.7568 80.2758 68.8946 80.4153 68.8946C81.1077 68.8946 82.4915 65.9054 82.9337 64.4108C83.183 63.6347 83.5153 63.2188 83.8204 63.2188C84.0969 63.2188 84.3471 63.524 84.3471 64.1614C84.3471 65.656 82.9615 69.1719 81.7434 71.5262C80.8033 73.353 79.3358 75.9812 79.3358 77.4488C79.3358 78.1969 79.4719 78.9713 80.5523 79.913C78.7804 79.8023 78.061 79.6366 77.3974 78.2527C74.4344 84.1491 82.8508 83.5683 79.9715 88.7986C79.4449 87.8594 75.2933 86.8898 75.2933 81.4084C75.2933 76.6744 79.4449 73.9059 79.4449 71.9413C79.4449 71.5541 79.3079 71.2219 78.9478 70.9175C78.0331 70.1406 78.0052 69.5058 77.2858 69.5058C76.7608 69.5058 76.1217 70.7231 76.787 71.8026C77.0094 72.1627 77.203 72.3842 77.203 72.7164C77.203 73.4908 75.9839 75.5662 75.1268 75.5662C74.2679 75.5662 73.6051 73.4375 73.6051 70.0028C73.6051 66.9562 74.2958 63.885 75.1546 63.885C75.4032 63.885 75.486 64.0507 75.486 64.273C75.486 64.6331 75.3761 65.3517 75.3761 66.5698C75.3761 67.8708 75.6805 67.9824 75.9298 67.9824Z" fill="#1766A6"/>
<path d="M82.9907 76.0919C84.1548 76.0919 85.1227 75.2321 85.1227 73.325V70.4998C85.1227 69.4203 85.2064 68.203 85.9267 67.3432C85.843 67.7042 85.843 68.0914 85.843 68.4515C85.843 70.8329 87.171 72.467 87.171 74.7638C87.171 75.621 86.9217 76.0927 86.2589 76.0927C85.6215 76.0927 85.6773 75.5111 85.5378 75.5111C85.4279 75.5111 85.2614 75.8704 85.2614 76.2584C85.2614 76.84 85.6764 77.753 86.8388 77.753C87.8363 77.753 88.6377 76.84 88.6377 75.8154C88.6377 73.3258 86.7002 70.5556 86.7002 67.8986C86.7002 66.7354 87.0045 65.9611 87.2539 65.3507C87.2539 70.8608 91.9321 74.8745 91.9321 77.1714C91.9321 77.698 91.5449 78.114 90.9633 78.114C90.3268 78.114 90.0216 77.6144 90.0216 77.2263C90.0216 77.0327 89.9937 76.9778 89.9109 76.9778C89.746 76.9778 89.2472 77.5315 89.2472 78.2526C89.2472 79.1647 89.9937 80.2739 91.3784 80.2739C92.955 80.2739 93.8139 78.9433 93.8139 77.753C93.8139 74.8475 88.139 70.4448 88.139 65.7396C88.139 64.9356 88.2759 63.6346 88.8592 62.6388C85.2047 64.9906 84.0703 68.1201 84.0703 70.8608C84.0703 73.2421 83.9874 74.4307 82.7693 74.4307C82.1318 74.4307 81.9662 73.8508 81.7438 73.8508C81.5781 73.8508 81.4944 74.3487 81.4944 74.4865C81.4961 75.5102 82.2443 76.0919 82.9907 76.0919Z" fill="#1766A6"/>
<path d="M124.933 44.9208C125.285 44.685 126.845 45.0586 128.863 44.0611C129.112 43.925 129.361 43.8692 129.582 43.8692C130.553 43.8692 130.304 44.9758 131.19 44.9758C131.881 44.9758 132.769 44.3942 133.296 44.3942C134.121 44.3942 135.312 46.9971 135.312 48.2152C135.312 49.627 133.185 50.4859 130.664 50.4859C126.984 50.4859 124.766 47.2743 124.766 45.1973C124.767 45.0316 124.851 44.9758 124.933 44.9208ZM130.969 48.4367C132.188 48.4367 133.102 47.883 133.102 47.5499C133.102 47.4409 132.936 47.3572 132.575 47.3572C132.215 47.3572 131.495 47.3301 130.137 47.1078C128.972 46.9142 128.086 46.4712 127.754 46.4712C127.643 46.4712 127.587 46.5262 127.587 46.609C127.587 47.3301 128.918 48.4367 130.969 48.4367Z" fill="#1766A6"/>
<path d="M83.572 86.5287C82.659 86.751 81.1906 88.1881 81.1906 90.4613C81.1906 93.1723 84.0978 97.3543 88.8868 97.3543C92.9276 97.3543 93.9251 94.5579 93.9251 92.6736C93.9251 88.4941 91.3519 85.559 88.0026 85.559C86.1749 85.559 84.5408 86.8879 84.5408 88.8525C84.5408 90.6819 85.9255 93.4217 89.219 93.4217C90.7694 93.4217 91.6824 92.3126 91.6824 91.0429C91.6824 89.796 90.5479 88.0807 88.886 88.0807C88.388 88.0807 88.0288 88.4096 88.0288 88.9379C88.0288 89.6007 88.9409 90.2668 90.0771 90.2668C90.3527 90.2668 90.575 90.211 90.6866 90.1552C90.7407 90.2406 90.7694 90.3776 90.7694 90.4883C90.7694 91.1257 90.1599 91.5137 89.219 91.5137C87.8073 91.5137 86.4505 90.4621 86.4505 88.7976C86.4505 87.8035 87.3094 87.0841 88.5546 87.0841C91.018 87.0841 92.4847 89.2702 92.4847 91.4588C92.4847 93.4226 91.4068 94.5596 89.1911 94.5596C84.7614 94.5587 82.6041 90.5712 83.572 86.5287Z" fill="#1766A6"/>
<path d="M115.174 102.75C116.502 102.75 116.433 102.639 116.849 102.639C117.263 102.639 117.292 102.889 117.292 103.055C117.292 103.665 115.934 104.412 113.526 104.412C112.114 104.412 111.255 103.664 111.006 102.834C109.623 103.72 107.519 104.523 105.442 104.523C99.7681 104.523 98.3285 102.057 96.5558 101.256C95.199 100.647 93.1228 101.838 90.2156 98.5985C90.6036 98.6822 91.1303 98.7093 91.5453 98.7093C94.0907 98.7093 95.4475 97.4657 95.4475 95.4707C95.4475 95.2205 95.4196 94.9466 95.3917 94.698C96.1678 95.0024 97.9405 96.3296 98.3564 98.6822C98.4105 98.9595 99.545 99.208 100.265 99.208C101.263 99.208 102.536 98.7921 102.729 97.1606C106.052 96.8841 108.295 94.9195 108.766 92.4249C109.955 92.8129 111.312 93.8924 111.644 94.4478C112.115 94.2821 112.667 94.1984 113.304 94.1984C114.19 94.1984 115.188 94.365 116.377 94.7251C116.433 94.365 116.488 93.922 117.042 93.922C117.872 93.922 117.651 94.8358 117.928 95.3591C118.067 95.6364 118.76 95.8021 118.76 96.3566C118.76 96.8841 118.315 97.0786 118.038 97.0786C117.927 97.0786 117.789 97.0507 117.705 97.0236C117.152 97.2172 117.123 101.201 114.799 101.201C113.083 101.201 111.505 99.7896 110.812 98.0195C110.618 97.4936 110.203 97.1606 109.815 97.1606C109.373 97.1606 109.124 97.2443 108.599 97.8259C107.104 99.4574 104.612 100.869 101.539 100.869C100.597 100.869 99.8501 100.785 99.6557 100.785C99.5441 100.785 99.5441 100.813 99.5441 100.84C99.5441 101.034 100.485 101.782 102.534 101.782C107.407 101.782 108.598 99.0407 109.372 99.0407C109.485 99.0407 109.814 99.0407 110.008 99.4845C111.145 102.141 113.624 102.75 115.174 102.75ZM113.028 97.2172C113.028 97.8267 113.526 98.3255 114.136 98.3255C114.745 98.3255 115.243 97.8267 115.243 97.2172C115.243 96.6069 114.745 96.1081 114.136 96.1081C113.526 96.1081 113.028 96.6069 113.028 97.2172Z" fill="#1766A6"/>
<path d="M134.952 83.4016C134.564 83.4016 134.149 83.7068 134.149 84.4558C134.149 85.2834 134.786 85.8109 135.146 85.9758C135.34 86.0882 135.645 86.1989 135.947 86.1989C136.751 86.1989 137.389 85.9758 137.389 85.3105C137.388 84.4558 136.141 83.4016 134.952 83.4016ZM131.965 85.1169C131.384 85.1169 128.168 89.4079 126.096 89.4079C125.598 89.4079 125.182 88.467 125.182 87.7502C125.182 87.3622 125.431 87.0849 126.319 86.8896C131.08 85.8101 130.026 82.2376 134.092 82.2376C136.334 82.2376 138.83 83.7626 138.83 87.1939C138.83 90.8484 133.628 95.3872 132.852 95.3872C132.215 95.3872 131.523 94.4742 131.523 93.8655C131.523 93.6719 131.606 93.4225 132.16 93.2011C134.814 92.1477 136.335 89.7123 136.335 88.4653C136.335 88.1881 136.197 87.9142 135.837 87.9142C135.367 87.9142 133.352 92.5079 131.107 92.5079C129.554 92.5079 127.975 91.0995 127.975 90.4333C127.975 89.3242 132.464 87.2776 132.464 85.7255C132.463 85.1431 132.187 85.1169 131.965 85.1169Z" fill="#1766A6"/>
<path d="M77.1781 48.8234C77.1781 48.8234 76.3759 49.4312 75.3792 49.4312C74.1898 49.4312 73.248 48.5461 73.248 47.3001C73.248 46.4412 73.691 45.5561 74.7147 45.1123C74.6877 45.2788 74.6877 45.4166 74.6877 45.5831C74.6868 47.1623 75.5728 48.3517 77.1781 48.8234ZM83.1024 54.139C82.4937 54.8576 81.8563 56.0766 81.8563 57.3218C81.8563 58.8164 82.771 60.0616 84.1828 60.0616C85.5387 60.0616 86.1761 58.8992 86.1761 57.7098C86.1761 55.8551 84.4871 54.5524 83.1024 54.139ZM73.9125 55.2456C73.8601 55.331 73.8288 55.44 73.8288 55.5508C73.8288 55.8002 74.1061 56.0766 74.3538 56.0766C74.5752 56.0766 74.7139 56.0216 74.8246 56.0216C75.4882 56.0216 76.2364 56.4917 77.3159 56.4917C77.9516 56.4917 78.6997 56.2972 79.6406 55.8281C81.634 54.8305 82.41 52.3671 82.41 51.9512C82.41 51.4246 81.9874 51.4939 81.634 51.0095C81.2806 50.5268 81.4159 50.0999 81.191 49.8742C81.0634 49.7448 80.6661 49.7364 80.1664 49.6806C79.9999 49.6628 79.7784 49.6527 79.5569 49.6527C78.6448 49.6527 77.5619 49.7651 76.3463 50.5395C73.9454 52.0721 74.2988 54.609 73.9125 55.2456ZM80.4175 51.8126C80.6094 52.0738 81.1386 52.395 81.1386 52.5886C81.1386 52.975 80.9154 53.4746 80.4733 53.4746C79.5037 53.4746 78.7293 52.007 78.7293 51.1752C78.7293 50.6502 79.0345 50.5953 79.4487 50.5953C79.6423 50.5953 79.726 50.6232 79.8638 50.706C80.1123 50.8447 80.1123 51.3975 80.4175 51.8126ZM77.8696 55.1907C76.9566 55.1907 75.9599 54.0562 75.9599 53.0308C75.9599 52.4779 76.375 51.7847 76.6793 51.7847C76.7901 51.7847 76.8459 51.8684 76.8729 52.0628C77.0386 53.4188 77.9254 54.1948 78.7564 54.5811C78.8392 54.6361 78.895 54.664 78.895 54.7189C78.895 54.9134 78.3684 55.1907 77.8696 55.1907ZM80.2239 48.2139C80.3617 47.7701 80.4725 47.2181 80.4725 46.6077C80.4725 45.2796 79.8621 43.2584 77.9803 43.2584C76.9017 43.2584 76.1248 44.1164 76.1248 45.141C76.1248 47.3288 78.3126 48.2139 80.2239 48.2139ZM73.0536 59.2873C73.0536 61.3905 73.691 62.388 74.8255 62.388C75.7114 62.388 76.9017 61.7506 78.3126 60.5325C77.2339 60.7819 76.4021 60.9484 75.6556 60.9484C74.6589 60.9484 73.8846 60.5604 73.0536 59.2873ZM74.0232 56.823C73.9962 56.9625 73.9962 57.1003 73.9962 57.2381C73.9962 58.5391 74.6868 59.2594 75.6007 59.2594C76.2905 59.2594 77.0953 58.8443 77.813 57.9296C77.5103 57.9846 77.1494 58.0125 76.8171 58.0125C75.7942 58.0125 74.6868 57.7369 74.0232 56.823ZM80.8055 56.4359C80.1673 56.6016 78.8392 57.3768 78.8392 58.7606C78.8392 59.7564 79.6136 60.3947 80.5832 60.3947C81.082 60.3947 81.4413 60.2831 81.6627 60.1174C80.8884 59.3701 80.6111 58.5391 80.6111 57.7098C80.6111 57.1274 80.694 56.7681 80.8055 56.4359ZM81.8014 48.8504C81.8014 49.4591 82.2993 49.9587 82.908 49.9587C83.5175 49.9587 84.0162 49.46 84.0162 48.8504C84.0162 48.2418 83.5175 47.7422 82.908 47.7422C82.2993 47.7422 81.8014 48.2418 81.8014 48.8504ZM83.2402 51.3417C83.2402 51.9512 83.7398 52.45 84.3501 52.45C84.958 52.45 85.4567 51.9512 85.4567 51.3417C85.4567 50.7339 84.958 50.2352 84.3501 50.2352C83.7389 50.2352 83.2402 50.7339 83.2402 51.3417Z" fill="#1766A6"/>
<path d="M126.428 64.9364C126.428 64.3835 126.926 63.9127 127.473 63.9127C128.084 63.9127 128.554 64.3835 128.554 64.9364C128.554 65.573 128.083 66.0168 127.473 66.0168C126.926 66.0168 126.428 65.573 126.428 64.9364ZM116.708 56.4101C116.708 57.0188 117.207 57.5175 117.814 57.5175C118.425 57.5175 118.924 57.0188 118.924 56.4101C118.924 55.8023 118.425 55.3035 117.814 55.3035C117.207 55.3035 116.708 55.8023 116.708 56.4101ZM115.768 60.3131C115.768 61.172 116.485 61.8906 117.345 61.8906C118.202 61.8906 118.924 61.172 118.924 60.3131C118.924 59.4559 118.202 58.7348 117.345 58.7348C116.485 58.7348 115.768 59.4559 115.768 60.3131ZM119.256 58.5412C119.256 59.4838 120.004 60.2303 120.94 60.2303C121.881 60.2303 122.632 59.4838 122.632 58.5412C122.632 57.6004 121.881 56.8531 120.94 56.8531C120.004 56.8531 119.256 57.6004 119.256 58.5412ZM119.396 54.9425C119.396 55.525 119.867 55.9967 120.442 55.9967C121.024 55.9967 121.495 55.525 121.495 54.9425C121.495 54.3626 121.023 53.8918 120.442 53.8918C119.867 53.8918 119.396 54.3626 119.396 54.9425ZM124.405 52.2864C124.405 52.8663 124.875 53.3372 125.458 53.3372C126.04 53.3372 126.511 52.8663 126.511 52.2864C126.511 51.704 126.04 51.2331 125.458 51.2331C124.875 51.2331 124.405 51.704 124.405 52.2864ZM122.327 55.6915C122.327 56.6595 123.13 57.4617 124.099 57.4617C125.07 57.4617 125.874 56.6595 125.874 55.6915C125.874 54.7211 125.071 53.9197 124.099 53.9197C123.13 53.9197 122.327 54.7211 122.327 55.6915ZM119.478 62.1687C119.478 62.7782 119.977 63.2753 120.581 63.2753C121.191 63.2753 121.69 62.7782 121.69 62.1687C121.69 61.5592 121.191 61.0613 120.581 61.0613C119.977 61.0613 119.478 61.5592 119.478 62.1687ZM123.103 59.953C123.103 60.5625 123.601 61.0613 124.212 61.0613C124.821 61.0613 125.319 60.5625 125.319 59.953C125.319 59.3452 124.821 58.8464 124.212 58.8464C123.601 58.8464 123.103 59.3452 123.103 59.953ZM122.078 63.8569C122.078 64.9085 122.936 65.7674 123.99 65.7674C125.042 65.7674 125.903 64.9085 125.903 63.8569C125.903 62.8052 125.042 61.9464 123.99 61.9464C122.936 61.9464 122.078 62.8052 122.078 63.8569ZM126.067 61.5025C126.067 62.2236 126.649 62.8052 127.364 62.8052C128.084 62.8052 128.666 62.2236 128.666 61.5025C128.666 60.784 128.084 60.2024 127.364 60.2024C126.649 60.2024 126.067 60.784 126.067 61.5025ZM125.984 58.0146C125.984 58.6528 126.511 59.1786 127.141 59.1786C127.779 59.1786 128.306 58.6528 128.306 58.0146C128.306 57.3789 127.779 56.8531 127.141 56.8531C126.511 56.8531 125.984 57.3789 125.984 58.0146Z" fill="#1766A6"/>
<path d="M128.805 94.3357C128.085 94.8903 126.401 96.1338 123.602 96.1338C122.107 96.1338 121.442 95.6629 121.22 95.6629C120.943 95.6629 120.638 95.9393 120.333 96.3003C119.676 97.0764 118.816 98.516 118.816 100.093C118.816 101.199 119.676 102.305 121.275 102.305C126.457 102.305 130.33 99.0672 130.33 96.4389C130.33 94.9452 129.444 94.3357 128.805 94.3357ZM127.366 94.0314C127.59 93.8403 127.642 93.5334 127.642 93.2274V92.5909C127.642 91.7869 126.429 91.3186 124.766 91.3186C122.743 91.3186 121.663 92.2299 121.663 92.6188V93.8919C121.663 94.4194 122.883 94.9452 124.379 94.9452C125.57 94.9452 126.651 94.6409 127.366 94.0314ZM127.143 96.772C127.282 96.772 127.447 96.854 127.447 97.3536C127.447 97.9614 127.171 98.7637 126.179 99.3994C125.487 99.872 124.544 100.26 123.159 100.284C123.381 99.6226 123.547 98.9285 123.547 98.2675C123.547 98.0451 123.52 97.8786 123.492 97.6301H123.853C126.041 97.6309 126.984 96.772 127.143 96.772Z" fill="#1766A6"/>
<path d="M116.571 62.9426C116.875 65.2944 120.034 64.1041 120.034 66.9547C120.034 67.3706 119.923 67.9809 119.923 68.5059C119.923 69.1154 119.978 69.6412 120.444 69.6412C120.914 69.6412 121.026 69.3098 121.026 68.866C121.026 68.4222 120.914 67.8693 120.914 67.565C120.914 66.5954 121.607 66.3747 122.024 66.3747C123.077 66.3747 123.88 67.4543 125.46 67.4543C125.099 69.2261 121.442 68.7553 121.442 70.6937C121.442 71.6633 122.411 71.8831 123.049 71.8831C123.63 71.8831 123.825 71.8003 123.825 71.3032C123.825 71.0251 123.769 70.7207 123.769 70.5272C123.769 70.4156 123.853 70.3048 123.991 70.3048C124.603 70.3048 127.587 72.5755 127.587 73.2687C127.587 73.9044 124.434 74.5409 123.52 74.5409C123.243 74.5409 123.187 74.3473 123.187 74.2366C123.187 74.043 123.658 73.4614 123.658 73.13C123.658 72.8806 123.243 72.7141 122.134 72.7141C121.607 72.7141 121.219 72.7699 121.219 73.1858C121.219 73.9314 122.438 74.8461 122.438 75.5368C122.438 76.0913 122.106 76.4235 121.219 76.4235C120.471 76.4235 119.34 75.8411 119.34 74.8731C119.34 74.098 120.139 73.3244 120.139 72.8527C120.139 72.7141 120.033 72.4926 119.701 72.4926C118.675 72.4926 118.398 75.2045 114.77 75.5097C115.352 74.9839 115.849 74.4023 115.849 73.2137C115.849 72.6321 115.712 72.1604 115.712 71.5247C115.712 70.6937 116.098 70.2778 116.652 70.2778C117.676 70.2778 118.174 71.7166 118.841 71.7166C119.202 71.7166 119.59 71.386 119.59 70.8873C119.59 68.7832 115.546 69.0875 115.546 66.1254C115.547 65.3223 115.823 64.3256 116.571 62.9426ZM129.775 71.0538C129.775 71.7445 129.998 72.5476 130.691 72.5476C131.272 72.5476 131.77 71.6633 131.77 70.6937C131.77 69.5863 131.577 68.7274 131.577 68.2836C131.577 68.0908 131.66 68.008 131.77 68.008C132.186 68.0359 132.573 69.1704 133.018 69.1704C133.517 69.1704 134.26 68.2557 134.563 68.2557C134.647 68.2557 134.674 68.3673 134.674 68.3943C134.674 68.8102 134.037 69.7249 134.037 70.0842C134.037 70.3885 135.644 70.4435 135.644 70.7207C135.644 71.1367 133.959 71.1367 133.157 71.4968C132.382 71.8282 131.908 72.2432 131.908 72.7978C131.908 73.3515 132.463 73.4614 133.239 73.4614C135.088 73.4614 136.39 72.4656 136.805 72.4656C136.888 72.4656 136.943 72.5197 136.943 72.6034C136.943 72.8806 136.002 73.7936 136.002 74.2095C136.002 74.6796 137.72 75.2316 137.692 75.5097C137.665 75.5925 137.553 75.6196 137.36 75.6196C137.054 75.6196 136.584 75.5368 136.223 75.5368C136.001 75.5368 135.808 75.5638 135.723 75.6745C135.531 75.8969 135.779 77.3644 135.394 77.3644C135.033 77.3644 134.091 74.098 131.964 74.098C131.659 74.098 131.437 74.3473 131.437 74.7624C131.437 75.869 132.518 77.1421 133.543 77.7516C134.007 78.0568 134.784 78.3611 134.784 78.5285C134.784 78.859 133.016 78.5555 133.016 79.1084C133.016 79.6072 133.238 80.3562 133.238 80.7974C133.238 80.9361 133.21 81.1009 133.044 81.1009C132.712 81.1009 131.907 79.5793 131.52 79.5793C131.188 79.5793 130.468 80.4923 130.162 80.4923C130.08 80.4923 130.025 80.4094 130.025 80.3274C130.025 79.69 131.05 78.2512 131.05 76.8386C131.05 76.1742 130.966 74.7345 130.162 74.7345C129.498 74.7345 128.749 75.7861 128.417 76.8386C128.224 77.4473 128.362 79.8008 127.918 79.8008C127.503 79.8008 127.614 78.2233 127.058 78.2233C126.65 78.2233 125.763 78.9698 125.458 78.9698C125.402 78.9698 125.346 78.9419 125.346 78.8869C125.346 78.5555 126.15 77.4752 126.15 77.2537C126.15 76.8386 124.322 76.7837 124.322 76.4514C124.322 76.257 125.042 76.1192 125.707 76.0076C127.115 75.7582 129.192 74.7345 129.192 73.2957C129.192 71.6904 127.641 70.9972 126.621 70.3327C126.095 70.0005 125.513 69.7249 125.513 69.5034C125.513 69.2811 126.177 69.2811 126.455 69.2811C126.87 69.2811 127.281 69.2532 127.281 68.9218C127.281 68.6716 127.225 68.1745 127.225 67.7865C127.225 67.5092 127.252 67.2877 127.364 67.2877C127.779 67.2877 128.361 68.6437 128.639 68.6437C129.081 68.6437 129.691 67.5363 130.108 67.5363C130.244 67.5363 130.301 67.62 130.301 67.8685C130.303 68.8931 129.775 70.0554 129.775 71.0538Z" fill="#1766A6"/>
<path d="M117.375 78.7222C118.65 78.8888 118.955 79.3309 118.955 79.6919C118.955 80.3014 118.4 80.4941 117.873 80.4941C117.486 80.4941 117.043 80.4113 116.572 80.4113C115.961 80.4113 115.354 80.5499 114.856 81.1315C115.215 81.1865 115.742 81.4367 115.742 81.9912C115.742 83.5966 111.285 82.266 111.285 86.393C111.285 88.5791 113.556 90.9614 116.987 90.9614C118.761 90.9614 119.897 90.3798 119.897 89.7136C119.897 89.1886 118.956 89.5471 118.956 89.1041C118.956 88.9105 119.288 88.5496 119.288 88.2435C119.288 88.11 119.177 87.8589 118.956 87.8589C118.455 87.8589 117.514 88.6594 115.603 88.6594C114.108 88.6594 112.64 87.8039 112.64 86.6399C112.64 86.3913 112.752 86.2519 112.917 86.2519C113.084 86.2519 113.304 86.3634 113.499 86.3634C113.665 86.3634 113.693 86.2519 113.693 85.9484C113.693 85.6432 113.693 84.7843 114.217 84.7843C114.745 84.7843 115.742 86.7227 119.564 86.7227C120.833 86.7227 123.299 86.475 124.214 85.6432C124.186 88.689 121.802 92.7028 116.821 92.7028C111.644 92.7028 108.876 88.5496 108.876 84.7285C108.876 80.4941 112.335 76.6469 117.071 76.6469C118.287 76.6469 119.314 77.0611 119.314 77.5878C119.313 78.3089 117.513 77.865 117.375 78.7222ZM125.875 80.1915C126.069 80.4941 126.152 80.7993 126.152 81.0757C126.152 81.8518 125.626 82.5712 125.626 83.3751C125.626 84.2881 126.319 85.0345 127.366 85.0345C128.502 85.0345 129.278 84.1232 129.278 83.042C129.278 81.5745 127.948 80.3293 125.875 80.1915ZM116.71 81.9625C116.985 82.2381 117.07 82.5154 117.07 82.7927C117.07 83.2077 116.876 83.6515 116.876 84.1224C116.876 84.7843 117.375 85.3668 118.093 85.3668C118.87 85.3668 119.398 84.7564 119.398 84.0396C119.398 82.9871 118.314 81.9625 116.71 81.9625ZM120.389 77.2555C123.298 77.8092 124.877 79.997 124.877 82.0462C124.877 83.4588 123.992 84.7573 122.439 84.7573C121.026 84.7573 120.006 83.7893 120.006 82.2389C120.006 81.0766 120.914 79.8584 120.914 78.6673C120.914 78.1973 120.777 77.7264 120.389 77.2555ZM121.83 80.9379C121.83 81.3251 122.107 81.6303 122.495 81.6303C122.937 81.6303 123.215 81.2423 123.215 80.7993C123.215 80.2185 122.689 79.4154 122.19 79.4154C121.968 79.4154 122.051 79.7477 121.996 80.1078C121.968 80.3834 121.83 80.7156 121.83 80.9379Z" fill="#1766A6"/>
<path d="M91.2702 52.4518C92.2111 52.4518 93.2897 47.3576 93.2897 46.4988C93.2897 46.2773 93.2077 46.1107 93.0141 46.1107C92.1553 46.1107 90.9658 50.9563 90.9658 52.0367C90.965 52.2303 91.0199 52.4518 91.2702 52.4518ZM98.0525 53.9743C98.7432 53.9743 99.5183 51.3156 99.5183 49.6545C99.5183 49.2944 99.4634 48.908 99.296 48.908C98.7144 48.908 97.7456 51.6487 97.7456 53.1433C97.7465 53.7249 97.886 53.9743 98.0525 53.9743ZM93.5374 51.5101C93.8418 51.5101 94.2298 51.1761 94.9517 50.3756C95.0058 50.0155 95.0058 49.6824 95.0058 49.2673C95.0058 48.7145 94.7843 48.1049 94.453 48.1049C93.6211 48.1049 93.2069 50.3198 93.2069 50.9022C93.2077 51.2328 93.3726 51.5101 93.5374 51.5101ZM97.3314 50.3756C97.3314 49.9039 97.2198 49.7931 97.1099 49.7931C96.8326 49.7931 96.5292 50.1262 96.0862 50.8735C96.1411 51.8702 96.3077 52.3131 96.5841 52.3131C96.8884 52.3131 97.3314 51.3435 97.3314 50.3756ZM99.4634 47.1083C101.291 47.1083 102.12 48.6866 102.12 50.4584C102.12 51.2328 101.901 52.3689 101.54 52.3689C101.18 52.3689 101.236 51.7315 101.18 51.1499C101.125 50.4026 100.986 50.2369 100.737 50.2369C100.266 50.2369 99.9622 51.3435 99.9622 52.3689C99.9622 53.0047 100.073 53.7249 100.57 53.7249C100.847 53.7249 101.097 53.5863 101.263 53.4206C101.152 54.6928 100.21 55.802 98.8818 55.802C96.4455 55.802 95.5316 52.9497 95.256 51.2886C93.7885 52.839 92.4325 53.9743 89.9954 53.9743C87.7264 53.9743 86.7018 52.3132 86.7018 50.7357C86.7018 50.264 86.8675 49.0467 87.45 49.0467C88.1415 49.0467 87.5328 51.3156 88.8888 51.3156C89.2219 51.3156 89.8288 51.0383 90.1627 50.1262C90.3563 49.5716 90.4671 48.9917 90.4671 48.4921C90.4671 47.744 90.3014 47.2748 89.7477 47.2748C89.276 47.2748 88.6944 47.6332 88.5008 47.8277C89.1661 45.8343 90.7714 44.8106 92.5407 44.8106C94.7302 44.8106 95.8918 46.7481 95.8918 48.908C95.8918 49.2115 95.8639 49.5438 95.8081 49.8489C96.7498 48.2985 98.0525 47.1083 99.4634 47.1083Z" fill="#1766A6"/>
<path d="M94.2846 54.5552C93.0943 54.5552 93.0394 55.9974 93.0394 58.902C92.1526 56.9924 90.6867 54.9432 88.9698 54.9432C87.8074 54.9432 87.3653 55.7193 87.3653 57.0744C87.3653 57.3517 87.3924 57.7676 87.4482 58.0153C87.5868 57.5461 88.0298 57.3517 88.5826 57.3517C89.7746 57.3517 91.2134 58.2646 92.1543 59.5116C91.0756 59.318 90.0231 59.1235 89.138 59.1235C88.5835 59.1235 88.0856 59.1793 87.6705 59.3729C86.8674 59.7322 85.7879 60.9233 85.7879 62.7231C85.7879 63.0004 85.8158 63.3038 85.8716 63.6361C86.8403 61.4762 89.4145 60.5074 91.0756 60.5074C91.4087 60.5074 91.6564 60.5353 91.8508 60.5632C90.9919 61.3375 90.7992 62.6943 90.7425 63.6082C90.7163 64.0511 90.5489 64.0799 90.2438 64.0799C90.2438 64.992 90.9649 66.3497 90.9649 67.0412C90.9649 67.2906 90.8262 67.512 90.6884 67.5678C90.6884 68.786 91.9049 69.6719 91.9049 70.4463C91.9049 70.6399 91.8508 70.8064 91.7663 70.8901C91.8508 71.3889 93.1898 72.2266 93.3631 72.6468C93.5762 73.1574 93.8154 73.2436 93.9541 73.2436C94.4249 73.2436 95.1705 72.689 95.1705 72.1903C95.1705 72.0246 95.0319 71.831 94.9228 71.7473C94.3962 71.361 94.1189 70.53 93.8974 69.9771C93.703 69.9771 93.4528 69.8951 93.3648 69.5688C93.2135 68.9956 93.2059 67.928 92.9844 67.2906C92.6243 67.2077 92.4578 67.0691 92.4578 66.3218C92.4578 65.9617 92.6801 64.5491 92.6801 64.0503C92.5144 64.0503 92.2929 63.9395 92.2929 63.6073C92.2929 62.7222 93.1797 62.0299 93.4274 60.8954C95.0057 62.0569 95.392 63.2472 95.392 64.3005C95.392 64.8525 95.3092 65.3792 95.1984 65.8788C96.3616 65.2964 98.1056 64.4383 98.1056 62.6943C98.1056 61.6689 97.6347 60.5344 94.5061 60.0915C95.4749 59.7313 96.6939 59.5386 97.7176 59.5386C99.4903 59.5386 100.514 60.0915 100.735 61.3367C101.095 60.7838 101.372 60.1464 101.372 59.5657C101.372 58.208 100.236 57.3238 98.7971 57.3238C97.1081 57.3238 95.6135 58.208 94.0073 59.2892C94.7292 57.7946 95.2246 56.9087 96.1123 56.9087C96.25 56.9087 96.3887 56.9366 96.5273 56.9645C96.1951 55.7472 94.9499 54.5552 94.2846 54.5552Z" fill="#1766A6"/>
<path d="M140.93 74.5132C142.317 74.5132 143.424 76.3121 143.424 78.4171C143.424 80.659 142.371 83.0961 140.493 84.7556C140.465 81.0191 135.892 82.2093 135.892 79.4974C135.892 78.3351 136.724 77.559 137.722 77.559C138.609 77.559 139.301 77.8084 139.8 78.308C139.301 77.8363 139.052 77.171 139.052 76.5353C139.052 75.4811 139.717 74.5132 140.93 74.5132Z" fill="#1766A6"/>
<path d="M116.209 48.2136C116.93 48.906 117.565 49.2095 118.341 49.2095C118.647 49.2095 119.008 49.1275 119.203 49.1275C119.452 49.1275 119.617 49.2373 119.617 49.4309C119.617 49.7361 119.34 50.2349 119.008 50.5122C119.34 50.6499 119.701 50.7057 120.089 50.7057C121.661 50.7057 123.462 49.7082 123.462 47.2178C123.795 47.6591 123.989 48.5737 123.989 48.9897C123.989 52.0067 121.772 53.1691 119.728 53.1691C118.398 53.1691 117.732 52.7253 117.564 52.7253C117.039 52.7253 117.067 53.7786 116.707 53.7507C116.07 53.64 115.49 52.2282 115.49 50.7336C115.491 49.8469 115.712 48.906 116.209 48.2136ZM120.388 46.1924C120.166 45.8322 119.34 45.6395 118.953 45.6395C117.733 45.6395 116.902 46.4967 116.736 47.2727C116.625 46.9955 116.542 46.6632 116.542 46.331C116.542 45.1128 117.373 43.6182 119.397 43.6182C121.164 43.6182 121.856 44.5591 122.106 44.5591C122.383 44.5591 122.66 44.2818 122.883 44.2818C123.187 44.2818 123.187 44.7527 123.187 45.0858C123.187 46.1924 122.687 48.1029 121.441 48.7952C121.219 48.3244 120.776 47.7977 120.061 47.4663C119.867 47.3835 119.784 47.2178 119.784 47.0512C119.783 46.7461 120.06 46.3581 120.388 46.1924Z" fill="#1766A6"/>
<path d="M96.9693 40.1575C96.9693 41.1263 100.429 45.8603 101.095 45.8603C101.649 45.8603 102.063 44.8915 102.063 44.0597C102.063 43.8399 102.008 43.6193 101.899 43.4519C101.4 42.7595 97.884 39.991 97.108 39.991C97.0243 39.991 96.9693 40.0747 96.9693 40.1575ZM76.6215 37.3061C76.6215 37.8607 74.5182 39.7146 73.7718 39.7146C73.4954 39.7146 73.4108 39.3832 73.4108 39.0789C73.4108 38.526 73.6602 37.7499 73.9654 37.4997C74.3238 37.1675 75.1548 37.0035 75.7914 37.0035C76.1785 37.0035 76.6215 37.0846 76.6215 37.3061ZM101.899 38.9123C101.899 37.2503 97.4072 34.2332 97.3573 32.9331C97.3523 32.8139 97.4174 32.6955 97.518 32.5899C98.2872 31.7783 101.482 31.1866 101.482 30.4951C101.482 30.1366 100.817 30.1366 100.484 30.1366C97.9102 30.1366 94.145 31.0775 94.145 31.9905C94.145 32.9331 97.5222 35.2308 97.5222 36.3661C97.5222 36.6704 97.3286 36.7812 97.0234 36.7812C96.0834 36.7812 94.0342 35.645 93.0654 35.645C92.6225 35.645 92.4551 35.9493 92.4551 36.394C92.4551 37.722 94.0334 40.2412 94.0334 40.9868C94.0334 41.0705 94.0055 41.1813 93.8947 41.1813C93.396 41.1813 91.045 38.4144 90.2132 38.4144C89.9097 38.4144 89.881 38.8286 89.881 39.4381V40.379C89.881 41.0156 89.8531 41.4036 89.5504 41.4036C88.8285 41.4036 88.4971 39.3832 87.8056 39.3832C87.0854 39.3832 86.9467 42.981 86.2561 42.981C85.4521 42.981 86.1445 39.0222 85.3693 39.0222C84.5112 39.0222 83.5416 41.653 82.9321 41.653C82.7115 41.653 82.6565 41.4306 82.6565 41.2371C82.6565 40.4348 83.1257 39.1338 83.1257 38.3594C83.1257 37.9706 83.015 37.7499 82.6844 37.7499C81.8247 37.7499 79.9429 39.1338 79.2235 39.1338C79.1128 39.1338 78.9741 39.0789 78.9741 38.9673C78.9741 38.3045 81.9912 36.1996 81.9912 35.2587C81.9912 34.344 77.8371 34.9543 77.8371 33.901C77.8371 33.0159 80.8018 32.1021 80.8018 31.1883C80.8018 30.3852 77.2851 30.0267 75.9291 30.0267C74.2951 30.0267 73.41 30.2186 73.41 30.6895C73.41 31.4097 77.1203 31.6321 77.1203 32.2678C77.1203 32.8773 73.2713 34.5105 73.2713 35.4514C73.2713 36.2824 78.6969 35.5064 78.6969 36.3661C78.6969 37.3061 73.9645 41.3748 73.9645 42.7317C73.9645 43.0368 74.186 43.1755 74.4895 43.1755C75.9291 43.1755 79.6648 40.4348 80.6902 40.4348C81.0503 40.4348 81.0782 40.8769 81.0782 41.265C81.0782 41.9852 80.8297 43.0918 80.8297 43.8957C80.8297 44.5314 80.9954 44.9744 81.5483 44.9744C82.5745 44.9744 83.5137 43.2304 84.2078 43.2304C85.0929 43.2304 84.567 48.3516 85.8959 48.3516C87.0304 48.3516 87.5004 42.8153 88.2207 42.8153C88.9409 42.8153 89.5234 44.4207 90.187 44.4207C91.0163 44.4207 90.6291 41.6251 91.5159 41.6251C92.4838 41.6251 95.2524 44.9473 96.4985 44.9473C96.8856 44.9473 97.0234 44.6422 97.0234 44.2541C97.0234 42.7866 94.976 39.466 94.976 38.4144C94.976 38.138 95.058 38.0543 95.3623 38.0543C96.4418 38.0543 99.5992 39.5489 101.093 39.5489C101.595 39.5489 101.899 39.2724 101.899 38.9123ZM99.0185 33.431C99.0185 33.9289 100.762 35.0093 101.566 35.0093C102.036 35.0093 102.175 34.3719 102.175 33.7074C102.175 32.8773 101.817 32.8494 101.096 32.8494C100.182 32.8494 99.0185 33.0988 99.0185 33.431ZM92.5126 30.6067C92.5126 30.4401 91.6824 30.2736 90.548 30.2736C88.7482 30.2736 88.9976 31.7707 87.6137 31.7707C86.1741 31.7707 86.5325 30.2186 84.7057 30.2186C83.5983 30.2186 82.5754 30.4131 82.5754 30.6616C82.5754 30.9947 83.8755 30.856 83.8755 31.7707C83.8755 32.7386 81.0791 33.0159 81.0791 33.5975C81.0791 33.7911 81.2997 33.874 81.577 33.874C82.1873 33.874 83.1544 33.5975 83.8476 33.5975C84.2357 33.5975 84.5958 33.6795 84.5958 34.0397C84.5958 34.732 83.0995 35.9781 83.0995 36.5318C83.0995 36.6983 83.2373 36.7541 83.3759 36.7541C83.9305 36.7541 84.8722 35.3415 85.7573 35.3415C87.2248 35.3415 86.2569 38.4693 87.0583 38.4693C87.8885 38.4693 87.5292 35.3956 88.7194 35.3956C89.6899 35.3956 90.4085 37.5276 91.0729 37.5276C91.2395 37.5276 91.3773 37.3898 91.3773 37.1954C91.3773 36.6155 90.5471 35.4235 90.5471 34.6492C90.5471 34.1783 90.8793 33.956 91.3223 33.956C91.958 33.956 92.8169 34.344 93.2861 34.344C93.4518 34.344 93.6183 34.289 93.6183 34.0955C93.6183 33.431 91.1566 32.7116 91.1566 31.8536C91.1575 30.9947 92.5126 30.9947 92.5126 30.6067Z" fill="#1766A6"/>
<path d="M141.594 35.0941C141.594 37.5566 139.8 39.4392 136.557 39.9651C136.918 39.9921 137.25 39.9921 137.583 39.9921C141.373 39.9921 142.759 38.2769 142.759 36.8381C142.759 36.0341 142.315 35.3156 141.594 35.0941ZM136.918 37.8889C136.918 35.9234 132.215 35.4246 132.215 34.9825C132.215 34.6232 134.841 34.0129 136.198 33.985C134.121 31.328 131.163 31.6053 131.163 31.1344C131.163 30.8571 133.378 30.3026 135.424 30.3026C137.14 30.3026 138.746 30.6906 138.746 31.9916C138.746 32.7127 138.165 33.4609 138.165 34.5666C138.165 35.1761 138.467 35.7019 139.273 35.7019C140.134 35.7019 140.325 34.7889 140.325 33.8184C140.325 33.017 140.188 32.4075 140.188 32.0195C140.188 30.8571 140.985 30.0828 142.121 30.0828C143.063 30.0828 143.285 30.4962 144.671 30.4962C143.922 30.9408 143.645 31.7439 143.645 32.1303C143.645 33.2943 144.395 34.0966 144.395 36.4779C144.395 40.8501 140.298 42.4005 135.285 42.4005C133.907 42.4005 132.437 42.2898 130.996 42.0692C130.775 42.0413 130.72 41.9863 130.72 41.8477C130.72 41.4875 132.688 41.2931 132.688 39.5229C132.688 38.8297 132.465 38.1661 132.465 37.9176C132.465 37.779 132.576 37.6953 132.688 37.6953C133.103 37.6953 133.935 39.3006 135.481 39.3006C135.891 39.3006 136.918 39.162 136.918 37.8889ZM141.429 31.7718C141.429 32.1582 141.733 32.4625 142.121 32.4625C142.509 32.4625 142.814 32.1582 142.814 31.7718C142.814 31.3838 142.509 31.0786 142.121 31.0786C141.733 31.0786 141.429 31.3838 141.429 31.7718Z" fill="#1766A6"/>
<path d="M138.969 57.3505C138.969 56.7697 137.5 56.7148 137.362 55.0807C137.333 54.8322 137.25 54.39 136.945 54.39C136.447 54.39 136.834 55.9125 136.281 55.9125C135.008 55.9125 134.593 53.4204 134.122 53.4204C134.01 53.4204 133.878 53.5033 133.878 53.8355C133.878 54.1407 133.934 54.3342 133.934 54.6927C133.934 55.0536 133.85 55.303 133.518 55.303C132.77 55.303 132.105 53.5582 131.467 53.5582C131.329 53.5582 131.191 53.6419 131.191 53.7805C131.191 54.1128 131.744 54.7206 131.744 55.0257C131.744 55.691 129.943 55.3301 129.943 55.8846C129.943 56.134 130.192 56.216 130.525 56.216C131.107 56.216 132.022 55.9683 132.493 55.9683C132.77 55.9683 133.185 56.0233 133.185 56.3817C133.185 56.7697 132.188 57.2676 132.188 57.6278C132.188 57.7943 132.353 57.8763 132.492 57.8763C133.24 57.8763 134.564 56.5761 135.506 56.5761C135.671 56.5761 136.086 56.659 136.086 56.9084C136.086 57.2676 135.145 57.9034 135.145 58.43C135.145 58.5687 135.23 58.7343 135.396 58.7343C135.891 58.7343 136.556 57.4342 137.499 57.4342C137.859 57.4342 138.386 57.5728 138.664 57.5728C138.886 57.5728 138.969 57.4342 138.969 57.3505ZM139.689 70.7773C140.133 69.3943 140.688 68.4239 141.595 66.9293C140.688 66.4601 138.276 65.4617 138.276 63.8285C138.276 61.918 140.657 60.4234 141.151 60.4234C141.373 60.4234 141.428 60.6178 141.428 60.9779C141.428 61.9738 140.957 63.5791 140.957 64.438C140.957 65.2123 141.456 65.9613 141.899 65.9613C142.37 65.9613 143.672 64.3002 143.672 62.6661C143.672 59.731 141.095 58.8459 140.298 58.8459C139.55 58.8459 138.192 60.0633 135.007 60.0633C129.056 60.0633 127.699 54.1686 127.699 51.5927C127.699 51.482 127.725 51.4541 127.753 51.4541C127.891 51.4541 128.475 52.1752 130.357 52.1752C131.327 52.1752 132.214 51.925 133.627 51.925C136.944 51.925 138.413 54.2243 140.464 57.1569C141.704 57.9313 144.669 59.1782 144.669 62.694C144.669 65.7948 141.372 67.5109 140.574 70.8331C141.842 70.6953 142.591 68.4239 143.893 68.4239C144.559 68.4239 144.863 68.9505 144.863 69.7824C144.863 70.9988 144.17 72.8273 142.84 73.9618C142.867 73.8511 142.867 73.7116 142.867 73.5459C142.867 72.7716 142.563 71.665 141.675 71.665C140.296 71.665 139.853 73.1596 139.078 74.4039C138.274 71.5813 137.194 69.0334 135.256 67.483C133.296 65.9055 129.914 66.7627 129.914 63.8843C129.914 63.1082 130.414 62.0017 130.414 61.1157C130.414 60.8114 130.358 60.5341 130.191 60.3126C132.851 61.3102 131.909 63.0803 133.545 64.908C134.564 66.0721 137.389 67.1786 139.023 71.9676C139.05 71.8298 139.078 71.4705 139.078 71.2212C139.078 67.1237 133.654 63.1082 133.183 61.4471C136.334 61.8072 136.888 62.5833 138.384 66.7357C138.691 67.5946 139.689 69.7266 139.689 70.7773Z" fill="#1766A6"/>
<path d="M124.545 41.4876C122.605 41.4876 121.331 40.5197 121.331 40.0201C121.331 39.7707 121.497 39.6058 121.72 39.6058C122.329 39.6058 123.659 40.5459 124.101 40.5459C124.213 40.5459 124.295 40.4918 124.295 40.3252C124.295 39.8265 123.824 38.9963 123.824 38.5821C123.824 38.4705 123.908 38.3885 124.074 38.3885C124.821 38.3885 125.929 38.6928 126.513 38.6928C126.706 38.6928 126.761 38.5821 126.761 38.4705C126.761 37.8619 124.96 36.6716 124.96 36.3115C124.96 35.9792 127.198 35.4796 127.198 34.9555C127.198 34.4009 124.155 34.789 124.155 34.2623C124.155 33.8751 124.737 33.2107 124.737 32.9063C124.737 32.7677 124.626 32.7128 124.433 32.7128C124.184 32.7128 122.854 33.2386 122.299 33.2386C122.023 33.2386 121.69 33.1836 121.69 32.7948C121.69 32.1582 122.77 31.4667 124.461 31.4667C127.197 31.4667 128.833 33.3493 128.833 36.505C128.835 40.4918 126.042 41.4876 124.545 41.4876ZM119.149 36.2286C119.149 35.9234 118.067 35.3427 118.067 35.0105C118.067 34.9555 118.121 34.9276 118.204 34.9276C118.51 34.9276 119.037 35.0383 119.454 35.0383C119.814 35.0383 119.869 33.488 120.141 33.488C120.335 33.488 120.666 34.9555 120.973 34.9555C121.332 34.9555 121.997 34.5396 122.274 34.5396C122.329 34.5396 122.385 34.5666 122.385 34.6233C122.385 34.8169 121.692 35.5633 121.692 35.7848C121.692 36.0342 123.244 36.3394 123.244 36.5608C123.244 36.8381 121.664 36.8102 121.664 37.0596C121.664 37.2515 122.247 38.0275 122.247 38.2769C122.247 38.3327 122.218 38.3606 122.163 38.3606C121.941 38.3606 121.083 37.9717 120.833 37.9717C120.528 37.9717 120.035 39.1071 119.786 39.1071C119.703 39.1071 119.648 38.9963 119.648 38.8577L119.592 37.7511C119.592 37.6404 119.538 37.5288 119.399 37.5288C119.066 37.5288 118.428 37.5009 118.233 37.5009C118.094 37.5009 118.039 37.4738 118.039 37.418C118.039 37.1966 119.149 36.4222 119.149 36.2286ZM118.343 40.7665C118.788 40.7665 118.87 41.8477 118.955 42.4834C119.01 42.8165 119.066 42.8436 119.204 42.8436C119.537 42.8436 120.062 41.5704 120.418 41.5704C120.943 41.5704 122.358 43.038 124.712 43.038C128.06 43.038 131.218 40.6837 131.218 36.5329C131.218 32.5183 128.39 30.1648 124.49 30.1648C122.635 30.1648 121.276 31.0787 120.555 31.0787C120.118 31.1066 119.454 30 119.12 30C118.982 30 118.843 30.2747 118.843 30.7465C118.843 31.0516 118.843 32.0196 118.51 32.0196C117.844 32.0196 115.271 30.1107 115.271 30.8014C115.271 31.4388 116.985 33.3772 116.985 33.8751C116.985 34.373 115.298 34.8448 115.298 35.1761C115.298 35.7848 117.097 35.8955 117.097 36.6716C117.097 37.4459 115.213 38.0554 115.213 38.637C115.213 39.1071 117.097 38.7757 117.097 39.3564C117.097 39.9372 115.713 41.8756 115.713 42.4276C115.713 42.5671 115.74 42.5671 115.85 42.5671C116.377 42.5671 117.955 40.7665 118.343 40.7665Z" fill="#1766A6"/>
<path d="M105.803 89.3803C105.803 89.6297 105.72 89.907 105.498 90.1826C105.196 89.6297 104.336 89.3524 103.948 89.3533C101.096 89.3533 102.176 93.4786 99.1309 93.4786C97.8578 93.4786 97.7462 93.3121 97.2771 93.3121C97.0826 93.3121 96.9719 93.3958 96.9719 93.5615C96.9719 94.2826 97.9965 96.0527 100.848 96.0527C103.699 96.0527 106.441 94.3096 106.441 92.148C106.441 91.7879 106.358 91.4033 106.191 91.0152C106.302 90.8487 106.58 90.738 106.829 90.738C107.271 90.738 107.52 91.2384 107.935 91.2384C108.379 91.2384 108.711 90.9045 108.711 90.4624C108.711 90.1006 108.518 89.8529 108.186 89.6846C108.408 89.5198 108.574 89.2425 108.574 88.9382C108.574 88.4656 108.241 88.0252 107.686 88.0252C107.437 88.0252 107.272 88.1097 107.078 88.2991C107.024 87.8037 106.746 87.3329 106.219 87.3329C105.804 87.3329 105.498 87.6363 105.498 88.1089C105.498 88.5485 105.803 88.9103 105.803 89.3803Z" fill="#1766A6"/>
<path d="M90.6319 84.2333C92.8467 84.7836 93.9541 85.9747 94.1748 87.3873C94.3962 88.7433 94.6727 89.8524 95.1985 90.4044C95.8908 91.1813 97.2476 91.8694 98.4388 91.8694C99.4354 91.8694 100.237 91.5406 100.237 90.6259C100.237 89.6284 98.8809 87.3865 96.8875 87.3865C96.6939 87.3865 96.4445 87.4152 96.1673 87.4152C95.9179 87.4152 95.5578 87.3603 95.3371 87.1658C94.895 86.777 94.7555 84.7008 93.9254 83.4556C93.0124 82.0709 92.0157 81.6828 90.6597 81.6828C89.6918 81.6828 88.6106 82.2078 88.6106 82.9838C88.6106 83.4572 88.86 83.7886 90.6319 84.2333ZM98.3559 90.4332C97.5241 90.4332 96.2789 89.5455 96.2789 89.0468C96.2789 88.6308 96.6669 88.4094 96.9695 88.4094C97.6627 88.4094 98.9071 89.2699 98.9071 89.9893C98.9079 90.1829 98.7693 90.4332 98.3559 90.4332Z" fill="#1766A6"/>
<path d="M95.8078 68.8672C95.8078 67.0953 100.017 66.1544 100.017 63.9666C100.017 63.6065 99.8782 62.9708 99.6288 62.4999C101.095 63.3022 102.175 64.6598 102.175 65.7664C102.175 67.6769 100.183 68.5629 100.183 69.754C100.183 71.1378 102.314 71.3593 102.314 73.0754C102.314 74.4863 100.292 76.1204 100.292 77.9472C100.292 79.359 101.29 80.5205 102.811 80.7149C102.313 80.8257 101.871 80.9085 101.4 80.9085C98.6025 80.9085 95.7241 78.6117 95.7241 75.8702C95.7241 74.5142 96.3057 73.3256 97.1899 72.4667C97.9668 73.1312 98.7412 73.5733 99.2399 73.5733C99.6821 73.5733 99.8773 73.3527 99.8773 73.0204C99.8782 71.995 95.8078 71.055 95.8078 68.8672ZM104.639 82.8478C103.69 83.2823 103.311 83.2079 103.311 84.1775C103.311 84.5368 103.228 85.0051 103.228 85.2553C103.228 85.5876 103.282 85.782 103.67 85.782C104.667 85.782 106.245 84.0938 106.245 82.6533C106.245 82.2645 106.023 82.1013 105.774 82.1013C105.552 82.1013 105.305 82.5426 104.639 82.8478ZM104.529 80.8536C104.529 79.6083 101.954 79.5804 101.954 77.6978C101.954 77.2261 102.257 76.4247 102.867 75.565C103.118 77.0046 103.697 77.7528 104.944 78.2245C107.407 79.1366 107.74 80.5205 107.74 81.9897C107.74 84.4818 105.996 87.5818 101.511 87.5818C97.9119 87.5818 95.3369 84.3694 95.3369 81.6566C95.3369 80.9085 95.5305 80.0792 96.0014 80.0792C96.4173 80.0792 96.5551 80.4106 96.8873 80.742C98.1342 81.9897 99.4902 82.3203 101.456 82.3203C103.228 82.3211 104.529 81.6017 104.529 80.8536Z" fill="#1766A6"/>
<path d="M84.9249 81.4536C84.9925 82.0318 84.5792 82.5534 84.0018 82.621C83.4236 82.6887 82.8994 82.2744 82.8335 81.6971C82.7659 81.118 83.1792 80.5947 83.7575 80.5271C84.3357 80.4595 84.8581 80.8745 84.9249 81.4536ZM79.7513 82.5424C79.8688 83.4875 80.7505 84.2044 81.7455 84.0937C82.1048 84.0539 82.4379 83.9559 82.6602 83.8172C82.8817 84.7023 83.6248 85.2721 84.629 85.1402C85.6485 85.0075 86.3417 84.2044 86.2318 83.1798C86.2031 82.9042 86.1482 82.736 86.0662 82.5424C86.0662 82.5424 86.2006 82.5281 86.302 82.5095C87.3021 82.3201 87.9758 81.5178 87.8921 80.5491C87.7822 79.5524 86.8878 78.8127 85.9571 78.9277C85.5961 78.9716 85.2631 79.1094 85.0407 79.303C84.7905 78.4737 84.0102 77.7526 82.9451 77.9284C81.9822 78.0882 81.3457 78.9048 81.442 79.9404C81.4581 80.1086 81.497 80.3005 81.5807 80.4933C81.5807 80.4933 81.4175 80.5178 81.3051 80.5338C80.4969 80.6539 79.6203 81.4671 79.7513 82.5424Z" fill="#1766A6"/>
</svg>
