<svg width="220" height="160" viewBox="0 0 220 160" fill="none" xmlns="http://www.w3.org/2000/svg">
<rect width="220" height="160" fill="#F8F8F8"/>
<path d="M63 128.203C63.271 129.26 64.1862 130.34 65.4418 130.611H69.2367L69.4303 130.687V140.263H71.8V130.687L72.0153 130.611H75.8135C77.0832 130.284 77.9786 129.26 78.245 128.203V128.179H63V128.203Z" fill="#E82127"/>
<path d="M86.4557 140.29H95.471C96.7253 140.04 97.6575 138.935 97.9188 137.865H84.0079C84.2676 138.935 85.2135 140.04 86.4557 140.29" fill="#E82127"/>
<path d="M86.4557 135.379H95.471C96.7253 135.132 97.6575 134.026 97.9188 132.955H84.0079C84.2676 134.027 85.2135 135.132 86.4557 135.379" fill="#E82127"/>
<path d="M86.4557 130.598H95.471C96.7253 130.348 97.6575 129.243 97.9188 128.173H84.0079C84.2676 129.243 85.2135 130.348 86.4557 130.598" fill="#E82127"/>
<path d="M107.012 130.574H115.341C116.596 130.209 117.651 129.253 117.908 128.192H104.677V135.34H115.506V137.848L107.012 137.855C105.681 138.226 104.552 139.12 103.989 140.3L104.677 140.287H117.833V132.963H107.012V130.574" fill="#E82127"/>
<path d="M135.358 140.292C136.54 139.79 137.177 138.923 137.42 137.909H126.901L126.908 128.19L124.55 128.197V140.292H135.358" fill="#E82127"/>
<path d="M144.545 130.61H153.563C154.816 130.361 155.747 129.255 156.01 128.186H142.098C142.358 129.256 143.303 130.361 144.545 130.61Z" fill="#E82127"/>
<path d="M142.46 132.972V140.286H144.806V135.417H153.342V140.286H155.685V132.985L142.46 132.972" fill="#E82127"/>
<path d="M109.511 104.277L121.352 37.6843C132.638 37.6843 136.198 38.9219 136.712 43.9734C136.712 43.9734 144.283 41.1505 148.102 35.4171C133.201 28.5122 118.228 28.2008 118.228 28.2008L109.492 38.8418L109.511 38.8405L100.775 28.1991C100.775 28.1991 85.8022 28.5108 70.903 35.4157C74.7183 41.1491 82.2924 43.9721 82.2924 43.9721C82.8094 38.9203 86.3649 37.6827 97.5754 37.6746L109.511 104.277Z" fill="#E82127"/>
<path d="M109.507 25.1266C121.552 25.0345 135.339 26.99 149.454 33.1416C151.34 29.7462 151.825 28.2456 151.825 28.2456C136.396 22.1414 121.947 20.0524 109.505 20C97.0631 20.0524 82.6148 22.1418 67.1879 28.2456C67.1879 28.2456 67.8762 30.094 69.5577 33.1416C83.6692 26.99 97.459 25.0345 109.505 25.1266H109.507" fill="#E82127"/>
</svg>
