<svg width="220" height="160" viewBox="0 0 220 160" fill="none" xmlns="http://www.w3.org/2000/svg">
<rect width="220" height="160" fill="#F8F8F8"/>
<path d="M177.958 88.2461C177.728 88.2461 177.498 88.407 177.406 88.7058C176.004 92.7279 174.074 95.1411 172.511 95.1411C171.614 95.1411 171.247 94.1299 171.247 92.544C171.247 88.5909 173.614 80.2249 174.809 76.3867C174.947 75.927 175.039 75.5133 175.039 75.1686C175.039 74.0654 174.441 73.5138 172.925 73.5138C171.293 73.5138 169.569 74.1573 167.868 77.1222C167.294 74.5021 165.501 73.3529 163.042 73.3529C160.169 73.3529 157.411 75.1916 155.135 78.1794C152.86 81.1672 150.194 82.1555 148.171 81.6499C149.619 78.1104 150.148 75.4674 150.148 73.4908C150.148 70.411 148.631 68.5494 146.172 68.5494C142.426 68.5494 140.265 72.1118 140.265 75.8811C140.265 78.777 141.575 81.7648 144.471 83.2128C142.035 88.7058 138.495 93.6702 137.162 93.6702C135.416 93.6702 134.91 85.1663 135.002 79.0987C135.071 75.6053 135.347 75.4214 135.347 74.3642C135.347 73.7666 134.956 73.3529 133.37 73.3529C129.693 73.3529 128.544 76.4786 128.383 80.041C128.337 81.3971 128.107 82.7531 127.739 84.0631C126.199 89.5562 123.028 93.7162 120.959 93.7162C119.994 93.7162 119.741 92.7509 119.741 91.5097C119.741 87.5566 121.947 82.6152 121.947 78.4092C121.947 75.3065 120.591 73.3529 118.04 73.3529C115.029 73.3529 111.03 76.9383 107.261 83.6494C108.502 78.5012 109.008 73.5368 105.33 73.5368C104.526 73.5597 103.745 73.7436 103.055 74.1343C102.572 74.3642 102.274 74.8468 102.32 75.3984C102.664 80.8684 97.9068 94.8883 93.4021 94.8883C92.5747 94.8883 92.184 93.992 92.184 92.567C92.184 88.6138 94.5513 80.2479 95.7234 76.4327C95.8843 75.927 95.9532 75.5133 95.9532 75.1456C95.9532 74.0884 95.3097 73.5597 93.8388 73.5597C92.2299 73.5597 90.4832 74.1803 88.7824 77.1451C88.1849 74.525 86.4151 73.3759 83.9329 73.3759C79.8649 73.3759 75.3372 77.6738 73.3376 83.2587C70.6715 90.7283 65.2934 97.9451 58.0537 97.9451C51.4804 97.9451 48.0099 92.4751 48.0099 83.8333C48.0099 71.3533 57.1573 61.1717 63.9604 61.1717C67.201 61.1717 68.7639 63.2402 68.7639 66.4119C68.7639 70.2501 66.6265 72.0428 66.6265 73.4908C66.6265 73.9275 66.9942 74.3871 67.7297 74.3871C70.6715 74.3871 74.165 70.9167 74.165 66.1821C74.165 61.4475 70.3268 58 63.5237 58C52.3078 58 41 69.2848 41 83.7644C41 95.279 46.6769 102.22 56.5138 102.22C63.2249 102.22 69.0627 97.0028 72.2344 90.9352C72.6021 95.9685 74.8775 98.6116 78.371 98.6116C81.4737 98.6116 83.9789 96.7729 85.9095 93.5093C86.645 96.9108 88.5986 98.5656 91.1497 98.5656C94.0686 98.5656 96.5048 96.727 98.8262 93.2795C98.7802 95.9685 99.4007 98.5197 101.745 98.5197C102.848 98.5197 104.158 98.2669 104.388 97.3016C106.847 87.1199 112.938 78.8229 114.8 78.8229C115.351 78.8229 115.512 79.3516 115.512 79.9721C115.512 82.7301 113.558 88.407 113.558 92.0154C113.558 95.9226 115.213 98.5197 118.661 98.5197C122.476 98.5197 126.337 93.8541 128.911 87.051C129.716 93.4174 131.463 98.5427 134.198 98.5427C137.553 98.5427 143.506 91.4868 147.114 84.0172C148.516 84.201 150.654 84.1551 152.699 82.7071C151.826 84.9135 151.32 87.3038 151.32 89.717C151.32 96.658 154.63 98.5886 157.48 98.5886C160.582 98.5886 163.088 96.75 165.018 93.4863C165.662 96.4282 167.271 98.5427 170.258 98.5427C174.924 98.5427 178.969 93.7851 178.969 89.8779C178.923 88.8667 178.487 88.2461 177.958 88.2461ZM81.2209 94.7734C79.3363 94.7734 78.6008 92.8658 78.6008 90.0618C78.6008 85.1434 81.9564 76.9613 85.5188 76.9613C87.0587 76.9613 87.6562 78.777 87.6562 81.0293C87.6562 85.9937 84.4616 94.7734 81.2209 94.7734ZM145.689 80.133C144.563 78.7999 144.149 76.9843 144.149 75.3524C144.149 73.3529 144.885 71.6751 145.758 71.6751C146.632 71.6751 146.907 72.5485 146.907 73.7436C146.907 75.7202 146.195 78.662 145.689 80.133ZM160.284 94.7734C158.399 94.7734 157.664 92.59 157.664 90.0618C157.664 85.3272 161.019 76.9613 164.605 76.9613C166.167 76.9613 166.696 78.777 166.696 81.0293C166.719 85.9937 163.57 94.7734 160.284 94.7734Z" fill="#7D2AE8"/>
</svg>
