<svg width="220" height="97" viewBox="0 0 220 97" fill="none" xmlns="http://www.w3.org/2000/svg">
<rect width="220" height="97" fill="#F8F8F8"/>
<path fill-rule="evenodd" clip-rule="evenodd" d="M145.93 34.2906C145.93 33.3128 145.062 32.4434 143.975 32.4434H141.258C140.171 32.4434 139.301 33.3128 139.301 34.2906L139.41 63.4204C139.41 64.3981 140.171 65.2675 141.258 65.2675H143.975C145.062 65.2675 145.93 64.3981 145.93 63.4204V34.2906V34.2906Z" fill="#005695"/>
<path fill-rule="evenodd" clip-rule="evenodd" d="M149.41 35.1603V36.4648C149.41 37.1159 149.845 37.551 150.497 37.551H169.625C170.496 37.551 171.256 36.7916 171.256 35.9222V33.6382C171.256 32.7688 170.496 31.8994 169.625 32.0095C169.625 32.0095 151.148 33.8566 150.497 33.965C149.844 33.965 149.41 34.5076 149.41 35.1603V35.1603Z" fill="#005695"/>
<path fill-rule="evenodd" clip-rule="evenodd" d="M133.863 65.2684C129.081 65.2684 126.146 61.6815 126.146 57.6604V46.0297H124.732C124.081 46.0297 123.428 45.377 123.428 44.7252V42.7679C123.428 42.0086 124.08 41.4634 124.732 41.4634H126.146V34.2906C126.146 33.3128 126.906 32.4434 127.993 32.4434H130.711C131.689 32.4434 132.45 33.3128 132.45 34.2906V41.4634H136.688C137.449 41.4634 137.993 42.0077 137.993 42.7679V44.7252C137.993 45.3762 137.45 46.0297 136.688 46.0297H132.45V56.791C132.45 58.8549 133.754 60.3779 136.036 60.3779H136.472C137.233 60.3779 137.885 60.9205 137.885 61.7907V63.8563C137.885 64.6174 137.233 65.2692 136.472 65.2692H133.863V65.2685V65.2684Z" fill="#005695"/>
<path fill-rule="evenodd" clip-rule="evenodd" d="M101.256 52.9856C101.256 46.7906 97.5604 40.5955 89.1905 40.5955C81.4734 40.5955 77.2347 46.6805 77.2347 52.9856C77.2347 59.7233 81.7993 65.7025 89.2989 65.7025C94.4078 65.7025 99.4076 63.0943 100.385 58.638C100.494 58.0954 100.059 57.2252 99.2984 57.2252H95.6032C94.9513 57.2252 94.4078 57.5502 94.0811 58.0946C92.9941 59.6158 91.4729 60.3769 89.2989 60.3769C86.038 60.3769 83.8641 57.8762 83.6465 55.0512H99.1892C100.604 55.0512 101.256 54.2902 101.256 52.9856V52.9856ZM83.7557 50.3774C83.9733 47.6608 86.3639 45.5953 89.1905 45.5953C92.1255 45.5953 94.5162 47.6608 94.843 50.3774H83.7557V50.3774Z" fill="#005695"/>
<path fill-rule="evenodd" clip-rule="evenodd" d="M171.907 52.9856C171.907 46.7906 168.212 40.5955 159.842 40.5955C152.125 40.5955 147.887 46.6805 147.887 52.9856C147.887 59.7233 152.453 65.7025 159.952 65.7025C165.06 65.7025 170.059 63.0943 171.038 58.638C171.147 58.0954 170.711 57.2252 169.951 57.2252H166.256C165.604 57.2252 165.06 57.5502 164.734 58.0946C163.647 59.6158 162.126 60.3769 159.842 60.3769C156.691 60.3769 154.517 57.8762 154.299 55.0512H169.843C171.256 55.0512 171.907 54.2902 171.907 52.9856V52.9856ZM154.408 50.3774C154.625 47.6608 157.016 45.5953 159.842 45.5953C162.777 45.5953 165.169 47.6608 165.386 50.3774H154.408Z" fill="#005695"/>
<path fill-rule="evenodd" clip-rule="evenodd" d="M120.931 32.769H70.7155C69.5201 32.769 68.6507 33.7484 68.6507 34.8346L68.7591 54.6176C68.7591 54.6176 57.9986 35.053 57.4551 34.0735C56.9125 33.0958 55.7163 32.2264 54.1951 32.2264H50.0647C48.8694 32.2264 48 33.2058 48 34.2919V63.2033C48 64.3995 48.8694 65.2689 50.0647 65.2689H52.673C53.8683 65.2689 54.7385 64.3995 54.7385 63.2033L54.6302 42.9877C54.6302 42.9877 65.499 62.6607 66.0425 63.4217C66.586 64.5078 67.673 65.2689 69.1942 65.2689H72.9986C74.1939 65.2689 75.0634 64.3995 75.0634 63.2033V37.662H120.931C121.691 37.662 122.344 37.0094 122.344 36.2491V34.1836C122.344 33.4217 121.692 32.769 120.931 32.769V32.769Z" fill="#005695"/>
<path fill-rule="evenodd" clip-rule="evenodd" d="M112.776 45.3768C114.95 45.3768 116.581 46.1379 117.234 47.5508C117.451 48.2035 117.994 48.3118 118.756 48.3118H121.799C122.234 48.3118 122.886 47.8767 122.886 47.2257C122.886 43.7472 118.646 40.5955 112.777 40.5955C106.691 40.5955 102.669 43.5288 102.669 48.0951C102.669 51.6819 105.495 53.7475 108.865 54.7253C110.495 55.052 113.212 55.7031 114.516 56.1382C115.821 56.4649 117.124 56.8992 117.124 58.0954C117.124 60.0509 115.168 60.5944 112.886 60.5944C110.82 60.5944 108.755 59.725 108.212 58.2038C107.886 57.3343 107.233 57.226 106.364 57.226H103.321C102.777 57.226 102.125 57.7686 102.125 58.4205V58.8556C102.125 62.2257 106.691 65.7033 112.994 65.7033C117.342 65.7033 123.538 63.8562 123.538 57.9853C123.538 54.5069 121.255 52.1171 117.451 51.1393C116.037 50.8125 112.56 49.8348 111.799 49.7247C110.385 49.2896 109.081 48.8553 109.081 47.7692C109.081 45.922 110.712 45.3768 112.776 45.3768V45.3768Z" fill="#005695"/>
</svg>
