<svg width="220" height="97" viewBox="0 0 220 97" fill="none" xmlns="http://www.w3.org/2000/svg">
<rect width="220" height="97" fill="#F8F8F8"/>
<path d="M131.32 43.8566C128.948 41.7127 126.083 40.6647 122.771 40.6647C119.505 40.6647 116.64 41.714 114.266 43.8566C111.893 45.9539 110.687 48.8732 110.687 52.613C110.687 56.3528 111.893 59.2694 114.266 61.4133C116.639 63.5107 119.505 64.56 122.771 64.56C126.083 64.56 128.948 63.5107 131.32 61.4133C133.738 59.2694 134.944 56.3515 134.944 52.613C134.944 48.8745 133.737 45.9539 131.32 43.8566ZM118.297 57.3995C117.046 56.1693 116.415 54.572 116.415 52.6117C116.415 50.6513 117.04 49.0554 118.297 47.869C118.88 47.2775 119.577 46.8108 120.346 46.4973C121.115 46.1838 121.94 46.0301 122.77 46.0457C123.607 46.03 124.439 46.1834 125.215 46.4967C125.992 46.81 126.697 47.2768 127.289 47.869C128.584 49.0554 129.215 50.65 129.215 52.6117C129.215 54.5734 128.59 56.168 127.289 57.3995C126.038 58.5845 124.515 59.1777 122.77 59.1777C121.944 59.1908 121.124 59.0405 120.356 58.7353C119.588 58.4301 118.889 57.9762 118.297 57.3995V57.3995ZM143.408 63.9203V32.6291H137.769V63.9203H143.408ZM161.609 41.303V53.7887C161.609 56.797 160.013 58.792 156.975 58.792C153.886 58.792 152.332 56.7997 152.332 53.7887V41.303H146.682V54.7463C146.682 59.9544 149.905 64.5587 156.975 64.5587H157.019C164.045 64.5587 167.262 59.852 167.262 54.7463V41.303H161.609ZM104.686 41.303L99.0474 56.6241L93.4084 41.303H87.4116L96.4101 63.9216H101.693L110.69 41.303H104.686ZM87.4382 51.9733C87.4382 48.691 86.4102 46.0005 84.3953 43.8566C82.3804 41.7127 79.7883 40.6647 76.6097 40.6647C73.3433 40.6647 70.5664 41.8058 68.2842 44.0388C66.0445 46.2744 64.9287 49.1006 64.9287 52.6117C64.9287 56.1228 66.0472 58.9968 68.2403 61.2298C70.4799 63.4654 73.1651 64.5587 76.3424 64.5587C81.2233 64.5587 84.6679 62.3696 86.7679 57.9461L82.5626 55.483C81.1781 58.264 79.1606 59.6325 76.4315 59.6325C73.076 59.6325 70.7034 57.4434 70.3443 53.9789H87.4369V51.972L87.4382 51.9733ZM76.4275 45.0416C79.6048 45.0416 81.7101 46.8649 82.2461 49.7842H70.3416C71.1941 47.0937 73.5189 45.0416 76.4288 45.0416H76.4275ZM64.9274 63.9203L57.3613 50.4239C62.1478 48.6457 64.5204 45.5456 64.5204 41.0304C64.5257 35.5124 60.226 32 53.3794 32H40V63.9203H45.9077V50.9705H50.9216L58.1699 63.9216L64.9274 63.9203ZM53.3794 37.2892C56.8705 37.2892 58.6167 38.703 58.6167 41.4839C58.6167 44.2649 56.8692 45.6786 53.3794 45.6786H45.9077V37.2892H53.3794ZM176.822 64.5587C173.192 64.5587 170.249 61.5583 170.249 57.8557V35.1919H175.888V41.311H180.724V45.9619H175.888V57.486C175.888 58.5712 176.751 59.4503 177.818 59.4503H180.724V64.5587H176.822Z" fill="black"/>
</svg>
