<svg width="220" height="97" viewBox="0 0 220 97" fill="none" xmlns="http://www.w3.org/2000/svg">
<rect width="220" height="97" fill="#F8F8F8"/>
<path d="M60.4468 26.6306H52V35.0774H60.4468V26.6306Z" fill="#0068B5"/>
<path d="M60.2405 70.6387V40.2183H52.2446V70.6387H60.2405ZM113.386 70.9393V63.4845C112.214 63.4845 111.222 63.4244 110.5 63.3042C109.659 63.1839 109.027 62.8833 108.607 62.4625C108.186 62.0417 107.915 61.4405 107.765 60.6589C107.645 59.9074 107.585 58.9154 107.585 57.7131V47.0719H113.386V40.2183H107.585V28.3447H99.5587V57.7732C99.5587 60.2681 99.7691 62.3723 100.19 64.0557C100.611 65.7089 101.332 67.0616 102.324 68.0837C103.316 69.1057 104.639 69.8271 106.232 70.278C107.855 70.7289 109.899 70.9393 112.334 70.9393H113.386ZM159.317 70.6387V26H151.292V70.6387H159.317ZM91.8333 43.1942C89.6089 40.7894 86.4827 39.587 82.5148 39.587C80.591 39.587 78.8475 39.9778 77.2543 40.7593C75.6912 41.5409 74.3385 42.623 73.2864 44.0058L72.8355 44.5769V44.0659V40.2183H64.9298V70.6387H72.8957V54.4365V55.5487C72.8957 55.3684 72.8957 55.188 72.8957 55.0077C72.9858 52.152 73.6772 50.0478 74.9998 48.6951C76.4126 47.2523 78.1261 46.5308 80.0799 46.5308C82.3945 46.5308 84.1681 47.2523 85.3404 48.635C86.4827 50.0178 87.0839 51.9716 87.0839 54.4666V54.5267V70.6087H95.1699V53.3544C95.2 49.0258 94.0577 45.599 91.8333 43.1942ZM147.143 55.3684C147.143 53.174 146.753 51.13 146.001 49.2061C145.219 47.3124 144.137 45.629 142.785 44.1862C141.402 42.7433 139.749 41.6311 137.825 40.8195C135.901 40.0079 133.767 39.6171 131.452 39.6171C129.258 39.6171 127.184 40.0379 125.26 40.8495C123.336 41.6912 121.653 42.8034 120.24 44.2162C118.827 45.629 117.685 47.3124 116.873 49.2362C116.031 51.16 115.641 53.2341 115.641 55.4285C115.641 57.6229 116.031 59.697 116.813 61.6208C117.595 63.5446 118.707 65.228 120.089 66.6408C121.472 68.0536 123.186 69.1959 125.17 70.0075C127.154 70.8492 129.348 71.27 131.693 71.27C138.486 71.27 142.694 68.1738 145.219 65.2881L139.448 60.8994C138.246 62.3423 135.36 64.2961 131.753 64.2961C129.498 64.2961 127.634 63.7851 126.222 62.733C124.809 61.711 123.847 60.2681 123.336 58.4946L123.246 58.2241H147.143V55.3684ZM123.306 52.5728C123.306 50.3484 125.861 46.4707 131.362 46.4406C136.863 46.4406 139.448 50.3183 139.448 52.5428L123.306 52.5728Z" fill="black"/>
<path d="M168.45 66.6697C168.3 66.3089 168.089 66.0083 167.819 65.7378C167.548 65.4673 167.247 65.2569 166.887 65.1066C166.526 64.9563 166.135 64.8661 165.744 64.8661C165.324 64.8661 164.963 64.9563 164.602 65.1066C164.241 65.2569 163.941 65.4673 163.67 65.7378C163.4 66.0083 163.189 66.3089 163.039 66.6697C162.889 67.0304 162.799 67.4212 162.799 67.8119C162.799 68.2328 162.889 68.5935 163.039 68.9542C163.189 69.3149 163.4 69.6155 163.67 69.8861C163.941 70.1566 164.241 70.367 164.602 70.5173C164.963 70.6676 165.354 70.7578 165.744 70.7578C166.165 70.7578 166.526 70.6676 166.887 70.5173C167.247 70.367 167.548 70.1566 167.819 69.8861C168.089 69.6155 168.3 69.3149 168.45 68.9542C168.6 68.5935 168.69 68.2027 168.69 67.8119C168.69 67.4212 168.6 67.0304 168.45 66.6697ZM167.969 68.7738C167.849 69.0744 167.668 69.345 167.458 69.5554C167.247 69.7658 166.977 69.9462 166.676 70.0664C166.376 70.1867 166.075 70.2468 165.714 70.2468C165.384 70.2468 165.053 70.1867 164.752 70.0664C164.452 69.9462 164.181 69.7658 163.971 69.5554C163.761 69.345 163.58 69.0744 163.46 68.7738C163.34 68.4732 163.28 68.1726 163.28 67.8119C163.28 67.4813 163.34 67.1506 163.46 66.85C163.58 66.5494 163.761 66.2789 163.971 66.0685C164.181 65.858 164.452 65.6777 164.752 65.5574C165.053 65.4372 165.354 65.3771 165.714 65.3771C166.045 65.3771 166.376 65.4372 166.676 65.5574C166.977 65.6777 167.247 65.858 167.458 66.0685C167.668 66.2789 167.849 66.5494 167.969 66.85C168.089 67.1506 168.149 67.4512 168.149 67.8119C168.179 68.1726 168.089 68.4732 167.969 68.7738ZM166.286 68.0524C166.526 68.0224 166.706 67.9322 166.857 67.7819C167.007 67.6316 167.097 67.4212 167.097 67.1206C167.097 66.7899 167.007 66.5494 166.797 66.3691C166.616 66.1887 166.286 66.0985 165.895 66.0985H164.572V69.4953H165.203V68.1125H165.654L166.496 69.4953H167.157L166.286 68.0524ZM165.955 67.5715C165.865 67.5715 165.775 67.5715 165.654 67.5715H165.203V66.6095H165.654C165.744 66.6095 165.835 66.6095 165.955 66.6095C166.045 66.6095 166.135 66.6396 166.225 66.6697C166.316 66.6997 166.376 66.7598 166.406 66.82C166.436 66.8801 166.466 66.9703 166.466 67.0905C166.466 67.2107 166.436 67.3009 166.406 67.361C166.346 67.4212 166.286 67.4813 166.225 67.5113C166.135 67.5414 166.045 67.5715 165.955 67.5715Z" fill="black"/>
</svg>
