<svg width="220" height="97" viewBox="0 0 220 97" fill="none" xmlns="http://www.w3.org/2000/svg">
<rect width="220" height="97" fill="#F8F8F8"/>
<path d="M62.5521 72.4977C57.0173 72.0055 52.1733 69.813 48.4934 66.1346C45.0184 62.6609 42.8861 58.252 42.1615 53.042C41.9834 51.7616 41.9437 48.7536 42.0871 47.4029C42.5524 43.0201 44.1481 39.1038 46.8433 35.7302C47.5696 34.821 49.0788 33.2794 49.9478 32.5591C54.554 28.7409 60.3681 26.8808 66.6614 27.2121C69.6305 27.3684 71.669 27.7329 73.9502 28.5156C75.5334 29.0587 77.8087 30.2078 78.5107 30.8187L78.688 30.973L78.6679 32.6996L78.6478 34.4261L77.8967 33.9638C74.4508 31.843 70.0798 30.7206 65.278 30.7234C61.2082 30.7258 57.452 31.8162 54.2539 33.9234C50.9633 36.0916 48.484 39.1524 47.0326 42.8383C45.0677 47.8281 45.3717 53.9254 47.8309 58.8473C50.6342 64.4582 55.7988 68.0681 62.2063 68.8956C64.0917 69.139 66.8722 69.0282 68.8473 68.6308C75.3102 67.3305 79.3657 62.9105 80.2295 56.2254C80.3197 55.5279 80.3516 54.6874 80.3572 52.8632L80.3647 50.4309L72.7282 50.4127L65.0916 50.3945V48.678V46.9614H74.4271H83.7627L83.762 50.0554C83.7613 53.5441 83.6851 55.3698 83.4794 56.8301C82.8584 61.2397 81.2163 64.7498 78.5071 67.459C75.7614 70.2047 72.2476 71.8154 67.7385 72.3953C66.6861 72.5307 63.6066 72.5915 62.5521 72.4977V72.4977Z" fill="#00B14F"/>
<path d="M149.646 31.5201V24H151.399H153.152V30.3559V36.7118L152.849 36.8478C152.222 37.1291 151.334 37.7349 149.736 38.971C149.664 39.0262 149.646 37.5253 149.646 31.5201Z" fill="#00B14F"/>
<path d="M144.353 34.244V24H146.106H147.859V32.1988V40.3976L147.311 40.9799C146.75 41.5763 145.741 42.7619 144.929 43.7798C144.678 44.0946 144.446 44.3827 144.413 44.4201C144.38 44.4575 144.353 39.8782 144.353 34.244V34.244Z" fill="#00B14F"/>
<path d="M63.4773 67.1653C59.0755 66.8191 55.3689 65.1201 52.4509 62.1111C51.5939 61.2274 51.0998 60.6136 50.4412 59.6142C48.0003 55.9108 47.0512 51.0739 47.8827 46.5762C48.9487 40.8098 52.9284 36.0229 58.5025 33.8022C59.9199 33.2375 61.6689 32.821 63.3308 32.6524C64.4092 32.5429 67.3054 32.6042 68.449 32.7606C72.1313 33.2642 75.4186 34.4018 78.0525 36.0841L78.6781 36.4836L78.6784 38.1801C78.6787 39.7262 78.6676 39.8826 78.5529 39.9439C78.4544 39.9966 78.2327 39.8881 77.5335 39.4449C74.7747 37.6962 71.8376 36.6746 68.3775 36.2604C67.059 36.1026 64.2101 36.0823 63.2269 36.2237C56.9041 37.1333 52.4001 41.6815 51.5994 47.9652C51.3814 49.6757 51.5296 52.0875 51.9556 53.7597C52.9067 57.494 55.2052 60.5307 58.2825 62.1185C60.3706 63.1959 62.2066 63.6317 64.6576 63.6317C68.0894 63.6317 70.8497 62.6559 72.743 60.7733C73.9702 59.553 74.6873 58.0732 74.8505 56.4244L74.9018 55.9058H69.9943H65.0868V54.0816V52.2574H71.8113H78.5357V53.7163C78.5357 55.9668 78.3559 57.3041 77.8504 58.8151C76.8259 61.8773 74.6534 64.3082 71.6682 65.7328C69.7267 66.6594 67.6603 67.11 65.0974 67.1659C64.403 67.181 63.674 67.1807 63.4773 67.1651V67.1653Z" fill="#00B14F"/>
<path d="M160.858 67.2047C158.077 66.9579 155.629 65.7311 153.539 63.5371C152.04 61.9642 150.978 60.0875 150.516 58.1954C150.249 57.0991 150.164 57.3132 151.692 55.2073C152.437 54.1798 153.068 53.3373 153.094 53.335C153.12 53.3328 153.162 53.677 153.187 54.0999C153.252 55.1702 153.348 55.8254 153.563 56.6574C154.518 60.3514 157.2 63.0207 160.546 63.6058C161.434 63.7611 162.961 63.7046 163.813 63.4849C166.895 62.6907 168.944 60.3617 169.726 56.7647C169.914 55.8961 169.916 53.3444 169.728 52.4891C169.345 50.7456 168.597 49.2741 167.515 48.1356C165.97 46.5086 163.943 45.6765 161.524 45.6765C158.42 45.6765 156.162 46.9357 153.184 50.3276C150.273 53.6439 145.437 59.7894 143.006 63.2635L142.138 64.5043V61.6181V58.7319L143.374 57.0508C144.054 56.1262 145.246 54.5488 146.022 53.5455C146.798 52.5422 147.876 51.1421 148.416 50.4341C150.898 47.1809 152.5 45.5488 154.535 44.1985C158.733 41.4132 164.257 41.343 168.263 44.0242C172.351 46.7603 174.316 52.1113 173.219 57.525C172.335 61.8923 169.538 65.2621 165.669 66.6224C164.832 66.9166 163.869 67.1151 162.847 67.2042C161.904 67.2864 161.779 67.2864 160.858 67.2049L160.858 67.2047Z" fill="#00B14F"/>
<path d="M131.549 62.5488C131.549 54.7683 131.534 53.4238 131.438 52.7798C131.088 50.4217 129.999 48.4571 128.361 47.2277C127.299 46.4306 126.107 45.9353 124.692 45.7024C123.679 45.5356 122.164 45.6008 121.212 45.8522C118.031 46.6917 115.744 49.2825 115.053 52.8286C114.856 53.8403 114.873 55.7492 115.088 56.7631C115.796 60.1008 117.913 62.5108 120.89 63.3676C123.51 64.1217 127.12 63.5567 129.35 62.0436L129.763 61.7637L129.744 63.6076L129.725 65.4515L129.009 65.8256C127.199 66.772 124.363 67.3759 122.356 67.2419C118.516 66.9853 115.425 65.2417 113.368 62.1716C111.179 58.9034 110.619 54.1602 111.951 50.1598C113.71 44.8752 118.643 41.6474 124.27 42.0991C127.321 42.3441 129.613 43.3676 131.623 45.3836C133.482 47.2472 134.478 49.2595 134.957 52.1132C135.071 52.7976 135.085 53.6955 135.107 62.2178L135.132 71.5711H133.34H131.549V62.5488Z" fill="#00B14F"/>
<path d="M91.4189 62.3272C91.42 52.8442 91.45 51.5733 91.702 50.3367C92.3493 47.1602 94.2335 44.6337 96.9882 43.2488C97.6402 42.9209 98.9954 42.4883 99.7876 42.3551C102.175 41.9537 104.657 42.3166 106.42 43.325L106.792 43.5381L106.497 44.0175C106.335 44.2811 105.98 44.9555 105.708 45.5162C105.437 46.0768 105.209 46.5355 105.202 46.5355C105.194 46.5355 104.883 46.4264 104.509 46.2931C102.91 45.7225 101.448 45.6301 99.9537 46.0049C98.5545 46.3558 97.2798 47.1823 96.4544 48.2739C95.994 48.8829 95.4616 50.006 95.227 50.8635L95.0312 51.5789L95.011 61.5761L94.9908 71.5733H93.2043H91.4178L91.4189 62.3272Z" fill="#00B14F"/>
<path d="M86.1898 61.7168C86.1898 51.8693 86.2068 51.0731 86.4474 49.6093C87.189 45.0977 89.5502 41.4162 93.0744 39.2766C96.4245 37.2427 100.869 36.5468 105.147 37.3864C106.67 37.6854 108.564 38.4222 109.732 39.1702L110.204 39.4724L109.367 40.3023C108.906 40.7587 108.385 41.3038 108.207 41.5136L107.884 41.895L107.463 41.6827C106.058 40.9737 103.68 40.4526 101.85 40.4526C96.0948 40.4526 91.6065 43.7938 90.2005 49.1247C89.7175 50.9559 89.7398 50.388 89.7134 61.5022L89.6894 71.5709H87.9396H86.1897L86.1898 61.7168Z" fill="#00B14F"/>
<path d="M160.308 72.5288C154.938 72.0395 150.49 69.462 147.756 65.2562C147.325 64.5926 146.575 63.0838 146.427 62.582L146.34 62.2842L147.583 60.5928L148.826 58.9013L148.889 59.138C149.694 62.1615 151.459 64.7333 153.947 66.5082C154.721 67.0601 156.126 67.8068 157.058 68.1605C159.395 69.0484 161.986 69.2621 164.509 68.7752C166.151 68.4585 168.1 67.6242 169.465 66.6544C170.304 66.0579 171.861 64.5131 172.427 63.7145C173.812 61.7617 174.723 59.4405 175.09 56.9318C175.258 55.7821 175.26 53.4623 175.093 52.3241C174.511 48.3522 172.703 45.1564 169.787 42.9446C167.332 41.0831 163.874 40.1172 160.575 40.3717C155.581 40.7569 152.139 43.0287 147.188 49.2084C146.68 49.8424 145.347 51.5843 144.227 53.0794C143.106 54.5745 142.178 55.8112 142.164 55.8276C142.149 55.844 142.138 54.6844 142.138 53.2507V50.644L143.337 48.9645C145.88 45.4044 146.98 44.044 148.717 42.3132C150.525 40.5106 151.972 39.4429 153.906 38.4849C155.53 37.68 157.091 37.196 159.02 36.8993C160.178 36.7213 163.013 36.7213 164.171 36.8993C168.114 37.5057 171.252 39.1041 173.9 41.8549C176.493 44.5489 178.045 47.891 178.632 52.0421C178.761 52.9538 178.762 56.2773 178.633 57.1928C178.216 60.1614 177.253 62.825 175.802 65.026C173.109 69.1111 169.186 71.6356 164.35 72.3953C163.658 72.504 161 72.5918 160.308 72.5288H160.308Z" fill="#00B14F"/>
<path d="M121.46 72.4915C113.707 71.7816 107.723 66.3325 106.229 58.6236C105.946 57.1638 105.9 56.6157 105.9 54.6891C105.9 52.3295 106.06 51.111 106.62 49.1795C108.086 44.1231 111.81 39.9323 116.559 37.9956C118.828 37.0704 120.797 36.6982 123.391 36.7044C125.907 36.7103 127.76 37.0364 129.865 37.8433C132.111 38.7044 133.926 39.9008 135.63 41.6444C138.108 44.1805 139.584 47.233 140.222 51.1432C140.372 52.0592 140.375 52.2741 140.399 61.8248L140.423 71.5717H138.631H136.84L136.839 62.6117C136.839 57.0488 136.81 53.3263 136.765 52.7934C136.46 49.2564 135.018 46.1383 132.654 43.9002C130 41.3894 126.114 40.0647 122.3 40.3719C115.749 40.8996 110.88 45.3918 109.728 51.9707C109.407 53.8067 109.463 56.2555 109.874 58.2861C110.169 59.7504 110.918 61.6786 111.656 62.8782C113.2 65.3861 115.473 67.2173 118.263 68.2011C120.654 69.0439 123.391 69.2571 125.721 68.7821C127.052 68.5107 128.636 67.9011 129.431 67.3546L129.758 67.1295V68.9061V70.6827L129.347 70.9539C128.176 71.726 126.454 72.2913 124.643 72.4984C123.895 72.5839 122.434 72.5807 121.46 72.4915L121.46 72.4915Z" fill="#00B14F"/>
</svg>
