<svg width="220" height="97" viewBox="0 0 220 97" fill="none" xmlns="http://www.w3.org/2000/svg">
<rect width="220" height="97" fill="#F8F8F8"/>
<path d="M114.439 36.5626C114.439 38.3644 112.987 39.8158 111.185 39.8158C109.384 39.8158 107.932 38.3644 107.932 36.5626C107.932 34.7608 109.333 33.3093 111.185 33.3093C113.037 33.3594 114.439 34.8108 114.439 36.5626ZM101.025 43.1191C101.025 43.4194 101.025 43.9199 101.025 43.9199C101.025 43.9199 99.4736 41.9179 96.1703 41.9179C90.7149 41.9179 86.4606 46.0721 86.4606 51.8278C86.4606 57.5335 90.6648 61.7377 96.1703 61.7377C99.5237 61.7377 101.025 59.6857 101.025 59.6857V60.5365C101.025 60.9369 101.325 61.2372 101.726 61.2372H105.78V42.4184C105.78 42.4184 102.076 42.4184 101.726 42.4184C101.325 42.4184 101.025 42.7688 101.025 43.1191ZM101.025 55.1812C100.274 56.2823 98.7729 57.2332 96.9711 57.2332C93.7679 57.2332 91.3155 55.2312 91.3155 51.8278C91.3155 48.4244 93.7679 46.4224 96.9711 46.4224C98.7229 46.4224 100.324 47.4234 101.025 48.4745V55.1812ZM108.783 42.4184H113.588V61.2372H108.783V42.4184ZM180.555 41.9179C177.251 41.9179 175.7 43.9199 175.7 43.9199V33.3594H170.895V61.2372C170.895 61.2372 174.599 61.2372 174.949 61.2372C175.35 61.2372 175.65 60.8869 175.65 60.5365V59.6857C175.65 59.6857 177.201 61.7377 180.505 61.7377C185.96 61.7377 190.214 57.5335 190.214 51.8278C190.214 46.1221 185.96 41.9179 180.555 41.9179ZM179.754 57.1832C177.902 57.1832 176.451 56.2322 175.7 55.1311V48.4244C176.451 47.4234 178.052 46.3724 179.754 46.3724C182.957 46.3724 185.41 48.3744 185.41 51.7778C185.41 55.1812 182.957 57.1832 179.754 57.1832ZM168.393 50.0761V61.2873H163.588V50.6266C163.588 47.5235 162.587 46.2723 159.884 46.2723C158.433 46.2723 156.931 47.023 155.98 48.1241V61.2372H151.175V42.4184H154.979C155.38 42.4184 155.68 42.7688 155.68 43.1191V43.9199C157.081 42.4685 158.933 41.9179 160.785 41.9179C162.887 41.9179 164.639 42.5185 166.04 43.7197C167.742 45.1211 168.393 46.9229 168.393 50.0761ZM139.514 41.9179C136.21 41.9179 134.659 43.9199 134.659 43.9199V33.3594H129.854V61.2372C129.854 61.2372 133.558 61.2372 133.908 61.2372C134.308 61.2372 134.609 60.8869 134.609 60.5365V59.6857C134.609 59.6857 136.16 61.7377 139.464 61.7377C144.919 61.7377 149.173 57.5335 149.173 51.8278C149.223 46.1221 144.969 41.9179 139.514 41.9179ZM138.713 57.1832C136.861 57.1832 135.41 56.2322 134.659 55.1311V48.4244C135.41 47.4234 137.011 46.3724 138.713 46.3724C141.916 46.3724 144.369 48.3744 144.369 51.7778C144.369 55.1812 141.916 57.1832 138.713 57.1832ZM125.7 41.9179C127.151 41.9179 127.902 42.1682 127.902 42.1682V46.6226C127.902 46.6226 123.898 45.2713 121.396 48.1241V61.2873H116.591V42.4184C116.591 42.4184 120.294 42.4184 120.645 42.4184C121.045 42.4184 121.346 42.7688 121.346 43.1191V43.9199C122.246 42.8689 124.198 41.9179 125.7 41.9179ZM75.8 59.5355C75.5497 58.9349 75.2995 58.2843 75.0492 57.7337C74.6488 56.8328 74.2484 55.982 73.8981 55.1812L73.848 55.1311C70.3946 47.6236 66.6909 40.016 62.787 32.5085L62.6368 32.2082C62.2364 31.4575 61.836 30.6567 61.4356 29.8559C60.9351 28.955 60.4346 28.004 59.6338 27.1031C58.0322 25.1011 55.7299 24 53.2774 24C50.7749 24 48.5227 25.1011 46.871 27.003C46.1203 27.9039 45.5697 28.8549 45.0692 29.7558C44.6688 30.5566 44.2684 31.3574 43.868 32.1081L43.7179 32.4084C39.864 39.9159 36.1103 47.5235 32.6568 55.031L32.6068 55.1311C32.2564 55.9319 31.856 56.7828 31.4556 57.6837C31.2054 58.2342 30.9551 58.8348 30.7049 59.4855C30.0542 61.3373 29.854 63.0891 30.1043 64.8909C30.6548 68.6446 33.1573 71.7978 36.6108 73.1992C37.9121 73.7498 39.2634 74 40.6648 74C41.0652 74 41.5657 73.9499 41.9661 73.8999C43.6178 73.6997 45.3195 73.1492 46.9711 72.1982C49.0232 71.047 50.9751 69.3954 53.1773 66.993C55.3795 69.3954 57.3815 71.047 59.3836 72.1982C61.0352 73.1492 62.7369 73.6997 64.3886 73.8999C64.789 73.9499 65.2895 74 65.6899 74C67.0913 74 68.4927 73.7498 69.7439 73.1992C73.2474 71.7978 75.6999 68.5946 76.2504 64.8909C76.6508 63.1391 76.4506 61.3874 75.8 59.5355ZM53.2274 62.1381C50.5247 58.7347 48.7729 55.5315 48.1723 52.8288C47.9221 51.6777 47.872 50.6767 48.0222 49.7758C48.1223 48.975 48.4226 48.2743 48.823 47.6737C49.7739 46.3223 51.3755 45.4715 53.2274 45.4715C55.0792 45.4715 56.7309 46.2723 57.6318 47.6737C58.0322 48.2743 58.3325 48.975 58.4326 49.7758C58.5827 50.6767 58.5327 51.7277 58.2824 52.8288C57.6818 55.4815 55.9301 58.6847 53.2274 62.1381ZM73.1974 64.4905C72.847 67.0931 71.0953 69.3453 68.6428 70.3463C67.4416 70.8468 66.1403 70.997 64.839 70.8468C63.5878 70.6967 62.3365 70.2963 61.0352 69.5455C59.2334 68.5445 57.4316 66.993 55.3295 64.6907C58.6328 60.6366 60.6348 56.9329 61.3856 53.6296C61.7359 52.0781 61.786 50.6767 61.6358 49.3754C61.4356 48.1241 60.9852 46.973 60.2845 45.972C58.7329 43.7197 56.1303 42.4184 53.2274 42.4184C50.3245 42.4184 47.7219 43.7698 46.1703 45.972C45.4696 46.973 45.0192 48.1241 44.819 49.3754C44.6188 50.6767 44.6688 52.1281 45.0692 53.6296C45.82 56.9329 47.872 60.6867 51.1253 64.7407C49.0732 67.043 47.2214 68.5946 45.4196 69.5956C44.1183 70.3463 42.867 70.7467 41.6158 70.8969C40.2644 71.047 38.9631 70.8468 37.812 70.3964C35.3595 69.3954 33.6078 67.1431 33.2574 64.5405C33.1073 63.2893 33.2074 62.038 33.7079 60.6366C33.858 60.1361 34.1083 59.6356 34.3585 59.035C34.7089 58.2342 35.1093 57.3834 35.5097 56.5325L35.5597 56.4324C39.0132 48.975 42.7169 41.3674 46.5707 33.96L46.7209 33.6597C47.1213 32.9089 47.5217 32.1081 47.9221 31.3574C48.3225 30.5566 48.7729 29.8058 49.3235 29.1552C50.3745 27.954 51.7759 27.3033 53.3275 27.3033C54.879 27.3033 56.2804 27.954 57.3315 29.1552C57.882 29.8058 58.3325 30.5566 58.7329 31.3574C59.1333 32.1081 59.5337 32.9089 59.9341 33.6597L60.0843 33.96C63.8881 41.4174 67.5918 49.025 71.0452 56.4825V56.5325C71.4456 57.3333 71.796 58.2342 72.1964 59.035C72.4466 59.6356 72.6969 60.1361 72.847 60.6366C73.2474 61.9379 73.3976 63.1892 73.1974 64.4905Z" fill="#FF5A5F"/>
</svg>
