<svg width="220" height="97" viewBox="0 0 220 97" fill="none" xmlns="http://www.w3.org/2000/svg">
<rect width="220" height="97" fill="#F8F8F8"/>
<path d="M69.6755 43.3241V53.1267H72.1196C72.7433 53.1174 73.3589 52.9831 73.9299 52.7318C74.5008 52.4805 75.0155 52.1172 75.4436 51.6634C76.3223 50.7332 76.803 49.4967 76.7835 48.2173C76.8021 47.5818 76.695 46.9488 76.4683 46.3549C76.2415 45.7609 75.8997 45.2176 75.4623 44.7561C75.0325 44.3017 74.5141 43.9402 73.9392 43.6937C73.3644 43.4472 72.7451 43.321 72.1196 43.3228H69.6767L69.6755 43.3241ZM72.1196 40.2506C76.675 40.2506 80.1212 43.7802 80.1212 48.2173C80.1212 52.6543 76.675 56.2039 72.1196 56.2039H66.7291C66.6777 56.2033 66.627 56.1925 66.5797 56.1722C66.5325 56.1519 66.4897 56.1226 66.4538 56.0858C66.418 56.049 66.3897 56.0054 66.3706 55.9577C66.3516 55.91 66.3421 55.859 66.3427 55.8076V40.6631C66.3427 40.4437 66.516 40.2655 66.7291 40.2655L72.1196 40.2506V40.2506ZM91.8631 53.4682C93.9321 53.4744 95.8004 52.2019 96.5968 50.2438C96.9869 49.2872 97.0912 48.2379 96.897 47.2231C96.7027 46.2084 96.2183 45.2718 95.5025 44.5268C94.7992 43.7941 93.8901 43.2919 92.8954 43.0868C91.9007 42.8816 90.8671 42.983 89.9313 43.3777C88.0194 44.1853 86.7705 46.096 86.7668 48.2173C86.7668 51.1088 89.0451 53.4544 91.8644 53.4682H91.8631ZM91.8644 39.8891C96.6591 39.8891 100.325 43.6681 100.325 48.2173C100.325 52.7665 96.6591 56.5454 91.8631 56.5454C87.0684 56.5454 83.434 52.7852 83.434 48.2173C83.434 43.6494 87.0996 39.8891 91.8631 39.8891H91.8644ZM111.972 53.4682C114.792 53.4607 117.074 51.1125 117.072 48.221C117.068 45.327 114.781 42.9838 111.962 42.9826C109.14 42.9826 106.852 45.3245 106.848 48.2173C106.848 49.6107 107.388 50.9468 108.349 51.9314C108.819 52.4166 109.382 52.8026 110.004 53.0666C110.626 53.3306 111.295 53.4671 111.971 53.4682H111.972ZM111.971 39.8891C116.75 39.8891 120.416 43.6494 120.416 48.2173C120.416 52.7852 116.735 56.5454 111.971 56.5454C107.207 56.5454 103.51 52.7852 103.51 48.2173C103.51 43.6494 107.176 39.8891 111.971 39.8891ZM131.596 43.3241H128.15V47.543H131.596C131.868 47.5551 132.14 47.5112 132.395 47.4141C132.649 47.317 132.881 47.1687 133.076 46.9784C133.475 46.592 133.702 46.0561 133.707 45.4927C133.717 45.2069 133.669 44.922 133.566 44.6552C133.464 44.3883 133.308 44.145 133.109 43.9398C132.913 43.7378 132.678 43.579 132.417 43.4737C132.156 43.3683 131.877 43.3186 131.596 43.3278V43.3241ZM124.816 40.6631C124.816 40.4437 124.99 40.2655 125.203 40.2655H131.692C134.785 40.2655 137.024 42.59 137.024 45.5089C137.047 47.4832 135.969 49.2966 134.248 50.1803L137.24 55.6057C137.282 55.668 137.305 55.7406 137.308 55.8154C137.31 55.8902 137.292 55.9643 137.255 56.0294C137.219 56.0935 137.166 56.1459 137.101 56.1804C137.036 56.2149 136.962 56.2299 136.889 56.2238H134.263C134.19 56.2249 134.118 56.2053 134.056 56.1674C133.994 56.1294 133.944 56.0747 133.911 56.0095L131.027 50.6402H128.137V55.7951C128.138 55.8466 128.129 55.8978 128.11 55.9456C128.091 55.9935 128.062 56.0372 128.026 56.0741C127.991 56.111 127.948 56.1405 127.9 56.1609C127.853 56.1812 127.802 56.192 127.751 56.1927H125.221C125.169 56.192 125.118 56.1812 125.071 56.1609C125.024 56.1405 124.981 56.111 124.945 56.0741C124.909 56.0372 124.881 55.9935 124.862 55.9456C124.843 55.8978 124.833 55.8466 124.834 55.7951L124.817 40.6643L124.816 40.6631ZM145.713 43.3988V53.2027H148.156C148.78 53.1942 149.395 53.0608 149.966 52.8104C150.538 52.5599 151.053 52.1974 151.481 51.7444C152.36 50.8153 152.842 49.5797 152.824 48.3008C152.844 47.6645 152.737 47.0305 152.511 46.4355C152.285 45.8404 151.944 45.2959 151.506 44.8334C151.076 44.3783 150.556 44.0162 149.98 43.7697C149.404 43.5232 148.784 43.3974 148.157 43.4001L145.713 43.3988V43.3988ZM148.156 40.3216C152.711 40.3216 156.158 43.855 156.158 48.3008C156.158 52.7465 152.711 56.2799 148.156 56.2799H142.782C142.73 56.2793 142.679 56.2685 142.632 56.2481C142.585 56.2278 142.542 56.1983 142.506 56.1614C142.47 56.1244 142.442 56.0808 142.423 56.0329C142.404 55.985 142.395 55.9338 142.395 55.8823V40.7391C142.395 40.5185 142.569 40.3403 142.782 40.3403L148.157 40.3216H148.156ZM166.323 44.2202L164.432 49.4624H168.21L166.323 44.2202V44.2202ZM163.323 52.425L162.085 55.9147C162.06 55.9969 162.009 56.0684 161.939 56.118C161.869 56.1677 161.785 56.1926 161.699 56.1889H159.014C158.946 56.1953 158.877 56.1832 158.815 56.1538C158.753 56.1244 158.7 56.0789 158.662 56.0219C158.622 55.9643 158.599 55.8976 158.593 55.8282C158.587 55.7588 158.599 55.689 158.628 55.6256L164.428 40.4961C164.455 40.4163 164.508 40.3475 164.578 40.3003C164.647 40.253 164.731 40.2299 164.815 40.2344H167.819C167.903 40.2296 167.986 40.2526 168.056 40.2999C168.126 40.3472 168.179 40.4161 168.206 40.4961L174.007 55.6256C174.035 55.6891 174.047 55.7589 174.041 55.8283C174.035 55.8978 174.011 55.9645 173.972 56.0219C173.933 56.0786 173.88 56.1239 173.818 56.1531C173.756 56.1823 173.687 56.1942 173.619 56.1877H170.936C170.85 56.1914 170.765 56.1664 170.696 56.1168C170.626 56.0671 170.574 55.9956 170.549 55.9135L169.312 52.4237H163.323V52.425ZM177.119 44.5605C177.119 42.0553 179.23 39.8891 182.564 39.8891C184.36 39.849 186.098 40.5206 187.4 41.7574C187.44 41.7949 187.471 41.8401 187.493 41.8903C187.515 41.9404 187.526 41.9944 187.526 42.049C187.526 42.1036 187.515 42.1577 187.493 42.2078C187.471 42.258 187.44 42.3032 187.4 42.3407L185.913 43.855C185.878 43.8918 185.835 43.9211 185.788 43.941C185.741 43.961 185.69 43.9713 185.639 43.9713C185.588 43.9713 185.537 43.961 185.49 43.941C185.443 43.9211 185.4 43.8918 185.365 43.855C184.664 43.1986 183.745 42.8267 182.785 42.8118C181.451 42.8118 180.465 43.6057 180.465 44.5218C180.465 47.4832 188.346 45.7744 188.346 51.4727C188.342 54.3605 186.215 56.5454 182.453 56.5454C181.409 56.5561 180.373 56.3566 179.407 55.9588C178.441 55.561 177.565 54.9729 176.831 54.2297C176.791 54.1922 176.76 54.147 176.738 54.0968C176.716 54.0467 176.705 53.9926 176.705 53.938C176.705 53.8834 176.716 53.8294 176.738 53.7793C176.76 53.7291 176.791 53.6839 176.831 53.6464L178.269 52.1707C178.305 52.1321 178.348 52.1013 178.397 52.0803C178.445 52.0592 178.497 52.0484 178.55 52.0484C178.602 52.0484 178.654 52.0592 178.703 52.0803C178.751 52.1013 178.794 52.1321 178.83 52.1707C179.735 53.068 180.954 53.5776 182.229 53.5915C183.895 53.5915 184.993 52.6792 184.993 51.5363C184.993 48.5737 177.116 50.2837 177.116 44.5841L177.119 44.5605ZM202.637 40.6432V46.6306H195.966V40.6432C195.967 40.5918 195.957 40.5407 195.938 40.493C195.919 40.4453 195.891 40.4018 195.855 40.365C195.819 40.3282 195.776 40.2988 195.729 40.2785C195.682 40.2582 195.631 40.2475 195.58 40.2468H193.05C192.998 40.2475 192.948 40.2582 192.9 40.2785C192.853 40.2988 192.81 40.3282 192.774 40.365C192.739 40.4018 192.71 40.4453 192.691 40.493C192.672 40.5407 192.663 40.5918 192.663 40.6432V55.7702C192.663 55.9895 192.838 56.1678 193.05 56.1678H195.58C195.792 56.1678 195.966 55.9895 195.966 55.7702V49.688H202.632V55.7702C202.632 55.9895 202.806 56.1678 203.018 56.1678H205.548C205.761 56.1678 205.935 55.9895 205.935 55.7702V40.6432C205.935 40.5918 205.926 40.5407 205.907 40.493C205.888 40.4453 205.859 40.4018 205.823 40.365C205.788 40.3282 205.745 40.2988 205.698 40.2785C205.65 40.2582 205.6 40.2475 205.548 40.2468H203.018C202.915 40.2494 202.817 40.2925 202.746 40.3667C202.675 40.4409 202.635 40.5402 202.637 40.6432V40.6432ZM52.1405 42.2659C50.3857 39.0129 46.9519 36.9876 43.2179 37.0001H14.9655C14.7747 37.0008 14.5883 37.0577 14.4296 37.1637C14.271 37.2696 14.147 37.4199 14.0731 37.5958C14.0003 37.7706 13.9813 37.9631 14.0186 38.1488C14.0559 38.3344 14.1478 38.5047 14.2825 38.6378L20.437 44.7449C20.9804 45.2858 21.7207 45.5887 22.491 45.5887H42.4077C43.8273 45.5737 44.9877 46.698 45.0026 48.0976C45.0176 49.4973 43.8797 50.6439 42.4601 50.6576H28.729C28.538 50.6577 28.3514 50.714 28.1922 50.8195C28.0331 50.925 27.9085 51.075 27.8341 51.2509C27.7606 51.4259 27.7412 51.6188 27.7782 51.805C27.8153 51.9911 27.9073 52.1619 28.0422 52.2953L34.2005 58.4075C34.7473 58.9481 35.4855 59.2509 36.2545 59.25H42.4651C50.5452 59.25 56.6548 50.7249 52.1405 42.2622" fill="#FF3008"/>
</svg>
