<svg width="220" height="97" viewBox="0 0 220 97" fill="none" xmlns="http://www.w3.org/2000/svg">
<rect width="220" height="97" fill="#F8F8F8"/>
<path d="M89.7026 49.505L87.3028 49.2845C85.7294 49.1472 85.0957 48.5954 85.0957 47.6292C85.0957 46.4979 86.0607 45.7534 87.9365 45.7534C89.7026 45.7534 90.5857 46.5244 90.723 47.7665H96.3516C95.9925 44.0981 93.4 41.5043 88.1027 41.5043C82.585 41.5043 79.5491 44.3186 79.5491 48.0424C79.5491 51.5193 81.4526 53.4228 86.1715 53.8095L88.5449 54.0023C90.3917 54.1408 91.0543 54.7745 91.0543 55.878C91.0543 57.037 90.0893 57.8923 88.1027 57.8923C86.2535 57.8923 85.1511 57.0647 84.9584 55.6033H79.025C79.5491 59.6031 82.3634 62.2511 88.075 62.2511C93.6204 62.2511 96.6829 59.4103 96.6829 55.5744C96.6829 51.8506 94.6408 49.9471 89.7026 49.505V49.505ZM70.2799 41.5043C66.7488 41.5043 64.6513 43.3524 63.6586 47.1328H63.2996V41.8356H57.7265V61.921H63.6586V50.223C63.6586 47.5461 65.038 46.0847 67.521 46.0847C69.9763 46.0847 71.1906 47.6027 71.1906 50.1953V61.921H77.1216V49.1472C77.1216 44.2909 74.5832 41.5043 70.2787 41.5043H70.2799ZM51.9606 34C49.9463 34 48.4283 35.3252 48.4283 37.3383C48.4283 39.3526 49.9186 40.6767 51.9329 40.6767C53.9472 40.6767 55.4363 39.3514 55.4363 37.3383C55.4363 35.3517 53.9472 34 51.9606 34ZM54.9122 41.8356H48.9801V61.921H54.9122V41.8356ZM106.008 37.5865H102.228C102.117 40.8152 100.738 42.2211 97.6479 42.4693V46.5534H100.077V55.3817C100.077 59.8235 102.614 62.2511 107.663 62.2511C108.612 62.2511 109.558 62.1306 110.477 61.8933V57.1189C110.003 57.1975 109.524 57.2342 109.043 57.2285C106.918 57.2285 106.008 56.4286 106.008 54.1938V46.5534H111.223V41.8356H106.008V37.5865ZM200.088 46.5534V41.8356H194.874V37.5865H191.149C191.066 39.8213 190.404 41.1176 188.942 41.8356V55.3817C188.942 59.8235 191.48 62.2511 196.529 62.2511C197.478 62.2511 198.424 62.1306 199.343 61.8933V57.1189C198.869 57.1976 198.389 57.2343 197.908 57.2285C195.783 57.2285 194.874 56.4286 194.874 54.1938V46.5534H200.088ZM180.665 47.4364H180.306V41.8344H174.816V61.921H180.748V51.0506C180.748 48.0424 182.1 46.7738 185.19 46.7738C185.714 46.7738 186.294 46.8292 187.094 46.9666V41.7802C186.553 41.5905 185.983 41.4971 185.411 41.5043C183.009 41.5043 181.354 42.8837 180.665 47.4364V47.4364ZM142.785 57.1755C139.998 57.1755 137.984 55.3263 137.984 51.7398C137.984 48.54 139.859 46.5534 142.729 46.5534C145.184 46.5534 146.591 47.9328 147.006 50.1399H153.02C152.44 44.98 148.744 41.5043 142.812 41.5043C136.301 41.5043 132.025 45.9185 132.025 51.9614C132.025 58.2237 136.136 62.2511 142.729 62.2511C148.717 62.2511 152.607 58.914 153.159 53.5047H147.143C146.813 55.713 145.295 57.1755 142.785 57.1755V57.1755ZM121.514 41.5043C116.354 41.5043 113.237 44.0427 112.684 48.5942H118.368C118.561 47.022 119.583 46.1943 121.375 46.1943C123.196 46.1943 124.023 47.022 124.023 48.2087C124.023 49.2014 123.389 49.7266 121.762 50.029L119.057 50.5266C114.285 51.4085 112.464 53.3674 112.464 56.4852C112.464 60.044 114.974 62.28 118.451 62.28C121.292 62.28 123.141 60.9548 123.997 57.6442H124.354V61.921H129.956V48.8159C129.956 44.2632 127.224 41.5043 121.514 41.5043ZM120.851 58.2237C119.251 58.2237 118.34 57.3683 118.34 56.0985C118.34 55.0504 118.975 54.3336 120.547 53.9745L121.651 53.7264C122.603 53.5059 123.341 53.2119 124.024 52.6216V54.7468C124.024 57.202 122.727 58.2237 120.851 58.2237V58.2237ZM163.67 41.5043C158.51 41.5043 155.393 44.0427 154.842 48.5942H160.524C160.718 47.022 161.739 46.1943 163.531 46.1943C165.353 46.1943 166.181 47.022 166.181 48.2087C166.181 49.2014 165.546 49.7266 163.918 50.029L161.215 50.5266C156.441 51.4085 154.62 53.3674 154.62 56.4852C154.62 60.044 157.131 62.28 160.607 62.28C163.449 62.28 165.297 60.9548 166.153 57.6442H166.512V61.921H172.113V48.8159C172.113 44.2632 169.38 41.5043 163.67 41.5043V41.5043ZM163.007 58.2237C161.407 58.2237 160.497 57.3683 160.497 56.0985C160.497 55.0504 161.131 54.3336 162.704 53.9745L163.807 53.7264C164.759 53.5059 165.499 53.2119 166.181 52.6216V54.7468C166.181 57.202 164.884 58.2237 163.007 58.2237V58.2237Z" fill="#003D29"/>
<path d="M38.9987 38.8045C37.7795 38.8045 36.9097 39.3358 36.1074 40.4899L33.7943 43.8114V34.3301H28.2766V43.8114L25.9635 40.4899C25.1623 39.3358 24.2925 38.8045 23.0721 38.8045C21.2313 38.8045 20.006 40.1635 20 41.838C19.9952 43.2717 20.6711 44.2066 22.0963 45.1246L31.0354 50.8832L39.9746 45.1246C41.3998 44.2066 42.0756 43.2717 42.0708 41.838C42.066 40.1635 40.8396 38.8045 38.9987 38.8045V38.8045Z" fill="#0AAD0A"/>
<path d="M31.0368 52.2605C36.3497 52.2605 40.7049 56.2265 40.6928 61.9177H21.3809C21.37 56.2289 25.724 52.2605 31.0368 52.2605Z" fill="#FF7009"/>
</svg>
