<svg width="26" height="25" viewBox="0 0 26 25" fill="none" xmlns="http://www.w3.org/2000/svg">
<path d="M25.15 23.8754H25H22.7655H8.49831H8.49746H3.13552H1H0.85V23.7254V22.2678V22.1178H1H2.35404L4.05087 7.62649L4.05088 7.62643L4.19986 7.64388C4.24269 7.27693 4.55406 7 4.92283 7H8.49831C8.90049 7 9.22686 7.32623 9.22686 7.72876L25.15 23.8754ZM25.15 23.8754V23.7254V22.2678V22.1178H25H23.6441V11.7339C23.6441 11.3937 23.4473 11.0837 23.1396 10.9385L23.1395 10.9384C22.8326 10.7942 22.4676 10.8396 22.2052 11.0568L22.2051 11.0568L16.5308 15.76L25.15 23.8754ZM1 22.4178V22.2678H1.15H2.4875L1 22.4178ZM1 22.4178V23.5754V23.7254H1.15H3.13552H8.49746H8.49831H22.7655H24.85H25V23.5754V22.4178V22.2678H24.85H23.6441L1 22.4178ZM15.1068 11.029L9.37686 15.3025L16.359 11.7296C16.3573 11.4548 16.2018 11.2041 15.9559 11.0815C15.7101 10.9589 15.4163 10.985 15.1966 11.1492L15.1069 11.0289L15.1068 11.029ZM14.7629 13.4777L14.7849 17.6248L14.7849 17.6249C14.7869 17.964 14.9846 18.2723 15.2909 18.4161L15.2915 18.4164C15.5997 18.5592 15.9617 18.5135 16.2233 18.2973L16.2234 18.2972L21.8879 13.6027V22.1178H9.37729V17.4947L14.7629 13.4777ZM4.12302 22.1183L5.70475 8.60751H7.62063V17.038C7.62015 17.0426 7.61977 17.0483 7.61977 17.0547V22.1183H4.12302Z" fill="#5746EC" stroke="#5746EC" stroke-width="0.3"/>
<path d="M7.02217 4.94221L7.02203 4.94217C6.68663 4.82804 6.50634 4.46512 6.62156 4.13023L6.62163 4.13002C7.26025 2.28301 9.07592 1.83244 10.5577 2.1826L10.5578 2.18262C11.3771 2.3767 11.8903 2.43747 12.2837 2.30755C12.6653 2.18154 12.9663 1.86327 13.3202 1.19225L13.3203 1.1921C13.4856 0.879692 13.8743 0.760019 14.1872 0.92238C14.1872 0.922404 14.1872 0.922427 14.1873 0.922451L14.1182 1.05557C14.3596 1.1806 14.4533 1.47579 14.3274 1.71493L7.02217 4.94221ZM7.02217 4.94221C7.09147 4.96572 7.16144 4.9766 7.23022 4.9766C7.49655 4.9766 7.74676 4.811 7.83877 4.54546L7.8388 4.54536C8.03899 3.96625 8.42139 3.63944 8.86119 3.47849C9.30658 3.3155 9.81707 3.32112 10.2601 3.42538L7.02217 4.94221Z" fill="#5746EC" stroke="#5746EC" stroke-width="0.3"/>
</svg>
