<svg width="693" height="630" viewBox="0 0 693 630" fill="none" xmlns="http://www.w3.org/2000/svg">
<g opacity="0.6" filter="url(#filter0_d_2_105)">
<rect x="20" y="15" width="634" height="590" rx="15" fill="#5746EC"/>
</g>
<g opacity="0.6" filter="url(#filter1_d_2_105)">
<rect x="20" y="15" width="634" height="590" rx="15" fill="#5746EC"/>
</g>
<mask id="mask0_2_105" style="mask-type:alpha" maskUnits="userSpaceOnUse" x="20" y="15" width="634" height="590">
<rect opacity="0.6" x="20" y="15" width="634" height="590" rx="15" fill="#5746EC"/>
</mask>
<g mask="url(#mask0_2_105)">
<rect width="187.236" height="807.416" rx="15" transform="matrix(-0.716334 -0.697758 0.782357 -0.622831 -10.875 762.125)" fill="url(#paint0_linear_2_105)"/>
<rect width="184.876" height="817.216" rx="15" transform="matrix(0.641786 0.766884 -0.838844 0.544372 636.516 -134.701)" fill="url(#paint1_linear_2_105)"/>
</g>
<rect x="342.565" y="75" width="268.435" height="191.108" rx="10" fill="#E1DDFF"/>
<path d="M442.385 245.766C442.385 245.766 416.389 250.992 415.292 229.102C414.816 219.628 413.539 221.109 405.254 213.121C396.969 205.132 396.969 201.877 398.745 194.48C400.52 187.084 407.98 184.542 404.293 177.706C399.437 168.703 400.926 153.315 411.479 147.316C421.681 141.516 422.83 141.594 422.83 135.647C422.83 127.881 430.895 115.365 447.532 116.665C461.843 117.783 459.62 110.82 469.763 107.718C488.653 101.94 497.809 118.303 504.317 118.895C510.827 119.486 522.09 119.596 527.807 128.247C534.897 138.976 528.633 147.732 537.51 148.619C546.386 149.508 555.262 157.2 554.966 165.189C554.67 173.177 549.936 179.982 553.191 183.533C556.445 187.084 557.706 208.111 544.574 212.135C526.626 217.635 544.574 244.205 511.565 243.712C481.897 243.27 442.385 245.766 442.385 245.766" fill="#392139"/>
<path d="M549.142 266.204H400.334C400.334 266.204 401.83 247.638 410.814 244.048C412.672 243.304 415.762 241.854 419.496 240.024C420.012 239.769 420.544 239.51 421.083 239.241L421.094 239.235C422.047 238.764 423.033 238.271 424.045 237.762C431.283 234.133 439.795 229.715 446.423 226.244C447.197 225.839 447.943 225.448 448.658 225.074C453.912 222.312 457.523 220.392 457.523 220.392L458.659 220.646C469.24 223.017 480.219 222.929 490.756 220.392C490.756 220.392 494.501 222.321 499.936 225.09L500.142 225.196C503.424 226.87 507.305 228.84 511.343 230.872C522.197 236.337 534.173 242.251 538.664 244.048C547.648 247.638 549.142 266.204 549.142 266.204" fill="#346ABD"/>
<path d="M476.21 256.295C472.517 256.295 469.31 255.762 466.743 255.097C460.342 253.436 456.526 250.68 456.368 250.563C456.004 250.298 455.926 249.79 456.191 249.426C456.457 249.064 456.965 248.985 457.327 249.251C457.386 249.293 461.118 251.969 467.222 253.539C472.853 254.988 481.727 255.765 492.015 251.239C492.426 251.058 492.907 251.244 493.087 251.656C493.268 252.067 493.082 252.548 492.672 252.728C486.602 255.397 480.999 256.295 476.21 256.295" fill="#3151A7"/>
<path d="M499.935 225.088C498.18 232.719 492.519 246.974 474.738 246.974C455.803 246.974 450.206 231.769 448.657 225.072C453.911 222.31 457.522 220.391 457.522 220.391L458.659 220.644C469.239 223.015 480.218 222.928 490.755 220.391C490.755 220.391 494.5 222.319 499.935 225.088Z" fill="#F89C8F"/>
<path d="M430.249 266.204H400.334C400.334 266.204 401.83 247.638 410.814 244.048C412.672 243.304 415.762 241.854 419.496 240.024C420.012 239.769 420.544 239.51 421.083 239.241L421.094 239.235C422.047 238.764 423.033 238.271 424.045 237.762C426.281 244.003 429.99 255.811 430.249 266.204Z" fill="#F89C8F"/>
<path d="M519.227 266.204H549.141C549.141 266.204 547.646 247.638 538.662 244.048C536.803 243.304 533.713 241.854 529.98 240.024C529.463 239.769 528.931 239.51 528.392 239.241L528.381 239.235C527.428 238.764 526.442 238.271 525.431 237.762C523.195 244.003 519.487 255.811 519.227 266.204Z" fill="#F89C8F"/>
<path d="M491.515 224.18C491.515 224.18 488.596 233.354 475.186 233.354C459.546 233.354 455.864 225.015 455.864 225.015C457.223 221.411 458.156 218.076 458.785 215.095H458.79C459.95 209.633 460.112 205.342 460.041 202.711L487.52 201.622C487.775 203.948 488.187 206.688 488.653 209.444C489.896 216.762 491.515 224.18 491.515 224.18" fill="#F89C8F"/>
<path d="M488.654 209.444C484.398 212.405 475.091 216.813 458.791 215.095C459.951 209.633 460.113 205.342 460.043 202.711L487.521 201.622C487.776 203.948 488.188 206.688 488.654 209.444" fill="#392139"/>
<path d="M503.346 168.438C503.346 168.438 509.784 159.677 514.791 164.863C519.797 170.048 510.141 188.109 501.379 184.175L503.346 168.438" fill="#F89C8F"/>
<path d="M500.686 183.999C496.579 185.995 493.74 190.208 493.74 195.071C493.74 201.855 499.259 207.378 506.044 207.378C512.828 207.378 518.347 201.855 518.347 195.071C518.347 188.978 513.895 183.909 508.075 182.939C507.521 182.845 506.957 182.792 506.385 182.775C506.424 182.295 506.527 181.836 506.678 181.386C507.628 181.429 508.553 181.571 509.441 181.801C515.36 183.315 519.744 188.688 519.744 195.071C519.744 202.627 513.599 208.775 506.044 208.775C498.488 208.775 492.342 202.627 492.342 195.071C492.342 189.34 495.88 184.419 500.888 182.379L500.686 183.999Z" fill="#FEEFE7"/>
<path d="M505.936 178.795L505.874 178.79C505.631 178.757 505.461 178.532 505.495 178.289C506.391 171.84 511.36 168.002 511.571 167.841C511.767 167.693 512.045 167.731 512.194 167.927C512.342 168.122 512.304 168.401 512.109 168.549C512.06 168.586 507.221 172.336 506.375 178.411C506.344 178.634 506.154 178.795 505.936 178.795" fill="#F3617C"/>
<path d="M507.285 174.422L507.036 174.345C506.832 174.208 506.778 173.931 506.916 173.728C507.978 172.159 510.852 172.321 510.975 172.327C511.22 172.343 511.406 172.554 511.39 172.799C511.376 173.044 511.161 173.232 510.92 173.216C510.228 173.175 508.298 173.274 507.653 174.227C507.567 174.352 507.427 174.422 507.285 174.422" fill="#F3617C"/>
<path d="M447.512 168.438C447.512 168.438 441.075 159.677 436.068 164.863C431.061 170.048 440.717 188.109 449.479 184.175L447.512 168.438Z" fill="#F89C8F"/>
<path d="M449.256 182.379C454.264 184.419 457.801 189.34 457.801 195.071C457.801 202.627 451.656 208.775 444.1 208.775C436.543 208.775 430.399 202.627 430.399 195.071C430.399 188.688 434.783 183.315 440.702 181.801C441.591 181.571 442.515 181.429 443.465 181.386C443.617 181.836 443.72 182.295 443.759 182.775C443.188 182.792 442.622 182.845 442.068 182.939C436.248 183.909 431.797 188.978 431.797 195.071C431.797 201.855 437.315 207.378 444.1 207.378C450.885 207.378 456.405 201.855 456.405 195.071C456.405 190.208 453.565 185.995 449.458 183.999L449.256 182.379" fill="#FEEFE7"/>
<path d="M449.256 182.379C454.264 184.419 457.801 189.34 457.801 195.071C457.801 202.627 451.656 208.775 444.1 208.775C436.543 208.775 430.399 202.627 430.399 195.071C430.399 188.688 434.783 183.315 440.702 181.801C441.591 181.571 442.515 181.429 443.465 181.386C443.617 181.836 443.72 182.295 443.759 182.775C443.188 182.792 442.622 182.845 442.068 182.939C436.248 183.909 431.797 188.978 431.797 195.071C431.797 201.855 437.315 207.378 444.1 207.378C450.885 207.378 456.405 201.855 456.405 195.071C456.405 190.208 453.565 185.995 449.458 183.999L449.256 182.379" fill="#FEEFE7"/>
<path d="M444.924 178.795L444.986 178.79C445.228 178.757 445.399 178.532 445.364 178.289C444.468 171.84 439.5 168.002 439.288 167.841C439.092 167.693 438.814 167.731 438.666 167.927C438.517 168.122 438.555 168.401 438.75 168.549C438.799 168.586 443.64 172.336 444.484 178.411C444.515 178.634 444.706 178.795 444.924 178.795" fill="#F3617C"/>
<path d="M443.576 174.422L443.824 174.345C444.028 174.208 444.082 173.931 443.944 173.728C442.884 172.159 440.008 172.321 439.886 172.327C439.641 172.343 439.455 172.554 439.47 172.799C439.485 173.044 439.699 173.232 439.94 173.216C440.632 173.175 442.563 173.274 443.207 174.227C443.294 174.352 443.434 174.422 443.576 174.422" fill="#F3617C"/>
<path d="M506.609 169.865C506.145 187.696 496.463 211.836 475.184 211.334C456.354 210.893 447.003 193.025 444.726 176.724C444.537 175.35 444.394 173.984 444.302 172.642C442.488 146.364 452.939 132.914 475.381 132.18C476.641 132.137 477.941 132.137 479.279 132.176C480.436 132.21 486.054 133.132 487.128 133.484C502.644 138.57 507.095 151.111 506.609 169.865Z" fill="#F89C8F"/>
<path d="M456.093 184.277C451.411 184.277 447.615 182.61 447.615 180.553C447.615 178.498 451.411 176.831 456.093 176.831C460.776 176.831 464.571 178.498 464.571 180.553C464.571 182.61 460.776 184.277 456.093 184.277Z" fill="#F57F86"/>
<path d="M495.983 184.277C491.301 184.277 487.505 182.61 487.505 180.553C487.505 178.498 491.301 176.831 495.983 176.831C500.667 176.831 504.463 178.498 504.463 180.553C504.463 182.61 500.667 184.277 495.983 184.277Z" fill="#F57F86"/>
<path d="M462.969 148.237C457.452 148.656 459.111 155.046 453.679 158.17C447.718 161.601 448.454 163.654 449.898 168.461C452.043 175.603 444.992 177.301 444.992 177.301C444.902 177.115 444.813 176.922 444.726 176.726C444.537 175.351 444.394 173.985 444.301 172.643C442.488 146.365 450.885 131.052 475.381 132.181C478.419 143.687 470.348 147.677 462.969 148.237" fill="#392139"/>
<path d="M487.331 146.351C494.664 146.235 492.102 153.826 496.434 157.319C501.787 161.637 503.543 159.801 501.192 166.876C498.759 174.192 505.752 177.301 505.752 177.301C505.842 177.115 505.931 176.922 506.017 176.726C506.207 175.351 506.35 173.985 506.443 172.643C508.256 146.365 499.368 131.121 475.362 132.181C472.325 143.687 479.928 146.468 487.331 146.351" fill="#392139"/>
<path d="M468.073 157.33C465.195 157.396 458.922 158.164 456.099 163.39C456.099 163.39 462.582 160.309 468.008 160.639C469.045 160.702 469.883 159.805 469.749 158.776C469.641 157.936 468.919 157.31 468.073 157.33" fill="#392139"/>
<path d="M484.003 157.33C486.88 157.396 493.155 158.164 495.977 163.39C495.977 163.39 489.494 160.309 484.068 160.639C483.031 160.702 482.194 159.805 482.326 158.776C482.434 157.936 483.157 157.31 484.003 157.33" fill="#392139"/>
<path d="M476.884 187.247C475.875 187.247 474.77 186.982 473.553 186.455C473.22 186.31 473.022 185.963 473.07 185.603L474.772 172.54C474.828 172.094 475.234 171.781 475.682 171.838C476.129 171.895 476.442 172.304 476.385 172.749L474.764 185.19C476.45 185.811 477.751 185.758 478.826 185.034C479.198 184.783 479.704 184.881 479.955 185.253C480.206 185.626 480.108 186.132 479.735 186.383C478.881 186.959 477.936 187.247 476.884 187.247" fill="#F3617C"/>
<path d="M475.269 195.881C474.553 195.881 473.88 195.837 473.258 195.766C469.54 195.338 466.942 193.905 466.832 193.844C466.441 193.625 466.3 193.129 466.519 192.737C466.737 192.345 467.232 192.204 467.625 192.422C468.017 192.64 477.32 197.665 485.375 190.215C485.704 189.909 486.219 189.93 486.524 190.26C486.829 190.589 486.81 191.104 486.48 191.409C482.649 194.953 478.531 195.881 475.269 195.881Z" fill="#F3617C"/>
<path d="M476.688 200.654C474.795 200.654 473.279 200.192 473.172 200.159C472.743 200.025 472.505 199.569 472.639 199.14C472.772 198.711 473.228 198.473 473.656 198.606C473.702 198.619 477.425 199.742 480.047 198.259C480.437 198.037 480.933 198.175 481.154 198.567C481.375 198.957 481.238 199.454 480.847 199.675C479.514 200.429 478.01 200.654 476.688 200.654" fill="#F3617C"/>
<path d="M465.72 169.831C465.76 172.103 464.923 173.959 463.85 173.977C462.777 173.996 461.876 172.17 461.836 169.899C461.797 167.628 462.634 165.771 463.706 165.753C464.78 165.734 465.681 167.561 465.72 169.831Z" fill="#392139"/>
<path d="M486.019 169.831C485.979 172.103 486.817 173.959 487.888 173.977C488.962 173.996 489.863 172.17 489.904 169.899C489.943 167.628 489.104 165.771 488.033 165.753C486.96 165.734 486.059 167.561 486.019 169.831" fill="#392139"/>
<g filter="url(#filter2_d_2_105)">
<rect x="410.499" y="213.082" width="35.9018" height="35.9018" rx="17.9509" fill="#E84747"/>
</g>
<path d="M434.221 233.899C433.695 233.358 432.197 232.344 431.215 232.344C430.988 232.344 430.79 232.394 430.627 232.499C430.147 232.806 429.765 233.044 429.581 233.044C429.48 233.044 429.371 232.954 429.133 232.748L429.094 232.712C428.433 232.138 428.293 231.99 428.036 231.723L427.971 231.655C427.924 231.608 427.885 231.564 427.845 231.525C427.621 231.294 427.459 231.128 426.885 230.478L426.86 230.449C426.586 230.139 426.405 229.937 426.394 229.789C426.384 229.644 426.51 229.41 426.831 228.973C427.221 228.446 427.235 227.797 426.878 227.042C426.593 226.447 426.127 225.877 425.716 225.375L425.68 225.332C425.326 224.898 424.915 224.682 424.457 224.682C423.948 224.682 423.526 224.956 423.302 225.101C423.284 225.111 423.266 225.126 423.248 225.137C422.746 225.454 422.382 225.891 422.245 226.335C422.039 227.003 421.902 227.869 422.887 229.67C423.739 231.229 424.511 232.275 425.738 233.535C426.892 234.719 427.405 235.101 428.552 235.931C429.83 236.855 431.057 237.386 431.916 237.386C432.713 237.386 433.341 237.386 434.236 236.307C435.174 235.173 434.784 234.48 434.221 233.899Z" fill="white"/>
<g filter="url(#filter3_d_2_105)">
<rect x="364.104" y="213.083" width="35.9018" height="35.9018" rx="17.9509" fill="#7264EF"/>
</g>
<path d="M382.332 228.733C381.822 228.733 381.323 228.885 380.9 229.168C380.476 229.451 380.145 229.854 379.95 230.325C379.755 230.796 379.704 231.314 379.804 231.814C379.903 232.314 380.149 232.773 380.509 233.134C380.869 233.494 381.329 233.74 381.829 233.839C382.329 233.938 382.847 233.887 383.318 233.692C383.789 233.497 384.192 233.167 384.475 232.743C384.758 232.319 384.909 231.821 384.909 231.311C384.911 230.972 384.845 230.636 384.716 230.323C384.587 230.009 384.397 229.725 384.158 229.485C383.918 229.245 383.633 229.055 383.32 228.926C383.006 228.797 382.671 228.732 382.332 228.733Z" fill="#7264EF"/>
<path d="M382.331 223.578C380.802 223.578 379.307 224.032 378.035 224.881C376.764 225.731 375.773 226.939 375.187 228.352C374.602 229.765 374.449 231.319 374.747 232.819C375.046 234.319 375.782 235.697 376.864 236.779C377.945 237.86 379.323 238.597 380.823 238.895C382.323 239.193 383.878 239.04 385.291 238.455C386.704 237.87 387.911 236.879 388.761 235.607C389.611 234.335 390.064 232.84 390.064 231.311C390.062 229.261 389.247 227.295 387.797 225.845C386.347 224.396 384.382 223.58 382.331 223.578V223.578ZM382.331 233.888C381.822 233.888 381.323 233.737 380.899 233.454C380.476 233.171 380.145 232.768 379.95 232.297C379.755 231.826 379.704 231.308 379.803 230.808C379.903 230.308 380.148 229.849 380.509 229.488C380.869 229.128 381.329 228.882 381.829 228.783C382.329 228.683 382.847 228.734 383.318 228.929C383.789 229.125 384.191 229.455 384.475 229.879C384.758 230.303 384.909 230.801 384.909 231.311C384.909 231.994 384.637 232.65 384.154 233.133C383.671 233.617 383.015 233.888 382.331 233.888Z" fill="white"/>
<rect x="196.517" y="206.361" width="292.097" height="207.954" rx="10" fill="#E1DDFF"/>
<path d="M429.756 414.331H254.815C254.815 414.331 256.575 392.508 267.135 388.281C271.404 386.575 281.184 381.708 291.331 376.512C295.099 374.584 298.914 372.61 302.516 370.736C302.896 370.538 303.274 370.341 303.648 370.146C306.599 368.607 309.388 367.15 311.856 365.852C317.29 363 321.18 360.934 321.92 360.542L322.046 360.474L323.382 360.775C325.057 361.151 326.736 361.471 328.419 361.736C330.086 362.008 331.757 362.225 333.43 362.387C342.664 363.296 352.008 362.661 361.074 360.484L361.118 360.474C361.118 360.474 365.228 362.591 371.264 365.666C373.774 366.949 376.619 368.399 379.641 369.929C380.024 370.121 380.406 370.315 380.793 370.509C382.272 371.255 383.785 372.02 385.319 372.791C386.951 373.614 388.607 374.449 390.263 375.275C401.541 380.92 412.835 386.438 417.439 388.281C427.996 392.508 429.756 414.331 429.756 414.331" fill="#EF2F4B"/>
<path d="M380.791 370.51C380.192 372.259 379.503 374.05 378.71 375.834C375.576 382.881 371.466 388.503 366.491 392.541C360.256 397.601 352.657 400.169 343.899 400.169C325.606 400.169 314.315 389.449 308.065 380.46C305.727 377.1 303.904 373.721 302.514 370.737C302.894 370.539 303.273 370.342 303.646 370.147C305.013 373.093 306.818 376.437 309.132 379.765C317.971 392.458 329.671 398.893 343.899 398.893C359.272 398.893 370.591 390.959 377.544 375.318C378.347 373.51 379.042 371.7 379.64 369.93C380.022 370.122 380.405 370.316 380.791 370.51" fill="#BC2739"/>
<path d="M371.264 365.667C369.062 375.148 360.717 389.57 342.285 389.57C322.052 389.57 314.45 373.198 311.856 365.853C317.29 363.001 321.18 360.935 321.92 360.542L322.046 360.475L323.382 360.776C325.057 361.152 326.736 361.472 328.419 361.737C330.085 362.009 331.757 362.226 333.43 362.387C342.664 363.297 352.008 362.662 361.074 360.485L361.118 360.475C361.118 360.475 365.228 362.592 371.264 365.667" fill="#FEEFE7"/>
<path d="M362.006 364.93C362.006 364.93 358.575 375.715 342.811 375.715C324.424 375.715 320.095 365.911 320.095 365.911C321.692 361.676 322.79 357.754 323.532 354.249H323.535C324.899 347.828 325.089 342.784 325.007 339.69L357.312 338.411C357.61 341.146 358.096 344.366 358.644 347.607C360.105 356.211 362.006 364.93 362.006 364.93" fill="#F89C8F"/>
<path d="M358.644 347.607C353.64 351.088 342.698 356.268 323.535 354.249C324.899 347.827 325.089 342.783 325.008 339.69L357.312 338.411C357.61 341.146 358.096 344.366 358.644 347.607Z" fill="#392139"/>
<path d="M312.675 297.563C312.675 297.563 302.679 283.956 294.902 292.008C287.126 300.062 302.121 328.111 315.73 322.001L312.675 297.563Z" fill="#F89C8F"/>
<path d="M307.909 313.644C307.57 313.644 307.274 313.392 307.225 313.048C305.911 303.593 298.397 297.79 298.32 297.732C298.017 297.502 297.957 297.069 298.189 296.764C298.418 296.461 298.852 296.402 299.155 296.633C299.483 296.881 307.201 302.844 308.594 312.858C308.646 313.235 308.383 313.585 308.004 313.637L307.909 313.644" fill="#F3617C"/>
<path d="M305.813 306.853C305.592 306.853 305.374 306.746 305.241 306.549C304.238 305.064 301.236 304.914 300.168 304.98C299.785 305.007 299.46 304.715 299.436 304.334C299.412 303.952 299.702 303.625 300.082 303.602C300.272 303.589 304.738 303.34 306.384 305.775C306.598 306.091 306.516 306.52 306.2 306.733C306.082 306.814 305.947 306.853 305.813 306.853" fill="#F3617C"/>
<path d="M373.58 297.563C373.58 297.563 383.578 283.956 391.353 292.008C399.13 300.062 384.134 328.111 370.525 322.001L373.58 297.563Z" fill="#F89C8F"/>
<path d="M378.348 313.644L378.252 313.637C377.874 313.585 377.611 313.235 377.663 312.857C379.054 302.844 386.772 296.881 387.1 296.633C387.404 296.402 387.837 296.461 388.067 296.764C388.297 297.069 388.24 297.502 387.935 297.732C387.86 297.79 380.342 303.614 379.031 313.048C378.983 313.392 378.685 313.644 378.348 313.644" fill="#F3617C"/>
<path d="M380.441 306.853C380.308 306.853 380.173 306.814 380.056 306.733C379.739 306.52 379.657 306.091 379.871 305.775C381.517 303.34 385.984 303.59 386.172 303.602C386.554 303.625 386.842 303.952 386.819 304.332C386.796 304.714 386.463 305.006 386.088 304.98C385.014 304.915 382.014 305.071 381.015 306.549C380.881 306.746 380.663 306.853 380.441 306.853Z" fill="#F3617C"/>
<path d="M349.512 255.365C321.02 255.351 303.324 270.116 306.505 304.008C308.404 324.236 318.809 349.263 342.811 349.829C367.824 350.417 377.862 323.18 381.435 302.515C384.703 283.602 375.084 262.638 356.845 256.658C355.581 256.245 351.113 255.366 349.512 255.365" fill="#F89C8F"/>
<path d="M306.174 297.823C306.174 297.823 302.86 265.697 302.762 258.575C302.526 241.263 319.995 231.55 345.634 231.605C366.311 231.649 368.858 240.704 370.525 248.032C370.525 248.032 385.812 248.423 388.142 259.083C390.475 269.741 380.772 301.929 380.772 301.929C380.772 301.929 377.519 294.52 375.188 283.86C372.856 273.202 369.822 266.678 363.161 266.544C356.499 266.411 348.171 266.743 339.177 272.073C330.183 277.403 321.191 278.069 314.861 273.406C314.861 273.406 313.17 289.495 306.174 297.823" fill="#392139"/>
<path d="M321.018 315.605C315.513 315.605 311.051 313.645 311.051 311.228C311.051 308.81 315.513 306.852 321.018 306.852C326.523 306.852 330.986 308.81 330.986 311.228C330.986 313.645 326.523 315.605 321.018 315.605Z" fill="#F57F86"/>
<path d="M367.914 315.605C362.41 315.605 357.947 313.645 357.947 311.228C357.947 308.81 362.41 306.852 367.914 306.852C373.42 306.852 377.883 308.81 377.883 311.228C377.883 313.645 373.42 315.605 367.914 315.605Z" fill="#F57F86"/>
<path d="M381.628 297.823C381.628 297.823 381.411 313.463 376.753 333.138C369.281 364.675 343.652 360.473 343.652 360.473C343.652 360.473 318.52 364.675 311.048 333.138C306.391 313.463 306.174 297.823 306.174 297.823L310.267 290.986C310.267 290.986 313.136 318.158 323.535 322.864C323.535 322.864 328.157 315.834 343.652 322.405C359.144 315.834 364.266 322.864 364.266 322.864C374.666 318.158 377.537 290.986 377.537 290.986L381.628 297.823" fill="#392139"/>
<path d="M344.806 319.733C343.616 319.733 342.313 319.421 340.878 318.799C340.477 318.625 340.237 318.204 340.293 317.768L342.293 302.409C342.364 301.87 342.861 301.49 343.399 301.559C343.937 301.63 344.319 302.125 344.249 302.663L342.346 317.265C344.308 317.984 345.822 317.921 347.073 317.078C347.524 316.773 348.136 316.893 348.441 317.344C348.746 317.796 348.626 318.408 348.174 318.713C347.166 319.393 346.049 319.733 344.806 319.733" fill="#F3617C"/>
<path d="M342.978 331.664C337.333 331.664 333.048 329.332 332.976 329.291C332.501 329.026 332.33 328.425 332.596 327.949C332.861 327.474 333.462 327.305 333.938 327.571C334.414 327.835 345.325 333.714 354.77 324.977C355.168 324.607 355.791 324.632 356.161 325.032C356.531 325.431 356.506 326.055 356.106 326.424C351.727 330.477 347.007 331.664 342.978 331.664" fill="#693A68"/>
<path d="M344.578 337.299C342.348 337.299 340.561 336.755 340.437 336.716C339.916 336.554 339.628 336.002 339.79 335.482C339.951 334.963 340.503 334.674 341.022 334.834C341.065 334.848 345.437 336.168 348.512 334.428C348.985 334.162 349.586 334.328 349.854 334.801C350.122 335.276 349.955 335.877 349.482 336.145C347.91 337.033 346.135 337.299 344.578 337.299" fill="#693A68"/>
<path d="M323.767 293.507C325.889 292.366 328.986 290.959 331.998 290.518C333.617 290.282 334.634 288.655 334.082 287.116L333.97 286.805C333.572 285.692 332.467 284.995 331.292 285.119C328.605 285.404 323.843 286.346 320.736 289.442C320.064 290.113 319.829 291.109 320.115 292.015C320.597 293.546 322.353 294.266 323.767 293.507Z" fill="#392139"/>
<path d="M364.554 293.507C362.432 292.366 359.336 290.959 356.322 290.518C354.705 290.282 353.687 288.655 354.239 287.116L354.349 286.805C354.748 285.692 355.852 284.995 357.028 285.119C359.715 285.404 364.478 286.346 367.584 289.442C368.258 290.113 368.491 291.109 368.207 292.015C367.723 293.546 365.969 294.266 364.554 293.507" fill="#392139"/>
<path d="M331.684 301.037C331.729 303.707 330.745 305.89 329.484 305.911C328.223 305.933 327.163 303.786 327.117 301.117C327.07 298.446 328.055 296.264 329.316 296.241C330.577 296.221 331.636 298.367 331.684 301.037Z" fill="#392139"/>
<path d="M355.547 301.037C355.5 303.707 356.484 305.89 357.745 305.911C359.006 305.933 360.066 303.786 360.113 301.117C360.159 298.446 359.175 296.264 357.913 296.241C356.652 296.221 355.593 298.367 355.547 301.037Z" fill="#392139"/>
<g filter="url(#filter4_d_2_105)">
<rect x="270.444" y="356.618" width="39.0664" height="39.0664" rx="19.5332" fill="#E84747"/>
</g>
<path d="M296.257 379.269C295.684 378.68 294.055 377.576 292.987 377.576C292.739 377.576 292.523 377.631 292.347 377.745C291.824 378.079 291.408 378.338 291.208 378.338C291.098 378.338 290.98 378.24 290.721 378.016L290.678 377.977C289.959 377.353 289.806 377.192 289.527 376.901L289.457 376.826C289.405 376.775 289.362 376.728 289.319 376.685C289.076 376.434 288.899 376.253 288.275 375.546L288.247 375.515C287.949 375.177 287.752 374.957 287.741 374.796C287.729 374.639 287.866 374.384 288.216 373.908C288.64 373.335 288.655 372.628 288.267 371.807C287.957 371.159 287.45 370.539 287.002 369.993L286.963 369.946C286.578 369.475 286.131 369.239 285.632 369.239C285.078 369.239 284.619 369.538 284.375 369.695C284.356 369.706 284.336 369.722 284.317 369.734C283.771 370.08 283.374 370.555 283.225 371.038C283.001 371.764 282.852 372.707 283.924 374.666C284.851 376.363 285.691 377.502 287.026 378.872C288.282 380.16 288.84 380.577 290.089 381.48C291.479 382.485 292.814 383.063 293.748 383.063C294.616 383.063 295.299 383.063 296.273 381.888C297.294 380.655 296.87 379.901 296.257 379.269Z" fill="white"/>
<g filter="url(#filter5_d_2_105)">
<rect x="219.958" y="356.618" width="39.0664" height="39.0664" rx="19.5332" fill="#7264EF"/>
</g>
<path d="M239.791 373.647C239.236 373.647 238.694 373.811 238.232 374.119C237.771 374.427 237.412 374.866 237.199 375.378C236.987 375.891 236.932 376.454 237.04 376.999C237.148 377.543 237.415 378.042 237.807 378.435C238.2 378.827 238.699 379.094 239.244 379.202C239.788 379.31 240.352 379.255 240.864 379.043C241.377 378.83 241.815 378.471 242.123 378.01C242.431 377.548 242.596 377.006 242.596 376.451C242.597 376.083 242.526 375.717 242.385 375.376C242.245 375.035 242.038 374.725 241.778 374.464C241.517 374.204 241.207 373.997 240.866 373.857C240.525 373.716 240.16 373.645 239.791 373.647Z" fill="#7264EF"/>
<path d="M239.791 368.037C238.127 368.037 236.5 368.531 235.116 369.455C233.732 370.38 232.654 371.694 232.017 373.231C231.38 374.769 231.214 376.461 231.538 378.093C231.863 379.725 232.664 381.225 233.841 382.401C235.018 383.578 236.517 384.379 238.149 384.704C239.782 385.029 241.473 384.862 243.011 384.225C244.548 383.588 245.863 382.51 246.787 381.126C247.712 379.742 248.205 378.116 248.205 376.451C248.203 374.221 247.315 372.082 245.738 370.504C244.161 368.927 242.022 368.04 239.791 368.037V368.037ZM239.791 379.256C239.236 379.256 238.694 379.092 238.233 378.784C237.771 378.475 237.412 378.037 237.2 377.525C236.987 377.012 236.932 376.448 237.04 375.904C237.148 375.36 237.415 374.86 237.808 374.468C238.2 374.076 238.7 373.809 239.244 373.701C239.788 373.592 240.352 373.648 240.864 373.86C241.377 374.072 241.815 374.432 242.123 374.893C242.431 375.354 242.596 375.897 242.596 376.451C242.596 377.195 242.3 377.909 241.774 378.435C241.248 378.961 240.535 379.256 239.791 379.256Z" fill="white"/>
<rect x="62.8983" y="350.57" width="295.545" height="210.409" rx="10" fill="#E1DDFF"/>
<path d="M295.918 561H124.926C124.926 561 125.071 559.199 125.53 556.539C125.761 555.211 126.069 553.667 126.477 552.025C127.068 549.656 127.867 547.082 128.94 544.672C129.534 543.334 130.212 542.043 130.989 540.86C132.559 538.463 134.521 536.519 136.967 535.54C139.103 534.686 142.654 533.019 146.943 530.916C147.537 530.624 148.148 530.325 148.768 530.017L148.78 530.011C149.959 529.426 151.179 528.815 152.435 528.186C153.87 527.467 155.347 526.719 156.847 525.958C163.985 522.333 171.656 518.345 177.885 515.083C178.867 514.569 179.812 514.071 180.714 513.596H180.717C181.311 513.284 181.883 512.983 182.438 512.693L182.444 512.691C187.38 510.09 190.639 508.359 190.639 508.359L191.946 508.652C204.103 511.374 216.719 511.274 228.827 508.359C228.827 508.359 232.198 510.096 237.308 512.703C238.043 513.079 238.814 513.471 239.614 513.879C239.954 514.052 240.298 514.225 240.647 514.402L240.651 514.406C244.189 516.209 248.26 518.274 252.483 520.399C256.223 522.285 260.08 524.215 263.786 526.049C265.353 526.826 266.89 527.583 268.384 528.312C275.133 531.619 280.92 534.355 283.877 535.54C286.305 536.513 288.257 538.436 289.823 540.808C290.613 542.006 291.308 543.32 291.911 544.686C292.986 547.102 293.783 549.681 294.373 552.054C294.775 553.663 295.078 555.178 295.304 556.488C295.77 559.176 295.918 561 295.918 561" fill="#392139"/>
<path d="M186.033 515.743C186.033 517.45 184.649 518.834 182.941 518.834C181.233 518.834 179.849 517.45 179.849 515.743C179.849 514.908 180.18 514.15 180.715 513.594H180.719C181.313 513.283 181.884 512.981 182.44 512.692L182.446 512.69C182.607 512.663 182.774 512.651 182.941 512.651C184.649 512.651 186.033 514.034 186.033 515.743" fill="#693A68"/>
<path d="M199.762 515.743C199.762 517.45 198.378 518.834 196.671 518.834C194.963 518.834 193.579 517.45 193.579 515.743C193.579 514.036 194.963 512.652 196.671 512.652C198.378 512.652 199.762 514.036 199.762 515.743Z" fill="#693A68"/>
<path d="M213.492 515.743C213.492 517.45 212.108 518.834 210.4 518.834C208.693 518.834 207.309 517.45 207.309 515.743C207.309 514.036 208.693 512.652 210.4 512.652C212.108 512.652 213.492 514.036 213.492 515.743Z" fill="#693A68"/>
<path d="M227.221 515.743C227.221 517.45 225.837 518.834 224.13 518.834C222.422 518.834 221.038 517.45 221.038 515.743C221.038 514.036 222.422 512.652 224.13 512.652C225.837 512.652 227.221 514.036 227.221 515.743Z" fill="#693A68"/>
<path d="M240.954 515.743C240.954 517.45 239.571 518.834 237.862 518.834C236.153 518.834 234.77 517.45 234.77 515.743C234.77 514.224 235.864 512.959 237.31 512.702C238.045 513.077 238.815 513.47 239.615 513.877C239.956 514.051 240.3 514.224 240.649 514.401L240.652 514.405C240.846 514.808 240.954 515.264 240.954 515.743" fill="#693A68"/>
<path d="M158.57 528.729C158.57 530.437 157.183 531.82 155.478 531.82C153.77 531.82 152.386 530.437 152.386 528.729C152.386 528.543 152.402 528.362 152.434 528.185C153.87 527.466 155.347 526.718 156.846 525.957C157.867 526.465 158.57 527.515 158.57 528.729" fill="#693A68"/>
<path d="M172.301 528.73C172.301 530.437 170.916 531.82 169.209 531.82C167.502 531.82 166.118 530.437 166.118 528.73C166.118 527.022 167.502 525.638 169.209 525.638C170.916 525.638 172.301 527.022 172.301 528.73Z" fill="#693A68"/>
<path d="M186.032 528.73C186.032 530.437 184.648 531.82 182.94 531.82C181.234 531.82 179.849 530.437 179.849 528.73C179.849 527.022 181.234 525.638 182.94 525.638C184.648 525.638 186.032 527.022 186.032 528.73Z" fill="#693A68"/>
<path d="M199.762 528.73C199.762 530.437 198.378 531.82 196.671 531.82C194.963 531.82 193.579 530.437 193.579 528.73C193.579 527.022 194.963 525.638 196.671 525.638C198.378 525.638 199.762 527.022 199.762 528.73Z" fill="#693A68"/>
<path d="M213.492 528.73C213.492 530.437 212.108 531.82 210.4 531.82C208.693 531.82 207.309 530.437 207.309 528.73C207.309 527.022 208.693 525.638 210.4 525.638C212.108 525.638 213.492 527.022 213.492 528.73Z" fill="#693A68"/>
<path d="M227.221 528.73C227.221 530.437 225.837 531.82 224.13 531.82C222.422 531.82 221.038 530.437 221.038 528.73C221.038 527.022 222.422 525.638 224.13 525.638C225.837 525.638 227.221 527.022 227.221 528.73Z" fill="#693A68"/>
<path d="M240.953 528.73C240.953 530.437 239.569 531.82 237.862 531.82C236.155 531.82 234.77 530.437 234.77 528.73C234.77 527.022 236.155 525.638 237.862 525.638C239.569 525.638 240.953 527.022 240.953 528.73Z" fill="#693A68"/>
<path d="M254.684 528.73C254.684 530.437 253.299 531.82 251.592 531.82C249.884 531.82 248.501 530.437 248.501 528.73C248.501 527.022 249.884 525.638 251.592 525.638C253.299 525.638 254.684 527.022 254.684 528.73Z" fill="#693A68"/>
<path d="M268.414 528.729C268.414 530.437 267.029 531.82 265.322 531.82C263.613 531.82 262.23 530.437 262.23 528.729C262.23 527.582 262.855 526.58 263.786 526.048C265.354 526.825 266.891 527.582 268.385 528.311C268.404 528.448 268.414 528.587 268.414 528.729" fill="#693A68"/>
<path d="M131.107 541.715C131.107 543.102 130.195 544.274 128.94 544.669C129.534 543.331 130.211 542.04 130.988 540.857C131.065 541.131 131.107 541.417 131.107 541.715" fill="#693A68"/>
<path d="M144.84 541.718C144.84 543.424 143.456 544.809 141.748 544.809C140.041 544.809 138.657 543.424 138.657 541.718C138.657 540.011 140.041 538.626 141.748 538.626C143.456 538.626 144.84 540.011 144.84 541.718Z" fill="#693A68"/>
<path d="M158.569 541.718C158.569 543.424 157.185 544.809 155.478 544.809C153.77 544.809 152.386 543.424 152.386 541.718C152.386 540.011 153.77 538.626 155.478 538.626C157.185 538.626 158.569 540.011 158.569 541.718Z" fill="#693A68"/>
<path d="M172.301 541.718C172.301 543.424 170.916 544.809 169.209 544.809C167.502 544.809 166.118 543.424 166.118 541.718C166.118 540.011 167.502 538.626 169.209 538.626C170.916 538.626 172.301 540.011 172.301 541.718Z" fill="#693A68"/>
<path d="M186.032 541.718C186.032 543.424 184.648 544.809 182.94 544.809C181.234 544.809 179.849 543.424 179.849 541.718C179.849 540.011 181.234 538.626 182.94 538.626C184.648 538.626 186.032 540.011 186.032 541.718Z" fill="#693A68"/>
<path d="M199.762 541.718C199.762 543.424 198.378 544.809 196.671 544.809C194.963 544.809 193.579 543.424 193.579 541.718C193.579 540.011 194.963 538.626 196.671 538.626C198.378 538.626 199.762 540.011 199.762 541.718Z" fill="#693A68"/>
<path d="M213.492 541.718C213.492 543.424 212.108 544.809 210.4 544.809C208.693 544.809 207.309 543.424 207.309 541.718C207.309 540.011 208.693 538.626 210.4 538.626C212.108 538.626 213.492 540.011 213.492 541.718Z" fill="#693A68"/>
<path d="M227.221 541.718C227.221 543.424 225.837 544.809 224.13 544.809C222.422 544.809 221.038 543.424 221.038 541.718C221.038 540.011 222.422 538.626 224.13 538.626C225.837 538.626 227.221 540.011 227.221 541.718Z" fill="#693A68"/>
<path d="M240.953 541.718C240.953 543.424 239.569 544.809 237.862 544.809C236.155 544.809 234.77 543.424 234.77 541.718C234.77 540.011 236.155 538.626 237.862 538.626C239.569 538.626 240.953 540.011 240.953 541.718Z" fill="#693A68"/>
<path d="M254.684 541.718C254.684 543.424 253.299 544.809 251.592 544.809C249.884 544.809 248.501 543.424 248.501 541.718C248.501 540.011 249.884 538.626 251.592 538.626C253.299 538.626 254.684 540.011 254.684 541.718Z" fill="#693A68"/>
<path d="M268.413 541.718C268.413 543.424 267.029 544.809 265.322 544.809C263.614 544.809 262.23 543.424 262.23 541.718C262.23 540.011 263.614 538.626 265.322 538.626C267.029 538.626 268.413 540.011 268.413 541.718Z" fill="#693A68"/>
<path d="M282.143 541.718C282.143 543.424 280.759 544.809 279.052 544.809C277.344 544.809 275.96 543.424 275.96 541.718C275.96 540.011 277.344 538.626 279.052 538.626C280.759 538.626 282.143 540.011 282.143 541.718Z" fill="#693A68"/>
<path d="M291.91 544.687C290.625 544.31 289.688 543.125 289.688 541.72C289.688 541.402 289.736 541.096 289.822 540.81C290.613 542.007 291.307 543.321 291.91 544.687Z" fill="#693A68"/>
<path d="M131.106 554.704C131.106 556.412 129.723 557.796 128.018 557.796C126.997 557.796 126.094 557.301 125.529 556.539C125.761 555.211 126.069 553.667 126.476 552.025C126.929 551.765 127.456 551.614 128.018 551.614C129.723 551.614 131.106 552.999 131.106 554.704" fill="#693A68"/>
<path d="M144.84 554.705C144.84 556.412 143.456 557.796 141.748 557.796C140.041 557.796 138.657 556.412 138.657 554.705C138.657 552.997 140.041 551.613 141.748 551.613C143.456 551.613 144.84 552.997 144.84 554.705Z" fill="#693A68"/>
<path d="M158.569 554.705C158.569 556.412 157.185 557.796 155.478 557.796C153.77 557.796 152.386 556.412 152.386 554.705C152.386 552.997 153.77 551.613 155.478 551.613C157.185 551.613 158.569 552.997 158.569 554.705Z" fill="#693A68"/>
<path d="M172.301 554.705C172.301 556.412 170.916 557.796 169.209 557.796C167.502 557.796 166.118 556.412 166.118 554.705C166.118 552.997 167.502 551.613 169.209 551.613C170.916 551.613 172.301 552.997 172.301 554.705Z" fill="#693A68"/>
<path d="M186.032 554.705C186.032 556.412 184.648 557.796 182.94 557.796C181.234 557.796 179.849 556.412 179.849 554.705C179.849 552.997 181.234 551.613 182.94 551.613C184.648 551.613 186.032 552.997 186.032 554.705Z" fill="#693A68"/>
<path d="M199.762 554.705C199.762 556.412 198.378 557.796 196.671 557.796C194.963 557.796 193.579 556.412 193.579 554.705C193.579 552.997 194.963 551.613 196.671 551.613C198.378 551.613 199.762 552.997 199.762 554.705Z" fill="#693A68"/>
<path d="M213.492 554.705C213.492 556.412 212.108 557.796 210.4 557.796C208.693 557.796 207.309 556.412 207.309 554.705C207.309 552.997 208.693 551.613 210.4 551.613C212.108 551.613 213.492 552.997 213.492 554.705Z" fill="#693A68"/>
<path d="M227.221 554.705C227.221 556.412 225.837 557.796 224.13 557.796C222.422 557.796 221.038 556.412 221.038 554.705C221.038 552.997 222.422 551.613 224.13 551.613C225.837 551.613 227.221 552.997 227.221 554.705Z" fill="#693A68"/>
<path d="M240.953 554.705C240.953 556.412 239.569 557.796 237.862 557.796C236.155 557.796 234.77 556.412 234.77 554.705C234.77 552.997 236.155 551.613 237.862 551.613C239.569 551.613 240.953 552.997 240.953 554.705Z" fill="#693A68"/>
<path d="M254.684 554.705C254.684 556.412 253.299 557.796 251.592 557.796C249.884 557.796 248.501 556.412 248.501 554.705C248.501 552.997 249.884 551.613 251.592 551.613C253.299 551.613 254.684 552.997 254.684 554.705Z" fill="#693A68"/>
<path d="M268.413 554.705C268.413 556.412 267.029 557.796 265.322 557.796C263.614 557.796 262.23 556.412 262.23 554.705C262.23 552.997 263.614 551.613 265.322 551.613C267.029 551.613 268.413 552.997 268.413 554.705Z" fill="#693A68"/>
<path d="M282.143 554.705C282.143 556.412 280.759 557.796 279.052 557.796C277.344 557.796 275.96 556.412 275.96 554.705C275.96 552.997 277.344 551.613 279.052 551.613C280.759 551.613 282.143 552.997 282.143 554.705Z" fill="#693A68"/>
<path d="M295.304 556.488C294.745 557.279 293.824 557.796 292.78 557.796C291.073 557.796 289.688 556.412 289.688 554.704C289.688 552.999 291.073 551.614 292.78 551.614C293.362 551.614 293.908 551.775 294.373 552.054C294.774 553.663 295.077 555.178 295.304 556.488Z" fill="#693A68"/>
<path d="M236.898 512.492C233.815 519.559 230.727 526.626 227.631 533.689C223.643 542.8 219.64 551.907 215.613 561H208.706C203.439 551.928 198.048 542.931 192.738 533.887C190.589 530.229 188.454 526.562 186.348 522.883C184.553 519.745 182.816 516.576 181.178 513.355C186.82 510.388 190.64 508.359 190.64 508.359L191.948 508.652C204.104 511.374 216.721 511.274 228.829 508.359C228.829 508.359 232.02 510.004 236.898 512.492" fill="#F89C8F"/>
<path d="M227.631 533.69C223.643 542.8 219.64 551.907 215.613 561H208.706C203.439 551.928 198.048 542.931 192.738 533.887C200.781 536.128 213.311 537.885 227.631 533.69" fill="#FEEFE7"/>
<path d="M229.698 512.712C229.698 512.712 226.344 523.253 210.935 523.253C192.963 523.253 188.732 513.67 188.732 513.67C190.293 509.531 191.367 505.697 192.091 502.271H192.096C193.427 495.995 193.614 491.065 193.533 488.041L225.108 486.791C225.399 489.464 225.874 492.611 226.411 495.779C227.838 504.189 229.698 512.712 229.698 512.712" fill="#F89C8F"/>
<path d="M211.149 528.129C201.722 528.129 195.556 523.297 192.043 519.244C188.254 514.87 186.704 510.555 186.639 510.373C186.525 510.049 186.695 509.694 187.019 509.579C187.343 509.465 187.699 509.634 187.814 509.957C187.829 510 189.366 514.264 193.014 518.462C197.871 524.049 203.973 526.883 211.149 526.883C228.252 526.883 232.359 510.192 232.399 510.024C232.477 509.689 232.814 509.481 233.148 509.559C233.483 509.638 233.691 509.973 233.613 510.308C233.57 510.49 232.53 514.82 229.25 519.208C226.209 523.278 220.599 528.129 211.149 528.129" fill="#FEEFE7"/>
<path d="M226.412 495.781C221.52 499.183 210.825 504.247 192.096 502.273C193.428 495.997 193.614 491.066 193.533 488.043L225.108 486.793C225.4 489.466 225.875 492.613 226.412 495.781Z" fill="#392139"/>
<path d="M181.481 446.866C181.481 446.866 171.709 433.567 164.109 441.437C156.509 449.309 171.166 476.725 184.467 470.752L181.481 446.866Z" fill="#F89C8F"/>
<path d="M175.966 463.797C175.966 465.299 174.748 466.517 173.247 466.517C171.745 466.517 170.527 465.299 170.527 463.797C170.527 462.296 171.745 461.079 173.247 461.079C174.748 461.079 175.966 462.296 175.966 463.797Z" fill="#FEEFE7"/>
<path d="M177.422 462.583C177.091 462.583 176.803 462.337 176.755 462.001C175.47 452.76 168.125 447.088 168.051 447.03C167.754 446.806 167.696 446.382 167.922 446.084C168.147 445.788 168.57 445.73 168.868 445.956C169.187 446.199 176.731 452.027 178.092 461.815C178.143 462.184 177.885 462.526 177.517 462.577L177.422 462.583" fill="#F3617C"/>
<path d="M175.374 455.944C175.158 455.944 174.945 455.839 174.814 455.646C173.834 454.195 170.901 454.048 169.857 454.113C169.482 454.139 169.164 453.854 169.141 453.481C169.118 453.108 169.401 452.788 169.772 452.766C169.959 452.753 174.323 452.51 175.933 454.889C176.142 455.198 176.06 455.618 175.752 455.826C175.636 455.905 175.504 455.944 175.374 455.944Z" fill="#F3617C"/>
<path d="M241.009 446.866C241.009 446.866 250.781 433.567 258.381 441.437C265.981 449.309 251.323 476.725 238.022 470.752L241.009 446.866Z" fill="#F89C8F"/>
<path d="M251.218 463.797C251.218 465.299 250.002 466.517 248.5 466.517C246.999 466.517 245.78 465.299 245.78 463.797C245.78 462.296 246.999 461.079 248.5 461.079C250.002 461.079 251.218 462.296 251.218 463.797Z" fill="#FEEFE7"/>
<path d="M244.941 462.583L244.848 462.577C244.479 462.526 244.221 462.184 244.272 461.815C245.633 452.027 253.177 446.199 253.496 445.956C253.794 445.73 254.216 445.788 254.442 446.084C254.667 446.382 254.61 446.806 254.313 447.03C254.24 447.088 246.892 452.78 245.609 462.001C245.563 462.337 245.273 462.583 244.941 462.583" fill="#F3617C"/>
<path d="M246.986 455.944C246.855 455.944 246.724 455.905 246.608 455.826C246.299 455.618 246.218 455.198 246.427 454.889C248.036 452.51 252.402 452.754 252.588 452.766C252.959 452.788 253.242 453.108 253.219 453.48C253.197 453.852 252.872 454.138 252.504 454.113C251.455 454.049 248.524 454.201 247.545 455.646C247.415 455.839 247.203 455.944 246.986 455.944Z" fill="#F3617C"/>
<path d="M215.642 406.992C186.77 406.15 173.247 421.597 175.449 453.493C176.817 473.305 187.476 497.4 210.936 497.953C235.385 498.529 246.513 470.79 247.044 450.298C247.602 428.751 242.486 414.339 224.659 408.494C223.424 408.089 216.971 407.031 215.642 406.992" fill="#F89C8F"/>
<path d="M233.955 396.633C233.792 397.038 233.611 397.445 233.418 397.853C231.627 401.632 228.586 405.566 224.007 409.528H201.467C201.467 409.528 193.378 405.062 189.159 397.818C188.937 397.435 188.722 397.04 188.523 396.643C185.585 390.776 185.382 383.285 193.571 374.968C209.776 358.505 242.934 374.608 233.955 396.633Z" fill="#EF2F4B"/>
<path d="M233.418 397.853C231.627 401.632 228.586 405.566 224.008 409.528H201.467C201.467 409.528 193.378 405.062 189.159 397.818C191.795 396.217 201.247 392.982 210.633 395.233C210.633 395.233 222.942 392.13 233.418 397.853Z" fill="#BC2739"/>
<path d="M180.454 437.971C180.454 437.971 211.15 430.027 211.15 414.007C211.15 414.007 218.209 436.13 241.971 437.971L247.082 441.819C247.082 441.819 249.813 439.616 251.9 439.02C251.9 439.02 258.05 390.335 211.072 396.847C211.072 396.847 196.484 393.578 184.467 401.894C167.071 413.936 174.014 440.367 174.014 440.367L180.454 437.971" fill="#EF2F4B"/>
<path d="M190.198 459.684C190.198 460.149 189.821 460.524 189.357 460.524C188.893 460.524 188.516 460.149 188.516 459.684C188.516 459.219 188.893 458.843 189.357 458.843C189.821 458.843 190.198 459.219 190.198 459.684Z" fill="#F3617C"/>
<path d="M194.306 461.712C194.306 462.177 193.929 462.553 193.465 462.553C193 462.553 192.624 462.177 192.624 461.712C192.624 461.248 193 460.872 193.465 460.872C193.929 460.872 194.306 461.248 194.306 461.712Z" fill="#F3617C"/>
<path d="M190.198 464.638C190.198 465.102 189.821 465.48 189.357 465.48C188.893 465.48 188.516 465.102 188.516 464.638C188.516 464.173 188.893 463.797 189.357 463.797C189.821 463.797 190.198 464.173 190.198 464.638Z" fill="#F3617C"/>
<path d="M196.653 465.482C196.653 465.947 196.276 466.323 195.812 466.323C195.348 466.323 194.971 465.947 194.971 465.482C194.971 465.017 195.348 464.641 195.812 464.641C196.276 464.641 196.653 465.017 196.653 465.482Z" fill="#F3617C"/>
<path d="M200.958 464.638C200.958 465.102 200.581 465.48 200.116 465.48C199.652 465.48 199.276 465.102 199.276 464.638C199.276 464.173 199.652 463.797 200.116 463.797C200.581 463.797 200.958 464.173 200.958 464.638Z" fill="#F3617C"/>
<path d="M199 460.525C199 460.99 198.623 461.366 198.159 461.366C197.694 461.366 197.318 460.99 197.318 460.525C197.318 460.061 197.694 459.685 198.159 459.685C198.623 459.685 199 460.061 199 460.525Z" fill="#F3617C"/>
<path d="M233.006 459.684C233.006 460.149 233.382 460.524 233.847 460.524C234.312 460.524 234.689 460.149 234.689 459.684C234.689 459.219 234.312 458.843 233.847 458.843C233.382 458.843 233.006 459.219 233.006 459.684Z" fill="#F3617C"/>
<path d="M228.901 461.712C228.901 462.177 229.276 462.553 229.741 462.553C230.206 462.553 230.582 462.177 230.582 461.712C230.582 461.248 230.206 460.872 229.741 460.872C229.276 460.872 228.901 461.248 228.901 461.712Z" fill="#F3617C"/>
<path d="M233.006 464.638C233.006 465.102 233.382 465.48 233.847 465.48C234.312 465.48 234.689 465.102 234.689 464.638C234.689 464.173 234.312 463.797 233.847 463.797C233.382 463.797 233.006 464.173 233.006 464.638Z" fill="#F3617C"/>
<path d="M226.549 465.482C226.549 465.947 226.927 466.323 227.39 466.323C227.855 466.323 228.232 465.947 228.232 465.482C228.232 465.017 227.855 464.641 227.39 464.641C226.927 464.641 226.549 465.017 226.549 465.482Z" fill="#F3617C"/>
<path d="M222.249 464.638C222.249 465.102 222.625 465.48 223.09 465.48C223.555 465.48 223.931 465.102 223.931 464.638C223.931 464.173 223.555 463.797 223.09 463.797C222.625 463.797 222.249 464.173 222.249 464.638Z" fill="#F3617C"/>
<path d="M224.205 460.525C224.205 460.99 224.581 461.366 225.046 461.366C225.51 461.366 225.887 460.99 225.887 460.525C225.887 460.061 225.51 459.685 225.046 459.685C224.581 459.685 224.205 460.061 224.205 460.525Z" fill="#F3617C"/>
<path d="M176.6 459.166C176.6 459.166 182.379 446.964 180.453 437.974L172.865 433.15C172.865 433.15 174.044 451.623 176.6 459.166Z" fill="#EF2F4B"/>
<path d="M245.824 459.166C245.824 459.166 240.044 446.964 241.971 437.974L248.287 436.133C248.287 436.133 249.249 451.566 245.824 459.166Z" fill="#EF2F4B"/>
<path d="M187.261 444.609C187.261 444.609 188.825 440.741 194.122 437.438C200.816 433.263 205.64 440.444 205.64 440.444C205.64 440.444 200.389 438.615 196.355 439.901C192.41 441.156 187.261 444.609 187.261 444.609Z" fill="#EF2F4B"/>
<path d="M236.587 444.609C236.587 444.609 235.025 440.741 229.727 437.438C223.033 433.263 218.208 440.444 218.208 440.444C218.208 440.444 223.46 438.615 227.493 439.901C231.439 441.156 236.587 444.609 236.587 444.609Z" fill="#EF2F4B"/>
<path d="M212.883 470.273C211.725 470.273 210.456 469.969 209.057 469.362C208.675 469.196 208.448 468.797 208.502 468.384L210.456 453.372C210.524 452.861 210.994 452.498 211.505 452.567C212.016 452.633 212.377 453.102 212.311 453.614L210.449 467.908C212.386 468.622 213.881 468.562 215.115 467.731C215.544 467.44 216.125 467.555 216.412 467.982C216.702 468.411 216.589 468.991 216.161 469.28C215.18 469.942 214.093 470.273 212.883 470.273" fill="#F3617C"/>
<path d="M211.031 480.195C210.209 480.195 209.434 480.144 208.721 480.062C204.448 479.57 201.462 477.923 201.336 477.854C200.885 477.602 200.724 477.032 200.976 476.581C201.227 476.133 201.796 475.969 202.246 476.221C202.697 476.47 213.388 482.244 222.642 473.684C223.021 473.333 223.613 473.356 223.963 473.735C224.314 474.115 224.291 474.706 223.912 475.057C219.51 479.127 214.778 480.195 211.031 480.195" fill="#F3617C"/>
<path d="M212.663 485.675C210.488 485.675 208.744 485.144 208.623 485.106C208.13 484.952 207.855 484.428 208.009 483.937C208.163 483.443 208.687 483.168 209.18 483.321C209.243 483.341 213.512 484.623 216.522 482.922C216.97 482.669 217.541 482.827 217.795 483.276C218.048 483.726 217.891 484.297 217.441 484.55C215.908 485.416 214.18 485.675 212.663 485.675" fill="#F3617C"/>
<path d="M200.06 450.26C200.105 452.87 199.143 455.003 197.911 455.025C196.678 455.046 195.642 452.947 195.597 450.339C195.551 447.728 196.513 445.595 197.746 445.573C198.978 445.553 200.014 447.65 200.06 450.26Z" fill="#392139"/>
<path d="M223.383 450.26C223.338 452.87 224.3 455.003 225.532 455.025C226.765 455.046 227.801 452.947 227.846 450.339C227.891 447.728 226.929 445.595 225.697 445.573C224.465 445.553 223.429 447.65 223.383 450.26Z" fill="#392139"/>
<path d="M195.428 440.992C188.171 440.992 182.267 446.898 182.267 454.154C182.267 461.411 188.171 467.317 195.428 467.317C202.686 467.317 208.591 461.411 208.591 454.154C208.591 446.898 202.686 440.992 195.428 440.992ZM195.428 468.564C187.484 468.564 181.021 462.099 181.021 454.154C181.021 446.21 187.484 439.745 195.428 439.745C203.373 439.745 209.837 446.21 209.837 454.154C209.837 462.099 203.373 468.564 195.428 468.564" fill="white"/>
<path d="M227.847 440.992C220.591 440.992 214.686 446.898 214.686 454.154C214.686 461.411 220.591 467.317 227.847 467.317C235.105 467.317 241.009 461.411 241.009 454.154C241.009 446.898 235.105 440.992 227.847 440.992ZM227.847 468.564C219.903 468.564 213.439 462.099 213.439 454.154C213.439 446.21 219.903 439.745 227.847 439.745C235.792 439.745 242.255 446.21 242.255 454.154C242.255 462.099 235.792 468.564 227.847 468.564" fill="white"/>
<path d="M183.277 448.269C183.067 448.269 182.862 448.163 182.744 447.973C182.705 447.908 178.715 441.492 172.645 439.19C172.323 439.069 172.161 438.708 172.283 438.387C172.405 438.065 172.764 437.903 173.087 438.026C179.563 440.48 183.637 447.044 183.807 447.322C183.987 447.615 183.895 447.999 183.601 448.178L183.277 448.269" fill="white"/>
<path d="M241.107 448.269C240.99 448.269 240.871 448.237 240.767 448.168C240.479 447.981 240.398 447.595 240.585 447.307C240.774 447.017 245.285 440.172 251.753 437.719C252.074 437.598 252.433 437.76 252.556 438.082C252.679 438.404 252.516 438.764 252.194 438.886C246.113 441.192 241.674 447.919 241.629 447.988C241.51 448.17 241.31 448.269 241.107 448.269" fill="white"/>
<path d="M214.062 452.82C213.747 452.82 213.477 452.581 213.444 452.261C213.423 452.075 213.185 450.417 211.522 450.417C209.881 450.417 209.711 452.053 209.698 452.239C209.672 452.581 209.376 452.844 209.033 452.817C208.69 452.792 208.432 452.499 208.454 452.157C208.521 451.124 209.247 449.171 211.522 449.171C213.779 449.171 214.577 451.108 214.683 452.132C214.719 452.474 214.47 452.78 214.127 452.817L214.062 452.82Z" fill="white"/>
<g filter="url(#filter6_d_2_105)">
<rect x="137.695" y="502.596" width="39.5276" height="39.5276" rx="19.7638" fill="#E84747"/>
</g>
<path d="M163.815 525.514C163.235 524.918 161.586 523.802 160.505 523.802C160.255 523.802 160.036 523.857 159.858 523.972C159.329 524.31 158.908 524.572 158.706 524.572C158.594 524.572 158.475 524.473 158.213 524.247L158.169 524.207C157.442 523.575 157.287 523.412 157.005 523.118L156.934 523.043C156.882 522.991 156.838 522.943 156.795 522.9C156.548 522.645 156.369 522.463 155.738 521.747L155.71 521.715C155.408 521.374 155.209 521.151 155.197 520.988C155.185 520.829 155.325 520.571 155.678 520.09C156.107 519.51 156.123 518.795 155.73 517.965C155.416 517.309 154.903 516.681 154.45 516.129L154.411 516.081C154.021 515.604 153.568 515.366 153.064 515.366C152.504 515.366 152.039 515.668 151.793 515.827C151.773 515.839 151.753 515.855 151.733 515.867C151.181 516.216 150.779 516.697 150.628 517.186C150.402 517.921 150.251 518.874 151.336 520.857C152.273 522.574 153.124 523.726 154.474 525.113C155.746 526.416 156.31 526.837 157.573 527.751C158.98 528.768 160.33 529.353 161.276 529.353C162.154 529.353 162.845 529.353 163.831 528.164C164.864 526.917 164.435 526.154 163.815 525.514Z" fill="white"/>
<g filter="url(#filter7_d_2_105)">
<rect x="86.6162" y="502.589" width="39.5276" height="39.5276" rx="19.7638" fill="#7264EF"/>
</g>
<path d="M106.683 519.818C106.122 519.818 105.573 519.985 105.106 520.296C104.64 520.608 104.276 521.051 104.061 521.57C103.846 522.089 103.79 522.659 103.9 523.21C104.009 523.76 104.28 524.266 104.676 524.663C105.073 525.06 105.579 525.33 106.129 525.439C106.68 525.549 107.251 525.493 107.769 525.278C108.288 525.063 108.731 524.699 109.043 524.233C109.355 523.766 109.521 523.217 109.521 522.656C109.523 522.283 109.45 521.913 109.308 521.568C109.166 521.223 108.957 520.909 108.694 520.646C108.43 520.382 108.116 520.173 107.771 520.031C107.426 519.889 107.056 519.816 106.683 519.818Z" fill="#7264EF"/>
<path d="M106.684 514.143C105 514.143 103.354 514.642 101.954 515.578C100.554 516.513 99.4626 517.843 98.8182 519.399C98.1739 520.954 98.0053 522.666 98.3338 524.318C98.6623 525.969 99.4731 527.486 100.664 528.677C101.854 529.867 103.371 530.678 105.023 531.007C106.674 531.335 108.386 531.167 109.942 530.522C111.498 529.878 112.827 528.787 113.763 527.387C114.698 525.987 115.197 524.341 115.197 522.657C115.195 520.4 114.297 518.235 112.701 516.639C111.105 515.043 108.941 514.146 106.684 514.143V514.143ZM106.684 525.495C106.123 525.495 105.574 525.328 105.107 525.016C104.64 524.704 104.277 524.261 104.062 523.743C103.847 523.224 103.791 522.654 103.9 522.103C104.01 521.553 104.28 521.047 104.677 520.65C105.074 520.253 105.58 519.983 106.13 519.873C106.681 519.764 107.251 519.82 107.77 520.035C108.288 520.25 108.732 520.613 109.043 521.08C109.355 521.547 109.522 522.095 109.522 522.657C109.522 523.409 109.223 524.131 108.69 524.663C108.158 525.196 107.436 525.495 106.684 525.495Z" fill="white"/>
<g filter="url(#filter8_d_2_105)">
<rect x="371" y="355" width="222" height="122" rx="12" fill="white"/>
<rect x="371.5" y="355.5" width="221" height="121" rx="11.5" stroke="black" stroke-opacity="0.1"/>
</g>
<path d="M425.812 458.266H408.101C407.291 458.265 406.515 457.943 405.942 457.371C405.37 456.798 405.048 456.022 405.047 455.213V438.723C405.048 437.913 405.37 437.137 405.942 436.565C406.515 435.992 407.291 435.67 408.101 435.669H425.812C426.622 435.67 427.398 435.992 427.97 436.565C428.543 437.137 428.865 437.913 428.866 438.723V455.213C428.865 456.022 428.543 456.798 427.97 457.371C427.398 457.943 426.622 458.265 425.812 458.266V458.266Z" fill="#6C63FF"/>
<path d="M465.51 458.266H447.799C446.989 458.265 446.213 457.943 445.641 457.37C445.068 456.798 444.746 456.022 444.745 455.212V417.957C444.746 417.147 445.068 416.371 445.641 415.799C446.213 415.226 446.989 414.904 447.799 414.903H465.51C466.32 414.904 467.096 415.226 467.668 415.799C468.241 416.371 468.563 417.147 468.564 417.957V455.212C468.563 456.022 468.241 456.798 467.668 457.37C467.096 457.943 466.32 458.265 465.51 458.266V458.266Z" fill="#6C63FF"/>
<path d="M505.819 458.267H488.108C487.298 458.266 486.522 457.944 485.95 457.372C485.377 456.799 485.055 456.023 485.054 455.213V397.193C485.055 396.384 485.377 395.607 485.95 395.035C486.522 394.462 487.298 394.14 488.108 394.139H505.819C506.629 394.14 507.405 394.462 507.978 395.035C508.55 395.607 508.872 396.384 508.873 397.193V455.213C508.872 456.023 508.55 456.799 507.978 457.372C507.405 457.944 506.629 458.266 505.819 458.267V458.267Z" fill="#6C63FF"/>
<path d="M547.349 458.266H529.637C528.828 458.265 528.052 457.943 527.479 457.371C526.907 456.798 526.585 456.022 526.584 455.213V377.038C526.585 376.228 526.907 375.452 527.479 374.88C528.052 374.307 528.828 373.985 529.637 373.984H547.349C548.158 373.985 548.935 374.307 549.507 374.88C550.08 375.452 550.402 376.228 550.403 377.038V455.213C550.402 456.022 550.08 456.798 549.507 457.371C548.935 457.943 548.158 458.265 547.349 458.266V458.266Z" fill="#6C63FF"/>
<path d="M572.389 458.267H391.611C391.449 458.267 391.293 458.203 391.179 458.088C391.064 457.974 391 457.819 391 457.657C391 457.495 391.064 457.339 391.179 457.225C391.293 457.11 391.449 457.046 391.611 457.046H572.389C572.551 457.046 572.707 457.11 572.821 457.225C572.936 457.339 573 457.495 573 457.657C573 457.819 572.936 457.974 572.821 458.088C572.707 458.203 572.551 458.267 572.389 458.267Z" fill="#3F3D56"/>
<g filter="url(#filter9_d_2_105)">
<rect x="139" y="154" width="129" height="122" rx="12" fill="white"/>
<rect x="139.5" y="154.5" width="128" height="121" rx="11.5" stroke="black" stroke-opacity="0.1"/>
</g>
<path d="M231.92 183.443C231.405 182.935 230.788 182.545 230.11 182.299C229.433 182.053 228.71 181.957 227.993 182.018C227.275 182.079 226.579 182.295 225.952 182.652C225.325 183.009 224.781 183.498 224.358 184.086L212 201.25C213.422 202.688 214.549 204.394 215.317 206.272C216.085 208.149 216.479 210.161 216.476 212.192C216.476 212.57 216.458 212.943 216.432 213.315L236.075 219.755C236.77 219.981 237.505 220.052 238.229 219.962C238.954 219.873 239.65 219.625 240.27 219.236C240.89 218.846 241.418 218.326 241.818 217.71C242.218 217.094 242.48 216.397 242.586 215.668C242.861 213.816 243 211.945 243 210.071C243.015 205.11 242.042 200.196 240.139 195.622C238.235 191.048 235.44 186.906 231.92 183.443V183.443Z" fill="#6C63FF"/>
<path d="M185.814 212.226C185.81 208.288 187.308 204.499 190 201.637L180.76 188.867C180.38 188.34 179.891 187.903 179.327 187.584C178.763 187.264 178.137 187.071 177.492 187.016C176.847 186.961 176.198 187.047 175.588 187.267C174.979 187.487 174.424 187.836 173.962 188.291C170.796 191.389 168.284 195.095 166.572 199.187C164.861 203.28 163.986 207.676 164 212.115C164 213.791 164.125 215.464 164.372 217.122C164.47 217.777 164.708 218.404 165.071 218.957C165.434 219.51 165.913 219.977 166.474 220.326C167.029 220.671 167.652 220.89 168.3 220.968C168.948 221.046 169.605 220.981 170.226 220.778L186.18 215.573C185.937 214.474 185.815 213.351 185.814 212.226V212.226Z" fill="#F2F2F2"/>
<path d="M187.095 217L170.179 222.414C169.553 222.613 168.977 222.943 168.492 223.38C168.006 223.818 167.622 224.353 167.365 224.949C167.108 225.546 166.984 226.19 167.002 226.838C167.019 227.486 167.178 228.122 167.467 228.704C169.876 233.518 173.427 237.69 177.82 240.865C182.213 244.041 187.317 246.127 192.702 246.947C193.358 247.047 194.028 247.005 194.666 246.825C195.304 246.646 195.895 246.332 196.398 245.906C196.901 245.482 197.304 244.955 197.581 244.362C197.857 243.77 198 243.125 198 242.473V226.91C195.495 226.27 193.188 225.03 191.286 223.302C189.384 221.573 187.944 219.408 187.095 217Z" fill="#E6E6E6"/>
<path d="M236.605 226.675C236.323 226.012 235.901 225.417 235.367 224.931C234.834 224.445 234.2 224.078 233.511 223.856L215.335 218C214.274 220.474 212.576 222.629 210.412 224.247C208.247 225.866 205.691 226.892 203 227.223V246.002C203 246.722 203.158 247.435 203.462 248.089C203.766 248.744 204.209 249.326 204.76 249.795C205.312 250.265 205.96 250.61 206.659 250.808C207.358 251.006 208.092 251.051 208.81 250.942C214.715 250.036 220.313 247.733 225.131 244.227C229.948 240.721 233.842 236.116 236.484 230.801C236.802 230.162 236.977 229.463 236.998 228.751C237.019 228.039 236.885 227.331 236.605 226.675Z" fill="#3F3D56"/>
<path d="M201.036 196.625C203.683 196.622 206.285 197.304 208.589 198.605L216.135 188.236C216.52 187.708 216.785 187.103 216.913 186.462C217.041 185.822 217.028 185.161 216.875 184.527C216.727 183.904 216.445 183.32 216.049 182.817C215.654 182.313 215.153 181.902 214.582 181.61C209.923 179.244 204.772 178.008 199.545 178C194.318 177.992 189.163 179.214 184.497 181.566C183.908 181.863 183.392 182.283 182.982 182.799C182.573 183.314 182.28 183.913 182.126 184.552C181.973 185.183 181.959 185.839 182.086 186.475C182.212 187.111 182.476 187.712 182.858 188.237L191.419 200C194.144 197.812 197.538 196.621 201.036 196.625V196.625Z" fill="#E6E6E6"/>
<defs>
<filter id="filter0_d_2_105" x="0" y="0" width="674" height="630" filterUnits="userSpaceOnUse" color-interpolation-filters="sRGB">
<feFlood flood-opacity="0" result="BackgroundImageFix"/>
<feColorMatrix in="SourceAlpha" type="matrix" values="0 0 0 0 0 0 0 0 0 0 0 0 0 0 0 0 0 0 127 0" result="hardAlpha"/>
<feOffset dy="5"/>
<feGaussianBlur stdDeviation="10"/>
<feComposite in2="hardAlpha" operator="out"/>
<feColorMatrix type="matrix" values="0 0 0 0 0 0 0 0 0 0 0 0 0 0 0 0 0 0 0.06 0"/>
<feBlend mode="normal" in2="BackgroundImageFix" result="effect1_dropShadow_2_105"/>
<feBlend mode="normal" in="SourceGraphic" in2="effect1_dropShadow_2_105" result="shape"/>
</filter>
<filter id="filter1_d_2_105" x="0" y="0" width="674" height="630" filterUnits="userSpaceOnUse" color-interpolation-filters="sRGB">
<feFlood flood-opacity="0" result="BackgroundImageFix"/>
<feColorMatrix in="SourceAlpha" type="matrix" values="0 0 0 0 0 0 0 0 0 0 0 0 0 0 0 0 0 0 127 0" result="hardAlpha"/>
<feOffset dy="5"/>
<feGaussianBlur stdDeviation="10"/>
<feComposite in2="hardAlpha" operator="out"/>
<feColorMatrix type="matrix" values="0 0 0 0 0 0 0 0 0 0 0 0 0 0 0 0 0 0 0.06 0"/>
<feBlend mode="normal" in2="BackgroundImageFix" result="effect1_dropShadow_2_105"/>
<feBlend mode="normal" in="SourceGraphic" in2="effect1_dropShadow_2_105" result="shape"/>
</filter>
<filter id="filter2_d_2_105" x="406.499" y="212.082" width="43.9019" height="43.9018" filterUnits="userSpaceOnUse" color-interpolation-filters="sRGB">
<feFlood flood-opacity="0" result="BackgroundImageFix"/>
<feColorMatrix in="SourceAlpha" type="matrix" values="0 0 0 0 0 0 0 0 0 0 0 0 0 0 0 0 0 0 127 0" result="hardAlpha"/>
<feOffset dy="3"/>
<feGaussianBlur stdDeviation="2"/>
<feComposite in2="hardAlpha" operator="out"/>
<feColorMatrix type="matrix" values="0 0 0 0 0 0 0 0 0 0 0 0 0 0 0 0 0 0 0.1 0"/>
<feBlend mode="normal" in2="BackgroundImageFix" result="effect1_dropShadow_2_105"/>
<feBlend mode="normal" in="SourceGraphic" in2="effect1_dropShadow_2_105" result="shape"/>
</filter>
<filter id="filter3_d_2_105" x="360.104" y="212.083" width="43.9019" height="43.9018" filterUnits="userSpaceOnUse" color-interpolation-filters="sRGB">
<feFlood flood-opacity="0" result="BackgroundImageFix"/>
<feColorMatrix in="SourceAlpha" type="matrix" values="0 0 0 0 0 0 0 0 0 0 0 0 0 0 0 0 0 0 127 0" result="hardAlpha"/>
<feOffset dy="3"/>
<feGaussianBlur stdDeviation="2"/>
<feComposite in2="hardAlpha" operator="out"/>
<feColorMatrix type="matrix" values="0 0 0 0 0 0 0 0 0 0 0 0 0 0 0 0 0 0 0.1 0"/>
<feBlend mode="normal" in2="BackgroundImageFix" result="effect1_dropShadow_2_105"/>
<feBlend mode="normal" in="SourceGraphic" in2="effect1_dropShadow_2_105" result="shape"/>
</filter>
<filter id="filter4_d_2_105" x="266.444" y="355.618" width="47.0664" height="47.0664" filterUnits="userSpaceOnUse" color-interpolation-filters="sRGB">
<feFlood flood-opacity="0" result="BackgroundImageFix"/>
<feColorMatrix in="SourceAlpha" type="matrix" values="0 0 0 0 0 0 0 0 0 0 0 0 0 0 0 0 0 0 127 0" result="hardAlpha"/>
<feOffset dy="3"/>
<feGaussianBlur stdDeviation="2"/>
<feComposite in2="hardAlpha" operator="out"/>
<feColorMatrix type="matrix" values="0 0 0 0 0 0 0 0 0 0 0 0 0 0 0 0 0 0 0.1 0"/>
<feBlend mode="normal" in2="BackgroundImageFix" result="effect1_dropShadow_2_105"/>
<feBlend mode="normal" in="SourceGraphic" in2="effect1_dropShadow_2_105" result="shape"/>
</filter>
<filter id="filter5_d_2_105" x="215.958" y="355.618" width="47.0664" height="47.0664" filterUnits="userSpaceOnUse" color-interpolation-filters="sRGB">
<feFlood flood-opacity="0" result="BackgroundImageFix"/>
<feColorMatrix in="SourceAlpha" type="matrix" values="0 0 0 0 0 0 0 0 0 0 0 0 0 0 0 0 0 0 127 0" result="hardAlpha"/>
<feOffset dy="3"/>
<feGaussianBlur stdDeviation="2"/>
<feComposite in2="hardAlpha" operator="out"/>
<feColorMatrix type="matrix" values="0 0 0 0 0 0 0 0 0 0 0 0 0 0 0 0 0 0 0.1 0"/>
<feBlend mode="normal" in2="BackgroundImageFix" result="effect1_dropShadow_2_105"/>
<feBlend mode="normal" in="SourceGraphic" in2="effect1_dropShadow_2_105" result="shape"/>
</filter>
<filter id="filter6_d_2_105" x="133.695" y="501.596" width="47.5277" height="47.5276" filterUnits="userSpaceOnUse" color-interpolation-filters="sRGB">
<feFlood flood-opacity="0" result="BackgroundImageFix"/>
<feColorMatrix in="SourceAlpha" type="matrix" values="0 0 0 0 0 0 0 0 0 0 0 0 0 0 0 0 0 0 127 0" result="hardAlpha"/>
<feOffset dy="3"/>
<feGaussianBlur stdDeviation="2"/>
<feComposite in2="hardAlpha" operator="out"/>
<feColorMatrix type="matrix" values="0 0 0 0 0 0 0 0 0 0 0 0 0 0 0 0 0 0 0.1 0"/>
<feBlend mode="normal" in2="BackgroundImageFix" result="effect1_dropShadow_2_105"/>
<feBlend mode="normal" in="SourceGraphic" in2="effect1_dropShadow_2_105" result="shape"/>
</filter>
<filter id="filter7_d_2_105" x="82.6162" y="501.589" width="47.5276" height="47.5276" filterUnits="userSpaceOnUse" color-interpolation-filters="sRGB">
<feFlood flood-opacity="0" result="BackgroundImageFix"/>
<feColorMatrix in="SourceAlpha" type="matrix" values="0 0 0 0 0 0 0 0 0 0 0 0 0 0 0 0 0 0 127 0" result="hardAlpha"/>
<feOffset dy="3"/>
<feGaussianBlur stdDeviation="2"/>
<feComposite in2="hardAlpha" operator="out"/>
<feColorMatrix type="matrix" values="0 0 0 0 0 0 0 0 0 0 0 0 0 0 0 0 0 0 0.1 0"/>
<feBlend mode="normal" in2="BackgroundImageFix" result="effect1_dropShadow_2_105"/>
<feBlend mode="normal" in="SourceGraphic" in2="effect1_dropShadow_2_105" result="shape"/>
</filter>
<filter id="filter8_d_2_105" x="271" y="260" width="422" height="322" filterUnits="userSpaceOnUse" color-interpolation-filters="sRGB">
<feFlood flood-opacity="0" result="BackgroundImageFix"/>
<feColorMatrix in="SourceAlpha" type="matrix" values="0 0 0 0 0 0 0 0 0 0 0 0 0 0 0 0 0 0 127 0" result="hardAlpha"/>
<feOffset dy="5"/>
<feGaussianBlur stdDeviation="50"/>
<feComposite in2="hardAlpha" operator="out"/>
<feColorMatrix type="matrix" values="0 0 0 0 0 0 0 0 0 0 0 0 0 0 0 0 0 0 0.1 0"/>
<feBlend mode="normal" in2="BackgroundImageFix" result="effect1_dropShadow_2_105"/>
<feBlend mode="normal" in="SourceGraphic" in2="effect1_dropShadow_2_105" result="shape"/>
</filter>
<filter id="filter9_d_2_105" x="39" y="59" width="329" height="322" filterUnits="userSpaceOnUse" color-interpolation-filters="sRGB">
<feFlood flood-opacity="0" result="BackgroundImageFix"/>
<feColorMatrix in="SourceAlpha" type="matrix" values="0 0 0 0 0 0 0 0 0 0 0 0 0 0 0 0 0 0 127 0" result="hardAlpha"/>
<feOffset dy="5"/>
<feGaussianBlur stdDeviation="50"/>
<feComposite in2="hardAlpha" operator="out"/>
<feColorMatrix type="matrix" values="0 0 0 0 0 0 0 0 0 0 0 0 0 0 0 0 0 0 0.1 0"/>
<feBlend mode="normal" in2="BackgroundImageFix" result="effect1_dropShadow_2_105"/>
<feBlend mode="normal" in="SourceGraphic" in2="effect1_dropShadow_2_105" result="shape"/>
</filter>
<linearGradient id="paint0_linear_2_105" x1="164.16" y1="-734.721" x2="95.4326" y2="601.496" gradientUnits="userSpaceOnUse">
<stop stop-color="white"/>
<stop offset="1" stop-color="white" stop-opacity="0"/>
</linearGradient>
<linearGradient id="paint1_linear_2_105" x1="162.091" y1="-743.639" x2="90.7956" y2="608.615" gradientUnits="userSpaceOnUse">
<stop stop-color="white"/>
<stop offset="1" stop-color="white" stop-opacity="0"/>
</linearGradient>
</defs>
</svg>
