<svg width="20" height="25" viewBox="0 0 20 25" fill="none" xmlns="http://www.w3.org/2000/svg">
<path d="M10 0C6.55912 0 3.75 2.80912 3.75 6.25V10C1.44297 10 0 11.9015 0 13.54V21.4575C0 23.398 1.60201 25 3.54247 25H16.4575C18.398 25 20 23.398 20 21.4575V13.54C20 11.1859 18.0982 10 16.25 10V6.25C16.25 2.80912 13.4409 0 10 0ZM10 2.5C12.0991 2.5 13.75 4.15088 13.75 6.25V10H6.25V6.25C6.25 4.15088 7.90087 2.5 10 2.5ZM3.54247 12.5H16.4575C17.0562 12.5 17.5 12.9413 17.5 13.54V21.4575C17.5 22.0562 17.0562 22.5 16.4575 22.5H3.54247C2.94377 22.5 2.5 22.0562 2.5 21.4575V13.54C2.5 12.9413 2.94377 12.5 3.54247 12.5Z" fill="#5C5F62"/>
</svg>
