<svg width="427" height="372" viewBox="0 0 427 372" fill="none" xmlns="http://www.w3.org/2000/svg">
<path d="M426.668 371.413C426.668 371.55 331.147 371.66 213.344 371.66C95.5001 371.66 0 371.55 0 371.413C0 371.277 95.5001 371.167 213.344 371.167C331.147 371.167 426.668 371.277 426.668 371.413Z" fill="#1A2E35"/>
<path d="M388.206 163.427C387.463 160.22 391.249 149.139 388.805 148.893C385.692 148.579 385.165 161.179 385.054 162.308C384.947 163.407 383.309 163.275 383.464 162.262C383.688 160.805 385.761 146.548 382.619 146.514C380.876 146.495 380.803 149.665 380.803 149.665C380.803 149.665 379.63 163.715 378.145 163.648C376.638 163.582 377.724 155.587 377.874 152.614C378.019 149.762 376.591 148.125 375.536 149.356C373.989 151.163 373.997 158.404 373.806 161.257C373.616 164.11 372.85 172.306 369.905 168.206C366.961 164.107 363.19 162.033 361.799 162.175C360.408 162.318 360.149 164.32 361.499 165.106C362.59 165.74 364.096 167.357 365.179 168.618C366.073 169.656 366.664 170.892 367.3 172.102C367.754 172.966 368.495 174.682 368.843 177.07C369.246 179.833 370.842 182.284 373.175 183.816L373.011 206.325L372.312 217.459L389.836 223.539L387.533 183.825C388.392 176.192 391.753 166.539 392.98 162.064C394.935 154.929 394.021 154.619 393.148 154.58C391.22 154.496 388.93 166.558 388.206 163.427Z" fill="#FBB292"/>
<path d="M385.963 173.109C385.963 173.18 385.113 173.102 383.814 173.47C382.53 173.824 380.795 174.732 379.526 176.395C379.183 176.838 378.912 177.314 378.679 177.78L378.564 178.012L378.394 177.835C377.238 176.641 375.994 175.866 375.072 175.407C374.147 174.945 373.548 174.758 373.564 174.707C373.571 174.673 374.198 174.782 375.17 175.194C376.136 175.603 377.442 176.359 378.647 177.577L378.361 177.631C378.599 177.139 378.883 176.636 379.243 176.17C379.904 175.305 380.706 174.634 381.496 174.147C382.293 173.666 383.082 173.376 383.755 173.215C384.431 173.047 384.994 173.039 385.374 173.033C385.757 173.055 385.965 173.084 385.963 173.109Z" fill="#8E3823"/>
<path d="M385.094 183.653C385.123 183.739 383.453 184.28 381.305 184.343C379.159 184.419 377.457 183.987 377.48 183.899C377.499 183.791 379.195 184.058 381.294 183.984C383.393 183.922 385.07 183.548 385.094 183.653Z" fill="#8E3823"/>
<path d="M279.158 124.937C279.51 119.18 284.238 113.988 289.938 113.101C291.433 112.868 293 112.893 294.381 112.275C295.512 111.769 296.417 110.873 297.464 110.208C300.819 108.074 305.674 108.73 308.344 111.678C310.855 114.453 311.498 110.295 317.157 113.133C321.845 115.484 319.766 119.371 319.766 119.371C324.392 118.841 329.158 122.113 330.326 126.621C331.068 129.483 330.731 133.056 333.127 134.787C334.288 135.626 335.833 135.771 337.028 136.563C339.248 138.036 339.545 141.164 339.258 143.812C338.972 146.46 338.353 149.279 339.501 151.683C341.383 155.623 347.27 156.819 348.292 161.065C348.773 163.07 348.094 165.563 349.615 166.957C350.226 167.516 351.062 167.738 351.829 168.049C354.941 169.307 357.234 172.39 357.544 175.733C357.855 179.075 356.168 182.527 353.343 184.339C352.554 184.844 351.608 185.324 351.356 186.228C351.076 187.233 351.801 188.205 352.334 189.105C354.283 192.391 353.768 196.948 351.136 199.718C348.503 202.488 343.979 203.232 340.596 201.452C339.088 204.668 336.277 207.25 332.944 208.48C331.409 209.046 329.723 209.332 328.132 208.952C326.857 208.646 325.719 207.934 324.672 207.146C319.682 203.39 312.645 197.602 311.767 191.419" fill="#1A2E35"/>
<path d="M279.046 134.566L278.822 130.138L305.27 124.253C313.445 123.131 322.572 131.077 323.345 139.294C324.205 148.422 324.896 159.601 324.024 166.46C322.27 180.25 311.806 182.323 311.806 182.323L312.171 195.947L281.834 197.27L279.046 134.566Z" fill="#FBB292"/>
<path d="M318.362 149.267C318.424 150.195 317.688 151.013 316.72 151.095C315.753 151.177 314.918 150.493 314.857 149.564C314.795 148.636 315.53 147.818 316.496 147.736C317.465 147.653 318.301 148.339 318.362 149.267Z" fill="#1A2E35"/>
<path d="M320.624 145.21C320.412 145.447 319.049 144.501 317.155 144.565C315.262 144.601 313.904 145.619 313.691 145.393C313.587 145.294 313.795 144.873 314.387 144.414C314.969 143.956 315.972 143.498 317.152 143.466C318.332 143.437 319.337 143.84 319.922 144.266C320.518 144.696 320.727 145.105 320.624 145.21Z" fill="#1A2E35"/>
<path d="M300.688 150.153C300.75 151.081 300.014 151.899 299.046 151.982C298.079 152.064 297.244 151.379 297.183 150.451C297.121 149.523 297.857 148.704 298.823 148.621C299.792 148.539 300.627 149.225 300.688 150.153Z" fill="#1A2E35"/>
<path d="M302.02 146.144C301.808 146.381 300.443 145.435 298.551 145.499C296.659 145.536 295.3 146.553 295.086 146.327C294.983 146.227 295.189 145.807 295.783 145.347C296.365 144.89 297.369 144.432 298.547 144.401C299.728 144.37 300.734 144.773 301.318 145.2C301.913 145.629 302.123 146.038 302.02 146.144Z" fill="#1A2E35"/>
<path d="M309.326 159.977C309.314 159.869 310.486 159.63 312.385 159.327C312.867 159.262 313.322 159.151 313.393 158.819C313.496 158.466 313.279 157.95 313.026 157.395C312.536 156.239 312.022 155.027 311.481 153.758C309.333 148.575 307.762 144.309 307.971 144.225C308.181 144.14 310.093 148.271 312.241 153.452C312.759 154.73 313.254 155.949 313.725 157.114C313.926 157.658 314.26 158.272 314.036 159.004C313.917 159.37 313.569 159.643 313.262 159.737C312.955 159.84 312.684 159.854 312.445 159.876C310.529 160.038 309.338 160.085 309.326 159.977Z" fill="#1A2E35"/>
<path d="M311.801 182.359C311.801 182.359 302.118 183.227 292.801 178.013C292.801 178.013 297.734 187.478 311.899 185.781L311.801 182.359Z" fill="#8E3823"/>
<path d="M308.67 164.565C307.96 163.686 306.752 163.228 305.571 163.392C304.751 163.507 303.933 163.929 303.455 164.614C302.976 165.298 302.902 166.251 303.375 166.876C303.908 167.579 304.982 167.711 305.878 167.426C306.774 167.141 307.532 166.522 308.253 165.906C308.453 165.736 308.655 165.559 308.776 165.33C308.897 165.101 308.916 164.806 308.752 164.625" fill="#F12435"/>
<path d="M303.793 161.46C304.101 161.432 304.169 163.488 305.974 164.892C307.775 166.301 309.961 166.002 309.985 166.289C310.017 166.418 309.509 166.703 308.585 166.757C307.679 166.817 306.345 166.566 305.241 165.707C304.139 164.846 303.641 163.667 303.545 162.825C303.44 161.969 303.653 161.452 303.793 161.46Z" fill="#1A2E35"/>
<path d="M302.277 138.705C302.105 139.226 300.207 139.04 297.995 139.377C295.774 139.67 294.002 140.376 293.693 139.922C293.554 139.706 293.852 139.212 294.561 138.691C295.263 138.17 296.394 137.661 297.724 137.472C299.054 137.285 300.281 137.459 301.101 137.763C301.927 138.066 302.349 138.458 302.277 138.705Z" fill="#1A2E35"/>
<path d="M319.757 139.754C319.437 140.194 318.118 139.788 316.549 139.816C314.978 139.789 313.661 140.195 313.341 139.754C313.2 139.54 313.396 139.103 313.963 138.678C314.523 138.254 315.469 137.893 316.548 137.893C317.627 137.893 318.574 138.254 319.133 138.677C319.701 139.103 319.897 139.54 319.757 139.754Z" fill="#1A2E35"/>
<path d="M325.673 122.46C323.815 127.406 319.385 134.885 314.18 135.776C308.972 136.667 303.359 134.608 299.963 130.561C299.36 134.506 295.127 136.792 291.225 137.629C288.466 138.22 285.534 138.392 282.866 137.472C280.199 136.553 277.846 134.382 277.288 131.616C276.73 128.85 280.36 121.812 283.105 121.158" fill="#1A2E35"/>
<path d="M287.988 195.457C288.053 199.893 284.991 204.201 280.778 205.594C281.174 209.176 278.678 212.858 275.205 213.819C271.734 214.78 267.701 212.903 266.199 209.628C265.806 208.769 265.556 207.814 264.918 207.116C263.457 205.516 260.868 206.04 258.763 205.521C254.972 204.587 253.041 200.16 253.182 196.258C253.21 195.488 253.294 194.707 253.126 193.955C252.784 192.418 251.484 191.318 250.486 190.099C246.381 185.084 247.385 177.302 251.16 172.033C252.419 170.277 254.033 168.42 253.753 166.278C253.597 165.08 252.858 164.054 252.338 162.964C250.656 159.432 251.442 154.879 254.21 152.114C254.634 151.69 255.125 151.263 255.242 150.673C255.315 150.3 255.224 149.915 255.153 149.541C254.071 143.866 258.259 137.719 263.936 136.648C264.279 136.583 264.634 136.531 264.93 136.349C265.776 135.826 265.717 134.614 265.761 133.62C265.881 130.996 267.544 125.991 269.414 124.146C274.599 119.033 280.228 122.489 282.266 124.146C282.266 124.146 287.39 142.62 286.909 146.163C286.428 149.705 284.487 158.596 285.786 162.476C287.085 166.355 289.331 174.334 287.989 178.013C286.647 181.692 287.988 195.457 287.988 195.457Z" fill="#1A2E35"/>
<path d="M321.264 349.33C321.264 349.33 361.319 360.416 362.926 360.981C365.339 361.831 364.933 370.672 361.179 370.534C359.402 370.469 330.412 371.613 326.749 371.384C323.086 371.155 312.035 366.801 312.035 366.801L321.264 349.33Z" fill="#5746EC"/>
<path d="M337.947 364.613C338.148 364.64 338.419 362.522 339.712 360.312C340.973 358.085 342.669 356.787 342.543 356.626C342.474 356.472 340.485 357.6 339.131 359.979C337.755 362.343 337.777 364.631 337.947 364.613Z" fill="#1A2E35"/>
<path d="M333.769 362.722C333.966 362.756 334.372 360.862 335.439 358.77C336.484 356.667 337.764 355.214 337.619 355.076C337.509 354.944 335.944 356.254 334.839 358.469C333.719 360.674 333.598 362.711 333.769 362.722Z" fill="#1A2E35"/>
<path d="M329.855 361.671C330.057 361.658 329.903 359.658 330.791 357.438C331.644 355.205 333.113 353.84 332.974 353.693C332.893 353.541 331.097 354.779 330.167 357.195C329.212 359.6 329.693 361.728 329.855 361.671Z" fill="#1A2E35"/>
<path d="M330.565 356.498C330.635 356.516 330.99 355.397 330.994 353.518C330.991 352.581 330.883 351.461 330.588 350.251C330.442 349.647 330.244 349.023 329.992 348.393C329.863 348.074 329.715 347.708 329.351 347.411C328.977 347.075 328.298 347.144 327.975 347.479C327.607 347.799 327.492 348.249 327.441 348.61C327.4 348.979 327.381 349.322 327.39 349.669C327.398 350.359 327.488 351.02 327.636 351.63C327.933 352.853 328.41 353.879 328.869 354.692C329.802 356.318 330.612 357.148 330.669 357.104C330.76 357.039 330.089 356.107 329.289 354.473C328.896 353.656 328.485 352.653 328.239 351.495C328.115 350.918 328.047 350.301 328.046 349.664C328.063 349.049 328.056 348.279 328.415 347.984C328.606 347.826 328.778 347.815 328.945 347.94C329.122 348.075 329.27 348.349 329.384 348.64C329.633 349.238 329.834 349.832 329.991 350.408C330.306 351.558 330.459 352.63 330.52 353.534C330.637 355.348 330.456 356.481 330.565 356.498Z" fill="#1A2E35"/>
<path d="M330.518 356.087C330.536 356.013 329.569 355.68 327.934 355.67C327.119 355.669 326.143 355.753 325.092 356.018C324.573 356.158 324.016 356.293 323.455 356.621C322.906 356.899 322.333 357.661 322.55 358.451C322.721 359.197 323.36 359.718 323.994 359.882C324.63 360.06 325.248 359.996 325.789 359.877C326.889 359.623 327.743 359.083 328.392 358.597C329.676 357.59 330.302 356.819 330.255 356.764C330.184 356.679 329.426 357.337 328.12 358.208C327.464 358.628 326.642 359.081 325.664 359.272C325.176 359.365 324.652 359.395 324.178 359.252C323.707 359.122 323.315 358.762 323.203 358.299C323.088 357.852 323.36 357.442 323.797 357.181C324.227 356.916 324.758 356.763 325.251 356.615C326.242 356.332 327.169 356.202 327.95 356.144C329.518 356.034 330.501 356.194 330.518 356.087Z" fill="#1A2E35"/>
<path d="M344.101 365.041C344.3 365.018 344.103 363.306 344.891 361.428C345.641 359.534 346.978 358.447 346.851 358.292C346.786 358.129 345.111 359.078 344.271 361.175C343.406 363.262 343.94 365.111 344.101 365.041Z" fill="#1A2E35"/>
<path d="M316.152 366.892C316.134 366.935 316.684 367.191 317.701 367.622C318.731 368.01 320.236 368.554 322.159 369.002C325.989 369.968 331.451 370.515 337.451 370.452C343.453 370.386 348.862 370.112 352.785 369.955C354.642 369.857 356.198 369.775 357.427 369.71C358.522 369.637 359.127 369.574 359.126 369.528C359.124 369.481 358.516 369.456 357.419 369.448C356.188 369.458 354.631 369.469 352.771 369.481C348.714 369.561 343.364 369.666 337.448 369.782C331.474 369.844 326.079 369.376 322.263 368.54C318.434 367.753 316.198 366.768 316.152 366.892Z" fill="#1A2E35"/>
<path d="M314.969 367.802C315.024 367.895 316.119 367.255 317.97 366.443C319.798 365.658 322.54 364.718 325.55 365.183C328.568 365.646 330.708 367.673 332.1 369.081C333.505 370.538 334.328 371.506 334.41 371.438C334.47 371.388 333.787 370.325 332.449 368.759C331.774 367.984 330.915 367.087 329.793 366.276C328.683 365.459 327.255 364.766 325.655 364.521C322.426 364.027 319.581 365.105 317.77 366.013C315.933 366.954 314.928 367.737 314.969 367.802Z" fill="#1A2E35"/>
<path d="M276.764 303.324L268.115 321.094C268.115 321.094 221.883 307.035 210.233 307.681C198.584 308.329 189.043 312.996 186.778 322.457C184.513 331.918 184.203 344.971 197.793 354.032C211.385 363.092 278.924 368.098 278.924 368.098H305.652L349.336 310.5L342.298 304.792L276.764 303.324Z" fill="#1A2E35"/>
<path d="M291.301 342.304C291.3 342.324 290.998 342.32 290.424 342.289C289.851 342.243 288.998 342.246 287.916 342.093C285.74 341.879 282.612 341.316 278.855 340.225C275.093 339.144 270.747 337.434 266.077 335.226C261.403 333.021 256.417 330.308 251.178 327.496C245.937 324.689 240.862 322.167 236.087 320.255C231.312 318.349 226.856 317.023 223.029 316.351C219.206 315.666 216.049 315.493 213.876 315.553C212.787 315.528 211.947 315.645 211.373 315.65C210.8 315.678 210.497 315.682 210.495 315.663C210.493 315.642 210.791 315.599 211.363 315.534C211.935 315.491 212.776 315.338 213.87 315.327C216.053 315.198 219.237 315.307 223.1 315.948C226.967 316.573 231.471 317.867 236.283 319.759C241.099 321.654 246.201 324.172 251.452 326.984C256.696 329.799 261.664 332.522 266.307 334.744C270.945 336.968 275.25 338.708 278.973 339.832C282.691 340.967 285.787 341.587 287.944 341.87C289.017 342.056 289.864 342.089 290.432 342.173C291.003 342.24 291.302 342.285 291.301 342.304Z" fill="#375A64"/>
<path d="M322.895 363.396C331.48 360.024 378.701 344.998 395.418 325.681C400.057 320.319 400.915 314.723 399.996 309.645C397.664 296.761 385.814 288.17 373.522 293.038C371.775 293.73 367.757 295.292 366.079 296.193C361.496 298.658 287.209 345.77 287.209 345.77C287.209 345.77 300.152 371.01 299.829 371.98L322.895 363.396Z" fill="#1A2E35"/>
<path d="M346.147 307.387C346.152 307.396 346.084 307.45 345.945 307.549C345.776 307.664 345.572 307.802 345.323 307.971C344.727 308.36 343.92 308.887 342.899 309.551C340.736 310.929 337.684 312.874 333.93 315.266C326.288 320.069 315.803 326.658 304.222 333.936C298.502 337.503 293.05 340.902 288.083 343.998L288.187 343.667C291.625 351.936 294.556 358.988 296.65 364.026C297.654 366.492 298.456 368.463 299.029 369.87C299.283 370.517 299.485 371.034 299.641 371.431C299.775 371.787 299.838 371.975 299.824 371.98C299.811 371.987 299.72 371.811 299.559 371.465C299.383 371.077 299.155 370.572 298.869 369.937C298.263 368.544 297.413 366.594 296.349 364.153C294.208 359.133 291.21 352.11 287.694 343.875L287.604 343.666L287.798 343.544C292.758 340.436 298.202 337.024 303.914 333.444C315.531 326.222 326.047 319.685 333.712 314.919C337.507 312.592 340.594 310.699 342.78 309.359C343.823 308.734 344.651 308.238 345.26 307.873C345.522 307.722 345.736 307.6 345.914 307.498C346.062 307.417 346.141 307.379 346.147 307.387Z" fill="#375A64"/>
<path d="M280.902 329.662C280.873 329.728 280.018 329.453 278.708 328.837C277.399 328.222 275.645 327.238 273.858 325.932C272.072 324.622 270.603 323.248 269.621 322.186C268.638 321.123 268.117 320.391 268.173 320.344C268.306 320.222 270.67 322.897 274.2 325.464C277.713 328.053 280.977 329.498 280.902 329.662Z" fill="#375A64"/>
<path d="M306.618 308.724C306.704 308.728 306.705 309.859 306.731 311.681C306.756 313.503 306.83 316.016 307.078 318.779C307.33 321.543 307.709 324.028 308.012 325.825C308.313 327.622 308.515 328.734 308.432 328.754C308.359 328.771 308.016 327.69 307.609 325.904C307.202 324.118 306.754 321.621 306.5 318.832C306.249 316.042 306.242 313.505 306.321 311.675C306.401 309.846 306.544 308.72 306.618 308.724Z" fill="#375A64"/>
<path d="M312.146 308.113C312.149 308.085 312.365 308.059 312.725 308.192C313.084 308.32 313.569 308.644 313.954 309.225C314.318 309.798 314.605 310.671 314.304 311.604C314.026 312.556 312.991 313.256 311.908 313.291C310.831 313.361 309.716 312.764 309.377 311.815C309.028 310.882 309.326 309.991 309.706 309.429C310.106 308.852 310.625 308.553 310.999 308.468C311.376 308.377 311.588 308.442 311.586 308.468C311.625 308.565 310.68 308.557 310.053 309.646C309.762 310.156 309.578 310.922 309.871 311.611C310.145 312.308 310.991 312.761 311.88 312.711C312.774 312.672 313.564 312.148 313.8 311.428C314.062 310.713 313.88 309.959 313.602 309.434C313.001 308.337 312.097 308.208 312.146 308.113Z" fill="#375A64"/>
<path d="M289.301 306.244C289.331 306.23 289.504 306.53 289.707 307.121C289.913 307.709 290.1 308.609 290.096 309.733C290.095 310.856 289.854 312.204 289.235 313.567C288.623 314.925 287.59 316.285 286.152 317.27C284.696 318.233 283.047 318.676 281.557 318.73C280.062 318.791 278.721 318.506 277.682 318.083C276.639 317.662 275.875 317.151 275.408 316.738C274.939 316.326 274.727 316.054 274.75 316.032C274.824 315.931 275.775 316.987 277.823 317.697C278.836 318.055 280.117 318.282 281.53 318.198C282.937 318.117 284.474 317.682 285.828 316.789C287.164 315.873 288.146 314.614 288.751 313.34C289.361 312.064 289.635 310.792 289.685 309.719C289.799 307.554 289.18 306.275 289.301 306.244Z" fill="#375A64"/>
<path d="M333.361 315.037C333.359 315.101 332.662 315.15 331.608 314.79C330.569 314.443 329.185 313.598 328.239 312.153C327.296 310.706 327.079 309.099 327.18 308.007C327.273 306.898 327.597 306.279 327.658 306.303C327.748 306.329 327.574 306.976 327.59 308.02C327.597 309.054 327.865 310.516 328.726 311.836C329.588 313.153 330.818 313.987 331.762 314.41C332.712 314.844 333.375 314.943 333.361 315.037Z" fill="#375A64"/>
<path d="M356.458 350.363C356.455 350.356 356.552 350.304 356.742 350.209C356.949 350.107 357.23 349.971 357.59 349.794C358.358 349.426 359.457 348.895 360.865 348.217C363.701 346.836 367.814 344.849 372.774 342.167C377.719 339.481 383.568 336.091 389.214 331.228C392.012 328.79 394.756 325.957 397.078 322.665C399.306 319.316 400.245 315.025 399.924 310.786C399.743 308.662 399.215 306.592 398.361 304.703C397.937 303.759 397.423 302.862 396.838 302.027C396.244 301.196 395.584 300.421 394.892 299.69C393.497 298.232 391.971 296.951 390.471 295.705C388.984 294.455 387.433 293.319 385.651 292.823C383.887 292.3 382.059 292.21 380.307 292.231C378.551 292.261 376.849 292.46 375.234 292.793C371.989 293.436 369.152 294.705 366.671 296.027C361.749 298.756 357.761 300.966 354.984 302.505C353.615 303.258 352.545 303.845 351.801 304.256C351.447 304.445 351.171 304.593 350.967 304.701C350.779 304.801 350.681 304.849 350.678 304.843C350.674 304.838 350.766 304.777 350.948 304.667C351.147 304.551 351.417 304.391 351.762 304.188C352.499 303.764 353.558 303.155 354.911 302.374C357.658 300.816 361.603 298.529 366.543 295.789C369.023 294.447 371.889 293.147 375.169 292.481C376.802 292.138 378.522 291.929 380.3 291.893C382.072 291.868 383.928 291.95 385.753 292.485C387.601 292.993 389.215 294.174 390.704 295.423C392.209 296.667 393.747 297.954 395.163 299.43C395.867 300.17 396.54 300.958 397.146 301.809C397.747 302.661 398.274 303.58 398.708 304.545C399.583 306.477 400.121 308.59 400.307 310.754C400.633 315.074 399.678 319.442 397.391 322.872C395.028 326.215 392.27 329.043 389.445 331.495C383.753 336.372 377.871 339.746 372.903 342.406C367.919 345.061 363.786 347.012 360.929 348.352C359.508 349.003 358.397 349.511 357.623 349.865C357.256 350.027 356.969 350.152 356.758 350.244C356.562 350.329 356.461 350.368 356.458 350.363Z" fill="#375A64"/>
<path d="M290.322 349.582C290.322 349.582 250.134 360.172 248.52 360.717C246.096 361.538 246.391 370.382 250.148 370.291C251.926 370.248 280.899 371.751 284.565 371.566C288.23 371.383 298.135 367.611 298.135 367.611L290.322 349.582Z" fill="#5746EC"/>
<path d="M273.452 364.656C273.251 364.681 273.006 362.559 271.74 360.335C270.507 358.09 268.827 356.771 268.954 356.612C269.026 356.459 271.001 357.612 272.326 360.006C273.672 362.388 273.621 364.676 273.452 364.656Z" fill="#1A2E35"/>
<path d="M277.65 362.816C277.454 362.847 277.072 360.949 276.03 358.844C275.012 356.727 273.75 355.259 273.895 355.123C274.007 354.992 275.556 356.323 276.634 358.55C277.727 360.769 277.822 362.808 277.65 362.816Z" fill="#1A2E35"/>
<path d="M281.579 361.815C281.377 361.8 281.556 359.801 280.694 357.572C279.871 355.328 278.418 353.944 278.559 353.8C278.642 353.648 280.422 354.908 281.322 357.337C282.246 359.752 281.74 361.874 281.579 361.815Z" fill="#1A2E35"/>
<path d="M280.933 356.632C280.863 356.649 280.521 355.526 280.541 353.646C280.556 352.71 280.677 351.591 280.987 350.385C281.142 349.783 281.347 349.16 281.606 348.533C281.74 348.216 281.893 347.853 282.26 347.56C282.637 347.23 283.316 347.307 283.633 347.645C283.998 347.969 284.107 348.422 284.154 348.784C284.19 349.153 284.206 349.495 284.192 349.842C284.175 350.532 284.077 351.191 283.922 351.801C283.611 353.02 283.122 354.04 282.65 354.847C281.698 356.46 280.879 357.282 280.822 357.236C280.731 357.17 281.414 356.246 282.233 354.623C282.637 353.81 283.06 352.812 283.32 351.658C283.452 351.082 283.527 350.466 283.536 349.831C283.526 349.214 283.544 348.445 283.189 348.144C283 347.984 282.827 347.972 282.659 348.094C282.481 348.227 282.329 348.499 282.212 348.789C281.956 349.384 281.746 349.975 281.583 350.548C281.253 351.695 281.088 352.766 281.014 353.669C280.875 355.481 281.043 356.617 280.933 356.632Z" fill="#1A2E35"/>
<path d="M280.989 356.227C280.971 356.155 281.941 355.834 283.577 355.843C284.39 355.852 285.366 355.949 286.414 356.226C286.931 356.372 287.487 356.514 288.044 356.849C288.589 357.135 289.154 357.903 288.926 358.691C288.745 359.433 288.101 359.947 287.466 360.103C286.825 360.273 286.209 360.202 285.668 360.075C284.573 359.809 283.725 359.258 283.083 358.765C281.812 357.742 281.195 356.962 281.243 356.908C281.315 356.823 282.065 357.491 283.358 358.379C284.009 358.806 284.827 359.27 285.802 359.473C286.288 359.572 286.812 359.607 287.288 359.47C287.761 359.346 288.157 358.992 288.275 358.531C288.395 358.084 288.129 357.671 287.694 357.405C287.268 357.134 286.738 356.975 286.248 356.821C285.261 356.525 284.336 356.384 283.555 356.316C281.988 356.188 281.004 356.335 280.989 356.227Z" fill="#1A2E35"/>
<path d="M267.293 365.01C267.095 364.985 267.313 363.275 266.547 361.387C265.821 359.484 264.497 358.381 264.626 358.228C264.693 358.065 266.357 359.036 267.172 361.141C268.01 363.239 267.454 365.082 267.293 365.01Z" fill="#1A2E35"/>
<path d="M295.217 367.204C295.234 367.247 294.68 367.497 293.659 367.914C292.625 368.289 291.112 368.815 289.184 369.24C285.342 370.158 279.873 370.638 273.875 370.5C267.874 370.36 262.469 370.02 258.547 369.814C256.692 369.693 255.138 369.591 253.91 369.511C252.816 369.424 252.211 369.354 252.213 369.309C252.215 369.263 252.823 369.244 253.921 369.25C255.15 369.274 256.709 369.305 258.568 369.341C262.625 369.471 267.972 369.641 273.886 369.829C279.858 369.967 285.26 369.565 289.086 368.776C292.924 368.038 295.171 367.079 295.217 367.204Z" fill="#1A2E35"/>
<path d="M296.386 368.133C296.33 368.224 295.243 367.57 293.403 366.735C291.584 365.929 288.854 364.955 285.84 365.382C282.815 365.807 280.65 367.808 279.24 369.199C277.818 370.638 276.982 371.597 276.902 371.528C276.842 371.477 277.539 370.421 278.896 368.872C279.581 368.107 280.45 367.221 281.583 366.422C282.702 365.621 284.139 364.944 285.742 364.719C288.977 364.265 291.808 365.379 293.608 366.309C295.433 367.272 296.428 368.067 296.386 368.133Z" fill="#1A2E35"/>
<path d="M256.187 369.369C256.115 369.32 256.463 368.794 256.79 367.863C257.12 366.941 257.382 365.57 257.131 364.102C256.876 362.634 256.172 361.429 255.554 360.671C254.935 359.902 254.432 359.524 254.482 359.453C254.514 359.399 255.11 359.67 255.843 360.415C256.57 361.147 257.392 362.415 257.667 364.01C257.941 365.605 257.589 367.075 257.148 368.007C256.706 368.954 256.235 369.408 256.187 369.369Z" fill="#1A2E35"/>
<path d="M288.474 193.493L267.812 199.284L274.529 263.566C274.529 263.566 270.667 286.517 270.667 292.548C270.667 300.384 276.765 303.327 276.765 303.327L342.772 305.32L346.145 302.4C347.881 300.364 348.682 297.693 348.349 295.037L336.085 196.95L313.108 191.966L288.474 193.493Z" fill="#03C4DC"/>
<path d="M274.605 263.488C274.592 263.49 274.549 263.322 274.482 263.001C274.411 262.641 274.318 262.173 274.204 261.594C273.971 260.324 273.647 258.563 273.252 256.407C272.478 251.981 271.422 245.942 270.255 239.269C269.131 232.588 268.114 226.541 267.369 222.111C267.022 219.946 266.741 218.178 266.537 216.903C266.451 216.318 266.383 215.847 266.33 215.483C266.286 215.157 266.269 214.985 266.283 214.983C266.296 214.981 266.338 215.148 266.406 215.469C266.477 215.829 266.569 216.295 266.684 216.876C266.917 218.145 267.239 219.906 267.636 222.062C268.409 226.489 269.465 232.528 270.633 239.204C271.756 245.885 272.773 251.931 273.52 256.362C273.866 258.527 274.148 260.295 274.351 261.57C274.436 262.154 274.505 262.626 274.558 262.989C274.601 263.313 274.618 263.485 274.605 263.488Z" fill="#1A2E35"/>
<path d="M316.006 193.136C316.022 193.157 315.683 193.425 315.055 193.89C314.736 194.116 314.322 194.357 313.851 194.653C313.355 194.902 312.809 195.232 312.159 195.492C310.88 196.063 309.286 196.592 307.47 196.954C305.654 197.32 303.623 197.526 301.493 197.576C299.36 197.627 297.331 197.531 295.492 197.39C293.656 197.255 291.997 197.059 290.63 196.754C289.26 196.452 288.193 196.045 287.487 195.705C287.136 195.531 286.869 195.387 286.697 195.274C286.522 195.165 286.434 195.102 286.441 195.09C286.458 195.06 286.834 195.27 287.549 195.568C288.264 195.864 289.327 196.224 290.684 196.488C292.041 196.757 293.684 196.922 295.519 197.038C297.35 197.159 299.368 197.244 301.482 197.193C303.597 197.142 305.605 196.95 307.402 196.607C309.2 196.269 310.778 195.774 312.052 195.243C314.624 194.202 315.951 193.05 316.006 193.136Z" fill="#1A2E35"/>
<path d="M337.349 292.271C337.35 292.285 337.195 292.316 336.899 292.362C336.561 292.411 336.132 292.473 335.6 292.55C335.036 292.631 334.344 292.72 333.538 292.789C332.731 292.863 331.814 292.969 330.795 293.017C328.762 293.163 326.332 293.227 323.636 293.188C320.939 293.126 317.976 292.949 314.884 292.587C311.793 292.209 308.871 291.683 306.236 291.108C303.606 290.508 301.261 289.873 299.318 289.253C298.34 288.964 297.474 288.645 296.708 288.383C295.941 288.125 295.289 287.876 294.759 287.664C294.261 287.465 293.857 287.303 293.541 287.176C293.264 287.061 293.121 286.995 293.127 286.981C293.132 286.97 293.284 287.012 293.569 287.104C293.891 287.213 294.303 287.352 294.81 287.523C295.347 287.714 296.004 287.942 296.776 288.181C297.547 288.422 298.416 288.723 299.397 288.993C301.343 289.579 303.688 290.184 306.312 290.762C308.941 291.316 311.852 291.83 314.93 292.207C318.01 292.567 320.959 292.754 323.644 292.835C326.329 292.892 328.75 292.857 330.78 292.746C331.796 292.716 332.713 292.629 333.518 292.575C334.325 292.527 335.018 292.46 335.584 292.401C336.118 292.354 336.55 292.316 336.89 292.287C337.189 292.263 337.347 292.258 337.349 292.271Z" fill="#1A2E35"/>
<path d="M345.006 237.16C344.981 237.167 344.869 236.848 344.692 236.267C344.513 235.684 344.272 234.839 343.985 233.789C343.413 231.69 342.678 228.776 341.957 225.535C341.237 222.293 340.665 219.342 340.294 217.198C340.106 216.127 339.967 215.258 339.882 214.655C339.797 214.053 339.762 213.718 339.787 213.713C339.815 213.708 339.899 214.035 340.029 214.629C340.171 215.3 340.348 216.142 340.559 217.148C340.999 219.277 341.611 222.215 342.331 225.451C343.052 228.688 343.744 231.608 344.248 233.721C344.483 234.721 344.679 235.561 344.835 236.228C344.97 236.821 345.031 237.152 345.006 237.16Z" fill="#1A2E35"/>
<g opacity="0.300003">
<g opacity="0.300003">
<path opacity="0.300003" d="M295.687 196.414C296.513 199.286 295.745 203.473 296.15 206.045C297.773 216.339 298.554 226.803 297.805 237.198C297.765 237.764 297.722 238.35 297.912 238.886C298.084 239.375 298.435 239.777 298.748 240.19C300.838 242.956 301.379 246.649 300.957 250.089C300.536 253.53 299.246 256.794 297.966 260.016C297.893 257.241 298.04 253.09 298.259 250.321C298.304 249.769 298.585 250.123 298.601 249.57C298.695 246.242 298.137 243.153 295.8 240.781C295.331 240.306 294.795 239.877 294.476 239.29C294.182 238.751 294.101 238.124 294.026 237.514C292.593 225.892 291.612 214.214 291.089 202.517C291.058 201.854 291.051 201.124 291.467 200.607C291.795 200.199 292.317 200.014 292.755 199.725C293.65 199.135 294.209 198.091 295.177 197.633" fill="black"/>
</g>
</g>
<path d="M267.811 199.281C267.811 199.281 248.946 203.727 253.522 232.002C255.13 241.941 258.222 256.711 264.778 272.149C267.868 279.426 274.872 284.432 282.71 283.406C286.134 282.957 289.526 283.501 291.819 282.118C295.299 280.02 296.814 272.946 297.47 265.313C297.917 260.116 297.73 254.699 298.418 250.261C299.543 243.017 296.218 239.603 291.965 238.756L275.291 235.432L274.332 244.252L267.811 199.281Z" fill="#03C4DC"/>
<path d="M281.098 255.553C281.145 255.516 281.413 255.894 282.06 256.377C282.695 256.859 283.753 257.423 285.174 257.613C286.588 257.819 288.32 257.572 290.11 256.911C291.892 256.235 293.856 255.334 295.441 253.839C297.014 252.34 297.928 250.363 298.21 248.506C298.506 246.637 298.165 244.908 297.618 243.586C296.487 240.906 294.852 239.845 294.965 239.752C294.987 239.722 295.392 239.949 296.006 240.517C296.615 241.082 297.419 242.026 298.051 243.399C298.681 244.758 299.099 246.594 298.817 248.595C298.551 250.58 297.594 252.707 295.9 254.321C294.196 255.922 292.161 256.823 290.315 257.489C288.449 258.143 286.601 258.36 285.101 258.079C283.598 257.815 282.509 257.146 281.895 256.577C281.269 256.005 281.072 255.569 281.098 255.553Z" fill="#1A2E35"/>
<path d="M263.764 269.669C263.823 269.649 264.118 270.559 264.893 272.087C265.662 273.608 266.994 275.74 269.19 277.859C271.369 279.971 274.512 282.003 278.424 282.964C282.294 283.928 286.95 283.848 291.2 282.068C293.335 281.204 294.106 278.831 294.924 276.851C295.677 274.794 296.177 272.726 296.514 270.732C297.193 266.74 297.351 263.071 297.579 260.001C297.8 257.001 297.98 254.539 298.113 252.725C298.185 251.928 298.244 251.276 298.292 250.749C298.34 250.297 298.376 250.061 298.399 250.062C298.422 250.064 298.431 250.303 298.426 250.757C298.411 251.285 298.393 251.941 298.371 252.74C298.292 254.557 298.182 257.024 298.049 260.029C297.881 263.101 297.772 266.783 297.12 270.834C296.794 272.857 296.3 274.967 295.536 277.076C295.134 278.126 294.713 279.178 294.13 280.209C293.567 281.242 292.618 282.192 291.481 282.673C287.026 284.537 282.263 284.58 278.274 283.559C274.253 282.538 271.043 280.398 268.862 278.196C266.659 275.986 265.366 273.776 264.66 272.201C264.295 271.414 264.071 270.778 263.935 270.344C263.801 269.908 263.742 269.677 263.764 269.669Z" fill="#1A2E35"/>
<path d="M270.048 257.41C269.956 257.403 269.979 256.105 270.09 254.012C270.201 251.92 270.399 249.034 270.659 245.849C270.798 244.253 270.905 242.749 271.072 241.351C271.247 239.958 271.648 238.67 272.356 237.803C273.049 236.937 273.898 236.52 274.495 236.408C275.102 236.286 275.437 236.41 275.429 236.439C275.428 236.499 275.095 236.47 274.563 236.657C274.037 236.834 273.312 237.271 272.733 238.087C271.495 239.722 271.644 242.744 271.323 245.904C271.062 249.088 270.79 251.969 270.559 254.051C270.328 256.133 270.14 257.418 270.048 257.41Z" fill="#1A2E35"/>
<path d="M275.937 227.373C275.768 226.478 275.504 225.185 275.164 223.592C274.482 220.405 273.496 216.012 272.366 211.168C271.793 208.754 271.299 206.425 270.575 204.364C269.862 202.305 268.896 200.54 267.809 199.281L267.444 199.577C268.444 200.827 269.329 202.541 269.994 204.563C270.67 206.581 271.144 208.9 271.717 211.32C272.847 216.163 273.907 220.538 274.704 223.698C275.104 225.278 275.439 226.554 275.684 227.432C275.93 228.311 276.087 228.791 276.132 228.781C276.176 228.771 276.105 228.269 275.937 227.373Z" fill="#1A2E35"/>
<g opacity="0.300003">
<g opacity="0.300003">
<path opacity="0.300003" d="M276.112 233.455C274.595 233.407 273.128 234.042 271.867 234.888C269.115 236.736 267.129 239.643 266.251 242.838C265.373 246.034 265.583 249.494 266.688 252.619C267.031 253.593 267.698 254.696 268.73 254.655C269.944 254.607 270.434 253.093 270.602 251.89C271.069 248.558 271.534 245.225 272 241.893C272.159 240.761 272.327 239.597 272.886 238.598C273.445 237.601 274.492 236.79 275.633 236.853C275.737 235.667 275.841 234.48 275.944 233.293" fill="black"/>
</g>
</g>
<path d="M388.393 248.664C388.393 248.664 391.921 243.374 392.29 235.579C392.66 227.784 390.44 221.193 390.44 221.193L370.398 214.981L370.271 221.672L388.393 248.664Z" fill="#03C4DC"/>
<path d="M370.267 221.673L336.081 196.948V198.661L339.774 237.153C339.774 237.153 368.035 249.813 375.521 251.677C383.007 253.541 388.389 248.665 388.389 248.665L370.267 221.673Z" fill="#03C4DC"/>
<path d="M380.406 240.364C380.389 240.39 380.108 240.256 379.632 239.954C379.154 239.656 378.495 239.169 377.75 238.488C376.25 237.136 374.51 234.892 373.184 232.112C371.856 229.333 371.091 226.651 370.578 224.72C370.325 223.75 370.14 222.962 370.023 222.414C369.905 221.868 369.857 221.561 369.89 221.552C369.958 221.534 370.327 222.716 370.914 224.623C371.51 226.526 372.321 229.166 373.628 231.898C374.932 234.629 376.584 236.848 377.992 238.237C379.392 239.641 380.456 240.29 380.406 240.364Z" fill="#1A2E35"/>
<path d="M390.339 226.039C390.336 226.072 390.022 226.075 389.452 226.05C388.884 226.032 388.063 225.946 387.056 225.788C385.044 225.476 382.291 224.759 379.46 223.449C376.631 222.129 374.308 220.488 372.771 219.151C372.001 218.484 371.406 217.912 371.026 217.489C370.641 217.07 370.439 216.828 370.464 216.804C370.524 216.744 371.414 217.63 372.993 218.882C374.569 220.136 376.883 221.703 379.668 223.002C382.455 224.291 385.145 225.049 387.119 225.446C389.095 225.846 390.345 225.954 390.339 226.039Z" fill="#1A2E35"/>
<path d="M371.776 237.152C371.73 237.176 371.229 236.411 370.712 235.032C370.187 233.658 369.731 231.656 369.575 229.423C369.419 227.188 369.515 225.167 369.62 223.714C369.729 222.26 369.848 221.366 369.915 221.368C369.984 221.372 369.988 222.275 369.968 223.729C369.953 225.182 369.912 227.187 370.066 229.387C370.22 231.585 370.613 233.545 371.042 234.921C371.464 236.299 371.85 237.114 371.776 237.152Z" fill="#1A2E35"/>
<path d="M335.571 211.73C335.604 211.722 335.729 212.096 335.927 212.777C336.126 213.459 336.392 214.45 336.706 215.68C337.335 218.139 338.141 221.552 338.934 225.342C339.727 229.133 340.358 232.582 340.768 235.087C340.973 236.34 341.126 237.355 341.218 238.059C341.31 238.763 341.346 239.154 341.312 239.16C341.279 239.166 341.18 238.785 341.03 238.091C340.866 237.295 340.664 236.311 340.425 235.15C339.897 232.556 339.212 229.178 338.452 225.442C337.65 221.717 336.925 218.348 336.368 215.76C336.12 214.6 335.91 213.619 335.741 212.822C335.6 212.127 335.538 211.739 335.571 211.73Z" fill="#1A2E35"/>
<path d="M275.083 238.916L279.273 192.565L293.155 198.046L294.942 245.192C294.942 245.192 290.498 251.914 282.995 249.156C275.493 246.397 275.083 238.916 275.083 238.916Z" fill="#FBB292"/>
<path d="M277.782 151.972L303.738 174.801L299.039 191.848L297.156 192.406L274.464 169.182L275.899 152.53L277.782 151.972Z" fill="#1A2E35"/>
<path d="M275.902 152.531L301.857 175.361L297.159 192.406L272.583 169.741L275.902 152.531Z" fill="#375A64"/>
<path d="M293.741 199.531C293.741 199.531 296.409 196.735 296.349 193.151C296.289 189.658 295.325 181.25 295.325 181.25C295.325 181.25 299.833 171.759 299.719 170.497C299.607 169.235 299.4 169.254 297.781 169.763C296.162 170.272 291.137 178.925 291.137 178.925L289.495 172.508C289.495 172.508 293.675 165.772 294.006 164.833C294.338 163.895 294.893 163.118 293.844 163.031C292.795 162.943 284.946 170.556 284.946 170.556L285.579 177.586C285.579 177.586 285.423 178.145 284.294 177.156C283.163 176.168 283.449 167.783 283.449 167.783C283.449 167.783 286.124 162.817 286.059 162.097C285.995 161.376 286.548 160.599 286.022 159.374C285.495 158.149 283.956 159.56 283.956 159.56L278.744 166.39L276.888 159.631C276.888 159.631 276.966 158.19 275.092 158.178L275.817 180.1L280.565 196.968L293.741 199.531Z" fill="#FBB292"/>
<path d="M294.941 245.191C294.941 245.191 294.902 244.911 294.868 244.366C294.838 243.788 294.794 242.983 294.739 241.951C294.645 239.798 294.506 236.696 294.331 232.749C294.014 224.764 293.561 213.37 293.014 199.582L293.008 199.449L293.121 199.353C294.182 198.442 295.09 197.197 295.63 195.805C296.199 194.401 296.256 192.853 296.156 191.243C295.992 188.032 295.593 184.693 295.147 181.281L295.134 181.19L295.173 181.106C296.022 179.3 296.871 177.441 297.696 175.534C298.107 174.579 298.516 173.613 298.892 172.63C299.077 172.139 299.257 171.643 299.401 171.148L299.493 170.783C299.507 170.669 299.521 170.595 299.523 170.477C299.501 170.225 299.461 169.95 299.394 169.816C299.445 169.664 298.73 169.82 298.27 169.98C297.971 170.068 297.856 170.129 297.656 170.292C297.466 170.445 297.282 170.625 297.105 170.825C296.393 171.61 295.753 172.507 295.126 173.409C293.878 175.224 292.698 177.135 291.553 179.079L291.144 179.773L290.945 178.995C290.424 176.963 289.865 174.781 289.301 172.579L289.266 172.444L289.34 172.322C290.011 171.224 290.734 170.042 291.459 168.855C292.267 167.489 293.155 166.084 293.807 164.742C293.943 164.366 294.129 163.978 294.219 163.661C294.268 163.488 294.24 163.412 294.236 163.427C294.234 163.411 294.026 163.335 293.921 163.367C293.88 163.375 293.695 163.465 293.543 163.556C293.388 163.641 293.231 163.766 293.075 163.869C292.765 164.092 292.456 164.328 292.156 164.574C289.749 166.55 287.497 168.683 285.303 170.779L285.401 170.515C285.614 172.892 285.822 175.237 286.029 177.545L286.035 177.61L286.018 177.661C285.907 177.998 285.58 178.07 285.395 178.05C285.201 178.033 285.069 177.968 284.939 177.907C284.693 177.777 284.491 177.623 284.303 177.462C283.832 177.041 283.747 176.484 283.625 176.033C283.429 175.083 283.366 174.151 283.31 173.225C283.213 171.374 283.216 169.558 283.268 167.761L283.27 167.691L283.305 167.624C284.218 165.879 285.18 164.127 285.819 162.396C285.85 162.295 285.881 162.18 285.882 162.137C285.89 162.059 285.874 161.864 285.894 161.745C285.923 161.478 285.981 161.242 286.021 161.019C286.104 160.574 286.109 160.159 285.976 159.755C285.834 159.295 285.692 159.107 285.34 159.171C284.988 159.238 284.591 159.499 284.282 159.764L284.318 159.726C282.503 162.095 280.766 164.361 279.092 166.545L278.754 166.986L278.608 166.451C277.972 164.11 277.358 161.857 276.768 159.688L276.758 159.655V159.606C276.761 159.252 276.573 158.882 276.283 158.694C275.99 158.493 275.605 158.419 275.218 158.416L275.471 158.158C275.728 167.076 275.943 174.472 276.106 180.083L276.1 180.048C277.141 184.075 277.945 187.193 278.498 189.34C278.755 190.373 278.954 191.17 279.096 191.743C279.226 192.283 279.272 192.565 279.272 192.565C279.272 192.565 279.171 192.298 279.014 191.764C278.852 191.197 278.628 190.407 278.336 189.383C277.748 187.245 276.895 184.141 275.791 180.13L275.786 180.113L275.785 180.093C275.576 174.484 275.301 167.09 274.97 158.175L274.96 157.914L275.222 157.916C275.663 157.919 276.143 157.991 276.571 158.274C276.998 158.565 277.279 159.063 277.273 159.634L277.264 159.552C277.865 161.718 278.49 163.968 279.139 166.304L278.655 166.211C280.319 164.021 282.047 161.747 283.852 159.371L283.871 159.346L283.887 159.333C284.277 159.007 284.67 158.714 285.237 158.59C285.514 158.529 285.903 158.591 286.143 158.835C286.391 159.077 286.463 159.346 286.546 159.581C286.712 160.076 286.705 160.637 286.611 161.124C286.568 161.369 286.514 161.598 286.492 161.805C286.479 161.925 286.489 161.97 286.484 162.13C286.478 162.328 286.432 162.443 286.398 162.572C285.71 164.446 284.773 166.137 283.851 167.918L283.887 167.782C283.842 169.556 283.843 171.369 283.942 173.19C283.999 174.098 284.065 175.02 284.25 175.898C284.357 176.331 284.462 176.761 284.714 176.972C284.883 177.115 285.061 177.246 285.231 177.335C285.312 177.374 285.401 177.409 285.443 177.41L285.46 177.409C285.461 177.417 285.474 177.468 285.481 177.476L285.492 177.493L285.5 177.497L285.52 177.509L285.558 177.526L285.569 177.53C285.725 177.587 285.369 177.453 285.403 177.47L285.398 177.487L285.387 177.603C285.178 175.294 284.965 172.952 284.749 170.574L284.735 170.417L284.848 170.309C287.052 168.198 289.295 166.068 291.739 164.057C292.047 163.807 292.363 163.565 292.691 163.327C292.863 163.214 293.016 163.092 293.205 162.985C293.4 162.885 293.547 162.753 293.904 162.703C294.177 162.692 294.397 162.713 294.696 162.948C294.997 163.248 294.914 163.639 294.861 163.831C294.73 164.276 294.562 164.603 294.431 164.975C293.697 166.496 292.855 167.795 292.031 169.199C291.302 170.389 290.579 171.573 289.906 172.672L289.946 172.414C290.508 174.615 291.067 176.798 291.587 178.831L290.98 178.747C292.137 176.785 293.32 174.873 294.586 173.037C295.225 172.121 295.867 171.218 296.627 170.383C296.813 170.173 297.017 169.969 297.253 169.781C297.464 169.588 297.856 169.411 298.078 169.359C298.344 169.279 298.605 169.197 298.901 169.14C299.046 169.112 299.213 169.09 299.414 169.118C299.622 169.133 299.88 169.32 299.963 169.507C300.129 169.863 300.131 170.138 300.166 170.417C300.169 170.564 300.151 170.76 300.126 170.909L300.022 171.322C299.866 171.855 299.68 172.359 299.491 172.859C299.107 173.857 298.694 174.827 298.279 175.786C297.445 177.701 296.592 179.56 295.734 181.372L295.761 181.197C296.202 184.628 296.591 187.966 296.747 191.217C296.844 192.821 296.781 194.521 296.166 196.014C295.571 197.508 294.641 198.788 293.461 199.791L293.568 199.562C294.017 213.355 294.389 224.751 294.649 232.737C294.761 236.687 294.846 239.791 294.907 241.946C294.927 242.979 294.943 243.783 294.954 244.363C294.96 244.909 294.941 245.191 294.941 245.191Z" fill="#8E3823"/>
<path d="M279.829 178.281C279.647 178.301 279.286 175.617 279.023 172.288C278.761 168.958 278.698 166.252 278.881 166.242C279.065 166.234 279.426 168.917 279.687 172.235C279.948 175.554 280.012 178.261 279.829 178.281Z" fill="#8E3823"/>
<path d="M244.718 186.055L229.896 156.091C238.131 138.232 241.69 117.946 239.16 96.9893C231.886 36.7159 177.129 -6.24638 116.857 1.02753C56.585 8.30142 13.6217 63.0576 20.8956 123.33C28.1695 183.602 82.9258 226.565 143.198 219.291C168.366 216.254 190.494 204.917 207.228 188.377L207.196 188.431L244.718 186.055Z" fill="#FAFAFA"/>
<path d="M244.715 186.052C243.945 186.103 231.574 186.921 207.201 188.535L206.996 188.549L207.101 188.372C207.11 188.358 207.121 188.338 207.132 188.319L207.301 188.451C204.706 190.941 201.899 193.592 198.672 196.125C197.101 197.446 195.367 198.656 193.631 199.96C191.836 201.183 190.015 202.476 188.051 203.659C180.3 208.539 171.059 212.866 160.54 215.927C150.033 219.019 138.188 220.597 125.635 220.18C113.089 219.724 99.8329 216.975 86.9577 211.503C74.0947 206.042 61.6433 197.794 51.0111 186.879C40.3476 176.014 31.6707 162.363 26.2198 147.009C20.7358 131.675 18.6394 114.598 20.5891 97.536C20.767 95.3952 21.1832 93.2799 21.4983 91.1457C21.854 89.0181 22.3497 86.9085 22.7905 84.7847C23.8567 80.5797 25.0241 76.369 26.584 72.269C28.04 68.1311 29.8998 64.1266 31.8477 60.1543C33.9156 56.2435 36.099 52.3601 38.6353 48.6829C41.1413 44.862 43.9907 41.3078 46.9082 37.852L49.1862 35.3413L50.3261 34.0916L51.52 32.8959L53.904 30.509L56.3882 28.2396C63.0198 22.2059 70.376 17.1305 78.103 12.9936C80.0092 11.9085 82.0082 11.0193 83.9683 10.0685C85.9369 9.13481 87.969 8.3591 89.9594 7.50673C92.0037 6.79344 94.0093 5.98648 96.0659 5.35643C98.1292 4.74532 100.159 4.04527 102.245 3.57132C110.523 1.43616 118.928 0.278244 127.23 0.0426941C143.855 -0.44072 159.978 3.03777 174.158 9.24551C188.38 15.4428 200.622 24.4498 210.318 34.7935C220.04 45.1411 227.256 56.813 231.984 68.5814C234.364 74.4627 236.157 80.3593 237.473 86.1451C237.761 87.6001 238.047 89.0427 238.329 90.4722C238.628 91.8978 238.772 93.3376 238.998 94.7491C239.101 95.4567 239.204 96.1605 239.306 96.8615C239.379 97.5654 239.453 98.2664 239.525 98.9636C239.686 100.358 239.79 101.742 239.869 103.115C240.58 114.096 239.576 124.249 237.658 133.151C236.697 137.605 235.527 141.76 234.214 145.592C232.889 149.42 231.444 152.928 229.986 156.132L229.986 156.043C239.529 175.486 244.393 185.397 244.715 186.052C244.39 185.4 239.464 175.518 229.801 156.134L229.78 156.091L229.8 156.046C231.246 152.844 232.677 149.339 233.99 145.516C235.291 141.688 236.449 137.54 237.398 133.095C239.292 124.211 240.274 114.085 239.549 103.135C239.467 101.767 239.361 100.386 239.199 98.9976C239.125 98.3023 239.052 97.6032 238.977 96.9013C238.874 96.2021 238.771 95.5012 238.667 94.7954C238.439 93.3887 238.295 91.9536 237.994 90.5327C237.71 89.108 237.423 87.6701 237.135 86.2208C235.815 80.4539 234.019 74.5801 231.64 68.7214C226.916 56.9984 219.712 45.3766 210.018 35.0764C200.349 24.78 188.146 15.8175 173.98 9.65417C159.852 3.48143 143.796 0.02565 127.243 0.513794C118.976 0.751236 110.607 1.90823 102.366 4.03676C100.289 4.50882 98.2682 5.20697 96.2144 5.81525C94.1663 6.44341 92.1702 7.24751 90.1354 7.95798C88.1535 8.8075 86.1309 9.5804 84.1717 10.5094C82.2201 11.4573 80.2296 12.3427 78.3329 13.424C70.6408 17.543 63.3177 22.5966 56.7165 28.6038L54.2436 30.8638L51.871 33.2411L50.6828 34.4312L49.5476 35.6752L47.28 38.1756C44.3757 41.6153 41.5386 45.1543 39.044 48.9582C36.5181 52.6183 34.3461 56.4847 32.2866 60.3785C30.3463 64.3328 28.495 68.3184 27.0457 72.4383C25.4914 76.5194 24.3287 80.7121 23.2673 84.8973C22.8284 87.0116 22.3345 89.1118 21.9798 91.2299C21.6657 93.3547 21.2514 95.4605 21.0726 97.5909C19.1294 114.577 21.2107 131.582 26.6654 146.851C32.0861 162.14 40.7184 175.738 51.3327 186.566C61.9158 197.444 74.3114 205.668 87.1204 211.121C99.9427 216.582 113.147 219.336 125.65 219.805C138.159 220.235 149.969 218.678 160.449 215.611C170.942 212.575 180.164 208.278 187.906 203.425C189.866 202.249 191.685 200.964 193.48 199.748C195.215 198.45 196.948 197.247 198.518 195.933C201.745 193.414 204.552 190.774 207.15 188.298L207.717 187.755L207.318 188.43C207.307 188.448 207.295 188.467 207.287 188.482L207.187 188.319C231.569 186.846 243.945 186.098 244.715 186.052Z" fill="#1A2E35"/>
<path d="M73.4922 204.726L186.785 204.543C186.785 204.543 159.701 222.491 127.168 220.373C98.8993 218.532 73.4922 204.726 73.4922 204.726Z" fill="#375A64"/>
<path d="M123.097 128.721L129.559 152.359L153.161 120.487L147.604 204.058H113.907L104.081 204.531C104.081 204.531 105.538 191.359 106.138 183.922C106.252 182.507 106.738 174.223 109.131 166.413C114.157 150.004 123.097 128.721 123.097 128.721Z" fill="#FAFAFA"/>
<path d="M130.705 165.707C130.789 165.815 126.982 168.883 122.205 172.559C117.426 176.236 113.486 179.129 113.403 179.02C113.32 178.914 117.125 175.847 121.905 172.168C126.682 168.492 130.623 165.599 130.705 165.707Z" fill="#1A2E35"/>
<path d="M189.364 117.201L171.011 108.371L163.814 99.8159L153.632 110.4L126.637 203.832H172.931L178.868 187.803L189.364 125.893V117.201Z" fill="#F12435"/>
<path d="M106.779 205.184L105.539 185.355L161.465 175.88C161.465 175.88 171.019 129.73 176.904 122.169C182.336 115.19 189.419 117.61 189.419 117.61C189.419 117.61 195.801 121.982 194.275 138.719C193.476 147.484 190.272 177.874 189.109 188.853C188.831 191.484 187.961 194.014 186.562 196.261C183.364 201.404 177.737 204.532 171.68 204.532L106.779 205.184Z" fill="#F12435"/>
<path d="M170.595 187.402C170.513 187.411 170.435 186.522 170.027 185.166C169.629 183.814 168.828 181.995 167.441 180.351C166.054 178.705 164.395 177.608 163.131 176.987C161.863 176.357 160.999 176.13 161.022 176.051C161.031 175.998 161.934 176.106 163.277 176.671C164.613 177.226 166.374 178.319 167.817 180.033C169.263 181.745 170.042 183.665 170.364 185.075C170.695 186.494 170.649 187.402 170.595 187.402Z" fill="#1A2E35"/>
<g opacity="0.199997">
<g opacity="0.199997">
<path opacity="0.199997" d="M169.575 109.719C169.045 115.554 167.926 121.335 166.241 126.947C164.839 126.535 163.437 126.124 162.034 125.712C163.762 128.185 163.974 131.468 163.29 134.406C162.607 137.343 161.122 140.021 159.656 142.657C152.698 155.155 145.74 167.654 138.782 180.152L159.823 132.38L159.276 123.549L163.328 122.683L169.575 109.719Z" fill="black"/>
</g>
</g>
<g opacity="0.199997">
<g opacity="0.199997">
<path opacity="0.199997" d="M161.273 175.327C163.817 175.178 166.404 175.934 168.467 177.427C170.533 178.921 172.057 181.142 172.711 183.606C172.867 184.195 172.972 184.837 172.744 185.402C172.516 185.968 171.844 186.392 171.285 186.149C170.858 185.964 170.652 185.491 170.465 185.066C168.639 180.894 165.034 177.535 160.743 176.007" fill="black"/>
</g>
</g>
<path d="M138.936 179.695C138.92 179.689 139.019 179.426 139.22 178.929C139.443 178.395 139.744 177.675 140.123 176.769C140.946 174.859 142.104 172.17 143.527 168.864C146.461 162.17 150.484 152.994 154.927 142.857C156.557 139.175 158.13 135.618 159.608 132.28L159.588 132.391C159.401 129.252 159.225 126.292 159.064 123.558L159.053 123.374L159.231 123.337C160.658 123.038 162.006 122.756 163.286 122.489L163.151 122.594C165.25 118.348 166.973 114.862 168.195 112.391C168.791 111.213 169.264 110.28 169.608 109.599C169.762 109.306 169.888 109.069 169.99 108.876C170.079 108.714 170.129 108.632 170.138 108.637C170.147 108.642 170.115 108.731 170.042 108.901C169.954 109.101 169.845 109.347 169.711 109.649C169.389 110.341 168.949 111.29 168.393 112.487C167.208 114.976 165.537 118.487 163.501 122.763L163.461 122.848L163.367 122.869C162.089 123.148 160.744 123.441 159.319 123.752L159.487 123.531C159.663 126.265 159.855 129.223 160.059 132.36L160.063 132.418L160.039 132.471C158.568 135.811 157.001 139.37 155.378 143.056C150.883 153.17 146.814 162.326 143.845 169.004C142.363 172.283 141.156 174.952 140.298 176.847C139.884 177.737 139.555 178.445 139.311 178.969C139.08 179.452 138.951 179.703 138.936 179.695Z" fill="#1A2E35"/>
<path d="M106.737 204.531C106.728 204.531 106.713 204.42 106.691 204.201C106.67 203.957 106.642 203.637 106.607 203.232C106.543 202.348 106.451 201.098 106.335 199.504C106.119 196.233 105.81 191.554 105.428 185.789L105.418 185.631L105.574 185.602C116.077 183.673 130.336 181.053 146.03 178.171C151.216 177.229 156.244 176.316 160.946 175.463L160.759 175.638C164.039 163.179 166.885 152.367 168.92 144.634C169.946 140.812 170.768 137.751 171.342 135.613C171.626 134.586 171.849 133.781 172.01 133.203C172.085 132.949 172.145 132.745 172.192 132.583C172.236 132.444 172.261 132.374 172.268 132.376C172.275 132.378 172.263 132.452 172.233 132.594C172.196 132.758 172.15 132.966 172.09 133.225C171.949 133.807 171.752 134.619 171.499 135.654C170.958 137.8 170.182 140.872 169.213 144.711C167.22 152.454 164.432 163.281 161.22 175.757L161.183 175.905L161.033 175.932C156.333 176.79 151.304 177.708 146.119 178.654C130.416 181.486 116.149 184.058 105.639 185.952L105.785 185.767C106.099 191.537 106.354 196.218 106.532 199.492C106.608 201.088 106.668 202.34 106.709 203.227C106.723 203.632 106.735 203.953 106.742 204.198C106.747 204.418 106.745 204.53 106.737 204.531Z" fill="#1A2E35"/>
<path d="M186.547 115.65C186.562 115.739 185.612 115.879 184.182 116.411C182.755 116.935 180.873 117.943 179.174 119.527C177.482 121.12 176.353 122.932 175.736 124.322C175.113 125.714 174.911 126.652 174.823 126.633C174.789 126.626 174.816 126.387 174.894 125.958C174.963 125.528 175.138 124.917 175.416 124.187C175.963 122.726 177.086 120.815 178.837 119.168C180.595 117.528 182.575 116.534 184.069 116.083C184.815 115.852 185.436 115.718 185.87 115.678C186.303 115.628 186.543 115.616 186.547 115.65Z" fill="#1A2E35"/>
<path d="M80.8215 94.6277C82.4789 91.573 81.7448 79.2351 84.2991 79.6721C87.5562 80.2284 84.5469 93.1954 84.3426 94.376C84.143 95.5235 85.8458 95.8499 85.9726 94.7752C86.1561 93.2304 88.0566 78.1434 91.2636 78.9929C93.0412 79.4631 92.2238 82.7088 92.2238 82.7088C92.2238 82.7088 89.4653 97.3323 90.994 97.6823C92.5455 98.038 93.6911 89.5996 94.3732 86.5317C95.0278 83.5905 96.9416 82.3266 97.6691 83.8772C98.7352 86.1504 96.689 93.5142 96.0798 96.4705C95.4715 99.4258 93.9475 107.979 98.0948 104.636C102.243 101.294 106.663 100.246 108.038 100.781C109.414 101.318 109.114 103.429 107.519 103.848C106.231 104.186 104.244 105.408 102.787 106.386C101.587 107.191 100.637 108.282 99.6491 109.333C98.9443 110.085 97.7079 111.622 96.6824 113.954C95.4951 116.652 93.1831 118.695 90.3772 119.598L87.9554 131.121L72.2705 127.76L75.7679 115.568C77.0403 107.561 76.3374 96.795 76.3478 91.8975C76.3658 84.0891 77.3828 84.0304 78.2824 84.2376C80.2681 84.6936 79.2048 97.6086 80.8215 94.6277Z" fill="#FFD2BE"/>
<path d="M80.3763 105.107C80.3564 105.18 81.2438 105.34 82.4623 106.079C83.6675 106.801 85.1783 108.213 86.0013 110.261C86.2255 110.809 86.3674 111.37 86.4724 111.909L86.5254 112.176L86.7477 112.044C88.2594 111.155 89.7428 110.716 90.8108 110.509C91.8827 110.299 92.5439 110.278 92.542 110.222C92.542 110.184 91.8751 110.118 90.7711 110.265C89.6728 110.409 88.1317 110.811 86.5642 111.71L86.8385 111.847C86.7345 111.278 86.5869 110.687 86.3523 110.113C85.9228 109.046 85.2956 108.137 84.6286 107.42C83.9541 106.706 83.2333 106.19 82.5928 105.837C81.9533 105.475 81.3829 105.309 80.9969 105.196C80.6015 105.111 80.381 105.082 80.3763 105.107Z" fill="#E09074"/>
<path d="M78.2933 116.077C78.2403 116.156 79.788 117.177 81.9544 117.845C84.117 118.526 85.9693 118.564 85.9712 118.47C85.9825 118.355 84.1822 118.148 82.067 117.482C79.9479 116.829 78.3491 115.977 78.2933 116.077Z" fill="#E09074"/>
<path d="M135.079 104.729L123.096 128.722L129.559 152.359L146.764 134.176L163.727 102.667L135.079 104.729Z" fill="#FFD2BE"/>
<path d="M123.795 106.979C123.795 106.979 106.763 113.035 106.763 114.16C106.763 114.161 106.762 114.165 106.762 114.167C103.755 116.528 93.7357 140.747 90.5486 145.327L81.4375 158.751H81.4366H81.4375L89.0794 128.922L72.2659 123.976C72.2659 123.976 57.9092 158.673 56.1638 166.39C54.4194 174.107 56.4353 180.23 56.4353 180.23L56.528 180.15C57.7512 183.887 60.1153 186.883 62.8256 188.622C69.9548 193.192 76.61 194.052 83.4204 189.02C87.282 186.167 91.6895 182.729 95.728 179.513L96.7856 204.559H106.071C106.071 203.152 105.789 185.99 105.789 185.99C105.789 185.99 107.758 179.519 108.602 173.611C109.447 167.702 123.279 128.933 123.279 128.933L134.017 108.256L134.267 100.605L123.795 106.979Z" fill="#F12435"/>
<path d="M96.6037 204.348C96.5876 204.349 96.5602 204.081 96.5233 203.568C96.4892 203.014 96.4429 202.265 96.3842 201.322C96.2811 199.322 96.1364 196.5 95.9566 193.015C95.6378 185.938 95.1979 176.18 94.706 165.248L94.7041 165.22L94.7107 165.187C94.9103 164.153 95.1241 163.049 95.3389 161.935C97.5894 150.446 99.6272 140.048 101.112 132.47C101.867 128.738 102.481 125.703 102.916 123.552C103.133 122.534 103.305 121.728 103.432 121.133C103.491 120.882 103.539 120.677 103.578 120.506C103.614 120.366 103.636 120.294 103.644 120.296C103.652 120.298 103.647 120.373 103.627 120.517C103.6 120.689 103.568 120.899 103.529 121.153C103.424 121.752 103.284 122.566 103.105 123.591C102.706 125.749 102.145 128.795 101.453 132.541C100.005 140.127 98.017 150.535 95.8213 162.035C95.6057 163.15 95.3919 164.254 95.1913 165.288L95.196 165.227C95.6274 176.161 96.0124 185.921 96.2915 193.002C96.4069 196.488 96.5006 199.313 96.5668 201.314C96.5886 202.259 96.6046 203.009 96.6179 203.564C96.6236 204.078 96.6198 204.347 96.6037 204.348Z" fill="#1A2E35"/>
<path d="M106.126 182.117C106.109 182.114 106.139 181.844 106.211 181.332C106.295 180.777 106.408 180.032 106.55 179.097C106.874 177.11 107.328 174.318 107.887 170.889C109.071 163.924 110.693 154.383 112.484 143.842C113.687 136.943 114.817 130.471 115.777 124.961L115.782 124.934L115.792 124.912C118.152 119.558 120.127 115.08 121.533 111.89C122.226 110.356 122.777 109.135 123.175 108.251C123.358 107.863 123.506 107.549 123.623 107.299C123.728 107.085 123.788 106.976 123.798 106.981C123.809 106.986 123.77 107.103 123.686 107.325C123.583 107.582 123.456 107.904 123.297 108.303C122.924 109.198 122.409 110.437 121.763 111.989C120.396 115.196 118.478 119.7 116.184 125.082L116.199 125.034C115.256 130.547 114.15 137.023 112.969 143.926C111.123 154.458 109.451 163.99 108.231 170.948C107.607 174.366 107.1 177.149 106.739 179.129C106.559 180.058 106.416 180.797 106.308 181.349C106.205 181.856 106.143 182.12 106.126 182.117Z" fill="#1A2E35"/>
<path d="M73.4885 179.335C73.4223 179.287 74.1526 178.244 75.1724 176.467C76.1989 174.695 77.4694 172.161 78.5894 169.244C79.7039 166.323 80.4644 163.591 80.9337 161.596C81.4057 159.601 81.6252 158.347 81.7028 158.359C81.7359 158.364 81.7179 158.682 81.6545 159.256C81.5959 159.83 81.4691 160.656 81.2742 161.67C80.8892 163.697 80.175 166.471 79.0492 169.42C77.9187 172.366 76.583 174.905 75.4714 176.646C74.9189 177.519 74.4402 178.206 74.0798 178.657C73.725 179.113 73.516 179.355 73.4885 179.335Z" fill="#1A2E35"/>
<g opacity="0.199997">
<g opacity="0.199997">
<path opacity="0.199997" d="M74.7773 177.954C74.1416 178.009 73.7802 178.841 74.0593 179.416C74.3374 179.989 75.0535 180.254 75.6855 180.162C76.3165 180.068 76.8699 179.689 77.34 179.257C78.7874 177.932 79.6426 176.08 80.2339 174.206C81.6728 169.649 81.7418 164.788 81.7986 160.009C80.4619 166.229 78.094 172.226 74.8199 177.683" fill="black"/>
</g>
</g>
<g opacity="0.199997">
<g opacity="0.199997">
<path opacity="0.199997" d="M95.4602 180.172C92.5796 175.59 91.6487 170.24 92.0261 164.841C92.5351 157.561 96.0741 150.903 98.7145 144.1C97.1942 151.254 96.3286 158.355 94.9503 165.233C94.9503 165.233 95.6863 175.455 95.7033 179.994" fill="black"/>
</g>
</g>
<g opacity="0.199997">
<g opacity="0.199997">
<path opacity="0.199997" d="M107.199 175.613C107.938 164.718 108.681 153.797 110.609 143.05C112.536 132.301 116.278 121.162 121.578 111.614C120.206 115.93 115.978 124.996 115.978 124.996C115.978 124.996 109.871 157.178 107.225 173.388" fill="black"/>
</g>
</g>
<path d="M105.832 188.138L107.358 205.032L99.3806 205.002C99.1697 205.002 95.9126 204.949 92.3215 204.887C89.6802 205.225 85.4932 205.238 84.2217 205.104C83.9966 205.08 83.8632 205.052 83.8461 205.02C83.8461 205.02 83.2445 204.946 82.6163 204.722C82.5984 204.722 82.5813 204.721 82.5813 204.721L82.5842 204.711C81.8624 204.447 81.1197 203.981 81.2352 203.187C81.5842 200.766 83.0241 200.571 83.0241 200.571C83.0241 200.571 83.2965 200.551 83.7459 200.521L83.8045 200.31C82.709 200.312 81.7876 200.282 81.3004 200.23C81.0753 200.207 80.9409 200.179 80.9239 200.146C80.9239 200.146 78.0963 199.811 78.312 198.315C78.662 195.892 80.1018 195.697 80.1018 195.697C80.1018 195.697 81.0791 195.628 82.43 195.541C81.2985 195.545 80.3412 195.516 79.8417 195.463C79.6165 195.44 79.4831 195.41 79.4661 195.378C79.4661 195.378 76.6385 195.043 76.8542 193.547C77.2032 191.124 78.6431 190.93 78.6431 190.93C78.6431 190.93 79.432 190.874 80.5701 190.799C79.6544 190.795 78.8976 190.766 78.4709 190.721C78.2457 190.697 78.1124 190.669 78.0953 190.637C78.0953 190.637 75.2667 190.301 75.4824 188.804C75.8325 186.382 77.2732 186.188 77.2732 186.188C77.2732 186.188 81.7242 185.872 84.7789 185.745C84.7799 185.741 88.2451 182.618 89.6112 182.762C91.6508 182.978 103.515 187.358 103.515 187.358L105.832 188.138Z" fill="#FFD2BE"/>
<path d="M90.8642 200.074C90.8528 200.213 89.0819 200.385 86.9098 200.454C84.7369 200.525 82.9848 200.468 82.9971 200.329C83.0085 200.188 84.7785 200.018 86.9515 199.948C89.1235 199.878 90.8755 199.934 90.8642 200.074Z" fill="#E09074"/>
<path d="M90.8902 195.284C90.895 195.425 88.3786 195.629 85.2681 195.739C82.1576 195.851 79.6327 195.824 79.6279 195.684C79.6232 195.542 82.1396 195.34 85.2501 195.228C88.3596 195.119 90.8855 195.143 90.8902 195.284Z" fill="#E09074"/>
<g opacity="0.779999">
<g opacity="0.779999">
<path opacity="0.779999" d="M90.4937 190.417C90.4984 190.558 87.9811 190.762 84.8716 190.872C81.7611 190.983 79.2362 190.958 79.2305 190.817C79.2257 190.675 81.7431 190.473 84.8536 190.361C87.9631 190.251 90.489 190.277 90.4937 190.417Z" fill="#E09074"/>
</g>
</g>
<path d="M83.5049 185.841C83.5049 185.899 84.1907 185.942 85.2976 185.982C86.5662 186.023 88.0174 186.071 89.619 186.124C91.2206 186.18 92.6708 186.233 93.9404 186.279C95.0472 186.314 95.7331 186.319 95.7378 186.26C95.7435 186.204 95.0633 186.096 93.9593 185.985C92.8553 185.874 91.3256 185.766 89.6332 185.707C87.9407 185.65 86.4073 185.654 85.2985 185.689C84.1889 185.724 83.5039 185.785 83.5049 185.841Z" fill="#E09074"/>
<path d="M171.558 48.2209C173.562 43.3461 179.908 41.1267 184.858 42.9393C189.808 44.7519 193.113 49.8339 193.708 55.071C194.001 57.6451 193.677 60.397 192.197 62.5246C190.64 64.7629 187.968 66.0419 185.267 66.4213C180.442 67.0986 175.325 64.9947 172.371 61.1207C169.417 57.2468 168.743 51.7552 170.673 47.2815" fill="#1A2E35"/>
<path d="M191.705 48.8698C191.73 48.8878 191.612 49.1224 191.349 49.516C191.086 49.9105 190.664 50.4554 190.076 51.0693C188.912 52.2973 186.983 53.7645 184.506 54.614C182.028 55.4655 179.603 55.4929 177.931 55.2384C177.09 55.1154 176.423 54.9451 175.973 54.7947C175.523 54.6453 175.286 54.5336 175.295 54.5043C175.319 54.422 176.316 54.7389 177.971 54.8931C179.618 55.053 181.953 54.9697 184.346 54.1486C186.737 53.3275 188.631 51.9586 189.832 50.8215C191.043 49.6825 191.636 48.8197 191.705 48.8698Z" fill="#375A64"/>
<path d="M193.81 54.431C193.831 54.4585 193.637 54.6392 193.268 54.9438C192.904 55.2541 192.341 55.6599 191.624 56.1291C190.187 57.0505 188.047 58.1772 185.455 58.7203C184.162 58.9842 182.899 59.0627 181.757 59.0135C180.615 58.9511 179.599 58.7562 178.772 58.5197C177.945 58.2775 177.293 58.0297 176.866 57.8083C176.435 57.5983 176.205 57.4677 176.219 57.4375C176.256 57.3514 177.218 57.7969 178.857 58.182C179.677 58.3712 180.668 58.5235 181.775 58.5594C182.882 58.5821 184.102 58.4932 185.356 58.2378C187.867 57.7118 189.98 56.6646 191.444 55.8311C192.907 54.9844 193.761 54.3648 193.81 54.431Z" fill="#375A64"/>
<path d="M120.403 62.7831C108.693 37.0269 136.548 24.0874 151.748 28.3794C166.033 32.4142 172.125 39.5235 174.476 49.0773C176.828 58.6358 176.714 68.9871 172.969 78.0896C171.121 82.5784 167.795 87.1392 162.974 87.6992" fill="#1A2E35"/>
<path d="M134.39 126.438C134.188 114.132 134.045 97.2274 134.04 97.2974C134.04 97.2974 123.463 95.5416 121.271 81.7402C120.181 74.8769 120.526 63.6231 121.105 54.4241C121.628 46.1446 127.113 35.9863 135.363 36.8594L161.124 43.3699C163.63 43.6348 165.517 45.7737 165.467 48.293L163.789 101.577" fill="#FFD2BE"/>
<path d="M127.428 64.2327C127.384 65.1617 128.134 65.9639 129.103 66.0273C130.07 66.0906 130.892 65.3915 130.935 64.4626C130.979 63.5345 130.229 62.7304 129.262 62.667C128.293 62.6036 127.471 63.3046 127.428 64.2327Z" fill="#1A2E35"/>
<path d="M146.514 64.2327C146.47 65.1617 147.22 65.9639 148.189 66.0273C149.156 66.0906 149.978 65.3915 150.021 64.4626C150.065 63.5345 149.315 62.7304 148.348 62.667C147.379 62.6036 146.557 63.3046 146.514 64.2327Z" fill="#1A2E35"/>
<path d="M135.089 74.0049C135.098 73.8961 133.914 73.6917 131.995 73.4467C131.509 73.3956 131.049 73.3001 130.967 72.968C130.852 72.6161 131.055 72.092 131.291 71.5263C131.749 70.3495 132.228 69.1159 132.73 67.8227C134.727 62.5505 136.173 58.214 135.96 58.1364C135.747 58.057 133.955 62.2677 131.957 67.5407C131.477 68.8406 131.018 70.0798 130.58 71.2652C130.396 71.8177 130.079 72.4458 130.328 73.1743C130.459 73.5375 130.815 73.8015 131.127 73.8857C131.439 73.9812 131.713 73.9859 131.953 74.0001C133.884 74.1042 135.082 74.1127 135.089 74.0049Z" fill="#1A2E35"/>
<path d="M134.02 97.3568C134.02 97.3568 143.305 97.9556 152.504 92.4262C152.504 92.4262 147.833 102.027 134.02 100.736V97.3568Z" fill="#E09074"/>
<path d="M162.835 65.7059C163.036 65.6084 170.222 62.4308 170.306 70.6933C170.39 78.9558 162.078 77.3362 162.061 77.0997C162.044 76.8622 162.835 65.7059 162.835 65.7059Z" fill="#FFD2BE"/>
<path d="M164.55 73.9452C164.586 73.9187 164.695 74.0446 164.94 74.1534C165.179 74.2593 165.586 74.3303 166.016 74.1647C166.885 73.8355 167.606 72.442 167.632 70.952C167.645 70.2009 167.48 69.4857 167.208 68.8954C166.949 68.2937 166.553 67.8756 166.113 67.8018C165.675 67.7053 165.367 67.9721 165.267 68.2048C165.16 68.4375 165.214 68.6021 165.17 68.6163C165.147 68.6372 164.991 68.4801 165.055 68.1377C165.087 67.974 165.181 67.7772 165.374 67.6164C165.571 67.4527 165.862 67.3685 166.168 67.3979C166.806 67.4357 167.385 68.0156 167.685 68.6636C168.019 69.3145 168.222 70.1177 168.207 70.9615C168.171 72.6274 167.334 74.194 166.143 74.5516C165.564 74.7087 165.077 74.5384 164.826 74.3463C164.567 74.1448 164.522 73.9604 164.55 73.9452Z" fill="#E09074"/>
<path d="M135.652 79.3124C135.929 80.0152 136.213 80.7295 136.679 81.3245C137.144 81.9196 137.824 82.3916 138.579 82.4276C139.383 82.4654 140.159 81.9896 140.607 81.3217C141.056 80.6529 141.209 79.8194 141.173 79.0144C141.14 78.2878 140.807 77.4194 140.084 77.3333C139.783 77.2983 139.487 77.4137 139.206 77.5282C137.94 78.0419 136.673 78.5555 135.406 79.0692" fill="#E09074"/>
<path d="M137.172 82.456C137.192 82.3368 138.025 82.6755 139.199 82.2053C139.767 81.9773 140.388 81.5242 140.731 80.8137C141.073 80.1109 141.141 79.1601 140.78 78.3276C140.697 78.1195 140.572 77.9294 140.449 77.76C140.299 77.602 140.326 77.6087 140.162 77.6332C140.008 77.6749 139.758 77.7922 139.554 77.8726C139.342 77.9587 139.134 78.0429 138.93 78.1261C138.116 78.4553 137.38 78.7429 136.759 78.9756C135.514 79.4401 134.726 79.6842 134.689 79.5981C134.652 79.512 135.374 79.1119 136.57 78.5339C137.167 78.2453 137.884 77.9123 138.685 77.5509C138.885 77.4611 139.091 77.3693 139.3 77.2757C139.521 77.1848 139.69 77.0855 139.993 76.9909C140.142 76.9483 140.352 76.9247 140.557 77.007C140.758 77.0883 140.882 77.2246 140.976 77.3381C141.146 77.5642 141.296 77.7969 141.404 78.059C141.85 79.0977 141.742 80.2471 141.287 81.0985C140.823 81.9688 140.031 82.4579 139.359 82.6575C138.675 82.8685 138.086 82.8174 137.712 82.7219C137.335 82.6225 137.158 82.4939 137.172 82.456Z" fill="#1A2E35"/>
<path d="M172.099 60.0514C171.252 59.9928 164.428 60.8754 164.966 73.5614C165.467 85.4093 173.78 82.8002 176.432 78.3398C178.945 74.1139 180.396 60.6342 172.099 60.0514Z" fill="#375A64"/>
<path d="M176.318 61.5521C176.31 61.5521 176.298 61.4377 176.286 61.2182C176.277 60.9713 176.263 60.6515 176.246 60.2523C176.222 59.3763 176.188 58.1559 176.145 56.6395C176.083 53.5233 175.996 49.1953 175.895 44.1975L176.049 44.3479C174.923 44.3498 173.741 44.3508 172.531 44.3527L172.688 44.1909C172.714 45.135 172.741 46.1312 172.769 47.1425C172.887 51.9028 172.997 56.3368 173.089 60.047L173.091 60.1558L172.986 60.1804C171.403 60.5522 170.151 61.4727 169.361 62.5142C168.558 63.5567 168.159 64.6645 167.915 65.5746C167.671 66.4913 167.589 67.2358 167.542 67.741C167.519 67.9945 167.507 68.1884 167.501 68.3199C167.492 68.4505 167.488 68.5186 167.481 68.5195C167.474 68.5195 167.465 68.4514 167.459 68.3199C167.451 68.1875 167.45 67.9917 167.461 67.7362C167.482 67.2263 167.54 66.4714 167.764 65.5367C167.991 64.6087 168.375 63.4716 169.188 62.3827C169.985 61.2958 171.285 60.3176 172.924 59.9203L172.822 60.0546C172.715 56.3443 172.587 51.9113 172.451 47.151C172.424 46.1397 172.397 45.1435 172.373 44.1994L172.369 44.0367H172.531C173.741 44.0386 174.923 44.0405 176.049 44.0424H176.2L176.202 44.1928C176.257 49.1915 176.305 53.5195 176.338 56.6357C176.344 58.1531 176.348 59.3744 176.351 60.2504C176.346 60.6496 176.343 60.9703 176.34 61.2173C176.335 61.4367 176.328 61.5521 176.318 61.5521Z" fill="#375A64"/>
<path d="M172.1 44.1953C172.1 44.1953 168.531 35.843 160.026 31.7212C155.907 29.7251 152.824 28.6949 149.839 27.9437C149.839 27.9437 154.801 26.766 162.83 30.3381C166.477 31.9605 170.153 34.0739 172.583 37.2421C174.127 39.2543 176.054 43.1869 176.051 44.1953H172.1Z" fill="#375A64"/>
<path d="M171.193 81.8805C171.189 81.8909 171.107 81.8663 170.954 81.8105C170.802 81.7499 170.582 81.6515 170.32 81.4832C169.795 81.1558 169.097 80.5419 168.532 79.575C167.959 78.6129 167.578 77.3103 167.434 75.8544C167.293 74.3975 167.293 72.7921 167.428 71.1139C167.57 69.4366 167.853 67.852 168.213 66.4396C168.569 65.0301 168.995 63.7653 169.577 62.8107C170.152 61.8524 170.848 61.2356 171.377 60.913C171.641 60.7494 171.862 60.65 172.014 60.5923C172.167 60.5356 172.251 60.5166 172.254 60.5252C172.266 60.5526 171.941 60.6671 171.446 61.0161C170.952 61.3624 170.305 61.9811 169.772 62.9243C169.231 63.8636 168.835 65.1067 168.498 66.5106C168.156 67.9126 167.885 69.4811 167.745 71.1404C167.61 72.7978 167.603 74.3937 167.726 75.826C167.852 77.2564 168.199 78.5212 168.727 79.4634C169.249 80.4123 169.899 81.03 170.389 81.38C170.881 81.7367 171.206 81.8512 171.193 81.8805Z" fill="#1A2E35"/>
<path d="M144.555 83.6135L138.021 84.8953C137.15 85.0665 136.304 84.4989 136.133 83.6267L136.037 83.1319C135.864 82.2597 136.433 81.4149 137.305 81.2437L143.838 79.9618C144.71 79.7897 145.555 80.3582 145.727 81.2304L145.823 81.7252C145.994 82.5974 145.426 83.4422 144.555 83.6135Z" fill="#375A64"/>
<path d="M144.9 80.9266L173.899 71.8288C174.618 71.6037 175.382 72 175.611 72.7162C175.849 73.4588 175.419 74.2506 174.666 74.454L145.012 82.4648L144.9 80.9266Z" fill="#375A64"/>
<path d="M166.335 76.9303C166.329 76.9095 166.671 76.7903 167.295 76.5926C167.973 76.3854 168.867 76.1139 169.947 75.7847C171.059 75.4413 172.425 75.079 173.87 74.605C174.219 74.4707 174.558 74.289 174.819 74.0204C175.072 73.7602 175.235 73.3837 175.228 73.0119C175.228 72.6392 174.991 72.3043 174.629 72.1813C174.266 72.0602 173.832 72.1141 173.417 72.2182C170.046 73.3033 166.997 74.2843 164.722 75.0156C163.644 75.3495 162.751 75.6248 162.075 75.8339C161.447 76.0202 161.097 76.1139 161.09 76.0931C161.082 76.0713 161.42 75.9389 162.036 75.7166C162.705 75.482 163.586 75.1745 164.652 74.8018C166.872 74.0478 169.916 73.0053 173.339 71.9098C173.782 71.802 174.261 71.7272 174.733 71.8833C175.211 72.0356 175.55 72.5257 175.539 73.0043C175.543 73.4783 175.346 73.9144 175.037 74.2332C174.728 74.5454 174.346 74.7393 173.976 74.8793C172.476 75.3533 171.139 75.6816 170.008 76.0013C168.917 76.2908 168.015 76.5301 167.329 76.7118C166.694 76.8726 166.34 76.9511 166.335 76.9303Z" fill="#1A2E35"/>
<path d="M151.117 60.1816C150.895 60.5307 148.909 59.4484 146.445 59.8931C143.974 60.3027 142.467 61.9894 142.14 61.7359C141.983 61.6262 142.146 61.0141 142.806 60.2677C143.452 59.5288 144.653 58.703 146.192 58.4362C147.731 58.1704 149.141 58.544 149.996 59.0227C150.869 59.5042 151.229 60.0255 151.117 60.1816Z" fill="#E09074"/>
<path d="M150.836 60.4888C150.801 60.5579 150.309 60.3327 149.478 60.1473C148.653 59.9581 147.465 59.8484 146.211 60.1303C144.958 60.4122 143.931 61.0205 143.266 61.5436C142.596 62.0677 142.247 62.4811 142.185 62.4338C142.138 62.4016 142.392 61.9021 143.039 61.2797C143.675 60.661 144.751 59.9534 146.104 59.6497C147.455 59.346 148.73 59.5239 149.571 59.8115C150.421 60.0962 150.865 60.4387 150.836 60.4888Z" fill="#1A2E35"/>
<path d="M152.109 54.9406C151.908 55.6038 149.799 55.5537 147.29 55.6738C144.778 55.7523 142.664 55.9434 142.423 55.2935C142.316 54.9775 142.749 54.4941 143.609 54.0599C144.463 53.6266 145.747 53.2681 147.196 53.2123C148.644 53.1565 149.955 53.4157 150.841 53.7903C151.732 54.163 152.197 54.619 152.109 54.9406Z" fill="#1A2E35"/>
<path d="M131.31 61.637C131.119 61.7439 130.747 61.3901 130.15 60.9785C129.556 60.5613 128.691 60.1243 127.636 59.9625C125.498 59.6097 123.781 60.6001 123.534 60.2511C123.42 60.1016 123.71 59.6134 124.468 59.1395C125.214 58.6759 126.473 58.2843 127.863 58.5028C129.258 58.71 130.367 59.5037 130.887 60.2378C131.423 60.9757 131.473 61.5528 131.31 61.637Z" fill="#E09074"/>
<path d="M131.544 62.6614C131.478 62.704 131.16 62.23 130.49 61.6388C129.83 61.0484 128.768 60.3645 127.451 60.0788C126.132 59.7931 124.882 59.9747 124.035 60.2368C123.18 60.496 122.694 60.794 122.651 60.7268C122.616 60.6823 123.045 60.2718 123.919 59.9085C124.78 59.5462 126.123 59.2879 127.555 59.5973C128.985 59.9066 130.101 60.7003 130.733 61.389C131.377 62.0824 131.593 62.6359 131.544 62.6614Z" fill="#1A2E35"/>
<path d="M132.401 55.7678C132.278 56.4461 130.263 56.641 127.874 56.6675C125.482 56.6779 123.466 56.5161 123.332 55.8397C123.195 55.1832 125.204 54.2202 127.854 54.2041C130.504 54.1785 132.528 55.1094 132.401 55.7678Z" fill="#1A2E35"/>
<path d="M154.677 36.2022C153.184 38.449 151.671 40.7374 150.898 43.3219C150.126 45.9064 150.189 48.8769 151.708 51.1066C153.161 53.2418 155.655 54.3609 157.921 55.6012C160.188 56.8404 162.513 58.5404 163.075 61.0615C163.251 61.8505 162.915 64.6044 163.507 65.154C164.32 65.9089 165.747 65.4444 166.364 64.523C166.981 63.6016 167.381 60.5734 167.396 59.4647C167.446 56.0259 167.493 52.5872 167.542 49.1493C167.583 46.2366 167.544 43.2188 166.282 40.5936C164.518 36.9231 160.86 35.7491 155.525 36.0092" fill="#1A2E35"/>
<path d="M120.795 56.8984C121.252 53.4181 122.517 50.0029 124.711 47.2623C126.904 44.5217 130.066 42.4992 133.537 41.976C137.018 41.4519 140.533 42.4169 144.048 42.6174C147.562 42.817 151.564 41.9561 153.399 38.9516C153.971 38.0151 154.242 36.7039 153.511 35.8856C153.235 35.5762 152.854 35.3842 152.479 35.2073C147.817 33.0097 142.533 32.0173 137.434 32.7751C132.336 33.5319 127.46 36.1079 124.257 40.1455C121.054 44.184 119.656 49.6936 120.916 54.6914" fill="#1A2E35"/>
<path d="M118.692 51.7147C118.676 51.7195 118.62 51.5653 118.528 51.2644C118.432 50.9664 118.329 50.5124 118.249 49.9211C118.092 48.7443 118.071 46.9629 118.722 44.9082C119.354 42.8686 120.678 40.5489 122.87 38.7165C125.033 36.868 127.965 35.5095 131.193 34.9741C134.434 34.4339 137.59 34.7499 140.331 35.3856C141.705 35.7091 142.987 36.1036 144.16 36.5407C145.338 36.9721 146.393 37.4507 147.4 37.7204C149.433 38.1394 151.17 38.3949 152.306 38.1565C153.462 37.9247 153.869 37.3107 153.906 37.3694C153.915 37.3751 153.825 37.5179 153.588 37.7308C153.357 37.9493 152.935 38.1915 152.347 38.3438C151.148 38.6474 149.416 38.4459 147.311 38.0571C146.262 37.7989 145.188 37.3325 144.022 36.9248C142.856 36.5095 141.585 36.1348 140.231 35.8283C137.525 35.2257 134.432 34.9334 131.275 35.4594C128.127 35.9816 125.274 37.2909 123.163 39.0637C121.023 40.8214 119.714 43.0417 119.053 45.0151C118.378 47.0026 118.343 48.7386 118.439 49.9003C118.544 51.0705 118.741 51.7024 118.692 51.7147Z" fill="#375A64"/>
<path d="M133.962 30.0088C133.958 29.9794 134.265 29.9038 134.83 29.8404C135.396 29.7742 136.225 29.7467 137.244 29.8375C139.263 30.0125 142.112 30.8044 144.585 32.773C145.808 33.7493 146.829 34.8022 147.912 35.5373C148.97 36.2789 150.14 36.6082 151.103 36.822C152.074 37.0263 152.886 37.0537 153.432 36.9809C153.98 36.9147 154.259 36.7671 154.279 36.8068C154.294 36.8248 154.034 37.0386 153.465 37.1701C152.9 37.3063 152.053 37.3319 151.038 37.1644C150.037 36.9866 148.814 36.6886 147.658 35.9138C146.512 35.1645 145.466 34.1041 144.279 33.1609C141.895 31.2622 139.166 30.443 137.203 30.1838C135.221 29.917 133.969 30.1015 133.962 30.0088Z" fill="#375A64"/>
<path d="M175.741 55.3508C175.698 55.3706 175.55 55.0225 175.151 54.4937C174.741 53.9781 174.036 53.2951 172.957 52.806C171.891 52.3074 170.486 51.9754 168.923 51.9971C167.352 52.0151 165.638 52.3661 163.824 52.7029C162.014 53.0491 160.218 53.2582 158.598 53.0983C156.981 52.9545 155.561 52.5572 154.431 52.0936C153.296 51.6358 152.451 51.1126 151.892 50.7276C151.332 50.3407 151.063 50.0748 151.079 50.055C151.131 49.9708 152.311 50.9348 154.557 51.7682C155.676 52.1797 157.065 52.5307 158.635 52.6461C160.205 52.7757 161.93 52.5629 163.736 52.2176C165.54 51.8836 167.288 51.5374 168.921 51.543C170.553 51.5468 172.011 51.929 173.111 52.4928C174.222 53.0472 174.932 53.8116 175.307 54.382C175.485 54.6781 175.611 54.9118 175.667 55.0849C175.732 55.2533 175.757 55.3441 175.741 55.3508Z" fill="#375A64"/>
<path d="M174.243 48.7219C174.203 48.7408 174.059 48.3984 173.653 47.8932C173.244 47.3975 172.523 46.7646 171.449 46.337C170.382 45.8981 168.99 45.741 167.462 45.9132C165.929 46.0636 164.279 46.5281 162.492 46.8611C160.713 47.196 158.896 47.2811 157.35 46.7807C155.806 46.3077 154.603 45.4317 153.775 44.5642C152.934 43.6957 152.462 42.8254 152.202 42.2114C152.073 41.903 151.99 41.6571 151.953 41.4849C151.907 41.3146 151.892 41.2238 151.909 41.2181C152.01 41.1614 152.345 42.6816 154.022 44.3192C154.848 45.1204 156.016 45.9236 157.479 46.3455C158.937 46.792 160.654 46.705 162.403 46.3767C164.157 46.0504 165.833 45.5925 167.418 45.461C168.996 45.3068 170.478 45.5092 171.584 46.0163C172.7 46.5082 173.427 47.2234 173.807 47.7778C174.183 48.3435 174.264 48.7153 174.243 48.7219Z" fill="#375A64"/>
<path d="M138.784 143.336C138.781 143.332 138.841 143.282 138.959 143.188C139.077 143.093 139.259 142.961 139.487 142.772C139.947 142.401 140.612 141.83 141.411 141.024C142.213 140.22 143.132 139.166 144.126 137.872C145.123 136.578 146.184 135.038 147.348 133.313C149.676 129.864 152.4 125.667 155.291 120.826C156.739 118.408 158.23 115.828 159.736 113.104C160.11 112.421 160.489 111.732 160.871 111.035C161.251 110.338 161.641 109.619 162.165 108.977C162.682 108.332 163.376 107.798 164.172 107.522C164.569 107.381 165.002 107.294 165.45 107.381C165.671 107.432 165.889 107.542 166.057 107.714C166.23 107.886 166.316 108.112 166.383 108.332L166.397 108.376L166.38 108.423C166.277 108.699 166.148 108.975 165.933 109.203C165.721 109.434 165.411 109.579 165.103 109.6C164.482 109.637 163.935 109.357 163.463 109.035C162.439 108.407 161.986 106.983 162.411 105.808C162.613 105.214 163.066 104.714 163.615 104.436C164.163 104.155 164.801 104.058 165.407 104.185C166 104.312 166.619 104.658 166.862 105.316C166.99 105.638 166.906 106.074 166.651 106.318C166.409 106.571 166.108 106.699 165.801 106.781C164.717 107.048 163.541 106.5 163.026 105.513C162.768 105.02 162.717 104.419 162.863 103.89C162.998 103.355 163.302 102.875 163.706 102.519C164.11 102.162 164.634 101.936 165.181 101.946C165.716 101.969 166.256 102.203 166.575 102.68C166.736 102.916 166.8 103.227 166.748 103.515C166.703 103.811 166.516 104.072 166.288 104.23C165.828 104.547 165.253 104.601 164.749 104.422C164.226 104.225 163.9 103.753 163.715 103.277C163.529 102.792 163.479 102.278 163.481 101.779C163.503 100.793 163.665 99.7748 164.227 98.931C164.522 98.527 164.9 98.1657 165.411 98.0361C165.911 97.9131 166.422 98.0398 166.841 98.2943C167.244 98.5516 167.617 99.0171 167.558 99.5733C167.518 100.117 167.08 100.544 166.613 100.674C166.149 100.823 165.616 100.754 165.224 100.448C164.836 100.153 164.609 99.6944 164.524 99.2328C164.429 98.774 164.513 98.2726 164.642 97.862C164.761 97.4353 164.902 97.0115 165.111 96.6152C165.312 96.2216 165.618 95.846 166.005 95.6247C166.382 95.3995 166.797 95.2538 167.229 95.2113C167.437 95.1971 167.677 95.1886 167.896 95.3011C168.104 95.408 168.266 95.567 168.396 95.7448C168.524 95.9236 168.622 96.1261 168.672 96.3474C168.724 96.5622 168.717 96.8242 168.591 97.0361C168.343 97.4808 167.811 97.5593 167.42 97.4921C167.005 97.4363 166.631 97.2092 166.342 96.934C165.762 96.3673 165.451 95.5764 165.414 94.8016C165.363 94.0269 165.562 93.2426 165.993 92.6277C166.215 92.3278 166.471 92.0544 166.797 91.8737C167.117 91.6921 167.472 91.6013 167.826 91.588C168.178 91.5824 168.545 91.659 168.833 91.8879C169.116 92.1131 169.294 92.482 169.259 92.85C169.175 93.5907 168.534 94.0883 167.901 94.1716C167.224 94.253 166.654 93.7998 166.35 93.2965C166.032 92.7819 165.918 92.1793 165.962 91.6164C166.077 90.4793 166.649 89.5919 166.991 88.7311C167.367 87.8749 167.712 87.0916 168.023 86.3859C168.642 84.9896 169.127 83.8998 169.461 83.1458C169.624 82.7873 169.75 82.5082 169.842 82.3067C169.93 82.1194 169.982 82.0257 169.982 82.0257C169.982 82.0257 169.95 82.1279 169.871 82.3209C169.787 82.5252 169.67 82.809 169.519 83.1732C169.197 83.9329 168.732 85.0303 168.136 86.437C167.834 87.1465 167.497 87.9326 167.13 88.7926C166.791 89.6629 166.235 90.5588 166.14 91.6297C166.101 92.1547 166.215 92.7195 166.511 93.1906C166.79 93.6522 167.318 94.0429 167.878 93.9654C168.424 93.8982 168.992 93.428 169.045 92.8349C169.075 92.5454 168.928 92.2474 168.698 92.0667C168.465 91.8813 168.146 91.8113 167.831 91.8189C167.514 91.833 167.191 91.9172 166.907 92.0809C166.624 92.2379 166.383 92.4943 166.184 92.7677C165.792 93.3315 165.608 94.0628 165.66 94.7837C165.696 95.5055 165.991 96.232 166.516 96.7419C166.784 96.9917 167.097 97.1799 167.46 97.2282C167.808 97.2859 168.206 97.2026 168.363 96.9027C168.53 96.6208 168.391 96.2036 168.181 95.9094C168.071 95.76 167.932 95.6294 167.777 95.5518C167.632 95.4733 167.444 95.4762 167.251 95.4894C166.484 95.5774 165.706 95.9898 165.357 96.7495C165.165 97.1175 165.03 97.5233 164.915 97.9396C164.786 98.3624 164.725 98.7588 164.807 99.176C164.881 99.5809 165.08 99.9697 165.399 100.21C165.708 100.451 166.146 100.51 166.529 100.387C166.915 100.273 167.234 99.948 167.263 99.5468C167.309 99.1505 167.029 98.7777 166.682 98.5564C166.327 98.3397 165.882 98.2338 165.48 98.3378C165.085 98.4305 164.727 98.755 164.475 99.1098C163.972 99.8609 163.806 100.837 163.79 101.779C163.787 102.251 163.839 102.729 164.003 103.159C164.165 103.579 164.458 103.978 164.857 104.121C165.258 104.269 165.757 104.216 166.108 103.968C166.475 103.733 166.555 103.215 166.312 102.859C166.078 102.498 165.611 102.283 165.169 102.269C164.72 102.261 164.262 102.451 163.911 102.765C163.198 103.378 162.852 104.506 163.307 105.358C163.741 106.207 164.802 106.701 165.726 106.465C165.985 106.397 166.25 106.277 166.423 106.092C166.6 105.913 166.646 105.665 166.562 105.426C166.386 104.932 165.864 104.611 165.341 104.505C164.281 104.271 163.052 104.864 162.708 105.916C162.338 106.95 162.725 108.212 163.64 108.768C164.079 109.072 164.589 109.315 165.08 109.281C165.583 109.261 165.922 108.814 166.086 108.321L166.082 108.412C165.994 108.039 165.741 107.763 165.383 107.689C165.027 107.62 164.634 107.688 164.27 107.819C163.53 108.075 162.89 108.564 162.396 109.176C161.895 109.786 161.511 110.487 161.131 111.183C160.747 111.879 160.367 112.569 159.991 113.252C158.477 115.975 156.977 118.553 155.52 120.969C152.609 125.806 149.863 129.992 147.511 133.428C146.335 135.146 145.259 136.682 144.248 137.97C143.238 139.26 142.302 140.307 141.485 141.102C139.852 142.697 138.784 143.336 138.784 143.336Z" fill="#1A2E35"/>
</svg>
