<svg width="65" height="65" viewBox="0 0 65 65" fill="none" xmlns="http://www.w3.org/2000/svg">
<circle cx="32.5" cy="32.5" r="32.5" fill="#D0FAFF"/>
<circle cx="32.5" cy="32.5" r="32" stroke="#03C4DC" stroke-opacity="0.2"/>
<path fill-rule="evenodd" clip-rule="evenodd" d="M20.2352 37.1046C19.9635 36.7812 19.5249 36.6214 19.089 36.7231L15.8914 37.4694C15.5807 37.5419 15.3141 37.7399 15.1545 38.0163C14.995 38.2924 14.9571 38.6224 15.0496 38.9279L17.5507 47.1807C17.7271 47.7627 18.325 48.1078 18.9173 47.9696L22.1149 47.2233C22.4256 47.1507 22.6923 46.9528 22.8518 46.6767C22.9321 46.5374 22.9817 46.3848 22.9994 46.2283C25.0254 46.2206 28.7566 46.176 31.6388 45.9683C33.6326 45.8249 35.2528 45.5515 35.8407 45.2342C37.3142 44.4389 41.9928 41.1864 43.3583 39.2004C44.0265 38.2289 44.0135 37.358 43.6659 36.8025C43.2423 36.1257 42.7421 35.7259 42.167 35.5209C41.6239 35.3274 40.9867 35.3058 40.2116 35.5093C39.601 35.6696 38.8611 35.9981 37.9453 36.4711C37.7947 36.1742 37.5651 35.8892 37.242 35.6287C37.0332 35.4606 36.6388 35.2587 36.0806 35.1579C35.2102 35.0009 33.8001 35.0383 32.3169 35.7289C31.7185 36.0075 31.2123 35.8172 30.6704 35.601C30.0805 35.3659 29.4663 35.0704 28.7726 34.8619C27.1568 34.3762 25.1912 34.7602 23.4228 35.4678C22.1853 35.9632 21.0496 36.6004 20.2352 37.1046V37.1046ZM18.5607 39.2162L18.5645 39.2283L20.3914 45.2561C20.3914 45.2558 19.4457 45.4768 19.4457 45.4768L17.6153 39.4369L18.5607 39.2162V39.2162ZM32.1848 39.6645C33.2931 39.0539 35.2368 37.9495 35.2789 37.9268C35.4381 37.841 35.5763 37.7479 35.6884 37.6469C35.7391 37.6014 35.7945 37.5294 35.8305 37.4785C35.5627 37.4505 34.3011 37.3506 33.2909 37.8208C32.2095 38.3242 31.2619 38.2431 30.2957 37.9216C29.6142 37.6948 28.9211 37.3159 28.1083 37.072C26.9483 36.7233 25.5501 37.1022 24.2804 37.6103C22.9324 38.1497 21.7214 38.8792 21.0108 39.3444L22.3985 43.9221C24.1644 43.9213 28.3321 43.8931 31.4729 43.6668C33.0175 43.5555 34.2892 43.4494 34.7444 43.2035C35.9061 42.5766 39.2939 40.2743 40.9466 38.5092C41.1684 38.2721 41.5381 37.9216 41.3922 37.6945C41.2047 37.4034 40.673 37.7485 40.1178 37.9792C39.2186 38.3527 38.0838 38.9852 36.6128 39.8204C36.5364 39.8675 36.3481 39.9719 36.3345 39.9785C35.4472 40.4828 34.4417 41.0557 33.2981 41.6857C32.7866 41.9674 32.0583 42.087 31.2813 42.054C30.3702 42.0155 29.386 41.7893 28.8125 41.6259C28.2002 41.4515 27.8447 40.8126 28.0191 40.2001C28.1936 39.5875 28.8325 39.2322 29.445 39.4067C29.8944 39.5346 30.6648 39.7182 31.379 39.7484C31.6861 39.7614 31.9827 39.7758 32.1848 39.6645V39.6645ZM41.6156 19.7717C39.5897 19.7794 35.8582 19.824 32.9763 20.0317C30.9822 20.1754 29.3619 20.4485 28.774 20.7658C27.3005 21.5614 22.622 24.8138 21.2565 26.7996C20.5883 27.7713 20.6013 28.642 20.9488 29.1975C21.3725 29.8743 21.8729 30.2741 22.4478 30.4791C22.9911 30.6729 23.628 30.6942 24.4031 30.4907C25.0137 30.3306 25.7537 30.0022 26.6694 29.5289C26.8201 29.8258 27.0496 30.111 27.3728 30.3713C27.5816 30.5397 27.9762 30.7413 28.5345 30.8421C29.4048 30.9994 30.8146 30.962 32.2981 30.2714C32.8963 29.9928 33.4027 30.183 33.9444 30.399C34.5342 30.6344 35.1484 30.9299 35.8424 31.1384C37.4582 31.6238 39.4235 31.24 41.1919 30.5322C42.4298 30.0368 43.5654 29.3999 44.3796 28.8954C44.6512 29.2188 45.0901 29.3789 45.5257 29.2769L48.7233 28.5306C49.034 28.4581 49.3007 28.2601 49.4602 27.984C49.6197 27.7076 49.6579 27.3776 49.5655 27.0724L47.064 18.8193C46.8876 18.2373 46.2898 17.8922 45.6974 18.0304L42.4998 18.7767C42.1891 18.8493 41.9225 19.0472 41.763 19.3236C41.6826 19.4626 41.6331 19.6155 41.6156 19.7717V19.7717ZM42.2165 22.0779C40.4504 22.0787 36.2827 22.1072 33.1422 22.3335C31.5975 22.4448 30.3259 22.5506 29.8703 22.7965C28.7087 23.4237 25.3208 25.726 23.6682 27.4908C23.4464 27.7279 23.0767 28.0784 23.2229 28.3055C23.4101 28.5968 23.9418 28.2515 24.497 28.0208C25.3962 27.6476 26.531 27.0148 28.0022 26.1796C28.0784 26.1325 28.1576 26.0868 28.2398 26.0425C28.2531 26.0353 28.2667 26.0284 28.2803 26.0218C29.1675 25.5172 30.173 24.9443 31.3167 24.3143C31.8282 24.0326 32.5565 23.913 33.3335 23.946C34.2446 23.9847 35.229 24.2107 35.8023 24.3741C36.4148 24.5485 36.7704 25.1877 36.5956 25.7999C36.4212 26.4125 35.7823 26.7681 35.1698 26.5936C34.7203 26.4654 33.9499 26.2818 33.2358 26.2516C32.9289 26.2386 32.6323 26.2245 32.4302 26.3358C31.3217 26.9461 30.3359 27.5033 29.4558 27.9987C29.4179 28.0255 29.378 28.0505 29.3362 28.0732C29.1767 28.1593 29.0385 28.2523 28.9263 28.3531C28.8759 28.3986 28.8203 28.4708 28.7843 28.5215C29.0523 28.5498 30.3137 28.6497 31.3239 28.1792C32.4053 27.6758 33.3529 27.7569 34.3191 28.0784C35.0006 28.3055 35.694 28.6841 36.5065 28.9283C37.6668 29.2769 39.0649 28.8978 40.3346 28.3897C41.6824 27.8503 42.8933 27.1209 43.6039 26.6559L42.2165 22.0779V22.0779ZM46.0544 26.7838L46.0505 26.7717L44.2237 20.7442L45.1691 20.5235L46.9998 26.5631L46.0544 26.7838V26.7838Z" fill="#03C4DC"/>
</svg>
