<svg width="65" height="65" viewBox="0 0 65 65" fill="none" xmlns="http://www.w3.org/2000/svg">
<circle cx="32.5" cy="32.5" r="32.5" fill="#D0FAFF"/>
<circle cx="32.5" cy="32.5" r="32" stroke="#03C4DC" stroke-opacity="0.2"/>
<path d="M35.2131 27.2986C35.3236 26.9957 35.3574 26.6702 35.3115 26.351C35.2657 26.0319 35.1416 25.729 34.9504 25.4694C34.7592 25.2098 34.5067 25.0016 34.2155 24.8631C33.9243 24.7247 33.6034 24.6605 33.2814 24.6761H30.4833L29.3125 29.9211H31.9935C32.7393 29.883 33.4535 29.6082 34.0324 29.1366C34.6114 28.6651 35.025 28.0212 35.2131 27.2986V27.2986Z" stroke="#03C4DC" stroke-width="2.7" stroke-linecap="round" stroke-linejoin="round"/>
<path d="M21 40.903L25.6831 21H35.3887C38.3039 21 41.5469 23.0957 40.5752 27.5329C40.1961 29.366 39.1832 31.0069 37.7144 32.1674C36.2456 33.3279 34.4148 33.9337 32.5437 33.8784H28.4578L26.7133 40.903H21Z" stroke="#03C4DC" stroke-width="2.7" stroke-linecap="round" stroke-linejoin="round"/>
<path d="M44.2631 27.6602C46.0192 30.7744 43.8182 37.8692 36.8287 37.9746H32.6023L30.8227 44.9992H25.1094L25.3904 43.5474" stroke="#03C4DC" stroke-width="2.7" stroke-linecap="round" stroke-linejoin="round"/>
</svg>
