<svg width="65" height="65" viewBox="0 0 65 65" fill="none" xmlns="http://www.w3.org/2000/svg">
<circle cx="32.5" cy="32.5" r="32.5" fill="#D0FAFF"/>
<circle cx="32.5" cy="32.5" r="32" stroke="#03C4DC" stroke-opacity="0.2"/>
<path d="M19.0462 39.6437C19.1262 39.5144 19.2555 39.5144 19.434 39.6437C23.3958 41.9521 27.9048 43.1543 32.49 43.1247C35.671 43.104 38.8205 42.4935 41.7788 41.3242L42.1297 41.1857L42.4528 41.0379C42.5479 40.9862 42.6591 40.9726 42.7638 41.0001C42.8684 41.0276 42.9587 41.0939 43.0161 41.1857C43.1546 41.3703 43.1084 41.5458 42.8868 41.712C42.6652 41.8782 42.2312 42.1552 41.7788 42.4322C40.3359 43.2757 38.7819 43.9129 37.1621 44.325C34.0392 45.1726 30.7535 45.2228 27.6062 44.471C24.4589 43.7193 21.5505 42.1896 19.1477 40.0223C19.1056 39.9971 19.0702 39.9621 19.0444 39.9203C19.0187 39.8785 19.0035 39.8311 19 39.7822C19.0027 39.7327 19.0187 39.6849 19.0462 39.6437V39.6437ZM26.2759 32.8017C26.2452 31.7953 26.5293 30.8044 27.0885 29.9671C27.6485 29.1725 28.4237 28.5542 29.3229 28.185C30.348 27.782 31.4225 27.518 32.5177 27.4002C32.9517 27.3448 33.6534 27.2802 34.6321 27.2063V26.8C34.6952 26.0838 34.5777 25.3632 34.2905 24.7041C34.1105 24.4594 33.871 24.2648 33.5946 24.1388C33.3183 24.0127 33.0143 23.9594 32.7116 23.9838H32.5177C32.0223 24.0159 31.5472 24.1925 31.1512 24.4917C30.7589 24.7827 30.4917 25.2117 30.4032 25.692C30.3937 25.8228 30.3416 25.9469 30.2549 26.0453C30.1682 26.1436 30.0517 26.2109 29.9231 26.2368L27.1531 25.9044C26.8853 25.8398 26.7468 25.692 26.7468 25.4704C26.7433 25.4151 26.7433 25.3596 26.7468 25.3042C26.8488 24.6674 27.0831 24.0591 27.4346 23.5184C27.786 22.9777 28.2469 22.5166 28.7874 22.1649C29.8965 21.464 31.1699 21.0661 32.4808 21.0107H33.1271C34.6802 20.9186 36.2097 21.424 37.4022 22.4234C37.5597 22.5871 37.7076 22.7598 37.8454 22.9405C37.9746 23.1251 38.0854 23.2913 38.1685 23.4391C38.2635 23.6362 38.3348 23.8438 38.3809 24.0577C38.4455 24.3347 38.4917 24.5194 38.5286 24.621C38.5715 24.8433 38.5962 25.0687 38.6025 25.295C38.6025 25.6366 38.6025 25.8398 38.6025 25.9044V31.7214C38.5992 32.1077 38.6617 32.4918 38.7872 32.8571C38.8687 33.12 38.9836 33.3713 39.1288 33.605C39.2488 33.7528 39.4243 34.0021 39.6828 34.3345C39.7711 34.4453 39.8227 34.5808 39.8306 34.7223C39.8274 34.7892 39.8082 34.8544 39.7744 34.9123C39.7406 34.9702 39.6934 35.019 39.6366 35.0547L37.476 36.9014C37.3756 36.9711 37.2582 37.0123 37.1362 37.0204C37.0142 37.0286 36.8923 37.0034 36.7835 36.9475C36.5762 36.7743 36.3789 36.5893 36.1926 36.3935L35.8325 36.015C35.7586 35.9319 35.6478 35.7749 35.4816 35.5441L35.1492 35.0732C34.457 35.9215 33.5428 36.5608 32.5085 36.9198C31.8487 37.0928 31.1682 37.1736 30.4863 37.1599C29.9294 37.1801 29.3739 37.0893 28.8524 36.8927C28.3309 36.6961 27.8537 36.3978 27.4486 36.015C27.0429 35.5886 26.7294 35.0833 26.5277 34.5305C26.3259 33.9776 26.2402 33.3892 26.2759 32.8017V32.8017ZM30.4032 32.3216C30.3777 32.8603 30.5446 33.3905 30.8742 33.8174C31.0255 34.0021 31.2178 34.1492 31.4357 34.2469C31.6536 34.3446 31.8913 34.3904 32.1299 34.3807H32.333H32.5177C32.8569 34.2775 33.1697 34.1019 33.4344 33.866C33.699 33.63 33.9092 33.3393 34.0504 33.0141C34.2312 32.7259 34.3739 32.4155 34.4752 32.0908C34.547 31.803 34.5934 31.5095 34.6137 31.2136C34.6137 30.992 34.6137 30.6227 34.6137 30.1056V29.5054C33.9036 29.4831 33.1934 29.5482 32.4992 29.6993C31.8941 29.8137 31.35 30.1411 30.9655 30.6222C30.5809 31.1032 30.3815 31.7061 30.4032 32.3216ZM40.5138 40.05C40.5509 39.9769 40.6009 39.9112 40.6616 39.8561C41.0116 39.6122 41.398 39.4252 41.8065 39.3021C42.3882 39.1458 42.9864 39.059 43.5885 39.0435C43.7385 39.0201 43.8911 39.0201 44.041 39.0435C44.5019 39.0245 44.9572 39.1505 45.3429 39.4036C45.4143 39.5366 45.4463 39.6871 45.4352 39.8376V40.0038C45.4096 40.688 45.2562 41.3613 44.9828 41.989C44.7137 42.6985 44.2764 43.3322 43.7086 43.8357C43.6471 43.8903 43.5691 43.9227 43.487 43.928C43.4568 43.9362 43.4249 43.9362 43.3946 43.928C43.3023 43.8818 43.2746 43.7987 43.3208 43.6695C43.7877 42.7579 44.0998 41.7749 44.2441 40.7609C44.2578 40.6279 44.2252 40.4942 44.1518 40.3824C43.9948 40.1885 43.5424 40.0869 42.8037 40.0869C42.5359 40.0869 42.2128 40.0869 41.8804 40.1423L40.7816 40.2808C40.7351 40.2926 40.6864 40.2929 40.6397 40.2816C40.5931 40.2703 40.5498 40.2479 40.5138 40.2162C40.5057 40.2021 40.5015 40.1862 40.5015 40.17C40.5015 40.1538 40.5057 40.1379 40.5138 40.1238C40.5076 40.0996 40.5076 40.0742 40.5138 40.05Z" fill="#03C4DC"/>
</svg>
