<svg width="18" height="18" viewBox="0 0 18 18" fill="none" xmlns="http://www.w3.org/2000/svg">
<path d="M17.3202 11.2464L17.3203 11.2465C17.5631 11.6342 17.735 12.0664 17.8308 12.5308L17.8307 12.5309L17.8316 12.534C17.9062 12.8056 17.95 13.152 17.95 13.5147C17.95 15.9605 15.9605 17.95 13.5147 17.95C6.09037 17.95 0.05 11.9096 0.05 4.48526C0.05 2.03946 2.03946 0.05 4.48526 0.05C4.84757 0.05 5.19416 0.0937484 5.51559 0.180397L5.51556 0.180495L5.51869 0.181129C5.93335 0.264951 6.36549 0.436721 6.75351 0.679727L6.75355 0.679751C6.95443 0.8053 7.09076 1.01157 7.12875 1.2458C7.12875 1.24581 7.12875 1.24583 7.12875 1.24584L8.0099 6.73741C8.0099 6.73744 8.0099 6.73746 8.00991 6.73749C8.04838 6.98022 7.97671 7.22766 7.81376 7.41144L7.81372 7.41149C7.43223 7.84292 6.98476 8.18883 6.49099 8.43823L6.44409 8.46192L6.47008 8.50759C6.82447 9.13021 7.26327 9.70362 7.77951 10.2204L7.77955 10.2205C8.29636 10.7367 8.86978 11.1755 9.49239 11.5299L9.53806 11.5559L9.56176 11.509C9.81116 11.0152 10.1571 10.5678 10.5885 10.1863L10.5885 10.1862C10.7725 10.0231 11.0194 9.95001 11.2623 9.99004L11.2625 9.99008L16.7542 10.8712C16.9884 10.9092 17.1947 11.0456 17.3202 11.2464ZM7.81489 10.1851C7.31375 9.68341 6.88616 9.12819 6.53844 8.52629C6.53766 8.52669 6.53687 8.52709 6.53608 8.52749L6.51354 8.48286C6.51354 8.48286 6.51354 8.48286 6.51355 8.48286L6.55699 8.45813C6.55735 8.45876 6.55772 8.4594 6.55808 8.46004C7.04001 8.20959 7.47709 7.86767 7.85118 7.44461L7.81489 10.1851ZM5.57684 1.93815L5.57236 1.91027L5.54618 1.8997C5.41715 1.84762 5.28199 1.80718 5.13799 1.77716C4.90644 1.71678 4.70293 1.69194 4.48526 1.69194C2.94479 1.69194 1.69194 2.94479 1.69194 4.48526C1.69194 11.0043 6.9957 16.3081 13.5147 16.3081C15.0552 16.3081 16.3081 15.0552 16.3081 13.5147C16.3081 13.2978 16.2834 13.0942 16.2347 12.9111C16.198 12.7394 16.1542 12.59 16.0991 12.4538L16.0886 12.4276L16.0607 12.4232L11.4428 11.682L11.4151 11.6776L11.3969 11.6988C11.1026 12.0417 10.8996 12.4415 10.8042 12.874L10.8042 12.874C10.7519 13.1124 10.5958 13.3149 10.3788 13.4266L10.3788 13.4266C10.1624 13.5383 9.90576 13.5474 9.68175 13.4528C8.53837 12.9671 7.50778 12.2705 6.61865 11.3813C5.72949 10.4922 5.03285 9.46159 4.54717 8.31819C4.45204 8.09372 4.46164 7.8382 4.57337 7.62117C4.68508 7.40417 4.88763 7.24812 5.12596 7.19576L5.126 7.19575C5.5585 7.10035 5.95831 6.89744 6.30116 6.60308L6.32239 6.58485L6.31796 6.55722L5.57684 1.93815Z" fill="#5C5F62" stroke="white" stroke-width="0.1"/>
</svg>
