<svg width="18" height="18" viewBox="0 0 18 18" fill="none" xmlns="http://www.w3.org/2000/svg">
<path d="M15.8571 7.75714H10.2429V2.14286C10.2429 1.45677 9.68609 0.9 9 0.9C8.31391 0.9 7.75714 1.45677 7.75714 2.14286V7.75714H2.14286C1.45677 7.75714 0.9 8.31391 0.9 9C0.9 9.68609 1.45677 10.2429 2.14286 10.2429H7.75714V15.8571C7.75714 16.5432 8.31391 17.1 9 17.1C9.68609 17.1 10.2429 16.5432 10.2429 15.8571V10.2429H15.8571C16.5432 10.2429 17.1 9.68609 17.1 9C17.1 8.31391 16.5432 7.75714 15.8571 7.75714Z" fill="#5746EC" stroke="#5746EC" stroke-width="0.2"/>
</svg>
