<svg width="22" height="22" viewBox="0 0 22 22" fill="none" xmlns="http://www.w3.org/2000/svg">
<path d="M5 6H0V22H5V6Z" fill="white"/>
<path d="M16.6687 6C14 6 13.26 6.9127 12.6667 8.08696V6H8V22H12.6667V12.9565C12.6667 11.5652 12.6667 10.1739 15 10.1739C17.3333 10.1739 17.3333 11.5652 17.3333 12.9565V22H22V12.9565C22 8.78261 21.3333 6 16.6687 6Z" fill="white"/>
<path d="M2.5 5C3.88071 5 5 3.88071 5 2.5C5 1.11929 3.88071 0 2.5 0C1.11929 0 0 1.11929 0 2.5C0 3.88071 1.11929 5 2.5 5Z" fill="white"/>
</svg>
