<svg width="26" height="26" viewBox="0 0 26 26" fill="none" xmlns="http://www.w3.org/2000/svg">
<path d="M13 0.9C6.32477 0.9 0.9 6.32477 0.9 13C0.9 19.6752 6.32477 25.1 13 25.1C19.6752 25.1 25.1 19.6752 25.1 13C25.1 6.32477 19.6752 0.9 13 0.9ZM13 22.9C7.53523 22.9 3.1 18.4648 3.1 13C3.1 7.53523 7.53523 3.1 13 3.1C18.4648 3.1 22.9 7.53523 22.9 13C22.9 18.4648 18.4648 22.9 13 22.9Z" fill="#212121" stroke="#212121" stroke-width="0.2"/>
<path d="M11.2129 9.34395L11.2129 9.34395C11.0158 9.93523 10.4008 10.244 9.8286 10.0679C9.25557 9.89159 8.9257 9.27498 9.12278 8.68179C9.71879 6.75203 11.9106 5.50248 13.8821 5.99529C15.8724 6.4878 17.246 8.59738 16.8764 10.5902C16.5933 12.1869 15.2407 13.4595 13.6973 13.794L13.678 15.8923C13.678 15.8925 13.678 15.8926 13.678 15.8928C13.6778 16.5078 13.1931 16.9923 12.578 16.9923C11.9628 16.9923 11.478 16.5076 11.478 15.8923V15.8917L11.498 12.7723C11.498 12.7722 11.498 12.7721 11.498 12.772L11.498 12.7717L11.598 12.7723C11.598 12.4723 11.718 12.2123 11.938 12.0123C12.138 11.8323 12.438 11.7323 12.718 11.7723C13.658 11.8923 14.638 11.1523 14.798 10.2323L11.2129 9.34395ZM11.2129 9.34395L11.2133 9.34265C11.3443 8.93102 11.6649 8.57439 12.0672 8.34688C12.4694 8.11947 12.9435 8.02654 13.3745 8.12953L11.2129 9.34395Z" fill="#212121" stroke="#212121" stroke-width="0.2"/>
<path d="M11.4994 18.7775L11.4994 18.7775V18.7812V18.7814V18.7815V18.7816V18.7817V18.7819V18.782V18.7822V18.7823V18.7825V18.7826V18.7828V18.7829V18.7831V18.7832V18.7834V18.7836V18.7838V18.7839V18.7841V18.7843V18.7845V18.7847V18.7849V18.7851V18.7853V18.7855V18.7857V18.7859V18.7861V18.7863V18.7866V18.7868V18.787V18.7873V18.7875V18.7877V18.788V18.7882V18.7885V18.7887V18.789V18.7892V18.7895V18.7897V18.79V18.7903V18.7906V18.7908V18.7911V18.7914V18.7917V18.792V18.7922V18.7925V18.7928V18.7931V18.7934V18.7937V18.794V18.7944V18.7947V18.795V18.7953V18.7956V18.7959V18.7963V18.7966V18.7969V18.7973V18.7976V18.7979V18.7983V18.7986V18.799V18.7993V18.7997V18.8V18.8004V18.8008V18.8011V18.8015V18.8019V18.8022V18.8026V18.803V18.8034V18.8037V18.8041V18.8045V18.8049V18.8053V18.8057V18.8061V18.8065V18.8069V18.8073V18.8077V18.8081V18.8085V18.8089V18.8093V18.8097V18.8101V18.8106V18.811V18.8114V18.8118V18.8123V18.8127V18.8131V18.8136V18.814V18.8144V18.8149V18.8153V18.8158V18.8162V18.8167V18.8171V18.8176V18.818V18.8185V18.8189V18.8194V18.8199V18.8203V18.8208V18.8212V18.8217V18.8222V18.8227V18.8231V18.8236V18.8241V18.8246V18.8251V18.8255V18.826V18.8265V18.827V18.8275V18.828V18.8285V18.829V18.8295V18.83V18.8305V18.831V18.8315V18.832V18.8325V18.833V18.8335V18.834V18.8345V18.835V18.8356V18.8361V18.8366V18.8371V18.8376V18.8382V18.8387V18.8392V18.8397V18.8403V18.8408V18.8413V18.8418V18.8424V18.8429V18.8434V18.844V18.8445V18.8451V18.8456V18.8461V18.8467V18.8472V18.8478V18.8483V18.8489V18.8494V18.85V18.8505V18.8511V18.8516V18.8522V18.8527V18.8533V18.8538V18.8544V18.8549V18.8555V18.856V18.8566V18.8572V18.8577V18.8583V18.8589V18.8594V18.86V18.8606V18.8611V18.8617V18.8623V18.8628V18.8634V18.864V18.8645V18.8651V18.8657V18.8662V18.8668V18.8674V18.868V18.8685V18.8691V18.8697V18.8703V18.8708V18.8714V18.872V18.8726V18.8732V18.8737V18.8743V18.8749V18.8755V18.8761V18.8766V18.8772V18.8778V18.8784V18.879V18.8795V18.8801V18.8807V18.8813V18.8819V18.8825V18.8831V18.8836V18.8842V18.8848V18.8854V18.886V18.8866V18.8871V18.8877V18.8883V18.8889V18.8895V18.8901V18.8907V18.8912V18.8918V18.8924V18.893V18.8936V18.8942V18.8948V18.8954V18.8959V18.8965V18.8971V18.8977V18.8983V18.8989V18.8994V18.9V18.9006V18.9012V18.9018V18.9024V18.9029V18.9035V18.9041V18.9047V18.9053V18.9059V18.9064V18.907V18.9076V18.9082V18.9088V18.9093V18.9099V18.9105V18.9111V18.9117V18.9122V18.9128V18.9134V18.914V18.9145V18.9151V18.9157V18.9163V18.9168V18.9174V18.918V18.9185V18.9191V18.9197V18.9202V18.9208V18.9214V18.9219V18.9225V18.9231V18.9236V18.9242V18.9248V18.9253V18.9259V18.9265V18.927V18.9276V18.9281V18.9287V18.9292V18.9298V18.9303V18.9309V18.9314V18.932V18.9325V18.9331V18.9336V18.9342V18.9347V18.9353V18.9358V18.9364V18.9369V18.9374V18.938V18.9385V18.9391V18.9396V18.9401V18.9407V18.9412V18.9417V18.9422V18.9428V18.9433V18.9438V18.9443V18.9449V18.9454V18.9459V18.9464V18.9469V18.9475V18.948V18.9485V18.949V18.9495V18.95V18.9505V18.951V18.9515V18.952V18.9525V18.953V18.9535V18.954V18.9545V18.955V18.9555V18.956V18.9565V18.957V18.9574V18.9579V18.9584V18.9589V18.9594V18.9598V18.9603V18.9608V18.9612V18.9617V18.9622V18.9626V18.9631V18.9636V18.964V18.9645V18.9649V18.9654V18.9658V18.9663V18.9667V18.9672V18.9676V18.9681V18.9685V18.9689V18.9694V18.9698V18.9702V18.9707V18.9711V18.9715V18.9719V18.9724V18.9728V18.9732V18.9736V18.974V18.9744V18.9748V18.9752V18.9756V18.976V18.9764V18.9768V18.9772V18.9776V18.978V18.9784V18.9788V18.9791V18.9795V18.9799V18.9803V18.9806V18.981V18.9814V18.9817V18.9821V18.9825V18.9828V18.9832V18.9835V18.9839V18.9842V18.9846V18.9849V18.9852V18.9856V18.9859V18.9862V18.9866V18.9869V18.9872V18.9875V18.9878V18.9881V18.9885V18.9888V18.9891V18.9894V18.9897V18.99V18.9902V18.9905V18.9908V18.9911V18.9914V18.9917V18.9919V18.9922V18.9925V18.9928V18.993V18.9933V18.9935V18.9938V18.994V18.9943V18.9945V18.9948V18.995V18.9952V18.9955V18.9957V18.9959V18.9962V18.9964V18.9966V18.9968V18.997V18.9972V18.9974V18.9976V18.9978V18.998V18.9982V18.9984V18.9986V18.9987V18.9989V18.9991V18.9993V18.9994V18.9996V18.9997V18.9999V19V19.0002V19.0003V19.0005V19.0006V19.0008V19.0009V19.001V19.0011V19.0012C11.4994 19.6076 11.9954 19.9997 12.5757 20.0212L12.5757 20.0212H12.5794H12.5994C13.2025 20.0212 13.6777 19.4688 13.6993 18.8849L13.6994 18.885V18.8812V18.8811V18.881V18.8809V18.8808V18.8806V18.8805V18.8804V18.8802V18.8801V18.88V18.8798V18.8797V18.8795V18.8794V18.8792V18.8791V18.8789V18.8788V18.8786V18.8785V18.8783V18.8781V18.878V18.8778V18.8776V18.8775V18.8773V18.8771V18.8769V18.8767V18.8766V18.8764V18.8762V18.876V18.8758V18.8756V18.8754V18.8752V18.875V18.8748V18.8746V18.8744V18.8742V18.874V18.8738V18.8736V18.8734V18.8732V18.8729V18.8727V18.8725V18.8723V18.872V18.8718V18.8716V18.8714V18.8711V18.8709V18.8707V18.8704V18.8702V18.8699V18.8697V18.8695V18.8692V18.869V18.8687V18.8685V18.8682V18.8679V18.8677V18.8674V18.8672V18.8669V18.8667V18.8664V18.8661V18.8659V18.8656V18.8653V18.865V18.8648V18.8645V18.8642V18.8639V18.8637V18.8634V18.8631V18.8628V18.8625V18.8622V18.8619V18.8617V18.8614V18.8611V18.8608V18.8605V18.8602V18.8599V18.8596V18.8593V18.859V18.8587V18.8584V18.8581V18.8577V18.8574V18.8571V18.8568V18.8565V18.8562V18.8559V18.8555V18.8552V18.8549V18.8546V18.8543V18.8539V18.8536V18.8533V18.853V18.8526V18.8523V18.852V18.8516V18.8513V18.851V18.8506V18.8503V18.8499V18.8496V18.8493V18.8489V18.8486V18.8482V18.8479V18.8475V18.8472V18.8469V18.8465V18.8462V18.8458V18.8454V18.8451V18.8447V18.8444V18.844V18.8437V18.8433V18.843V18.8426V18.8422V18.8419V18.8415V18.8411V18.8408V18.8404V18.84V18.8397V18.8393V18.8389V18.8386V18.8382V18.8378V18.8374V18.8371V18.8367V18.8363V18.836V18.8356V18.8352V18.8348V18.8344V18.8341V18.8337V18.8333V18.8329V18.8325V18.8322V18.8318V18.8314V18.831V18.8306V18.8302V18.8298V18.8294V18.8291V18.8287V18.8283V18.8279V18.8275V18.8271V18.8267V18.8263V18.8259V18.8255V18.8251V18.8247V18.8244V18.824V18.8236V18.8232V18.8228V18.8224V18.822V18.8216V18.8212V18.8208V18.8204V18.82V18.8196V18.8192V18.8188V18.8184V18.818V18.8176V18.8172V18.8168V18.8163V18.8159V18.8155V18.8151V18.8147V18.8143V18.8139V18.8135V18.8131V18.8127V18.8123V18.8119V18.8115V18.8111V18.8107V18.8103V18.8098V18.8094V18.809V18.8086V18.8082V18.8078V18.8074V18.807V18.8066V18.8062V18.8058V18.8053V18.8049V18.8045V18.8041V18.8037V18.8033V18.8029V18.8025V18.8021V18.8017V18.8012V18.8008V18.8004V18.8V18.7996V18.7992V18.7988V18.7984V18.798V18.7976V18.7971V18.7967V18.7963V18.7959V18.7955V18.7951V18.7947V18.7943V18.7939V18.7935V18.7931V18.7926V18.7922V18.7918V18.7914V18.791V18.7906V18.7902V18.7898V18.7894V18.789V18.7886V18.7882V18.7878V18.7874V18.787V18.7866V18.7861V18.7857V18.7853V18.7849V18.7845V18.7841V18.7837V18.7833V18.7829V18.7825V18.7821V18.7817V18.7813V18.7809V18.7805V18.7801V18.7797V18.7793V18.7789V18.7785V18.7781V18.7778V18.7774V18.777V18.7766V18.7762V18.7758V18.7754V18.775V18.7746V18.7742V18.7738V18.7734V18.773V18.7727V18.7723V18.7719V18.7715V18.7711V18.7707V18.7703V18.77V18.7696V18.7692V18.7688V18.7684V18.7681V18.7677V18.7673V18.7669V18.7665V18.7662V18.7658V18.7654V18.765V18.7647V18.7643V18.7639V18.7636V18.7632V18.7628V18.7625V18.7621V18.7617V18.7614V18.761V18.7606V18.7603V18.7599V18.7595V18.7592V18.7588V18.7585V18.7581V18.7578V18.7574V18.7571V18.7567V18.7563V18.756V18.7556V18.7553V18.755V18.7546V18.7543V18.7539V18.7536V18.7532V18.7529V18.7525V18.7522V18.7519V18.7515V18.7512V18.7509V18.7505V18.7502V18.7499V18.7495V18.7492V18.7489V18.7486V18.7482V18.7479V18.7476V18.7473V18.747V18.7466V18.7463V18.746V18.7457V18.7454V18.7451V18.7448V18.7444V18.7441V18.7438V18.7435V18.7432V18.7429V18.7426V18.7423V18.742V18.7417V18.7414V18.7411V18.7408V18.7406V18.7403V18.74V18.7397V18.7394V18.7391V18.7388V18.7386V18.7383V18.738V18.7377V18.7375V18.7372V18.7369V18.7366V18.7364V18.7361V18.7358V18.7356V18.7353V18.7351V18.7348V18.7345V18.7343V18.734V18.7338V18.7335V18.7333V18.733V18.7328V18.7326V18.7323V18.7321V18.7318V18.7316V18.7314V18.7311V18.7309V18.7307V18.7305V18.7302V18.73V18.7298V18.7296V18.7293V18.7291V18.7289V18.7287V18.7285V18.7283V18.7281V18.7279V18.7277V18.7275V18.7273V18.7271V18.7269V18.7267V18.7265V18.7263V18.7261V18.7259V18.7258V18.7256V18.7254V18.7252V18.725V18.7249V18.7247V18.7245V18.7244V18.7242V18.724V18.7239V18.7237V18.7236V18.7234V18.7233V18.7231V18.723V18.7228V18.7227V18.7225V18.7224V18.7223V18.7221V18.722V18.7219V18.7217V18.7216V18.7215V18.7214V18.7212H13.6994L13.6993 18.7175C13.6773 18.1232 13.2125 17.6812 12.6194 17.6812H12.5994C12.0009 17.6812 11.5212 18.1886 11.4994 18.7775Z" fill="#212121" stroke="#212121" stroke-width="0.2"/>
</svg>
