<svg width="24" height="24" viewBox="0 0 24 24" fill="none" xmlns="http://www.w3.org/2000/svg">
<path d="M8.4 12C6.8087 12 5.28258 11.3679 4.15736 10.2426C3.03214 9.11742 2.4 7.5913 2.4 6C2.4 4.4087 3.03214 2.88258 4.15736 1.75736C5.28258 0.632141 6.8087 0 8.4 0C9.9913 0 11.5174 0.632141 12.6426 1.75736C13.7679 2.88258 14.4 4.4087 14.4 6C14.4 7.5913 13.7679 9.11742 12.6426 10.2426C11.5174 11.3679 9.9913 12 8.4 12ZM8.4 9.6C8.87276 9.6 9.34089 9.50688 9.77766 9.32597C10.2144 9.14505 10.6113 8.87988 10.9456 8.54559C11.2799 8.21129 11.5451 7.81443 11.726 7.37766C11.9069 6.94089 12 6.47276 12 6C12 5.52724 11.9069 5.05911 11.726 4.62234C11.5451 4.18557 11.2799 3.78871 10.9456 3.45442C10.6113 3.12012 10.2144 2.85495 9.77766 2.67403C9.34089 2.49312 8.87276 2.4 8.4 2.4C7.44522 2.4 6.52955 2.77928 5.85442 3.45442C5.17928 4.12955 4.8 5.04522 4.8 6C4.8 6.95478 5.17928 7.87045 5.85442 8.54559C6.52955 9.22072 7.44522 9.6 8.4 9.6V9.6ZM16.8 22.8C16.8 23.1183 16.6736 23.4235 16.4485 23.6485C16.2235 23.8736 15.9183 24 15.6 24C15.2817 24 14.9765 23.8736 14.7515 23.6485C14.5264 23.4235 14.4 23.1183 14.4 22.8V20.4C14.4 19.4452 14.0207 18.5295 13.3456 17.8544C12.6705 17.1793 11.7548 16.8 10.8 16.8H6C5.04522 16.8 4.12955 17.1793 3.45442 17.8544C2.77928 18.5295 2.4 19.4452 2.4 20.4V22.8C2.4 23.1183 2.27357 23.4235 2.04853 23.6485C1.82348 23.8736 1.51826 24 1.2 24C0.88174 24 0.576515 23.8736 0.351472 23.6485C0.126428 23.4235 0 23.1183 0 22.8V20.4C0 18.8087 0.632141 17.2826 1.75736 16.1574C2.88258 15.0321 4.4087 14.4 6 14.4H10.8C12.3913 14.4 13.9174 15.0321 15.0426 16.1574C16.1679 17.2826 16.8 18.8087 16.8 20.4V22.8ZM18 16.8C17.6817 16.8 17.3765 16.6736 17.1515 16.4485C16.9264 16.2235 16.8 15.9183 16.8 15.6C16.8 15.2817 16.9264 14.9765 17.1515 14.7515C17.3765 14.5264 17.6817 14.4 18 14.4C19.5913 14.4 21.1174 15.0321 22.2426 16.1574C23.3679 17.2826 24 18.8087 24 20.4V22.8C24 23.1183 23.8736 23.4235 23.6485 23.6485C23.4235 23.8736 23.1183 24 22.8 24C22.4817 24 22.1765 23.8736 21.9515 23.6485C21.7264 23.4235 21.6 23.1183 21.6 22.8V20.4C21.6 19.4452 21.2207 18.5295 20.5456 17.8544C19.8705 17.1793 18.9548 16.8 18 16.8V16.8ZM15.6 12C15.2817 12 14.9765 11.8736 14.7515 11.6485C14.5264 11.4235 14.4 11.1183 14.4 10.8C14.4 10.4817 14.5264 10.1765 14.7515 9.95147C14.9765 9.72643 15.2817 9.6 15.6 9.6C16.5548 9.6 17.4705 9.22072 18.1456 8.54559C18.8207 7.87045 19.2 6.95478 19.2 6C19.2 5.04522 18.8207 4.12955 18.1456 3.45442C17.4705 2.77928 16.5548 2.4 15.6 2.4C15.2817 2.4 14.9765 2.27357 14.7515 2.04853C14.5264 1.82348 14.4 1.51826 14.4 1.2C14.4 0.88174 14.5264 0.576515 14.7515 0.351472C14.9765 0.126428 15.2817 0 15.6 0C17.1913 0 18.7174 0.632141 19.8426 1.75736C20.9679 2.88258 21.6 4.4087 21.6 6C21.6 7.5913 20.9679 9.11742 19.8426 10.2426C18.7174 11.3679 17.1913 12 15.6 12Z" fill="#212121"/>
</svg>
