<svg width="21" height="24" viewBox="0 0 21 24" fill="none" xmlns="http://www.w3.org/2000/svg">
<path d="M10.0333 23.9099C9.56667 23.6696 0 18.7434 0 12.015V3.60451C0 3.00375 0.35 2.52315 0.933333 2.403L10.2667 0C10.5 0 10.6167 0 10.85 0L20.1833 2.403C20.65 2.52315 21 3.00375 21 3.60451V12.015C21 18.7434 11.4333 23.6696 10.9667 23.9099C10.6167 24.03 10.3833 24.03 10.0333 23.9099ZM2.33333 4.56571V12.015C2.33333 16.1001 7.81667 19.9449 10.5 21.5069C13.1833 19.9449 18.6667 16.1001 18.6667 12.015V4.56571L10.5 2.403L2.33333 4.56571Z" fill="#212121"/>
</svg>
