<svg width="26" height="26" viewBox="0 0 26 26" fill="none" xmlns="http://www.w3.org/2000/svg">
<path d="M12.6022 13.4977L12.6024 13.4978C12.7271 13.558 12.8616 13.5884 12.997 13.5884C13.1325 13.5884 13.267 13.558 13.3916 13.4978L13.3919 13.4977L24.7244 8.00881C24.7244 8.00881 24.7244 8.00881 24.7244 8.0088C25.0447 7.8537 25.2459 7.52617 25.2459 7.17C25.2459 6.81383 25.0447 6.48631 24.7244 6.3312C24.7244 6.33119 24.7244 6.33119 24.7244 6.33118L13.392 0.840779C13.1425 0.719716 12.8518 0.719786 12.6022 0.840716L12.6022 0.840726L1.27131 6.33091C0.950866 6.48608 0.75 6.81372 0.75 7.16973L0.75 7.16998C0.75036 7.52577 0.951098 7.85334 1.27154 8.00852C1.27155 8.00853 1.27156 8.00854 1.27158 8.00854L12.6022 13.4977ZM1.38053 7.78354C1.14824 7.67105 1.00027 7.43201 1 7.16973L1.38053 7.78354ZM12.997 11.6294L3.79211 7.16996L12.997 2.7093L22.2037 7.16996L12.997 11.6294Z" fill="#212121" stroke="#212121" stroke-width="0.5"/>
<path d="M12.6022 19.3303L12.6024 19.3304C12.7271 19.3906 12.8616 19.421 12.997 19.421C13.1324 19.421 13.2669 19.3906 13.3916 19.3304L13.3919 19.3303L24.7249 13.8412L24.725 13.8411C25.1827 13.6191 25.3725 13.0656 25.1584 12.6054L25.1584 12.6053C24.9428 12.1425 24.3962 11.941 23.9352 12.1637L23.9349 12.1638L12.9973 17.4617L2.0615 12.1638L2.06138 12.1638C1.6007 11.9409 1.05388 12.1427 0.838116 12.6052C0.623426 13.0654 0.813897 13.6192 1.27141 13.8411L1.27151 13.8412L12.6022 19.3303Z" fill="#212121" stroke="#212121" stroke-width="0.5"/>
<path d="M12.6021 25.1593L12.6022 25.1593C12.7268 25.2197 12.8617 25.25 12.997 25.25C13.1324 25.25 13.2669 25.2197 13.3916 25.1595L13.3919 25.1593L24.7249 19.6697L24.725 19.6696C25.1827 19.4476 25.3726 18.8938 25.1584 18.4338L25.1583 18.4338C24.9428 17.9714 24.3963 17.7695 23.9352 17.9922L23.9349 17.9923L12.9973 23.2908L2.06151 17.9923L2.06138 17.9923C1.6007 17.7694 1.05388 17.9711 0.838116 18.4337C0.623426 18.8939 0.813897 19.4477 1.27141 19.6696L1.2715 19.6697L12.6021 25.1593Z" fill="#212121" stroke="#212121" stroke-width="0.5"/>
</svg>
