<svg width="24" height="24" viewBox="0 0 24 24" fill="none" xmlns="http://www.w3.org/2000/svg">
<path d="M7.41485 2.55896L7.41933 2.58684L8.40749 8.74561L8.41192 8.77323L8.39069 8.79146C7.93557 9.18222 7.40496 9.45147 6.83108 9.57806L6.83104 9.57807C6.50841 9.64895 6.23423 9.86019 6.08301 10.1539C5.93178 10.4477 5.91877 10.7935 6.04753 11.0974C6.69595 12.6239 7.62603 13.9999 8.81308 15.1869C10.0001 16.374 11.3761 17.304 12.9026 17.9525C13.2058 18.0805 13.5531 18.0681 13.846 17.917L13.8461 17.917C14.1398 17.7658 14.351 17.4916 14.4219 17.1689L14.4219 17.1689C14.5485 16.595 14.8178 16.0644 15.2085 15.6093L15.2268 15.5881L15.2544 15.5925L21.4116 16.5807L21.4395 16.5851L21.4501 16.6113C21.5231 16.7919 21.5812 16.9902 21.63 17.2187C21.6301 17.2191 21.6302 17.2195 21.6303 17.2199L21.5814 17.2303L7.41485 2.55896ZM7.41485 2.55896L7.38867 2.54839M7.41485 2.55896L7.38867 2.54839M7.38867 2.54839C7.21749 2.4793 7.0381 2.42563 6.84685 2.38578L7.38867 2.54839ZM23.1078 14.9864L23.1078 14.9865C23.4327 15.5052 23.6626 16.0833 23.7907 16.7044L23.7906 16.7044L23.7915 16.7075C23.8914 17.0714 23.95 17.5349 23.95 18.0197C23.95 21.2899 21.2899 23.95 18.0197 23.95C8.11129 23.95 0.05 15.8887 0.05 5.98034C0.05 2.71007 2.71007 0.05 5.98034 0.05C6.46476 0.05 6.92834 0.108491 7.35845 0.224437L7.35843 0.224535L7.36156 0.225169C7.91646 0.337342 8.49452 0.56714 9.01353 0.892177L9.01357 0.892201C9.28553 1.06218 9.47006 1.34143 9.52146 1.65846L10.6963 8.9806C10.7484 9.30917 10.6514 9.64416 10.4308 9.89298L10.4308 9.89303C9.92076 10.4698 9.32246 10.9323 8.66217 11.2659L8.61527 11.2895L8.64126 11.3352C9.11303 12.164 9.69717 12.9274 10.3845 13.6155L10.3845 13.6155C11.0726 14.3028 11.8359 14.8869 12.6648 15.3587L12.7104 15.3847L12.7341 15.3378C13.0676 14.6775 13.5302 14.0792 14.107 13.5692L14.107 13.5692C14.356 13.3484 14.6902 13.2494 15.0191 13.3036L15.0193 13.3036L22.3415 14.4785C22.6586 14.5299 22.9378 14.7145 23.1078 14.9864Z" fill="#212121" stroke="white" stroke-width="0.1"/>
</svg>
