<svg width="24" height="28" viewBox="0 0 24 28" fill="none" xmlns="http://www.w3.org/2000/svg">
<path d="M14.9824 2.2493C14.7862 2.05743 14.5226 1.95 14.2482 1.95H5.24964C4.38199 1.95 3.54528 2.28685 2.92477 2.89367C2.30347 3.50126 1.95 4.33039 1.95 5.2V22.8C1.95 23.6696 2.30347 24.4987 2.92477 25.1063C3.54528 25.7132 4.38199 26.05 5.24964 26.05H18.7475C19.6152 26.05 20.4519 25.7132 21.0724 25.1063C21.6937 24.4987 22.0471 23.6696 22.0471 22.8V9.6C22.0471 9.31746 21.9333 9.04684 21.7313 8.8493L14.9824 2.2493Z" stroke="#212121" stroke-width="2.1" stroke-linecap="round" stroke-linejoin="round"/>
<mask id="path-2-outside-1_12_811" maskUnits="userSpaceOnUse" x="11.2505" y="0" width="12" height="12" fill="black">
<rect fill="white" x="11.2505" width="12" height="12"/>
<path d="M14.2505 3V9.6H20.9994"/>
</mask>
<path d="M16.3505 3C16.3505 1.8402 15.4103 0.9 14.2505 0.9C13.0907 0.9 12.1505 1.8402 12.1505 3H16.3505ZM14.2505 9.6H12.1505C12.1505 10.7598 13.0907 11.7 14.2505 11.7V9.6ZM20.9994 11.7C22.1592 11.7 23.0994 10.7598 23.0994 9.6C23.0994 8.4402 22.1592 7.5 20.9994 7.5V11.7ZM12.1505 3V9.6H16.3505V3H12.1505ZM14.2505 11.7H20.9994V7.5H14.2505V11.7Z" fill="#212121" mask="url(#path-2-outside-1_12_811)"/>
</svg>
