<svg width="18" height="22" viewBox="0 0 18 22" fill="none" xmlns="http://www.w3.org/2000/svg">
<path d="M16 8.6C16 6.84957 15.2625 5.17084 13.9497 3.9331C12.637 2.69536 10.8565 2 9 2C7.14348 2 5.36301 2.69536 4.05025 3.9331C2.7375 5.17084 2 6.84957 2 8.6C2 14.6 9 20 9 20C9 20 16 14.6 16 8.6Z" stroke="#5746EC" stroke-width="2.2" stroke-linecap="round" stroke-linejoin="round"/>
<path d="M8.99944 11.5972C10.7567 11.5972 12.1813 10.254 12.1813 8.59717C12.1813 6.94031 10.7567 5.59717 8.99944 5.59717C7.24217 5.59717 5.81763 6.94031 5.81763 8.59717C5.81763 10.254 7.24217 11.5972 8.99944 11.5972Z" stroke="#5746EC" stroke-width="2.2" stroke-linecap="round" stroke-linejoin="round"/>
</svg>
