<svg width="13" height="20" viewBox="0 0 13 20" fill="none" xmlns="http://www.w3.org/2000/svg">
<path d="M8.27775 9.9962L1.22415 16.7302C1.02992 16.9152 0.923079 17.1625 0.923079 17.4262C0.923079 17.6901 1.02992 17.9373 1.22415 18.1225L1.84222 18.7123C2.03614 18.8979 2.29535 19 2.57159 19C2.84782 19 3.10673 18.8979 3.3008 18.7123L11.6992 10.6948C11.8941 10.509 12.0008 10.2606 12 9.99663C12.0008 9.73146 11.8942 9.48341 11.6992 9.29741L3.30862 1.28771C3.11455 1.10215 2.85564 1 2.57925 1C2.30302 1 2.04411 1.10215 1.84988 1.28771L1.23196 1.87747C0.829876 2.26132 0.829876 2.8862 1.23196 3.2699L8.27775 9.9962Z" fill="#666666" stroke="white" stroke-width="0.6"/>
</svg>
