<svg width="27" height="27" viewBox="0 0 27 27" fill="none" xmlns="http://www.w3.org/2000/svg">
<path d="M16.9107 1.21241C18.5215 -0.404138 21.1333 -0.404138 22.7443 1.21242C24.3552 2.82897 24.3552 5.44991 22.7443 7.06645L20.5988 9.21948L20.7436 9.36477C22.0614 10.6873 22.0614 12.8317 20.7436 14.1543L18.3148 16.5915C17.9853 16.9222 17.451 16.9222 17.1215 16.5915C16.7921 16.2608 16.7921 15.7249 17.1215 15.3942L19.5504 12.9569C20.2093 12.2956 20.2093 11.2234 19.5504 10.5621L19.4056 10.4169L8.1901 21.6715C8.08197 21.7799 7.94648 21.857 7.79814 21.8942L1.04837 23.5876C0.749627 23.6624 0.433907 23.5681 0.224681 23.3413C0.015455 23.1146 -0.0540677 22.7915 0.0433146 22.4984L2.15262 16.1484C2.19404 16.0238 2.26382 15.9103 2.35644 15.8175L16.9107 1.21241Z" fill="#666666"/>
<path d="M2.14103 25.1449C2.11196 25.1235 2.08317 25.1024 2.05469 25.0812L4.33064 24.5102C5.23845 24.9681 6.33532 25.3067 7.59415 25.3067C8.4497 25.3067 9.30507 25.0062 10.1824 24.5048C11.0635 24.0013 11.9105 23.3291 12.7572 22.6389L12.9768 22.4594C13.7275 21.8457 14.499 21.2151 15.2339 20.7806C16.03 20.3099 16.9944 19.9387 17.9856 20.2704C19.3717 20.7341 19.8096 22.0142 20.2145 23.3706C20.307 23.6806 20.4658 23.9868 20.6538 24.1988C20.8408 24.4096 20.9909 24.4602 21.0937 24.4602C21.4091 24.4602 21.863 24.2879 22.4393 23.9468C22.8033 23.7314 23.1195 23.5121 23.4315 23.2956C23.6222 23.1633 23.8118 23.0319 24.0094 22.9032C24.5459 22.5542 25.0086 22.3212 25.3442 22.1736C25.5121 22.0997 25.6486 22.0471 25.7468 22.0117C25.7959 21.9941 25.8356 21.9807 25.8649 21.9712L25.9011 21.9597L25.9132 21.9561L25.9176 21.9548L25.9196 21.9543L26.156 22.7669C25.9211 21.9538 25.9198 21.9541 25.9196 21.9543C26.3671 21.8241 26.8367 22.0821 26.9663 22.5312C27.0958 22.9791 26.84 23.4473 26.3948 23.579L26.3832 23.5826C26.3705 23.5868 26.3477 23.5943 26.316 23.6058C26.2522 23.6286 26.1521 23.6671 26.0219 23.7243C25.761 23.8391 25.38 24.0296 24.9277 24.3239C24.8081 24.4018 24.6554 24.5071 24.4829 24.6262C24.1321 24.8683 23.6991 25.167 23.2965 25.4055C22.6853 25.7672 21.8939 26.1536 21.0937 26.1536C20.3528 26.1536 19.779 25.7595 19.3934 25.3247C19.0085 24.8909 18.7455 24.3505 18.598 23.8566C18.155 22.3725 17.8994 22.0264 17.452 21.8767C17.1775 21.7849 16.771 21.8371 16.0906 22.2394C15.4722 22.6052 14.8014 23.1528 14.0188 23.7919L13.8213 23.9531C12.9806 24.6386 12.0347 25.395 11.0174 25.9763C9.99638 26.5598 8.84792 27.0001 7.59415 27.0001C5.25239 27.0001 3.39433 26.0594 2.14103 25.1449Z" fill="#666666"/>
</svg>
